<svg width="259" height="10" viewBox="0 0 259 10" fill="none" xmlns="http://www.w3.org/2000/svg">
<path fill-rule="evenodd" clip-rule="evenodd" d="M256.024 0.142822H3.076C2.42786 0.142822 1.80624 0.412564 1.3479 0.89271C0.889587 1.37286 0.632141 2.02406 0.632141 2.70309V7.33708C0.632141 8.01611 0.889587 8.66734 1.3479 9.14748C1.80624 9.62763 2.42786 9.89737 3.076 9.89737H256.024C256.673 9.89737 257.294 9.62763 257.752 9.14748C258.211 8.66734 258.468 8.01611 258.468 7.33708V2.70309C258.468 2.02406 258.211 1.37286 257.752 0.89271C257.294 0.412564 256.673 0.142822 256.024 0.142822Z" fill="url(#paint0_linear)"/>
<defs>
<linearGradient id="paint0_linear" x1="215.675" y1="-5.24996" x2="4.54389" y2="8.50653" gradientUnits="userSpaceOnUse">
<stop stop-color="#F5C8E9"/>
<stop offset="1" stop-color="#ECA2D7"/>
</linearGradient>
</defs>
</svg>
