<svg width="193" height="287" viewBox="0 0 193 287" fill="none" xmlns="http://www.w3.org/2000/svg">
<path fill-rule="evenodd" clip-rule="evenodd" d="M59.8794 252.105L55.8708 265.624L39.239 261.645L40.8701 244.453L59.8794 252.105Z" fill="#F77F89"/>
<path fill-rule="evenodd" clip-rule="evenodd" d="M56.2026 264.379L39.6926 259.444C39.6926 259.444 12.8374 261.315 2.98442 258.928C0.413357 262.259 -0.399429 264.142 1.32567 267.177C2.08316 268.527 28.1587 277.152 28.1587 277.152L34.3458 276.277L51.8125 281.067L56.2026 264.379Z" fill="#6E499F"/>
<path fill-rule="evenodd" clip-rule="evenodd" d="M54.6155 279.538L37.652 274.655C37.4356 274.59 37.209 274.569 36.9852 274.596C36.7613 274.622 36.5446 274.694 36.3474 274.808C36.1503 274.922 35.9765 275.076 35.836 275.26C35.6955 275.445 35.5911 275.656 35.5288 275.883L34.611 279.359C34.5535 279.587 34.5397 279.825 34.5704 280.06C34.601 280.294 34.6755 280.519 34.7895 280.723C34.9036 280.927 35.0549 281.106 35.2349 281.248C35.4149 281.391 35.62 281.495 35.8384 281.554L52.8019 286.437C53.0183 286.503 53.2449 286.523 53.4687 286.497C53.6926 286.47 53.9093 286.398 54.1065 286.284C54.3036 286.17 54.4774 286.016 54.6179 285.832C54.7584 285.647 54.8628 285.436 54.9251 285.209L55.8429 281.734C55.9004 281.505 55.9142 281.267 55.8835 281.033C55.8529 280.798 55.7784 280.573 55.6644 280.369C55.5503 280.165 55.399 279.987 55.219 279.844C55.039 279.701 54.8339 279.597 54.6155 279.538Z" fill="#3C1B09"/>
<path fill-rule="evenodd" clip-rule="evenodd" d="M183.064 90.9984C216.554 164.285 148.96 166.26 125.24 165.895C101.52 165.53 95.2774 163.659 88.858 162.032C86.8067 168.542 62.2185 252.858 62.2185 252.858L40.6271 246.023C40.6271 246.023 57.1317 138.908 60.8583 131.673C71.0928 111.782 131.632 110.704 139.29 111.185C146.947 111.666 178.818 81.7072 183.064 90.9984Z" fill="url(#paint0_linear)"/>
<path d="M180.974 101.014C203.914 160.995 105.528 157.38 84.0087 150.51C80.7908 160.155 54.1512 249.8 54.1512 249.8" stroke="#F3AC96" stroke-width="2" stroke-linecap="round" stroke-linejoin="round"/>
<path d="M99.1587 164.233C95.6891 163.698 92.2503 162.963 88.8579 162.032C88.0064 164.731 83.2789 180.817 78.0428 198.716" stroke="#F3A086" stroke-width="2" stroke-linecap="round" stroke-linejoin="round"/>
<path d="M41.6609 239.396L64.0762 246.492" stroke="#F3AC96" stroke-width="2" stroke-linecap="round" stroke-linejoin="round"/>
<path d="M56.7222 149.45C58.5247 140.026 60.0397 133.307 60.858 131.673C70.4787 112.987 124.532 110.901 137.354 111.121" stroke="#F3AC96" stroke-width="2" stroke-linecap="round" stroke-linejoin="round"/>
<path fill-rule="evenodd" clip-rule="evenodd" d="M141.152 0.664551C177.883 0.710891 190.157 91.0274 186.32 97.2195C183.506 101.761 150.187 115.113 138.769 111.011C134.739 109.563 124.25 87.0016 118.312 64.2371C111.981 58.7922 99.9989 48.4815 98.0471 46.4947C98.6 42.133 108.226 24.5586 118.195 16.7735C121.64 8.53075 128.032 0.664551 141.152 0.664551Z" fill="url(#paint1_linear)"/>
<path d="M175.732 93.6687C176.456 82.466 166.238 40.847 158.591 28.4626" stroke="#B9B1EE" stroke-width="2" stroke-linecap="round" stroke-linejoin="round"/>
<path d="M153.09 38.3157C151.309 42.1677 142.501 59.2265 135.037 65.2449C132.19 62.4182 111.665 44.0966 111.665 44.0966C114.286 38.9934 126.887 22.9945 130.973 19.073" stroke="#B9B1EE" stroke-width="2" stroke-linecap="round" stroke-linejoin="round"/>
<path d="M138.902 61.3525L114.231 39.9956" stroke="#B9B1EE" stroke-width="2" stroke-linecap="round" stroke-linejoin="round"/>
<path d="M121.009 11.4675C121.18 12.0399 121.438 12.5797 121.772 13.0662C124.703 17.3527 132.963 16.8835 140.223 12.0236" stroke="#9077C4" stroke-width="2" stroke-linecap="round" stroke-linejoin="round"/>
<path d="M118.124 16.814C116.725 20.6254 114.806 29.5169 115.619 38.026" stroke="#B9B0EE" stroke-width="2" stroke-linecap="round" stroke-linejoin="round"/>
<path d="M109.039 50.3119L99.7501 41.6753" stroke="#B9B0EE" stroke-width="2" stroke-linecap="round" stroke-linejoin="round"/>
<path d="M149.512 85.8605C146.444 85.3566 129.69 85.7157 132.786 86.8163C135.883 87.9169 141.677 88.6989 139.095 89.336C136.615 89.9449 134.102 90.3975 131.57 90.6915" stroke="#B9B1EE" stroke-width="2" stroke-linecap="round" stroke-linejoin="round"/>
<path fill-rule="evenodd" clip-rule="evenodd" d="M39.2388 86.5498C39.2388 82.6109 33.3226 79.425 26.0296 79.425C18.7366 79.425 12.8204 82.6109 12.8204 86.5498C12.8204 90.4887 26.0296 89.8391 26.0296 89.8391C26.0296 89.8391 39.2388 90.4945 39.2388 86.5498Z" fill="url(#paint2_linear)"/>
<path fill-rule="evenodd" clip-rule="evenodd" d="M34.2405 76.1581C32.355 74.5362 27.2461 70.58 25.6094 70.6031C23.9728 70.6263 19.0187 75.5036 18.9081 76.7837C18.7975 78.0639 20.3733 80.0854 21.3133 80.2303C22.2532 80.3751 25.2777 77.334 25.9412 77.6063C26.6047 77.8785 28.0644 79.5004 28.4901 80.2187C28.9159 80.9369 36.1204 77.7511 34.2405 76.1581Z" fill="#F77F89"/>
<path fill-rule="evenodd" clip-rule="evenodd" d="M131.653 62.0303C131.653 62.0303 114.12 85.2002 109.509 87.0828C104.898 88.9654 55.0909 88.3629 51.4528 87.9169C47.8146 87.4709 48.4781 90.3787 45.1882 90.5641C41.7822 90.761 39.8194 87.6041 39.3549 86.0112C37.276 88.4325 33.6101 92.157 31.2049 90.8595C29.502 89.9327 29.4798 89.1218 30.652 87.8416C28.9933 88.8437 25.9965 90.315 24.7856 89.3245C22.8393 87.7374 22.6569 86.2545 23.3148 85.0207C25.344 81.2034 31.8795 75.799 33.4332 75.1734C35.2246 74.432 40.6819 76.471 43.3083 76.6389C55.2126 77.4093 85.2304 69.6532 95.0779 69.184C96.5265 66.2878 111.538 47.271 112.699 45.3711C116.819 49.0609 131.653 62.0303 131.653 62.0303Z" fill="url(#paint3_linear)"/>
<path d="M76.5271 72.1265L94.9226 69.184L106.34 53.8223" stroke="#B5545C" stroke-width="2" stroke-linecap="round" stroke-linejoin="round"/>
<path d="M33.0737 75.353L28.009 79.4078" stroke="#B5545C" stroke-width="2" stroke-linecap="round" stroke-linejoin="round"/>
<path d="M30.7239 87.5984L34.5059 83.9375" stroke="#B5545C" stroke-width="2" stroke-linecap="round" stroke-linejoin="round"/>
<defs>
<linearGradient id="paint0_linear" x1="116.414" y1="89.21" x2="116.414" y2="252.858" gradientUnits="userSpaceOnUse">
<stop stop-color="#FFE8DC"/>
<stop offset="0.317708" stop-color="#F1C5AE"/>
<stop offset="1" stop-color="#FFC4A5"/>
</linearGradient>
<linearGradient id="paint1_linear" x1="132.751" y1="111.784" x2="174.496" y2="26.8012" gradientUnits="userSpaceOnUse">
<stop stop-color="#491987"/>
<stop offset="0.536458" stop-color="#643B98"/>
<stop offset="1" stop-color="#7E5DA9"/>
</linearGradient>
<linearGradient id="paint2_linear" x1="26.0296" y1="79.425" x2="26.0296" y2="93.6688" gradientUnits="userSpaceOnUse">
<stop stop-color="#F2BCE3"/>
<stop offset="1" stop-color="#E28ECB"/>
</linearGradient>
<linearGradient id="paint3_linear" x1="77.3123" y1="41" x2="77.3123" y2="91.1266" gradientUnits="userSpaceOnUse">
<stop stop-color="#F77F89"/>
<stop offset="1" stop-color="#FFBEC4"/>
</linearGradient>
</defs>
</svg>
