<svg width="107" height="129" viewBox="0 0 107 129" fill="none" xmlns="http://www.w3.org/2000/svg">
<path fill-rule="evenodd" clip-rule="evenodd" d="M56.7598 15.9221H49.7267C49.1694 15.9221 48.635 16.154 48.241 16.5668C47.8469 16.9796 47.6256 17.5395 47.6256 18.1233V99.5657C47.6256 100.149 47.8469 100.709 48.241 101.122C48.635 101.535 49.1694 101.767 49.7267 101.767H56.7598C57.317 101.767 57.8514 101.535 58.2454 101.122C58.6395 100.709 58.8608 100.149 58.8608 99.5657V18.1233C58.8608 17.5395 58.6395 16.9796 58.2454 16.5668C57.8514 16.154 57.317 15.9221 56.7598 15.9221Z" fill="url(#paint0_linear)"/>
<path fill-rule="evenodd" clip-rule="evenodd" d="M59.5907 75.6195H46.8736C45.9556 75.6195 45.0752 76.0016 44.4261 76.6816C43.777 77.3616 43.4123 78.2839 43.4123 79.2456V98.9053C43.4123 99.384 43.5028 99.8579 43.6784 100.3C43.8541 100.742 44.1115 101.143 44.4359 101.48C44.7602 101.817 45.1451 102.083 45.5682 102.264C45.9913 102.444 46.4444 102.535 46.9013 102.531H59.6183C60.5363 102.531 61.4167 102.149 62.0658 101.469C62.7149 100.789 63.0796 99.867 63.0796 98.9053V79.2456C63.0796 78.767 62.9892 78.2931 62.8135 77.8513C62.6378 77.4094 62.3804 77.0084 62.0561 76.6713C61.7317 76.3342 61.3469 76.0677 60.9237 75.8872C60.5006 75.7067 60.0475 75.6157 59.5907 75.6195Z" fill="#E994D2"/>
<path d="M95.3809 116.532V112.692C95.3809 109.997 94.3591 107.413 92.5403 105.507C90.7216 103.602 88.2548 102.531 85.6827 102.531H53.2431" stroke="#E994D2" stroke-width="2" stroke-linecap="round" stroke-linejoin="round"/>
<path d="M11.1995 116.532V112.692C11.2002 111.356 11.4521 110.034 11.9408 108.8C12.4294 107.567 13.1453 106.446 14.0475 105.503C14.9496 104.559 16.0204 103.811 17.1986 103.301C18.3769 102.792 19.6394 102.53 20.9142 102.532H53.3428" stroke="#E994D2" stroke-width="2" stroke-linecap="round" stroke-linejoin="round"/>
<path d="M69.1396 116.532V111.898C69.1396 106.725 66.5686 102.531 63.4004 102.531H43.0862C39.918 102.531 37.3469 106.725 37.3469 111.898V116.532" stroke="#E994D2" stroke-width="2" stroke-linecap="round" stroke-linejoin="round"/>
<path d="M100.695 122.104C100.695 121.003 100.383 119.927 99.7993 119.012C99.2155 118.096 98.3856 117.383 97.4147 116.961C96.4438 116.54 95.3754 116.43 94.3447 116.645C93.314 116.859 92.3672 117.39 91.6241 118.168C90.881 118.947 90.3749 119.938 90.1699 121.018C89.9648 122.098 90.0701 123.217 90.4722 124.234C90.8744 125.252 91.5555 126.121 92.4293 126.733C93.3031 127.344 94.3304 127.671 95.3813 127.671C96.7901 127.669 98.1407 127.082 99.1369 126.039C100.133 124.995 100.693 123.58 100.695 122.104V122.104Z" stroke="#E994D2" stroke-width="2" stroke-linecap="round" stroke-linejoin="round"/>
<path d="M74.4536 122.104C74.4536 121.003 74.142 119.927 73.5581 119.012C72.9743 118.096 72.1444 117.383 71.1735 116.961C70.2026 116.54 69.1342 116.43 68.1035 116.645C67.0727 116.859 66.126 117.39 65.3828 118.168C64.6397 118.947 64.1337 119.938 63.9286 121.018C63.7236 122.098 63.8288 123.217 64.231 124.234C64.6332 125.252 65.3142 126.121 66.188 126.733C67.0618 127.344 68.0892 127.671 69.1401 127.671C70.5489 127.669 71.8995 127.082 72.8957 126.039C73.8919 124.995 74.4521 123.58 74.4536 122.104V122.104Z" stroke="#E994D2" stroke-width="2" stroke-linecap="round" stroke-linejoin="round"/>
<path d="M37.3471 116.532C36.2949 116.531 35.2659 116.856 34.3905 117.468C33.5151 118.08 32.8324 118.95 32.429 119.968C32.0256 120.986 31.9194 122.106 32.1241 123.188C32.3287 124.269 32.8348 125.262 33.5785 126.042C34.3222 126.822 35.2699 127.354 36.3019 127.569C37.3338 127.784 38.4036 127.674 39.3758 127.253C40.3481 126.831 41.1791 126.117 41.7638 125.201C42.3485 124.284 42.6606 123.206 42.6606 122.104C42.6606 120.627 42.101 119.211 41.1047 118.166C40.1084 117.121 38.7569 116.533 37.3471 116.532" stroke="#E994D2" stroke-width="2" stroke-linecap="round" stroke-linejoin="round"/>
<path d="M16.4907 122.104C16.4907 121.003 16.1791 119.927 15.5952 119.012C15.0114 118.096 14.1815 117.383 13.2106 116.961C12.2397 116.54 11.1713 116.43 10.1406 116.645C9.10984 116.859 8.16307 117.39 7.41996 118.168C6.67684 118.947 6.17078 119.938 5.96576 121.018C5.76073 122.098 5.86595 123.217 6.26812 124.234C6.67029 125.252 7.35134 126.121 8.22514 126.733C9.09895 127.344 10.1263 127.671 11.1772 127.671C12.586 127.669 13.9366 127.082 14.9328 126.039C15.929 124.995 16.4893 123.58 16.4907 122.104V122.104Z" stroke="#E994D2" stroke-width="2" stroke-linecap="round" stroke-linejoin="round"/>
<path fill-rule="evenodd" clip-rule="evenodd" d="M95.2097 0.948486H11.277C8.39838 0.948486 5.63768 2.14645 3.6022 4.27886C1.56673 6.41127 0.42321 9.30344 0.42321 12.3191C0.42321 15.3348 1.56673 18.227 3.6022 20.3594C5.63768 22.4918 8.39838 23.6898 11.277 23.6898H95.2097C98.0883 23.6898 100.849 22.4918 102.884 20.3594C104.92 18.227 106.063 15.3348 106.063 12.3191V12.3191C106.063 9.30344 104.92 6.41127 102.884 4.27886C100.849 2.14645 98.0883 0.948486 95.2097 0.948486Z" fill="url(#paint1_linear)"/>
<defs>
<linearGradient id="paint0_linear" x1="53.2432" y1="15.9221" x2="53.2432" y2="101.767" gradientUnits="userSpaceOnUse">
<stop stop-color="#B965A2"/>
<stop offset="0.208333" stop-color="#E994D2"/>
<stop offset="0.479167" stop-color="#E994D2"/>
<stop offset="1" stop-color="#B965A2"/>
</linearGradient>
<linearGradient id="paint1_linear" x1="53.2433" y1="0.948486" x2="53.2433" y2="23.6898" gradientUnits="userSpaceOnUse">
<stop stop-color="#E990D1"/>
<stop offset="1" stop-color="#EFB0DE"/>
</linearGradient>
</defs>
</svg>
