<svg width="193" height="198" viewBox="0 0 193 198" fill="none" xmlns="http://www.w3.org/2000/svg">
<path fill-rule="evenodd" clip-rule="evenodd" d="M59.8794 163.105L55.8708 176.624L39.239 172.645L40.8701 155.453L59.8794 163.105Z" fill="#F77F89"/>
<path fill-rule="evenodd" clip-rule="evenodd" d="M56.2026 175.379L39.6926 170.444C39.6926 170.444 12.8374 172.315 2.98442 169.928C0.413357 173.259 -0.399429 175.142 1.32567 178.177C2.08316 179.527 28.1587 188.152 28.1587 188.152L34.3458 187.277L51.8125 192.067L56.2026 175.379Z" fill="#6E499F"/>
<path fill-rule="evenodd" clip-rule="evenodd" d="M54.6155 190.538L37.652 185.655C37.4356 185.59 37.209 185.569 36.9852 185.596C36.7613 185.622 36.5446 185.694 36.3474 185.808C36.1503 185.922 35.9765 186.076 35.836 186.26C35.6955 186.445 35.5911 186.656 35.5288 186.883L34.611 190.359C34.5535 190.587 34.5397 190.825 34.5704 191.06C34.601 191.294 34.6755 191.519 34.7895 191.723C34.9036 191.927 35.0549 192.106 35.2349 192.248C35.4149 192.391 35.62 192.495 35.8384 192.554L52.8019 197.437C53.0183 197.503 53.2449 197.523 53.4687 197.497C53.6926 197.47 53.9093 197.398 54.1065 197.284C54.3036 197.17 54.4774 197.016 54.6179 196.832C54.7584 196.647 54.8628 196.436 54.9251 196.209L55.8429 192.734C55.9004 192.505 55.9142 192.267 55.8835 192.033C55.8529 191.798 55.7784 191.573 55.6644 191.369C55.5503 191.165 55.399 190.987 55.219 190.844C55.039 190.701 54.8339 190.597 54.6155 190.538Z" fill="#3C1B09"/>
<path fill-rule="evenodd" clip-rule="evenodd" d="M183.064 1.99838C216.554 75.2849 148.96 77.2602 125.24 76.8953C101.52 76.5303 95.2774 74.6593 88.858 73.0317C86.8067 79.5424 62.2185 163.858 62.2185 163.858L40.6271 157.023C40.6271 157.023 57.1317 49.908 60.8583 42.6732C71.0928 22.7818 131.632 21.7044 139.29 22.1852C146.947 22.666 178.818 -7.29277 183.064 1.99838Z" fill="url(#paint0_linear)"/>
<path d="M180.974 12.0137C203.914 71.9949 105.528 68.3804 84.0087 61.5105C80.7908 71.155 54.1512 160.8 54.1512 160.8" stroke="#F3AC96" stroke-width="2" stroke-linecap="round" stroke-linejoin="round"/>
<path d="M99.1587 75.2329C95.6891 74.6977 92.2503 73.9628 88.8579 73.0317C88.0064 75.731 83.2789 91.8168 78.0428 109.716" stroke="#F3A086" stroke-width="2" stroke-linecap="round" stroke-linejoin="round"/>
<path d="M41.6609 150.396L64.0762 157.492" stroke="#F3AC96" stroke-width="2" stroke-linecap="round" stroke-linejoin="round"/>
<path d="M56.7222 60.4503C58.5247 51.0259 60.0397 44.3067 60.858 42.6732C70.4787 23.9866 124.532 21.9013 137.354 22.1214" stroke="#F3AC96" stroke-width="2" stroke-linecap="round" stroke-linejoin="round"/>
<defs>
<linearGradient id="paint0_linear" x1="116.414" y1="0.209961" x2="116.414" y2="163.858" gradientUnits="userSpaceOnUse">
<stop stop-color="#FFE8DC"/>
<stop offset="0.317708" stop-color="#F1C5AE"/>
<stop offset="1" stop-color="#FFC4A5"/>
</linearGradient>
</defs>
</svg>
