<svg width="104" height="178" viewBox="0 0 104 178" fill="none" xmlns="http://www.w3.org/2000/svg">
<path fill-rule="evenodd" clip-rule="evenodd" d="M62.3534 127.619L67.7388 140.363L52.8321 147.053L46.1971 134.171L62.3534 127.619Z" fill="#F77F89"/>
<path fill-rule="evenodd" clip-rule="evenodd" d="M68.0814 139.187L52.3232 146.335C52.3232 146.335 32.6836 165.612 23.6213 170.31C23.649 174.591 24.1743 176.578 27.3148 177.8C28.7192 178.344 54.1036 167.698 54.1036 167.698L58.3611 162.913L74.7827 155L68.0814 139.187Z" fill="#6E499F"/>
<path fill-rule="evenodd" clip-rule="evenodd" d="M76.0213 151.96L59.948 159.449C59.5302 159.64 59.2016 159.996 59.0337 160.44C58.8659 160.884 58.8726 161.38 59.0522 161.818L60.4567 165.126C60.5507 165.341 60.6844 165.534 60.8499 165.694C61.0154 165.855 61.2096 165.98 61.4212 166.062C61.6328 166.143 61.8578 166.181 62.0832 166.171C62.3086 166.162 62.53 166.106 62.7347 166.006L78.819 158.517C79.0262 158.423 79.2137 158.288 79.3709 158.119C79.528 157.949 79.6518 157.749 79.735 157.53C79.8182 157.31 79.8592 157.076 79.8558 156.839C79.8523 156.603 79.8044 156.37 79.7148 156.153L78.3159 152.846C78.2212 152.629 78.0866 152.435 77.9199 152.273C77.7532 152.111 77.5576 151.985 77.3444 151.903C77.1312 151.821 76.9045 151.783 76.6774 151.793C76.4504 151.803 76.2274 151.859 76.0213 151.96Z" fill="#3C1B09"/>
<path fill-rule="evenodd" clip-rule="evenodd" d="M103.208 5.66437C66.5997 -5.13862 14.0836 0.84502 2.75435 17.3246C-1.293 23.2098 0.0782318 32.4199 1.0956 35.8896C2.11297 39.3593 44.953 135.648 44.953 135.648L64.1613 127.996L45.2847 49.7973C45.2847 49.7973 107.759 6.99664 103.208 5.66437Z" fill="#FCC4A6"/>
<path d="M57.3608 130.701L35.2497 56.0591" stroke="#F3A086" stroke-width="2" stroke-linecap="round" stroke-linejoin="round"/>
<path d="M62.2314 119.968L41.6187 128.077" stroke="#F3A086" stroke-width="2" stroke-linecap="round" stroke-linejoin="round"/>
</svg>
