<svg width="52" height="68" viewBox="0 0 52 68" fill="none" xmlns="http://www.w3.org/2000/svg">
<path fill-rule="evenodd" clip-rule="evenodd" d="M51.5073 34.3558C51.5073 31.9818 50.8353 29.6611 49.5762 27.6872C48.3171 25.7134 46.5275 24.175 44.4338 23.2668C42.3401 22.3586 40.0363 22.1212 37.8138 22.5848C35.5913 23.0484 33.55 24.192 31.948 25.8711C30.346 27.5502 29.2553 29.6893 28.8139 32.0179C28.3725 34.3464 28.6002 36.7598 29.4681 38.9528C30.3361 41.1458 31.8053 43.0198 33.6901 44.3379C35.5748 45.6561 37.7903 46.359 40.0564 46.3578C41.5606 46.3578 43.0501 46.0474 44.4398 45.4441C45.8294 44.8409 47.092 43.9567 48.1554 42.8422C49.2188 41.7276 50.0621 40.4045 50.6373 38.9483C51.2124 37.4922 51.508 35.9317 51.5073 34.3558Z" fill="#6A3416"/>
<path fill-rule="evenodd" clip-rule="evenodd" d="M43.2138 35.1203C43.1419 37.9528 48.8038 55.8632 51.0376 59.2923C49.9318 62.0322 39.1112 68.9021 34.1405 67.4366C33.5875 63.9611 31.7353 56.9753 30.5907 55.423C29.4462 53.8706 43.2857 32.2646 43.2138 35.1203Z" fill="url(#paint0_linear)"/>
<path fill-rule="evenodd" clip-rule="evenodd" d="M45.5469 39.0883C45.548 35.4836 44.5286 31.9596 42.6176 28.9619C40.7067 25.9642 37.9901 23.6276 34.8114 22.2476C31.6327 20.8677 28.1347 20.5063 24.7599 21.2093C21.3852 21.9122 18.2852 23.6479 15.8522 26.1968C13.4191 28.7457 11.7623 31.9933 11.0913 35.5288C10.4203 39.0643 10.7653 42.7288 12.0825 46.0589C13.3998 49.389 15.6302 52.235 18.4916 54.237C21.353 56.2389 24.7168 57.3069 28.1576 57.3057C32.7691 57.3042 37.1913 55.3844 40.4521 51.9683C43.7129 48.5522 45.5454 43.9194 45.5469 39.0883Z" fill="url(#paint1_radial)"/>
<path fill-rule="evenodd" clip-rule="evenodd" d="M23.3364 0.678235C24.9894 0.683512 26.6216 1.06549 28.1196 1.79767C29.6176 2.52984 30.9457 3.59469 32.0116 4.91834C33.4418 4.35338 34.9563 4.05918 36.4847 4.04946C38.5333 4.01892 40.5597 4.49741 42.3976 5.44569C44.2356 6.39397 45.833 7.78506 47.0587 9.50492C48.2844 11.2248 49.1037 13.2245 49.4493 15.3401C49.7949 17.4557 49.657 19.627 49.047 21.676C49.8196 22.4207 50.4366 23.325 50.8592 24.3319C51.2817 25.3389 51.5005 26.4265 51.502 27.5264C51.4895 29.419 50.8478 31.2479 49.6873 32.6984C48.5268 34.1488 46.92 35.1303 45.1434 35.4737C45.0549 35.0277 45.0549 34.7149 44.9167 34.2052C44.5407 32.8497 38.912 30.3705 38.2817 30.8165C37.7856 31.1895 37.2206 31.4499 36.623 31.5812C36.5714 31.5843 36.5197 31.5843 36.4681 31.5812C34.1305 31.5749 31.837 30.9136 29.8255 29.6659C27.814 28.4183 26.1577 26.6296 25.0283 24.4854C24.4638 24.5893 23.8927 24.6493 23.3198 24.6649C23.3198 27.0387 22.6479 29.3592 21.389 31.3329C20.1302 33.3066 18.3409 34.845 16.2475 35.7534C14.1542 36.6618 11.8506 36.8994 9.62831 36.4363C7.40598 35.9732 5.36464 34.8302 3.76242 33.1516C2.16021 31.4731 1.0691 29.3346 0.627052 27.0064C0.185001 24.6782 0.411873 22.265 1.27898 20.0719C2.14609 17.8789 3.6145 16.0044 5.4985 14.6856C7.3825 13.3668 9.59748 12.6629 11.8634 12.6629C11.8655 11.0868 12.164 9.52651 12.7418 8.07123C13.3195 6.61595 14.1652 5.29414 15.2306 4.18126C16.296 3.06838 17.5601 2.18623 18.9509 1.58518C20.3417 0.984131 21.8319 0.675952 23.3364 0.678235Z" fill="#6A3416"/>
<path d="M27.6074 31.1081C27.9915 31.5049 28.6246 31.5153 29.0215 31.1312C29.4183 30.7471 29.4286 30.114 29.0445 29.7171L27.6074 31.1081ZM20.3632 29.7597C20.0026 30.178 20.0494 30.8094 20.4677 31.17C20.886 31.5306 21.5174 31.4839 21.878 31.0655L20.3632 29.7597ZM29.0445 29.7171C28.3082 28.9563 27.0057 28.0305 25.4388 27.7544C23.7897 27.4637 21.9518 27.9168 20.3632 29.7597L21.878 31.0655C23.0048 29.7584 24.1345 29.5553 25.0916 29.724C26.1309 29.9072 27.0735 30.5564 27.6074 31.1081L29.0445 29.7171Z" fill="#4A230D"/>
<path d="M12.784 35.5375C11.8511 35.0583 9.91376 34.8 9.62793 37.6" stroke="#4A230D" stroke-width="2" stroke-linecap="round" stroke-linejoin="round"/>
<path fill-rule="evenodd" clip-rule="evenodd" d="M50.1582 28.0476C50.1549 26.653 49.7571 25.2906 49.0152 24.1327C48.2732 22.9748 47.2202 22.0732 45.9894 21.5418C44.7585 21.0105 43.4049 20.8733 42.0997 21.1475C40.7944 21.4216 39.596 22.095 38.6558 23.0823C37.7156 24.0697 37.0759 25.3269 36.8173 26.695C36.5588 28.0631 36.6932 29.4808 37.2034 30.7689C37.7136 32.0571 38.5768 33.158 39.6839 33.9324C40.791 34.7069 42.0924 35.1203 43.4237 35.1203C44.3094 35.1203 45.1865 34.9372 46.0047 34.5816C46.8228 34.2259 47.566 33.7047 48.1916 33.0477C48.8171 32.3907 49.3128 31.6109 49.6503 30.7529C49.9878 29.8949 50.1604 28.9756 50.1582 28.0476Z" fill="url(#paint2_linear)"/>
<path d="M18.9351 39.5691C19.1066 41.1736 18.7691 44.7823 17.6126 46.3579" stroke="#B5545C" stroke-width="2" stroke-linecap="round" stroke-linejoin="round"/>
<path fill-rule="evenodd" clip-rule="evenodd" d="M28.2495 37.331C27.6966 35.9582 26.5907 35.1299 25.8222 35.4774C25.1006 35.8037 24.92 37.0489 25.3719 38.3456L26.5822 38.2678L25.808 39.0959C26.3979 40.3428 27.1695 40.7812 27.8956 40.4474C28.6642 40.094 28.8245 38.698 28.2495 37.331Z" fill="#59282C"/>
<path fill-rule="evenodd" clip-rule="evenodd" d="M15.1255 40.571C14.5725 39.1982 13.4667 38.3698 12.6982 38.7174C11.9766 39.0437 11.796 40.2889 12.2478 41.5855L13.4582 41.5078L12.684 42.3359C13.2739 43.5828 14.0455 44.0212 14.7716 43.6873C15.5401 43.334 15.7005 41.938 15.1255 40.571Z" fill="#59282C"/>
<path d="M28.3238 50.65C29.3852 50.2972 30.3237 49.6244 31.022 48.7156C31.7203 47.8069 32.1472 46.7027 32.2495 45.541" stroke="#B5545C" stroke-width="2" stroke-linecap="round" stroke-linejoin="round"/>
<path d="M31.3592 56.9986C33.6669 56.5452 35.8632 55.6074 37.8159 54.2416C39.7685 52.8759 41.4373 51.1103 42.7217 49.0513" stroke="#B5545C" stroke-width="2" stroke-linecap="round" stroke-linejoin="round"/>
<path d="M44.723 32.2994C45.4325 32.0973 46.0739 31.6915 46.5748 31.1277C47.0757 30.5639 47.4162 29.8645 47.5577 29.1087C47.6991 28.3529 47.6361 27.5706 47.3755 26.8504C47.115 26.1301 46.6674 25.5005 46.0833 25.0327C45.4992 24.565 44.8018 24.2776 44.0701 24.2032C43.3383 24.1287 42.6012 24.2702 41.9421 24.6115C41.283 24.9528 40.7281 25.4804 40.3402 26.1347C39.9523 26.789 39.7467 27.5439 39.7468 28.3141" stroke="#B5545C" stroke-width="2" stroke-linecap="round" stroke-linejoin="round"/>
<defs>
<linearGradient id="paint0_linear" x1="51.0377" y1="53" x2="32.8602" y2="65.1723" gradientUnits="userSpaceOnUse">
<stop stop-color="#FFBEC4"/>
<stop offset="0.397479" stop-color="#F77F89"/>
<stop offset="1" stop-color="#F77F89"/>
</linearGradient>
<radialGradient id="paint1_radial" cx="0" cy="0" r="1" gradientUnits="userSpaceOnUse" gradientTransform="translate(16.7407 46.5) rotate(31.5753) scale(31.0341 31.8075)">
<stop stop-color="#F77F89"/>
<stop offset="0.0001" stop-color="#F98E97"/>
<stop offset="1" stop-color="#FFBEC4"/>
</radialGradient>
<linearGradient id="paint2_linear" x1="47.9442" y1="22.75" x2="38.819" y2="34.7001" gradientUnits="userSpaceOnUse">
<stop stop-color="#FFBEC4"/>
<stop offset="1" stop-color="#FBAAB1"/>
</linearGradient>
</defs>
</svg>
