<svg width="92" height="98" viewBox="0 0 92 98" fill="none" xmlns="http://www.w3.org/2000/svg">
<path fill-rule="evenodd" clip-rule="evenodd" d="M85.8122 0.095459H6.52947C4.88853 0.095459 3.31483 0.77836 2.15451 1.99393C0.994202 3.2095 0.342346 4.85817 0.342346 6.57725V75.1661C0.342346 76.8852 0.994202 78.5339 2.15451 79.7494C3.31483 80.965 4.88853 81.6479 6.52947 81.6479H85.8122C87.4512 81.6449 89.0221 80.9606 90.18 79.7454C91.3379 78.5301 91.9883 76.8832 91.9883 75.1661V6.57725C91.9883 4.86018 91.3379 3.21326 90.18 1.99802C89.0221 0.782784 87.4512 0.0985279 85.8122 0.095459Z" fill="url(#paint0_linear)"/>
<path fill-rule="evenodd" clip-rule="evenodd" d="M85.8124 0.0896022C86.6246 0.0888411 87.429 0.255785 88.1797 0.580893C88.9303 0.906002 89.6124 1.3829 90.187 1.98433C90.7616 2.58576 91.2174 3.29993 91.5284 4.08601C91.8394 4.87209 91.9995 5.71468 91.9995 6.5656V75.166C91.9922 76.8801 91.3371 78.5213 90.1776 79.7306C89.0181 80.94 87.4485 81.6189 85.8124 81.6189H81.8369C81.8701 81.225 81.9585 80.8427 81.9585 80.4604V0.0896022H85.8124Z" fill="#FFCAF0"/>
<path fill-rule="evenodd" clip-rule="evenodd" d="M57.1602 61.4263H30.3934L15.4039 97.1427H43.1161L57.1602 61.4263Z" fill="#FFCAF0"/>
<defs>
<linearGradient id="paint0_linear" x1="91.9885" y1="6.75" x2="4.48403" y2="77.47" gradientUnits="userSpaceOnUse">
<stop stop-color="#FFEDFA"/>
<stop offset="1" stop-color="#FFD8F4"/>
</linearGradient>
</defs>
</svg>
