<svg width="60" height="75" viewBox="0 0 60 75" fill="none" xmlns="http://www.w3.org/2000/svg">
<path fill-rule="evenodd" clip-rule="evenodd" d="M49.8068 44.3573L38.4941 56.452C38.4941 56.452 29.9349 37.2035 23.9745 27.0203C25.1798 25.2015 27.292 17.9551 27.0211 16.5939C26.7501 15.2326 20.5243 2.38489 19.0204 3.13212C17.5164 3.87935 16.112 6.3875 16.8806 8.92461C15.9904 5.58234 14.4864 0.959937 13.1594 0.502331C11.8324 0.0447239 9.04022 0.647145 9.16186 2.9931C8.52601 1.45809 7.40359 0.38069 6.12082 0.322765C5.01499 0.270632 2.75909 1.26115 2.60427 2.72086C2.41628 4.54549 4.9044 8.90144 5.2085 9.52124C4.04738 7.86459 4.05844 7.78349 3.36176 7.78349C1.96288 7.83563 -0.403599 10.0136 0.751995 13.1589C1.90759 16.3042 7.61922 30.9824 12.0426 31.608C11.838 34.4579 25.0195 74.2234 25.0195 74.2234L44.9908 73.3892L59.5381 53.2314L49.8068 44.3573Z" fill="#FEB5BB"/>
<path d="M17.1956 25.3578C16.5099 23.7938 14.6079 20.3647 15.2659 18.8702C15.9239 17.3757 20.4799 15.3542 19.9214 13.9234C19.363 12.4927 16.8306 8.62329 16.8306 8.62329" stroke="#B5545C" stroke-width="2" stroke-linecap="round" stroke-linejoin="round"/>
<path d="M9.1898 2.98145L12.6787 10.4538" stroke="#B5545C" stroke-width="2" stroke-linecap="round" stroke-linejoin="round"/>
<path d="M5.04292 9.51538L7.87939 13.7323" stroke="#B5545C" stroke-width="2" stroke-linecap="round" stroke-linejoin="round"/>
</svg>
