<svg width="163" height="102" viewBox="0 0 163 102" fill="none" xmlns="http://www.w3.org/2000/svg">
<path d="M152.822 8.34651C152.823 7.94299 152.71 7.54822 152.497 7.21215C152.284 6.87608 151.98 6.61384 151.625 6.45863C151.269 6.30342 150.878 6.26221 150.5 6.34023C150.122 6.41825 149.774 6.61198 149.502 6.89691C149.229 7.18183 149.043 7.54512 148.968 7.9408C148.892 8.33647 148.93 8.74674 149.077 9.11965C149.224 9.49255 149.474 9.81134 149.794 10.0356C150.114 10.2599 150.491 10.3797 150.876 10.3797C151.391 10.3797 151.885 10.1657 152.25 9.78452C152.615 9.4034 152.821 8.88627 152.822 8.34651V8.34651Z" stroke="#FF3274" stroke-width="2" stroke-linecap="round" stroke-linejoin="round"/>
<path d="M145.159 8.34651C145.16 7.943 145.047 7.54822 144.833 7.21215C144.62 6.87608 144.317 6.61384 143.961 6.45863C143.606 6.30342 143.214 6.26221 142.836 6.34023C142.458 6.41825 142.111 6.61198 141.838 6.89691C141.565 7.18183 141.38 7.54512 141.304 7.9408C141.228 8.33647 141.267 8.74674 141.414 9.11965C141.561 9.49255 141.81 9.81134 142.131 10.0356C142.451 10.2599 142.827 10.3797 143.212 10.3797C143.468 10.3804 143.721 10.3284 143.957 10.2266C144.193 10.1247 144.408 9.9751 144.588 9.78622C144.769 9.59735 144.913 9.37296 145.01 9.12591C145.108 8.87885 145.159 8.61399 145.159 8.34651V8.34651Z" stroke="#FF3274" stroke-width="2" stroke-linecap="round" stroke-linejoin="round"/>
<path d="M137.479 8.34651C137.48 7.94299 137.366 7.54822 137.153 7.21215C136.94 6.87608 136.636 6.61384 136.281 6.45863C135.925 6.30342 135.534 6.26221 135.156 6.34023C134.778 6.41825 134.431 6.61198 134.158 6.89691C133.885 7.18183 133.699 7.54512 133.624 7.9408C133.548 8.33647 133.586 8.74674 133.734 9.11965C133.881 9.49255 134.13 9.81134 134.45 10.0356C134.771 10.2599 135.147 10.3797 135.532 10.3797C136.047 10.3797 136.542 10.1657 136.907 9.78452C137.271 9.4034 137.477 8.88627 137.479 8.34651V8.34651Z" stroke="#FF3274" stroke-width="2" stroke-linecap="round" stroke-linejoin="round"/>
<path fill-rule="evenodd" clip-rule="evenodd" d="M21.4432 28.5986H15.0681C14.7695 28.5986 14.5151 28.9694 14.5151 29.427V33.5918C14.5151 34.0494 14.7639 34.4143 15.0681 34.4143H21.4432C21.7473 34.4143 21.9961 34.0494 21.9961 33.5918V29.427C21.9906 28.9694 21.7473 28.5986 21.4432 28.5986Z" fill="#FF3274"/>
<path fill-rule="evenodd" clip-rule="evenodd" d="M11.7618 31.7727V34.333C11.7618 34.4083 11.8116 34.4373 11.8668 34.4025L13.99 33.134L16.1077 31.8538C16.1685 31.8191 16.1685 31.7611 16.1077 31.7264L13.99 30.4405L11.8668 29.1603C11.8565 29.1524 11.8441 29.1478 11.8312 29.1471C11.8184 29.1464 11.8056 29.1496 11.7945 29.1563C11.7834 29.1631 11.7744 29.1731 11.7686 29.1851C11.7627 29.1971 11.7604 29.2106 11.7618 29.224V31.7727Z" fill="#FF3274"/>
<path d="M26.2812 31.5064C26.2812 29.5588 25.73 27.655 24.6971 26.0356C23.6643 24.4162 22.1963 23.1541 20.4787 22.4088C18.7612 21.6634 16.8712 21.4684 15.0479 21.8484C13.2246 22.2284 11.5497 23.1662 10.2352 24.5434C8.92059 25.9205 8.02538 27.6751 7.66269 29.5853C7.3 31.4955 7.48614 33.4754 8.19757 35.2748C8.909 37.0741 10.1138 38.6121 11.6595 39.6941C13.2053 40.7761 15.0226 41.3536 16.8817 41.3536C19.3746 41.3536 21.7654 40.3162 23.5282 38.4695C25.2909 36.6227 26.2812 34.1181 26.2812 31.5064Z" stroke="#FF3274" stroke-width="2" stroke-linecap="round" stroke-linejoin="round"/>
<path d="M14.2942 1.82935L14.2938 1.82935C12.6352 1.82864 10.9916 2.17029 9.45644 2.83609C7.92114 3.50193 6.52303 4.47955 5.34331 5.71546C4.16348 6.95147 3.22542 8.42144 2.58484 10.0425C1.94424 11.6636 1.61435 13.4025 1.61504 15.1596V15.16V87.0274C1.61504 90.5775 2.96164 93.9734 5.34492 96.4702C7.7267 98.9654 10.9469 100.358 14.2942 100.358H148.979C148.979 100.358 148.979 100.358 148.979 100.358C152.325 100.356 155.544 98.9632 157.925 96.4683C160.307 93.9716 161.653 90.5766 161.653 87.0274L161.653 15.16L161.653 15.1596C161.654 13.403 161.324 11.6645 160.684 10.0437C160.043 8.42304 159.106 6.95331 157.926 5.71737C156.747 4.48152 155.35 3.50379 153.815 2.83762C152.28 2.17152 150.637 1.82935 148.979 1.82935L14.2942 1.82935Z" stroke="#8D65FF" stroke-width="2" stroke-linecap="round" stroke-linejoin="round"/>
<path d="M1.49402 14.8413H161.635" stroke="#8D65FF" stroke-width="2" stroke-linecap="round" stroke-linejoin="round"/>
<path opacity="0.25" fill-rule="evenodd" clip-rule="evenodd" d="M148.907 0.829346H14.2224C10.5945 0.829346 7.11514 2.33917 4.5498 5.02669C1.98447 7.7142 0.543289 11.3592 0.543289 15.16V87.0274C0.543289 90.8281 1.98447 94.4731 4.5498 97.1607C7.11514 99.8482 10.5945 101.358 14.2224 101.358H148.907C152.534 101.356 156.012 99.846 158.576 97.1586C161.141 94.4713 162.581 90.8271 162.581 87.0274V15.16C162.582 13.2783 162.229 11.4149 161.542 9.67631C160.855 7.93768 159.848 6.35783 158.578 5.02704C157.308 3.69624 155.801 2.64056 154.141 1.92031C152.482 1.20006 150.704 0.829346 148.907 0.829346Z" fill="white"/>
</svg>
