<svg width="25" height="25" viewBox="0 0 25 25" fill="none" xmlns="http://www.w3.org/2000/svg">
<path fill-rule="evenodd" clip-rule="evenodd" d="M8.31491 6.61523H6.38379C4.72693 6.61523 3.38379 7.95838 3.38379 9.61523V19.2614C3.38379 20.9182 4.72694 22.2614 6.38379 22.2614H14.3736H15.3736V21.2614V21.2613H8.31491V20.2614H6.38379C5.8315 20.2614 5.38379 19.8137 5.38379 19.2614V9.61523C5.38379 9.06295 5.8315 8.61523 6.38379 8.61523H8.31491V6.61523Z" fill="#787878"/>
<path d="M8.31494 4.13721C8.31494 3.03264 9.21037 2.13721 10.3149 2.13721H20.3149C21.4195 2.13721 22.3149 3.03264 22.3149 4.13721V19.2613C22.3149 20.3659 21.4195 21.2613 20.3149 21.2613H8.31494V4.13721Z" stroke="#787878" stroke-width="2"/>
<path d="M12.0508 12.6992H18.5366" stroke="#787878" stroke-width="2"/>
<path d="M12.0508 16.3145L18.5367 16.3145" stroke="#787878" stroke-width="2"/>
</svg>
