<svg width="40" height="40" viewBox="0 0 40 40" fill="none" xmlns="http://www.w3.org/2000/svg">
<rect x="1.63965" y="1.40723" width="37" height="37" rx="18.5" stroke="#ffebcd" stroke-width="2"/>
<path d="M28.4791 23.0143C27.2627 23.0143 26.0684 22.824 24.9366 22.45C24.382 22.2608 23.7002 22.4344 23.3618 22.782L21.1278 24.4684C18.5371 23.0855 16.9413 21.4901 15.5772 18.9189L17.214 16.7432C17.6392 16.3185 17.7918 15.6981 17.609 15.1161C17.2334 13.9783 17.0426 12.7846 17.0426 11.5677C17.0426 10.6886 16.3275 9.97339 15.4484 9.97339H11.7998C10.9208 9.97339 10.2056 10.6886 10.2056 11.5676C10.2056 21.6437 18.403 29.8411 28.4791 29.8411C29.3581 29.8411 30.0733 29.1259 30.0733 28.2469V24.6084C30.0733 23.7294 29.3581 23.0143 28.4791 23.0143Z" fill="#ffebcd"/>
</svg>
