<svg width="363" height="425" viewBox="0 0 363 425" fill="none" xmlns="http://www.w3.org/2000/svg">
<path d="M4.7717 189.25C4.7717 275.406 147.539 379.75 229.627 379.75C311.715 379.75 302.038 275.406 302.038 189.25C302.038 103.094 335.534 0.75 253.447 0.75C171.359 0.75 4.7717 103.094 4.7717 189.25Z" fill="#EFF0F9"/>
<g clip-path="url(#clip0)">
<path fill-rule="evenodd" clip-rule="evenodd" d="M204.239 222.55C204.239 218.611 198.323 215.425 191.03 215.425C183.737 215.425 177.82 218.611 177.82 222.55C177.82 226.489 183.737 229.669 191.03 229.669C198.323 229.669 204.239 226.494 204.239 222.55Z" fill="url(#paint0_linear)"/>
<path fill-rule="evenodd" clip-rule="evenodd" d="M269.024 224.143H16.076C15.4279 224.143 14.8062 224.413 14.3479 224.893C13.8896 225.373 13.6321 226.024 13.6321 226.703V231.337C13.6321 232.016 13.8896 232.667 14.3479 233.147C14.8062 233.628 15.4279 233.897 16.076 233.897H269.024C269.673 233.897 270.294 233.628 270.752 233.147C271.211 232.667 271.468 232.016 271.468 231.337V226.703C271.468 226.024 271.211 225.373 270.752 224.893C270.294 224.413 269.673 224.143 269.024 224.143Z" fill="url(#paint1_linear)"/>
<path d="M193.059 234.129L244.209 398.531" stroke="#ECA6D9" stroke-width="2" stroke-linecap="round" stroke-linejoin="round"/>
<path d="M193.059 234.129L141.914 398.531" stroke="#ECA6D9" stroke-width="2" stroke-linecap="round" stroke-linejoin="round"/>
<path d="M234.588 234.129L285.761 398.531" stroke="#ECA6D9" stroke-width="2" stroke-linecap="round" stroke-linejoin="round"/>
<path d="M234.588 234.129L183.444 398.531" stroke="#ECA6D9" stroke-width="2" stroke-linecap="round" stroke-linejoin="round"/>
<path fill-rule="evenodd" clip-rule="evenodd" d="M280.353 371.619L285.739 384.363L270.832 391.053L264.197 378.171L280.353 371.619Z" fill="#F77F89"/>
<path fill-rule="evenodd" clip-rule="evenodd" d="M286.081 383.187L270.323 390.335C270.323 390.335 250.684 409.612 241.621 414.31C241.649 418.591 242.174 420.578 245.315 421.8C246.719 422.344 272.104 411.698 272.104 411.698L276.361 406.913L292.783 399L286.081 383.187Z" fill="#6E499F"/>
<path fill-rule="evenodd" clip-rule="evenodd" d="M294.021 395.96L277.948 403.449C277.53 403.64 277.202 403.996 277.034 404.44C276.866 404.884 276.873 405.38 277.052 405.818L278.457 409.126C278.551 409.341 278.684 409.534 278.85 409.694C279.015 409.855 279.21 409.98 279.421 410.062C279.633 410.143 279.858 410.181 280.083 410.171C280.309 410.162 280.53 410.106 280.735 410.006L296.819 402.517C297.026 402.423 297.214 402.288 297.371 402.119C297.528 401.949 297.652 401.749 297.735 401.53C297.818 401.31 297.859 401.076 297.856 400.839C297.852 400.603 297.804 400.37 297.715 400.153L296.316 396.846C296.221 396.629 296.087 396.435 295.92 396.273C295.753 396.111 295.558 395.985 295.344 395.903C295.131 395.821 294.905 395.783 294.677 395.793C294.45 395.803 294.227 395.859 294.021 395.96Z" fill="#3C1B09"/>
<path fill-rule="evenodd" clip-rule="evenodd" d="M321.208 249.664C284.6 238.861 232.084 244.845 220.754 261.325C216.707 267.21 218.078 276.42 219.096 279.89C220.113 283.359 262.953 379.648 262.953 379.648L282.161 371.996L263.285 293.797C263.285 293.797 325.759 250.997 321.208 249.664Z" fill="#FCC4A6"/>
<path d="M275.361 374.701L253.25 300.059" stroke="#F3A086" stroke-width="2" stroke-linecap="round" stroke-linejoin="round"/>
<path d="M280.231 363.968L259.619 372.077" stroke="#F3A086" stroke-width="2" stroke-linecap="round" stroke-linejoin="round"/>
<path fill-rule="evenodd" clip-rule="evenodd" d="M312.76 311.922H305.727C305.169 311.922 304.635 312.154 304.241 312.567C303.847 312.98 303.626 313.539 303.626 314.123V395.566C303.626 396.149 303.847 396.709 304.241 397.122C304.635 397.535 305.169 397.767 305.727 397.767H312.76C313.317 397.767 313.851 397.535 314.245 397.122C314.639 396.709 314.861 396.149 314.861 395.566V314.123C314.861 313.539 314.639 312.98 314.245 312.567C313.851 312.154 313.317 311.922 312.76 311.922Z" fill="url(#paint2_linear)"/>
<path fill-rule="evenodd" clip-rule="evenodd" d="M315.591 371.62H302.874C301.956 371.62 301.075 372.002 300.426 372.682C299.777 373.362 299.412 374.284 299.412 375.246V394.905C299.412 395.384 299.503 395.858 299.678 396.3C299.854 396.742 300.112 397.143 300.436 397.48C300.76 397.817 301.145 398.083 301.568 398.264C301.991 398.444 302.444 398.535 302.901 398.531H315.618C316.536 398.531 317.417 398.149 318.066 397.469C318.715 396.789 319.08 395.867 319.08 394.905V375.246C319.08 374.767 318.989 374.293 318.813 373.851C318.638 373.409 318.38 373.008 318.056 372.671C317.732 372.334 317.347 372.068 316.924 371.887C316.501 371.707 316.048 371.616 315.591 371.62Z" fill="#E994D2"/>
<path d="M351.381 412.532V408.692C351.381 405.997 350.359 403.413 348.54 401.507C346.722 399.602 344.255 398.531 341.683 398.531H309.243" stroke="#E994D2" stroke-width="2" stroke-linecap="round" stroke-linejoin="round"/>
<path d="M267.199 412.532V408.692C267.2 407.356 267.452 406.034 267.941 404.8C268.429 403.567 269.145 402.446 270.047 401.503C270.95 400.559 272.02 399.811 273.199 399.301C274.377 398.792 275.639 398.53 276.914 398.532H309.343" stroke="#E994D2" stroke-width="2" stroke-linecap="round" stroke-linejoin="round"/>
<path d="M325.14 412.532V407.898C325.14 402.725 322.569 398.531 319.4 398.531H299.086C295.918 398.531 293.347 402.725 293.347 407.898V412.532" stroke="#E994D2" stroke-width="2" stroke-linecap="round" stroke-linejoin="round"/>
<path d="M356.695 418.104C356.695 417.003 356.383 415.927 355.799 415.012C355.215 414.096 354.386 413.383 353.415 412.961C352.444 412.54 351.375 412.43 350.345 412.645C349.314 412.859 348.367 413.39 347.624 414.168C346.881 414.947 346.375 415.938 346.17 417.018C345.965 418.098 346.07 419.217 346.472 420.234C346.874 421.252 347.555 422.121 348.429 422.733C349.303 423.344 350.33 423.671 351.381 423.671C352.79 423.669 354.141 423.082 355.137 422.039C356.133 420.995 356.693 419.58 356.695 418.104V418.104Z" stroke="#E994D2" stroke-width="2" stroke-linecap="round" stroke-linejoin="round"/>
<path d="M330.454 418.104C330.454 417.003 330.142 415.927 329.558 415.012C328.974 414.096 328.144 413.383 327.173 412.961C326.203 412.54 325.134 412.43 324.103 412.645C323.073 412.859 322.126 413.39 321.383 414.168C320.64 414.947 320.134 415.938 319.929 417.018C319.724 418.098 319.829 419.217 320.231 420.234C320.633 421.252 321.314 422.121 322.188 422.733C323.062 423.344 324.089 423.671 325.14 423.671C326.549 423.669 327.9 423.082 328.896 422.039C329.892 420.995 330.452 419.58 330.454 418.104V418.104Z" stroke="#E994D2" stroke-width="2" stroke-linecap="round" stroke-linejoin="round"/>
<path d="M293.347 412.532C292.295 412.531 291.266 412.856 290.391 413.468C289.515 414.08 288.832 414.95 288.429 415.968C288.026 416.986 287.919 418.106 288.124 419.188C288.329 420.269 288.835 421.262 289.578 422.042C290.322 422.822 291.27 423.354 292.302 423.569C293.334 423.784 294.404 423.674 295.376 423.253C296.348 422.831 297.179 422.117 297.764 421.201C298.349 420.284 298.661 419.206 298.661 418.104C298.661 416.627 298.101 415.211 297.105 414.166C296.108 413.121 294.757 412.533 293.347 412.532" stroke="#E994D2" stroke-width="2" stroke-linecap="round" stroke-linejoin="round"/>
<path d="M272.491 418.104C272.491 417.003 272.179 415.927 271.595 415.012C271.011 414.096 270.182 413.383 269.211 412.961C268.24 412.54 267.171 412.43 266.141 412.645C265.11 412.859 264.163 413.39 263.42 414.168C262.677 414.947 262.171 415.938 261.966 417.018C261.761 418.098 261.866 419.217 262.268 420.234C262.67 421.252 263.351 422.121 264.225 422.733C265.099 423.344 266.126 423.671 267.177 423.671C268.586 423.669 269.937 423.082 270.933 422.039C271.929 420.995 272.489 419.58 272.491 418.104V418.104Z" stroke="#E994D2" stroke-width="2" stroke-linecap="round" stroke-linejoin="round"/>
<path fill-rule="evenodd" clip-rule="evenodd" d="M351.21 296.948H267.277C264.398 296.948 261.638 298.146 259.602 300.279C257.567 302.411 256.423 305.303 256.423 308.319C256.423 311.335 257.567 314.227 259.602 316.359C261.638 318.492 264.398 319.69 267.277 319.69H351.21C354.088 319.69 356.849 318.492 358.884 316.359C360.92 314.227 362.063 311.335 362.063 308.319V308.319C362.063 305.303 360.92 302.411 358.884 300.279C356.849 298.146 354.088 296.948 351.21 296.948Z" fill="url(#paint3_linear)"/>
<path fill-rule="evenodd" clip-rule="evenodd" d="M224.879 388.105L220.871 401.624L204.239 397.645L205.87 380.453L224.879 388.105Z" fill="#F77F89"/>
<path fill-rule="evenodd" clip-rule="evenodd" d="M221.203 400.379L204.693 395.444C204.693 395.444 177.837 397.315 167.984 394.928C165.413 398.259 164.601 400.142 166.326 403.177C167.083 404.527 193.159 413.152 193.159 413.152L199.346 412.277L216.812 417.067L221.203 400.379Z" fill="#6E499F"/>
<path fill-rule="evenodd" clip-rule="evenodd" d="M219.615 415.538L202.652 410.655C202.436 410.59 202.209 410.569 201.985 410.596C201.761 410.622 201.545 410.694 201.347 410.808C201.15 410.922 200.976 411.076 200.836 411.26C200.696 411.445 200.591 411.656 200.529 411.883L199.611 415.359C199.554 415.587 199.54 415.825 199.57 416.06C199.601 416.294 199.675 416.519 199.79 416.723C199.904 416.927 200.055 417.106 200.235 417.248C200.415 417.391 200.62 417.495 200.838 417.554L217.802 422.437C218.018 422.503 218.245 422.523 218.469 422.497C218.693 422.47 218.909 422.398 219.106 422.284C219.304 422.17 219.477 422.016 219.618 421.832C219.758 421.647 219.863 421.436 219.925 421.209L220.843 417.734C220.9 417.505 220.914 417.267 220.884 417.033C220.853 416.798 220.778 416.573 220.664 416.369C220.55 416.165 220.399 415.987 220.219 415.844C220.039 415.701 219.834 415.597 219.615 415.538Z" fill="#3C1B09"/>
<path fill-rule="evenodd" clip-rule="evenodd" d="M348.064 226.998C381.554 300.285 313.96 302.26 290.24 301.895C266.52 301.53 260.277 299.659 253.858 298.032C251.807 304.542 227.218 388.858 227.218 388.858L205.627 382.023C205.627 382.023 222.132 274.908 225.858 267.673C236.093 247.782 296.632 246.704 304.29 247.185C311.947 247.666 343.818 217.707 348.064 226.998Z" fill="url(#paint4_linear)"/>
<path d="M345.974 237.014C368.914 296.995 270.528 293.38 249.009 286.51C245.791 296.155 219.151 385.8 219.151 385.8" stroke="#F3AC96" stroke-width="2" stroke-linecap="round" stroke-linejoin="round"/>
<path d="M264.159 300.233C260.689 299.698 257.25 298.963 253.858 298.032C253.006 300.731 248.279 316.817 243.043 334.716" stroke="#F3A086" stroke-width="2" stroke-linecap="round" stroke-linejoin="round"/>
<path d="M206.661 375.396L229.076 382.492" stroke="#F3AC96" stroke-width="2" stroke-linecap="round" stroke-linejoin="round"/>
<path d="M221.722 285.45C223.525 276.026 225.04 269.307 225.858 267.673C235.479 248.987 289.532 246.901 302.354 247.121" stroke="#F3AC96" stroke-width="2" stroke-linecap="round" stroke-linejoin="round"/>
<path fill-rule="evenodd" clip-rule="evenodd" d="M266.807 180.357L255.494 192.452C255.494 192.452 246.935 173.204 240.974 163.02C242.18 161.202 244.292 153.955 244.021 152.594C243.75 151.233 237.524 138.385 236.02 139.132C234.516 139.879 233.112 142.387 233.881 144.925C232.99 141.582 231.486 136.96 230.159 136.502C228.832 136.045 226.04 136.647 226.162 138.993C225.526 137.458 224.404 136.381 223.121 136.323C222.015 136.271 219.759 137.261 219.604 138.721C219.416 140.545 221.904 144.901 222.209 145.521C221.047 143.865 221.058 143.783 220.362 143.783C218.963 143.836 216.596 146.014 217.752 149.159C218.908 152.304 224.619 166.982 229.043 167.608C228.838 170.458 242.02 210.223 242.02 210.223L261.991 209.389L276.538 189.231L266.807 180.357Z" fill="#FEB5BB"/>
<path d="M234.196 161.358C233.51 159.794 231.608 156.365 232.266 154.87C232.924 153.376 237.48 151.354 236.921 149.923C236.363 148.493 233.831 144.623 233.831 144.623" stroke="#B5545C" stroke-width="2" stroke-linecap="round" stroke-linejoin="round"/>
<path d="M226.19 138.981L229.679 146.454" stroke="#B5545C" stroke-width="2" stroke-linecap="round" stroke-linejoin="round"/>
<path d="M222.043 145.515L224.879 149.732" stroke="#B5545C" stroke-width="2" stroke-linecap="round" stroke-linejoin="round"/>
<path fill-rule="evenodd" clip-rule="evenodd" d="M306.152 136.665C342.883 136.711 355.157 227.027 351.32 233.22C348.506 237.761 315.187 251.113 303.769 247.011C299.739 245.563 289.25 223.002 283.312 200.237C276.981 194.792 264.999 184.482 263.047 182.495C263.6 178.133 273.226 160.559 283.195 152.773C286.64 144.531 293.032 136.665 306.152 136.665Z" fill="url(#paint5_linear)"/>
<path d="M340.732 229.669C341.456 218.466 331.238 176.847 323.591 164.463" stroke="#B9B1EE" stroke-width="2" stroke-linecap="round" stroke-linejoin="round"/>
<path d="M318.09 174.316C316.309 178.168 307.501 195.227 300.037 201.245C297.19 198.418 276.665 180.097 276.665 180.097C279.286 174.993 291.887 158.995 295.973 155.073" stroke="#B9B1EE" stroke-width="2" stroke-linecap="round" stroke-linejoin="round"/>
<path d="M303.902 197.353L279.231 175.996" stroke="#B9B1EE" stroke-width="2" stroke-linecap="round" stroke-linejoin="round"/>
<path d="M286.009 147.468C286.18 148.04 286.438 148.58 286.772 149.066C289.703 153.353 297.963 152.883 305.223 148.024" stroke="#9077C4" stroke-width="2" stroke-linecap="round" stroke-linejoin="round"/>
<path d="M283.124 152.814C281.725 156.625 279.806 165.517 280.619 174.026" stroke="#B9B0EE" stroke-width="2" stroke-linecap="round" stroke-linejoin="round"/>
<path d="M274.039 186.312L264.75 177.675" stroke="#B9B0EE" stroke-width="2" stroke-linecap="round" stroke-linejoin="round"/>
<path d="M314.512 221.861C311.444 221.357 294.69 221.716 297.786 222.816C300.883 223.917 306.677 224.699 304.095 225.336C301.615 225.945 299.102 226.398 296.57 226.691" stroke="#B9B1EE" stroke-width="2" stroke-linecap="round" stroke-linejoin="round"/>
<path fill-rule="evenodd" clip-rule="evenodd" d="M307.507 113.356C307.507 110.982 306.835 108.661 305.576 106.687C304.317 104.713 302.528 103.175 300.434 102.267C298.34 101.359 296.036 101.121 293.814 101.585C291.591 102.048 289.55 103.192 287.948 104.871C286.346 106.55 285.255 108.689 284.814 111.018C284.372 113.346 284.6 115.76 285.468 117.953C286.336 120.146 287.805 122.02 289.69 123.338C291.575 124.656 293.79 125.359 296.056 125.358C297.561 125.358 299.05 125.047 300.44 124.444C301.829 123.841 303.092 122.957 304.155 121.842C305.219 120.728 306.062 119.404 306.637 117.948C307.212 116.492 307.508 114.932 307.507 113.356Z" fill="#6A3416"/>
<path fill-rule="evenodd" clip-rule="evenodd" d="M299.214 114.12C299.142 116.953 304.804 134.863 307.038 138.292C305.932 141.032 295.111 147.902 290.14 146.437C289.588 142.961 287.735 135.975 286.591 134.423C285.446 132.871 299.286 111.265 299.214 114.12Z" fill="url(#paint6_linear)"/>
<path fill-rule="evenodd" clip-rule="evenodd" d="M301.547 118.088C301.548 114.484 300.529 110.96 298.618 107.962C296.707 104.964 293.99 102.628 290.811 101.248C287.633 99.8677 284.135 99.5063 280.76 100.209C277.385 100.912 274.285 102.648 271.852 105.197C269.419 107.746 267.762 110.993 267.091 114.529C266.42 118.064 266.765 121.729 268.083 125.059C269.4 128.389 271.63 131.235 274.492 133.237C277.353 135.239 280.717 136.307 284.158 136.306C288.769 136.304 293.191 134.384 296.452 130.968C299.713 127.552 301.545 122.919 301.547 118.088Z" fill="url(#paint7_radial)"/>
<path fill-rule="evenodd" clip-rule="evenodd" d="M279.336 79.6782C280.989 79.6835 282.622 80.0655 284.12 80.7977C285.618 81.5298 286.946 82.5947 288.012 83.9183C289.442 83.3534 290.956 83.0592 292.485 83.0495C294.533 83.0189 296.56 83.4974 298.398 84.4457C300.236 85.394 301.833 86.7851 303.059 88.5049C304.284 90.2248 305.104 92.2245 305.449 94.3401C305.795 96.4557 305.657 98.627 305.047 100.676C305.82 101.421 306.437 102.325 306.859 103.332C307.282 104.339 307.501 105.427 307.502 106.526C307.49 108.419 306.848 110.248 305.687 111.698C304.527 113.149 302.92 114.13 301.143 114.474C301.055 114.028 301.055 113.715 300.917 113.205C300.541 111.85 294.912 109.371 294.282 109.817C293.786 110.19 293.221 110.45 292.623 110.581C292.571 110.584 292.52 110.584 292.468 110.581C290.131 110.575 287.837 109.914 285.825 108.666C283.814 107.418 282.158 105.63 281.028 103.485C280.464 103.589 279.893 103.649 279.32 103.665C279.32 106.039 278.648 108.359 277.389 110.333C276.13 112.307 274.341 113.845 272.248 114.753C270.154 115.662 267.851 115.899 265.628 115.436C263.406 114.973 261.365 113.83 259.762 112.152C258.16 110.473 257.069 108.335 256.627 106.006C256.185 103.678 256.412 101.265 257.279 99.0719C258.146 96.8789 259.614 95.0044 261.499 93.6856C263.382 92.3668 265.597 91.6629 267.863 91.6629C267.866 90.0868 268.164 88.5265 268.742 87.0712C269.32 85.616 270.165 84.2941 271.231 83.1813C272.296 82.0684 273.56 81.1862 274.951 80.5852C276.342 79.9841 277.832 79.676 279.336 79.6782Z" fill="#6A3416"/>
<path d="M283.607 110.108C283.992 110.505 284.625 110.515 285.021 110.131C285.418 109.747 285.429 109.114 285.045 108.717L283.607 110.108ZM276.363 108.76C276.003 109.178 276.049 109.809 276.468 110.17C276.886 110.531 277.517 110.484 277.878 110.066L276.363 108.76ZM285.045 108.717C284.308 107.956 283.006 107.031 281.439 106.754C279.79 106.464 277.952 106.917 276.363 108.76L277.878 110.066C279.005 108.758 280.134 108.555 281.092 108.724C282.131 108.907 283.073 109.556 283.607 110.108L285.045 108.717Z" fill="#4A230D"/>
<path d="M268.784 114.537C267.851 114.058 265.914 113.8 265.628 116.6" stroke="#4A230D" stroke-width="2" stroke-linecap="round" stroke-linejoin="round"/>
<path fill-rule="evenodd" clip-rule="evenodd" d="M306.158 107.048C306.155 105.653 305.757 104.291 305.015 103.133C304.273 101.975 303.22 101.073 301.989 100.542C300.759 100.011 299.405 99.8733 298.1 100.147C296.794 100.422 295.596 101.095 294.656 102.082C293.716 103.07 293.076 104.327 292.817 105.695C292.559 107.063 292.693 108.481 293.203 109.769C293.714 111.057 294.577 112.158 295.684 112.932C296.791 113.707 298.092 114.12 299.424 114.12C300.309 114.12 301.187 113.937 302.005 113.582C302.823 113.226 303.566 112.705 304.192 112.048C304.817 111.391 305.313 110.611 305.65 109.753C305.988 108.895 306.16 107.976 306.158 107.048Z" fill="url(#paint8_linear)"/>
<path d="M274.935 118.569C275.107 120.174 274.769 123.782 273.613 125.358" stroke="#B5545C" stroke-width="2" stroke-linecap="round" stroke-linejoin="round"/>
<path fill-rule="evenodd" clip-rule="evenodd" d="M284.249 116.331C283.697 114.958 282.591 114.13 281.822 114.477C281.101 114.804 280.92 116.049 281.372 117.346L282.582 117.268L281.808 118.096C282.398 119.343 283.17 119.781 283.896 119.447C284.664 119.094 284.825 117.698 284.249 116.331Z" fill="#59282C"/>
<path fill-rule="evenodd" clip-rule="evenodd" d="M271.125 119.571C270.573 118.198 269.467 117.37 268.698 117.717C267.977 118.044 267.796 119.289 268.248 120.586L269.458 120.508L268.684 121.336C269.274 122.583 270.046 123.021 270.772 122.687C271.54 122.334 271.7 120.938 271.125 119.571Z" fill="#59282C"/>
<path d="M284.324 129.65C285.385 129.297 286.324 128.624 287.022 127.716C287.72 126.807 288.147 125.703 288.25 124.541" stroke="#B5545C" stroke-width="2" stroke-linecap="round" stroke-linejoin="round"/>
<path d="M287.359 135.999C289.667 135.545 291.863 134.607 293.816 133.242C295.769 131.876 297.437 130.11 298.722 128.051" stroke="#B5545C" stroke-width="2" stroke-linecap="round" stroke-linejoin="round"/>
<path d="M300.723 111.299C301.432 111.097 302.074 110.692 302.575 110.128C303.076 109.564 303.416 108.865 303.558 108.109C303.699 107.353 303.636 106.571 303.376 105.85C303.115 105.13 302.667 104.501 302.083 104.033C301.499 103.565 300.802 103.278 300.07 103.203C299.338 103.129 298.601 103.27 297.942 103.611C297.283 103.953 296.728 104.48 296.34 105.135C295.952 105.789 295.747 106.544 295.747 107.314" stroke="#B5545C" stroke-width="2" stroke-linecap="round" stroke-linejoin="round"/>
<path d="M349.822 68.3465C349.823 67.943 349.71 67.5482 349.497 67.2122C349.284 66.8761 348.98 66.6138 348.625 66.4586C348.269 66.3034 347.878 66.2622 347.5 66.3402C347.122 66.4183 346.774 66.612 346.502 66.8969C346.229 67.1818 346.043 67.5451 345.968 67.9408C345.892 68.3365 345.93 68.7467 346.077 69.1196C346.224 69.4926 346.474 69.8113 346.794 70.0356C347.114 70.2599 347.491 70.3797 347.876 70.3797C348.391 70.3797 348.885 70.1657 349.25 69.7845C349.615 69.4034 349.821 68.8863 349.822 68.3465V68.3465Z" stroke="#FF3274" stroke-width="2" stroke-linecap="round" stroke-linejoin="round"/>
<path d="M342.159 68.3465C342.16 67.943 342.047 67.5482 341.833 67.2122C341.62 66.8761 341.317 66.6138 340.961 66.4586C340.606 66.3034 340.214 66.2622 339.836 66.3402C339.458 66.4183 339.111 66.612 338.838 66.8969C338.565 67.1818 338.38 67.5451 338.304 67.9408C338.228 68.3365 338.267 68.7467 338.414 69.1196C338.561 69.4926 338.81 69.8113 339.131 70.0356C339.451 70.2599 339.827 70.3797 340.212 70.3797C340.468 70.3804 340.721 70.3284 340.957 70.2266C341.193 70.1247 341.408 69.9751 341.588 69.7862C341.769 69.5974 341.913 69.373 342.01 69.1259C342.108 68.8789 342.159 68.614 342.159 68.3465V68.3465Z" stroke="#FF3274" stroke-width="2" stroke-linecap="round" stroke-linejoin="round"/>
<path d="M334.479 68.3465C334.48 67.943 334.366 67.5482 334.153 67.2122C333.94 66.8761 333.636 66.6138 333.281 66.4586C332.925 66.3034 332.534 66.2622 332.156 66.3402C331.778 66.4183 331.431 66.612 331.158 66.8969C330.885 67.1818 330.699 67.5451 330.624 67.9408C330.548 68.3365 330.586 68.7467 330.734 69.1196C330.881 69.4926 331.13 69.8113 331.45 70.0356C331.771 70.2599 332.147 70.3797 332.532 70.3797C333.047 70.3797 333.542 70.1657 333.907 69.7845C334.271 69.4034 334.477 68.8863 334.479 68.3465V68.3465Z" stroke="#FF3274" stroke-width="2" stroke-linecap="round" stroke-linejoin="round"/>
<path fill-rule="evenodd" clip-rule="evenodd" d="M218.443 88.5986H212.068C211.769 88.5986 211.515 88.9694 211.515 89.427V93.5918C211.515 94.0494 211.764 94.4143 212.068 94.4143H218.443C218.747 94.4143 218.996 94.0494 218.996 93.5918V89.427C218.991 88.9694 218.747 88.5986 218.443 88.5986Z" fill="#FF3274"/>
<path fill-rule="evenodd" clip-rule="evenodd" d="M208.762 91.7727V94.333C208.762 94.4083 208.812 94.4373 208.867 94.4025L210.99 93.134L213.108 91.8538C213.169 91.8191 213.169 91.7611 213.108 91.7264L210.99 90.4405L208.867 89.1603C208.856 89.1524 208.844 89.1478 208.831 89.1471C208.818 89.1464 208.806 89.1496 208.795 89.1563C208.783 89.1631 208.774 89.1731 208.769 89.1851C208.763 89.1971 208.76 89.2106 208.762 89.224V91.7727Z" fill="#FF3274"/>
<path d="M223.281 91.5064C223.281 89.5588 222.73 87.655 221.697 86.0356C220.664 84.4162 219.196 83.1541 217.479 82.4088C215.761 81.6634 213.871 81.4684 212.048 81.8484C210.225 82.2284 208.55 83.1662 207.235 84.5434C205.921 85.9205 205.025 87.6751 204.663 89.5853C204.3 91.4955 204.486 93.4754 205.198 95.2748C205.909 97.0741 207.114 98.6121 208.66 99.6941C210.205 100.776 212.023 101.354 213.882 101.354C216.375 101.354 218.765 100.316 220.528 98.4695C222.291 96.6227 223.281 94.1181 223.281 91.5064Z" stroke="#FF3274" stroke-width="2" stroke-linecap="round" stroke-linejoin="round"/>
<path d="M211.294 61.8293L211.294 61.8293C209.635 61.8286 207.992 62.1703 206.456 62.8361C204.921 63.5019 203.523 64.4796 202.343 65.7155C201.163 66.9515 200.225 68.4214 199.585 70.0425C198.944 71.6636 198.614 73.4025 198.615 75.1596V75.16V147.027C198.615 150.577 199.962 153.973 202.345 156.47C204.727 158.965 207.947 160.358 211.294 160.358H345.979C345.979 160.358 345.979 160.358 345.979 160.358C349.325 160.356 352.544 158.963 354.925 156.468C357.307 153.972 358.653 150.577 358.653 147.027L358.653 75.16L358.653 75.1596C358.654 73.403 358.324 71.6645 357.684 70.0437C357.043 68.423 356.106 66.9533 354.926 65.7174C353.747 64.4815 352.35 63.5038 350.815 62.8376C349.28 62.1715 347.637 61.8293 345.979 61.8293L211.294 61.8293Z" stroke="#8D65FF" stroke-width="2" stroke-linecap="round" stroke-linejoin="round"/>
<path d="M198.494 74.8413H358.635" stroke="#8D65FF" stroke-width="2" stroke-linecap="round" stroke-linejoin="round"/>
<path opacity="0.25" fill-rule="evenodd" clip-rule="evenodd" d="M345.907 60.8293H211.222C207.594 60.8293 204.115 62.3392 201.55 65.0267C198.984 67.7142 197.543 71.3592 197.543 75.16V147.027C197.543 150.828 198.984 154.473 201.55 157.161C204.115 159.848 207.594 161.358 211.222 161.358H345.907C349.534 161.356 353.012 159.846 355.576 157.159C358.141 154.471 359.581 150.827 359.581 147.027V75.16C359.582 73.2783 359.229 71.4149 358.542 69.6763C357.855 67.9377 356.848 66.3578 355.578 65.027C354.308 63.6962 352.801 62.6406 351.141 61.9203C349.482 61.2001 347.704 60.8293 345.907 60.8293Z" fill="white"/>
<path fill-rule="evenodd" clip-rule="evenodd" d="M199.24 212.158C197.355 210.536 192.246 206.58 190.609 206.603C188.973 206.626 184.019 211.504 183.908 212.784C183.797 214.064 185.373 216.085 186.313 216.23C187.253 216.375 190.278 213.334 190.941 213.606C191.605 213.878 193.064 215.5 193.49 216.219C193.916 216.937 201.12 213.751 199.24 212.158Z" fill="#F77F89"/>
<path fill-rule="evenodd" clip-rule="evenodd" d="M296.653 198.03C296.653 198.03 279.12 221.2 274.509 223.083C269.898 224.965 220.091 224.363 216.453 223.917C212.815 223.471 213.478 226.379 210.188 226.564C206.782 226.761 204.819 223.604 204.355 222.011C202.276 224.432 198.61 228.157 196.205 226.86C194.502 225.933 194.48 225.122 195.652 223.842C193.993 224.844 190.996 226.315 189.786 225.325C187.839 223.737 187.657 222.254 188.315 221.021C190.344 217.203 196.88 211.799 198.433 211.173C200.225 210.432 205.682 212.471 208.308 212.639C220.213 213.409 250.23 205.653 260.078 205.184C261.527 202.288 276.538 183.271 277.699 181.371C281.819 185.061 296.653 198.03 296.653 198.03Z" fill="url(#paint9_linear)"/>
<path d="M241.527 208.127L259.923 205.184L271.34 189.822" stroke="#B5545C" stroke-width="2" stroke-linecap="round" stroke-linejoin="round"/>
<path d="M198.074 211.353L193.009 215.408" stroke="#B5545C" stroke-width="2" stroke-linecap="round" stroke-linejoin="round"/>
<path d="M195.724 223.598L199.506 219.938" stroke="#B5545C" stroke-width="2" stroke-linecap="round" stroke-linejoin="round"/>
<path d="M51.7056 234.129L102.856 398.531" stroke="#ECA6D9" stroke-width="2" stroke-linecap="round" stroke-linejoin="round"/>
<path d="M51.7056 234.129L0.560821 398.531" stroke="#ECA6D9" stroke-width="2" stroke-linecap="round" stroke-linejoin="round"/>
<path d="M93.2354 234.129L144.386 398.531" stroke="#ECA6D9" stroke-width="2" stroke-linecap="round" stroke-linejoin="round"/>
<path d="M93.2354 234.129L42.0906 398.531" stroke="#ECA6D9" stroke-width="2" stroke-linecap="round" stroke-linejoin="round"/>
<path fill-rule="evenodd" clip-rule="evenodd" d="M181.812 127.095H102.529C100.889 127.095 99.3148 127.778 98.1545 128.994C96.9942 130.21 96.3423 131.858 96.3423 133.577V202.166C96.3423 203.885 96.9942 205.534 98.1545 206.749C99.3148 207.965 100.889 208.648 102.529 208.648H181.812C183.451 208.645 185.022 207.961 186.18 206.745C187.338 205.53 187.988 203.883 187.988 202.166V133.577C187.988 131.86 187.338 130.213 186.18 128.998C185.022 127.783 183.451 127.099 181.812 127.095Z" fill="url(#paint10_linear)"/>
<path fill-rule="evenodd" clip-rule="evenodd" d="M181.812 127.09C182.625 127.089 183.429 127.256 184.18 127.581C184.93 127.906 185.612 128.383 186.187 128.984C186.762 129.586 187.217 130.3 187.528 131.086C187.839 131.872 188 132.715 188 133.566V202.166C187.992 203.88 187.337 205.521 186.178 206.731C185.018 207.94 183.449 208.619 181.812 208.619H177.837C177.87 208.225 177.959 207.843 177.959 207.46V127.09H181.812Z" fill="#FFCAF0"/>
<path fill-rule="evenodd" clip-rule="evenodd" d="M153.16 188.426H126.393L111.404 224.143H139.116L153.16 188.426Z" fill="#FFCAF0"/>
<path d="M47.5703 211.556C47.5703 210.377 47.2366 209.224 46.6115 208.244C45.9863 207.264 45.0977 206.5 44.0581 206.049C43.0184 205.598 41.8745 205.48 40.7708 205.71C39.6672 205.94 38.6534 206.507 37.8577 207.341C37.062 208.175 36.5201 209.237 36.3006 210.393C36.0811 211.549 36.1938 212.748 36.6244 213.837C37.055 214.926 37.7842 215.857 38.7199 216.512C39.6555 217.167 40.7555 217.516 41.8808 217.516C43.3897 217.516 44.8369 216.888 45.9039 215.77C46.9709 214.653 47.5703 213.136 47.5703 211.556V211.556Z" stroke="#FFCAF0" stroke-width="2" stroke-linecap="round" stroke-linejoin="round"/>
<path fill-rule="evenodd" clip-rule="evenodd" d="M63.7427 198.974H41.6924V224.143H63.7427V198.974Z" fill="url(#paint11_linear)"/>
<path d="M63.7427 203.261H41.8803" stroke="url(#paint12_linear)" stroke-width="2" stroke-linecap="round" stroke-linejoin="round"/>
</g>
<defs>
<linearGradient id="paint0_linear" x1="191.03" y1="215.425" x2="191.03" y2="229.669" gradientUnits="userSpaceOnUse">
<stop stop-color="#F2BCE3"/>
<stop offset="1" stop-color="#E28ECB"/>
</linearGradient>
<linearGradient id="paint1_linear" x1="228.675" y1="218.75" x2="17.5439" y2="232.507" gradientUnits="userSpaceOnUse">
<stop stop-color="#F5C8E9"/>
<stop offset="1" stop-color="#ECA2D7"/>
</linearGradient>
<linearGradient id="paint2_linear" x1="309.243" y1="311.922" x2="309.243" y2="397.767" gradientUnits="userSpaceOnUse">
<stop stop-color="#B965A2"/>
<stop offset="0.208333" stop-color="#E994D2"/>
<stop offset="0.479167" stop-color="#E994D2"/>
<stop offset="1" stop-color="#B965A2"/>
</linearGradient>
<linearGradient id="paint3_linear" x1="309.243" y1="296.948" x2="309.243" y2="319.69" gradientUnits="userSpaceOnUse">
<stop stop-color="#E990D1"/>
<stop offset="1" stop-color="#EFB0DE"/>
</linearGradient>
<linearGradient id="paint4_linear" x1="281.414" y1="225.21" x2="281.414" y2="388.858" gradientUnits="userSpaceOnUse">
<stop stop-color="#FFE8DC"/>
<stop offset="0.317708" stop-color="#F1C5AE"/>
<stop offset="1" stop-color="#FFC4A5"/>
</linearGradient>
<linearGradient id="paint5_linear" x1="297.751" y1="247.784" x2="339.496" y2="162.801" gradientUnits="userSpaceOnUse">
<stop stop-color="#491987"/>
<stop offset="0.536458" stop-color="#643B98"/>
<stop offset="1" stop-color="#7E5DA9"/>
</linearGradient>
<linearGradient id="paint6_linear" x1="307.038" y1="132" x2="288.86" y2="144.172" gradientUnits="userSpaceOnUse">
<stop stop-color="#FFBEC4"/>
<stop offset="0.397479" stop-color="#F77F89"/>
<stop offset="1" stop-color="#F77F89"/>
</linearGradient>
<radialGradient id="paint7_radial" cx="0" cy="0" r="1" gradientUnits="userSpaceOnUse" gradientTransform="translate(272.741 125.5) rotate(31.5753) scale(31.0341 31.8075)">
<stop stop-color="#F77F89"/>
<stop offset="0.0001" stop-color="#F98E97"/>
<stop offset="1" stop-color="#FFBEC4"/>
</radialGradient>
<linearGradient id="paint8_linear" x1="303.944" y1="101.75" x2="294.819" y2="113.7" gradientUnits="userSpaceOnUse">
<stop stop-color="#FFBEC4"/>
<stop offset="1" stop-color="#FBAAB1"/>
</linearGradient>
<linearGradient id="paint9_linear" x1="242.312" y1="177" x2="242.312" y2="227.127" gradientUnits="userSpaceOnUse">
<stop stop-color="#F77F89"/>
<stop offset="1" stop-color="#FFBEC4"/>
</linearGradient>
<linearGradient id="paint10_linear" x1="187.988" y1="133.75" x2="100.484" y2="204.47" gradientUnits="userSpaceOnUse">
<stop stop-color="#FFEDFA"/>
<stop offset="1" stop-color="#FFD8F4"/>
</linearGradient>
<linearGradient id="paint11_linear" x1="63.7428" y1="202.25" x2="40.5403" y2="226.13" gradientUnits="userSpaceOnUse">
<stop stop-color="#FFDDF6"/>
<stop offset="1" stop-color="#FFCAF0"/>
</linearGradient>
<linearGradient id="paint12_linear" x1="65.0351" y1="202" x2="41.8534" y2="204.499" gradientUnits="userSpaceOnUse">
<stop stop-color="#FAC9EC"/>
<stop offset="1" stop-color="#F3B3E1"/>
</linearGradient>
<clipPath id="clip0">
<rect width="362.055" height="364" transform="matrix(-1 0 0 1 362.063 60.25)" fill="white"/>
</clipPath>
</defs>
</svg>
