<svg width="335" height="151" viewBox="0 0 335 151" fill="none" xmlns="http://www.w3.org/2000/svg">
<mask id="mask0" mask-type="alpha" maskUnits="userSpaceOnUse" x="0" y="0" width="335" height="151">
<rect x="0.989258" y="0.738281" width="333.472" height="149.48" fill="#FFE8DC"/>
</mask>
<g mask="url(#mask0)">
<rect x="-17.8789" y="0.738281" width="371.583" height="149.48" fill="url(#paint0_radial)"/>
<path d="M219.411 58.8105L219.411 132.121" stroke="url(#paint1_linear)" stroke-width="10"/>
<path d="M215.909 95.4658H193.145" stroke="url(#paint2_linear)" stroke-width="10"/>
<path d="M245.677 95.4658H222.913" stroke="url(#paint3_linear)" stroke-width="10"/>
<rect x="191.197" y="57.2056" width="56.4282" height="77.1338" stroke="url(#paint4_linear)" stroke-width="7"/>
<rect x="86.4629" y="53.2261" width="58.4937" height="102.65" rx="2" fill="url(#paint5_linear)"/>
<rect x="96.939" y="63.2363" width="38.5804" height="36.8911" rx="1.25" stroke="#FFE8DC" stroke-width="1.5"/>
<rect x="96.939" y="112.368" width="38.5804" height="42.7577" rx="1.25" stroke="#FFE8DC" stroke-width="1.5"/>
<path d="M141.208 102.161C142.142 100.364 153.725 96.1031 159.497 95.014C174.381 90.7256 189.655 100.834 192.184 102.161C194.208 103.223 197.275 120.71 200.453 130.955L189.849 140.757L192.184 164.853H143.737L146.461 140.757L133.231 132.18C136.798 121.153 140.274 103.958 141.208 102.161Z" fill="url(#paint6_linear)"/>
<path d="M160.571 120.405C138.788 120.226 133.226 128.22 133.614 133.306C138.319 149.199 166.209 138.77 183.189 129.838L181.027 120.426C181.027 120.426 178.642 120.555 160.571 120.405Z" fill="#F98787"/>
<path d="M151.422 140.663L180.12 133.924" stroke="#B5545C" stroke-width="2" stroke-linecap="round" stroke-linejoin="round"/>
<path d="M173.017 120.405C194.799 120.226 200.362 128.22 199.973 133.306C195.268 149.199 167.378 138.77 150.398 129.838L152.56 120.426C152.56 120.426 154.945 120.555 173.017 120.405Z" fill="#FFBFC5"/>
<path d="M138.445 119.574C145.077 115.997 150.862 118.682 152.735 120.44C155.478 124.534 152.051 128.421 150.499 129.884C145.36 126.495 140.066 134.294 137.538 130.577C135.515 127.604 137.3 122.003 138.445 119.574Z" fill="#FFBFC5"/>
<path d="M194.445 119.574C187.813 115.996 182.028 118.681 180.155 120.438C177.413 124.533 180.84 128.42 182.393 129.883C187.53 126.495 192.825 134.294 195.353 130.578C197.375 127.605 195.59 122.003 194.445 119.574Z" fill="#FFBFC5"/>
<path d="M151.422 129.467C149.768 130.012 146.061 130.529 144.466 128.242C142.87 125.955 148.438 128.106 151.422 129.467Z" fill="#FFBFC5"/>
<path d="M200.751 133.306C201.14 128.221 195.577 120.226 173.794 120.406C160.262 120.517 157.888 120.462 157.549 120.427L157.55 120.405C157.55 120.405 157.435 120.415 157.549 120.427L156.578 133.306C173.018 140.552 195.004 148.312 200.751 133.306Z" fill="#F98787"/>
<path d="M158.622 120.54C167.572 119.927 187.729 120.131 196.757 125.849" stroke="#B5545C" stroke-width="2" stroke-linecap="round" stroke-linejoin="round"/>
<path fill-rule="evenodd" clip-rule="evenodd" d="M191.931 91.4084C192.481 90.279 192.7 89.0034 192.559 87.7428C192.418 86.4823 191.923 85.2932 191.139 84.3259C190.354 83.3586 189.313 82.6564 188.149 82.3081C186.985 81.9597 185.748 81.9809 184.597 82.3688C183.445 82.7568 182.429 83.4941 181.677 84.4877C180.926 85.4813 180.472 86.6866 180.374 87.9512C180.276 89.2159 180.538 90.4833 181.126 91.5932C181.715 92.7031 182.603 93.6058 183.68 94.1872C184.396 94.5741 185.178 94.8091 185.981 94.8788C186.784 94.9485 187.591 94.8515 188.358 94.5934C189.124 94.3353 189.834 93.9211 190.447 93.3745C191.061 92.828 191.565 92.1599 191.931 91.4084Z" fill="#FFBFC5"/>
<path d="M190.118 88.4829C190.116 87.7811 189.927 87.0941 189.573 86.4995C189.219 85.9049 188.714 85.4263 188.114 85.1179C187.515 84.8095 186.845 84.6836 186.181 84.7542C185.517 84.8249 184.885 85.0895 184.355 85.5179C183.826 85.9464 183.422 86.5218 183.187 87.1791C182.953 87.8363 182.897 88.5493 183.028 89.2374C183.158 89.9255 183.47 90.5613 183.926 91.0731C184.382 91.5848 184.966 91.9521 185.611 92.1334" stroke="#B5545C" stroke-width="2" stroke-linecap="round" stroke-linejoin="round"/>
<path fill-rule="evenodd" clip-rule="evenodd" d="M157.923 91.4084C158.474 90.279 158.692 89.0034 158.551 87.7428C158.41 86.4823 157.916 85.2932 157.131 84.3259C156.346 83.3586 155.306 82.6564 154.142 82.3081C152.977 81.9597 151.741 81.9809 150.589 82.3688C149.437 82.7568 148.421 83.4941 147.67 84.4877C146.918 85.4813 146.465 86.6866 146.367 87.9512C146.269 89.2159 146.531 90.4833 147.119 91.5932C147.707 92.7031 148.596 93.6058 149.673 94.1872C150.389 94.5741 151.171 94.8091 151.974 94.8788C152.776 94.9485 153.584 94.8515 154.35 94.5934C155.117 94.3353 155.827 93.9211 156.44 93.3745C157.053 92.828 157.557 92.1599 157.923 91.4084Z" fill="#FFBFC5"/>
<path d="M148.83 88.4829C148.832 87.7811 149.021 87.0941 149.375 86.4995C149.729 85.9049 150.234 85.4263 150.833 85.1179C151.433 84.8095 152.102 84.6836 152.767 84.7542C153.431 84.8249 154.063 85.0895 154.592 85.5179C155.121 85.9464 155.526 86.5218 155.761 87.1791C155.995 87.8363 156.05 88.5493 155.92 89.2374C155.789 89.9255 155.478 90.5613 155.022 91.0731C154.566 91.5848 153.982 91.9521 153.337 92.1334" stroke="#B5545C" stroke-width="2" stroke-linecap="round" stroke-linejoin="round"/>
<path fill-rule="evenodd" clip-rule="evenodd" d="M184.94 96.3756C186.512 93.1705 187.142 89.5471 186.749 85.9637C186.357 82.3803 184.959 78.9978 182.734 76.2441C180.509 73.4905 177.556 71.4893 174.248 70.4938C170.941 69.4983 167.428 69.5531 164.153 70.6514C160.878 71.7497 157.989 73.842 155.851 76.6638C153.713 79.4856 152.422 82.91 152.142 86.5039C151.861 90.0979 152.604 93.6998 154.276 96.8542C155.948 100.009 158.474 102.574 161.534 104.225C165.636 106.438 170.405 106.855 174.794 105.383C179.183 103.911 182.832 100.671 184.94 96.3756Z" fill="url(#paint7_radial)"/>
<path d="M173.017 102.818C173.365 102.466 173.925 102.482 174.269 102.855L178.871 107.855C179.214 108.229 179.211 108.817 178.863 109.17C178.515 109.522 177.955 109.506 177.611 109.132L173.009 104.132C172.666 103.759 172.669 103.171 173.017 102.818Z" fill="white"/>
<path d="M173.408 103.284L177.324 107.394" stroke="#B5545C"/>
<ellipse cx="172.63" cy="102.85" rx="2.28614" ry="1.35355" fill="#FDC4C9"/>
<path d="M169.51 91.901C169.626 91.353 169.29 90.8117 168.759 90.6919C168.229 90.5721 167.704 90.9192 167.588 91.4672L169.51 91.901ZM168.683 99.0974C169.207 99.2431 169.747 98.9222 169.888 98.3805C170.029 97.8389 169.719 97.2816 169.194 97.1359L168.683 99.0974ZM167.588 91.4672C167.369 92.5015 167.123 94.0907 167.106 95.4969C167.098 96.1917 167.144 96.9144 167.316 97.5212C167.477 98.089 167.842 98.8636 168.683 99.0974L169.194 97.1359C169.374 97.1859 169.307 97.3134 169.204 96.9518C169.113 96.6291 169.066 96.1399 169.073 95.5215C169.088 94.301 169.308 92.8577 169.51 91.901L167.588 91.4672Z" fill="#B5545C"/>
<path d="M157.796 85.8243C159.175 85.8243 162.194 85.5078 163.244 84.2417" stroke="#4A230D" stroke-width="3" stroke-linecap="round" stroke-linejoin="round"/>
<path d="M181.151 85.8243C179.773 85.8243 176.754 85.5078 175.703 84.2417" stroke="#4A230D" stroke-width="3" stroke-linecap="round" stroke-linejoin="round"/>
<path d="M157.603 90.416C157.871 91.5636 159.489 93.6533 163.821 92.8314" stroke="#B5545C" stroke-width="2" stroke-linecap="round" stroke-linejoin="round"/>
<path d="M181.345 90.416C181.077 91.5636 179.459 93.6533 175.127 92.8314" stroke="#B5545C" stroke-width="2" stroke-linecap="round" stroke-linejoin="round"/>
<path d="M156.173 76.3134C156.173 80.2651 153.677 90.6843 152.964 92.8174L148.043 67.5575C153.606 64.8631 160.95 58.583 163.767 59.4811L163.767 55.3969C172.41 54.409 186.033 61.3374 189.011 67.5565C191.988 73.7757 185.909 92.8174 185.909 92.8174C183.898 90.7068 182.611 79.2136 182.486 76.3134C182.486 76.3134 174.283 78.4725 169.115 78.5587C163.948 78.6449 156.173 76.3134 156.173 76.3134Z" fill="url(#paint8_linear)"/>
<ellipse cx="169.474" cy="96.188" rx="10.4335" ry="3.77785" fill="url(#paint9_radial)"/>
</g>
<defs>
<radialGradient id="paint0_radial" cx="0" cy="0" r="1" gradientUnits="userSpaceOnUse" gradientTransform="translate(170.544 97.1848) rotate(91.9274) scale(78.2473 90.1744)">
<stop stop-color="#FFEBE0"/>
<stop offset="1" stop-color="#FFE8DC"/>
</radialGradient>
<linearGradient id="paint1_linear" x1="219.911" y1="58.8105" x2="219.911" y2="173.167" gradientUnits="userSpaceOnUse">
<stop stop-color="#FBD3C0"/>
<stop offset="1" stop-color="#FBD3C0" stop-opacity="0"/>
</linearGradient>
<linearGradient id="paint2_linear" x1="207.542" y1="83.0908" x2="207.864" y2="113.089" gradientUnits="userSpaceOnUse">
<stop stop-color="#FBD3C0"/>
<stop offset="1" stop-color="#FBD3C0" stop-opacity="0"/>
</linearGradient>
<linearGradient id="paint3_linear" x1="236.143" y1="78.5908" x2="236.143" y2="115.091" gradientUnits="userSpaceOnUse">
<stop stop-color="#FBD3C0"/>
<stop offset="1" stop-color="#FBD3C0" stop-opacity="0"/>
</linearGradient>
<linearGradient id="paint4_linear" x1="219.411" y1="53.7056" x2="219.411" y2="161.323" gradientUnits="userSpaceOnUse">
<stop stop-color="#FBD3BF"/>
<stop offset="1" stop-color="#FBD3BF" stop-opacity="0"/>
</linearGradient>
<linearGradient id="paint5_linear" x1="115.71" y1="111.088" x2="115.71" y2="155.876" gradientUnits="userSpaceOnUse">
<stop stop-color="#FCD4BF"/>
<stop offset="1" stop-color="#FCD4BF" stop-opacity="0"/>
</linearGradient>
<linearGradient id="paint6_linear" x1="196.755" y1="100.247" x2="179.854" y2="128.706" gradientUnits="userSpaceOnUse">
<stop stop-color="#F2B3B3"/>
<stop offset="1" stop-color="#F98787"/>
</linearGradient>
<radialGradient id="paint7_radial" cx="0" cy="0" r="1" gradientUnits="userSpaceOnUse" gradientTransform="translate(170.791 94.2461) rotate(123.08) scale(29.2394 28.7548)">
<stop stop-color="#FFDADD"/>
<stop offset="1" stop-color="#F98E97"/>
</radialGradient>
<linearGradient id="paint8_linear" x1="186.512" y1="63.2461" x2="179.032" y2="78.9739" gradientUnits="userSpaceOnUse">
<stop stop-color="#9E5F3C"/>
<stop offset="1" stop-color="#6A3416"/>
</linearGradient>
<radialGradient id="paint9_radial" cx="0" cy="0" r="1" gradientUnits="userSpaceOnUse" gradientTransform="translate(166.865 97.6315) rotate(90) scale(3.77785 10.4335)">
<stop stop-color="#E1414E" stop-opacity="0.42"/>
<stop offset="1" stop-color="#E1414E" stop-opacity="0"/>
</radialGradient>
</defs>
</svg>
