<svg width="335" height="151" viewBox="0 0 335 151" fill="none" xmlns="http://www.w3.org/2000/svg">
<mask id="mask0" mask-type="alpha" maskUnits="userSpaceOnUse" x="0" y="0" width="335" height="151">
<rect x="0.989746" y="0.742188" width="333.472" height="149.48" fill="#FFE8DC"/>
</mask>
<g mask="url(#mask0)">
<rect x="-18.0659" y="0.742188" width="371.583" height="149.48" fill="url(#paint0_radial)"/>
<path d="M219.412 58.8145L219.412 132.125" stroke="url(#paint1_linear)" stroke-width="10"/>
<path d="M215.909 95.4697H193.145" stroke="url(#paint2_linear)" stroke-width="10"/>
<path d="M245.677 95.4697H222.913" stroke="url(#paint3_linear)" stroke-width="10"/>
<rect x="191.197" y="57.2095" width="56.4282" height="77.1338" stroke="url(#paint4_linear)" stroke-width="7"/>
<rect x="86.4634" y="53.23" width="58.4937" height="102.65" rx="2" fill="url(#paint5_linear)"/>
<rect x="96.9395" y="63.2402" width="38.5804" height="36.8911" rx="1.25" stroke="#FFE8DC" stroke-width="1.5"/>
<rect x="96.9395" y="112.372" width="38.5804" height="42.7577" rx="1.25" stroke="#FFE8DC" stroke-width="1.5"/>
<path d="M141.209 102.165C142.143 100.368 153.726 96.107 159.498 95.0179C174.382 90.7295 189.655 100.838 192.185 102.165C194.208 103.227 197.276 120.714 200.454 130.959L189.85 140.761L192.185 164.857H143.738L146.462 140.761L133.231 132.184C136.798 121.157 140.275 103.962 141.209 102.165Z" fill="url(#paint6_linear)"/>
<path d="M160.571 120.409C138.789 120.229 133.226 128.224 133.615 133.31C138.319 149.203 166.209 138.774 183.19 129.842L181.027 120.43C181.027 120.43 178.643 120.559 160.571 120.409Z" fill="#F98787"/>
<path d="M151.422 140.667L180.121 133.928" stroke="#B5545C" stroke-width="2" stroke-linecap="round" stroke-linejoin="round"/>
<path d="M173.017 120.409C194.799 120.229 200.362 128.224 199.974 133.31C195.269 149.203 167.379 138.774 150.399 129.842L152.561 120.43C152.561 120.43 154.946 120.559 173.017 120.409Z" fill="#FFBFC5"/>
<path d="M138.445 119.578C145.077 116.001 150.863 118.686 152.736 120.444C155.478 124.538 152.052 128.425 150.499 129.888C145.361 126.499 140.067 134.298 137.538 130.581C135.516 127.608 137.3 122.007 138.445 119.578Z" fill="#FFBFC5"/>
<path d="M194.445 119.578C187.813 116 182.028 118.685 180.156 120.442C177.414 124.537 180.84 128.424 182.393 129.887C187.531 126.499 192.826 134.298 195.353 130.582C197.376 127.609 195.591 122.007 194.445 119.578Z" fill="#FFBFC5"/>
<path d="M151.422 129.471C149.768 130.016 146.062 130.533 144.466 128.246C142.871 125.959 148.439 128.11 151.422 129.471Z" fill="#FFBFC5"/>
<path d="M200.751 133.31C201.14 128.225 195.577 120.23 173.795 120.41C160.263 120.521 157.888 120.466 157.549 120.431L157.551 120.409C157.551 120.409 157.436 120.419 157.549 120.431L156.578 133.31C173.019 140.556 195.005 148.316 200.751 133.31Z" fill="#F98787"/>
<path d="M158.623 120.544C167.573 119.931 187.729 120.135 196.757 125.853" stroke="#B5545C" stroke-width="2" stroke-linecap="round" stroke-linejoin="round"/>
<path fill-rule="evenodd" clip-rule="evenodd" d="M191.931 91.4123C192.482 90.2829 192.7 89.0073 192.559 87.7467C192.418 86.4862 191.924 85.2971 191.139 84.3298C190.354 83.3625 189.314 82.6603 188.15 82.312C186.985 81.9636 185.749 81.9848 184.597 82.3727C183.445 82.7607 182.429 83.498 181.678 84.4916C180.926 85.4852 180.473 86.6905 180.375 87.9551C180.277 89.2198 180.538 90.4872 181.127 91.5971C181.715 92.707 182.604 93.6097 183.68 94.1911C184.397 94.578 185.179 94.813 185.981 94.8827C186.784 94.9524 187.592 94.8554 188.358 94.5973C189.125 94.3392 189.835 93.925 190.448 93.3784C191.061 92.8319 191.565 92.1638 191.931 91.4123Z" fill="#FFBFC5"/>
<path d="M190.118 88.4868C190.116 87.785 189.928 87.098 189.574 86.5034C189.22 85.9088 188.714 85.4302 188.115 85.1218C187.515 84.8134 186.846 84.6875 186.182 84.7582C185.517 84.8288 184.885 85.0934 184.356 85.5218C183.827 85.9503 183.422 86.5257 183.188 87.183C182.953 87.8402 182.898 88.5532 183.028 89.2413C183.159 89.9294 183.47 90.5652 183.926 91.077C184.383 91.5887 184.966 91.956 185.611 92.1373" stroke="#B5545C" stroke-width="2" stroke-linecap="round" stroke-linejoin="round"/>
<path fill-rule="evenodd" clip-rule="evenodd" d="M157.924 91.4123C158.474 90.2829 158.693 89.0073 158.552 87.7467C158.411 86.4862 157.917 85.2971 157.132 84.3298C156.347 83.3625 155.307 82.6603 154.142 82.312C152.978 81.9636 151.742 81.9848 150.59 82.3727C149.438 82.7607 148.422 83.498 147.67 84.4916C146.919 85.4852 146.466 86.6905 146.367 87.9551C146.269 89.2198 146.531 90.4872 147.119 91.5971C147.708 92.707 148.596 93.6097 149.673 94.1911C150.389 94.578 151.171 94.813 151.974 94.8827C152.777 94.9524 153.585 94.8554 154.351 94.5973C155.117 94.3392 155.828 93.925 156.441 93.3784C157.054 92.8319 157.558 92.1638 157.924 91.4123Z" fill="#FFBFC5"/>
<path d="M148.83 88.4868C148.832 87.785 149.021 87.098 149.375 86.5034C149.729 85.9088 150.234 85.4302 150.834 85.1218C151.433 84.8134 152.103 84.6875 152.767 84.7582C153.431 84.8288 154.064 85.0934 154.593 85.5218C155.122 85.9503 155.527 86.5257 155.761 87.183C155.996 87.8402 156.051 88.5532 155.92 89.2413C155.79 89.9294 155.479 90.5652 155.022 91.077C154.566 91.5887 153.982 91.956 153.338 92.1373" stroke="#B5545C" stroke-width="2" stroke-linecap="round" stroke-linejoin="round"/>
<path fill-rule="evenodd" clip-rule="evenodd" d="M184.94 96.3795C186.512 93.1744 187.142 89.551 186.75 85.9676C186.357 82.3842 184.96 79.0017 182.735 76.248C180.51 73.4944 177.556 71.4932 174.249 70.4977C170.941 69.5022 167.428 69.557 164.153 70.6553C160.878 71.7536 157.989 73.8459 155.851 76.6677C153.713 79.4895 152.423 82.9139 152.142 86.5078C151.862 90.1018 152.605 93.7037 154.277 96.8581C155.948 100.013 158.474 102.578 161.535 104.229C165.636 106.442 170.406 106.859 174.794 105.387C179.183 103.915 182.833 100.675 184.94 96.3795Z" fill="url(#paint7_radial)"/>
<path d="M173.017 102.822C173.365 102.469 173.925 102.486 174.269 102.859L178.871 107.859C179.215 108.232 179.211 108.821 178.864 109.174C178.516 109.526 177.955 109.509 177.612 109.136L173.01 104.136C172.666 103.763 172.67 103.175 173.017 102.822Z" fill="white"/>
<path d="M173.409 103.288L177.324 107.398" stroke="#B5545C"/>
<ellipse cx="172.63" cy="102.854" rx="2.28614" ry="1.35355" fill="#FDC4C9"/>
<path d="M169.511 91.9049C169.627 91.3569 169.291 90.8156 168.76 90.6958C168.229 90.576 167.705 90.9231 167.589 91.4711L169.511 91.9049ZM168.683 99.1013C169.208 99.247 169.748 98.9261 169.889 98.3844C170.03 97.8428 169.719 97.2855 169.195 97.1398L168.683 99.1013ZM167.589 91.4711C167.37 92.5054 167.123 94.0946 167.107 95.5008C167.098 96.1956 167.145 96.9183 167.317 97.5251C167.477 98.0929 167.842 98.8675 168.683 99.1013L169.195 97.1398C169.374 97.1898 169.307 97.3173 169.205 96.9557C169.114 96.633 169.066 96.1438 169.074 95.5254C169.088 94.3049 169.308 92.8616 169.511 91.9049L167.589 91.4711Z" fill="#B5545C"/>
<path d="M157.797 85.8282C159.175 85.8282 162.194 85.5117 163.245 84.2456" stroke="#4A230D" stroke-width="3" stroke-linecap="round" stroke-linejoin="round"/>
<path d="M181.151 85.8282C179.773 85.8282 176.754 85.5117 175.704 84.2456" stroke="#4A230D" stroke-width="3" stroke-linecap="round" stroke-linejoin="round"/>
<path d="M157.604 90.4199C157.871 91.5675 159.489 93.6572 163.822 92.8353" stroke="#B5545C" stroke-width="2" stroke-linecap="round" stroke-linejoin="round"/>
<path d="M181.345 90.4199C181.078 91.5675 179.459 93.6572 175.127 92.8353" stroke="#B5545C" stroke-width="2" stroke-linecap="round" stroke-linejoin="round"/>
<path d="M156.173 76.3173C156.173 80.269 153.677 90.6882 152.964 92.8213L148.044 67.5614C153.606 64.867 160.951 58.5869 163.768 59.485L163.768 55.4008C172.41 54.4129 186.034 61.3413 189.011 67.5604C191.989 73.7796 185.909 92.8213 185.909 92.8213C183.898 90.7107 182.611 79.2175 182.486 76.3173C182.486 76.3173 174.283 78.4764 169.116 78.5626C163.949 78.6488 156.173 76.3173 156.173 76.3173Z" fill="url(#paint8_linear)"/>
<ellipse cx="169.474" cy="96.1919" rx="10.4335" ry="3.77785" fill="url(#paint9_radial)"/>
</g>
<defs>
<radialGradient id="paint0_radial" cx="0" cy="0" r="1" gradientUnits="userSpaceOnUse" gradientTransform="translate(170.357 97.1887) rotate(91.9274) scale(78.2473 90.1744)">
<stop stop-color="#FFEBE0"/>
<stop offset="1" stop-color="#FFE8DC"/>
</radialGradient>
<linearGradient id="paint1_linear" x1="219.912" y1="58.8145" x2="219.912" y2="173.171" gradientUnits="userSpaceOnUse">
<stop stop-color="#FBD3C0"/>
<stop offset="1" stop-color="#FBD3C0" stop-opacity="0"/>
</linearGradient>
<linearGradient id="paint2_linear" x1="207.543" y1="83.0947" x2="207.864" y2="113.093" gradientUnits="userSpaceOnUse">
<stop stop-color="#FBD3C0"/>
<stop offset="1" stop-color="#FBD3C0" stop-opacity="0"/>
</linearGradient>
<linearGradient id="paint3_linear" x1="236.144" y1="78.5947" x2="236.144" y2="115.095" gradientUnits="userSpaceOnUse">
<stop stop-color="#FBD3C0"/>
<stop offset="1" stop-color="#FBD3C0" stop-opacity="0"/>
</linearGradient>
<linearGradient id="paint4_linear" x1="219.411" y1="53.7095" x2="219.411" y2="161.327" gradientUnits="userSpaceOnUse">
<stop stop-color="#FBD3BF"/>
<stop offset="1" stop-color="#FBD3BF" stop-opacity="0"/>
</linearGradient>
<linearGradient id="paint5_linear" x1="115.71" y1="111.092" x2="115.71" y2="155.88" gradientUnits="userSpaceOnUse">
<stop stop-color="#FCD4BF"/>
<stop offset="1" stop-color="#FCD4BF" stop-opacity="0"/>
</linearGradient>
<linearGradient id="paint6_linear" x1="196.756" y1="100.25" x2="179.854" y2="128.71" gradientUnits="userSpaceOnUse">
<stop stop-color="#F2B3B3"/>
<stop offset="1" stop-color="#F98787"/>
</linearGradient>
<radialGradient id="paint7_radial" cx="0" cy="0" r="1" gradientUnits="userSpaceOnUse" gradientTransform="translate(170.792 94.25) rotate(123.08) scale(29.2394 28.7548)">
<stop stop-color="#FFDADD"/>
<stop offset="1" stop-color="#F98E97"/>
</radialGradient>
<linearGradient id="paint8_linear" x1="186.513" y1="63.25" x2="179.033" y2="78.9778" gradientUnits="userSpaceOnUse">
<stop stop-color="#9E5F3C"/>
<stop offset="1" stop-color="#6A3416"/>
</linearGradient>
<radialGradient id="paint9_radial" cx="0" cy="0" r="1" gradientUnits="userSpaceOnUse" gradientTransform="translate(166.866 97.6355) rotate(90) scale(3.77785 10.4335)">
<stop stop-color="#B5545C" stop-opacity="0.42"/>
<stop offset="1" stop-color="#B5545C" stop-opacity="0"/>
</radialGradient>
</defs>
</svg>
