<svg width="195" height="224" viewBox="0 0 195 224" fill="none" xmlns="http://www.w3.org/2000/svg">
<mask id="mask0" mask-type="alpha" maskUnits="userSpaceOnUse" x="0" y="0" width="195" height="224">
<rect x="0.874512" y="0.922852" width="193.196" height="222.683" rx="4" fill="#FFE8DC"/>
</mask>
<g mask="url(#mask0)">
<rect x="-1.98438" y="-7.83301" width="198.913" height="231.439" fill="url(#paint0_radial)"/>
<rect x="-1.98438" y="-7.83301" width="198.913" height="231.439" fill="url(#paint1_linear)"/>
<path d="M-20 163.605C27.6 162.405 76.5 186.105 95 198.105L152.5 223.605H-54C-62.5 204.105 -67.6 164.805 -20 163.605Z" fill="#FFF2EC" fill-opacity="0.5"/>
<path d="M142.632 141.096C171.459 123.002 214.701 127.423 232.719 131.895C260.933 141.096 253.164 163.074 245.753 172.914C224.03 164.352 175.293 152.366 154.133 172.914C127.682 198.598 19.5771 175.98 40.2779 178.664C60.9787 181.347 106.597 163.713 142.632 141.096Z" fill="#FFF2EC" fill-opacity="0.59"/>
<path fill-rule="evenodd" clip-rule="evenodd" d="M153.411 122.68H173.125V152.44H153.411V122.68ZM143.411 122.68H123.697V152.44H143.411L143.411 122.68ZM123.697 162.44V192.814H143.411L143.411 162.44H123.697ZM153.411 192.814H173.125V162.44H153.411V192.814ZM116.697 115.68H123.697H173.125H180.125V122.68V192.814V199.814H173.125H123.697H116.697V192.814V122.68V115.68Z" fill="url(#paint2_linear)"/>
<rect x="15.4629" y="115.201" width="58.4937" height="102.65" rx="2" fill="url(#paint3_linear)"/>
<rect x="25.9395" y="125.211" width="38.5804" height="36.8911" rx="1.25" stroke="#FFE8DC" stroke-width="1.5"/>
<rect x="25.9395" y="174.343" width="38.5804" height="42.7577" rx="1.25" stroke="#FFE8DC" stroke-width="1.5"/>
<path d="M70.2081 164.136C71.142 162.339 82.7251 158.078 88.4972 156.989C103.381 152.7 118.655 162.809 121.184 164.136C123.208 165.198 126.275 182.685 129.453 192.929L118.849 202.731L121.184 226.828H72.7375L75.4614 202.731L62.231 194.155C65.798 183.127 69.2742 165.933 70.2081 164.136Z" fill="url(#paint4_linear)"/>
<path d="M89.5707 182.38C67.7884 182.2 62.2256 190.195 62.6143 195.28C67.319 211.173 95.209 200.744 112.189 191.813L110.027 182.401C110.027 182.401 107.642 182.529 89.5707 182.38Z" fill="#F98787"/>
<path d="M80.4219 202.637L109.12 195.898" stroke="#B5545C" stroke-width="2" stroke-linecap="round" stroke-linejoin="round"/>
<path d="M102.017 182.38C123.799 182.2 129.362 190.195 128.973 195.28C124.268 211.173 96.3784 200.744 79.3982 191.813L81.5605 182.401C81.5605 182.401 83.9452 182.529 102.017 182.38Z" fill="#FFBFC5"/>
<path d="M67.4448 181.549C74.0769 177.972 79.8624 180.657 81.7352 182.414C84.4779 186.509 81.0515 190.396 79.4985 191.858C74.3604 188.47 69.0663 196.268 66.5379 192.552C64.5153 189.579 66.2998 183.978 67.4448 181.549Z" fill="#FFBFC5"/>
<path d="M123.445 181.549C116.813 177.971 111.028 180.655 109.155 182.413C106.413 186.507 109.84 190.395 111.393 191.857C116.53 188.469 121.825 196.269 124.353 192.553C126.375 189.579 124.59 183.978 123.445 181.549Z" fill="#FFBFC5"/>
<path d="M80.4216 191.442C78.7678 191.986 75.0613 192.504 73.4659 190.217C71.8704 187.929 77.4382 190.08 80.4216 191.442Z" fill="#FFBFC5"/>
<path d="M129.751 195.28C130.14 190.195 124.577 182.2 102.794 182.38C89.262 182.492 86.8877 182.436 86.5488 182.401L86.5504 182.38C86.5504 182.38 86.4351 182.39 86.5488 182.401L85.5776 195.28C102.018 202.527 124.004 210.286 129.751 195.28Z" fill="#F98787"/>
<path d="M87.6221 182.514C96.5721 181.902 116.729 182.106 125.757 187.824" stroke="#B5545C" stroke-width="2" stroke-linecap="round" stroke-linejoin="round"/>
<path fill-rule="evenodd" clip-rule="evenodd" d="M120.931 153.383C121.481 152.254 121.7 150.978 121.559 149.717C121.418 148.457 120.923 147.268 120.139 146.3C119.354 145.333 118.313 144.631 117.149 144.283C115.985 143.934 114.748 143.955 113.597 144.343C112.445 144.731 111.429 145.469 110.677 146.462C109.926 147.456 109.472 148.661 109.374 149.926C109.276 151.191 109.538 152.458 110.126 153.568C110.715 154.678 111.603 155.58 112.68 156.162C113.396 156.549 114.178 156.784 114.981 156.853C115.784 156.923 116.591 156.826 117.358 156.568C118.124 156.31 118.834 155.896 119.447 155.349C120.061 154.803 120.565 154.134 120.931 153.383V153.383Z" fill="#FFBFC5"/>
<path d="M119.118 150.458C119.116 149.756 118.927 149.069 118.573 148.474C118.219 147.879 117.714 147.401 117.114 147.093C116.515 146.784 115.845 146.658 115.181 146.729C114.517 146.8 113.885 147.064 113.355 147.493C112.826 147.921 112.422 148.496 112.187 149.154C111.953 149.811 111.897 150.524 112.028 151.212C112.158 151.9 112.47 152.536 112.926 153.048C113.382 153.559 113.966 153.927 114.611 154.108" stroke="#B5545C" stroke-width="2" stroke-linecap="round" stroke-linejoin="round"/>
<path fill-rule="evenodd" clip-rule="evenodd" d="M86.9235 153.383C87.4738 152.254 87.6922 150.978 87.5512 149.717C87.4102 148.457 86.9161 147.268 86.1312 146.3C85.3464 145.333 84.3061 144.631 83.1417 144.283C81.9773 143.934 80.7411 143.955 79.5892 144.343C78.4373 144.731 77.4215 145.469 76.67 146.462C75.9185 147.456 75.465 148.661 75.3669 149.926C75.2689 151.191 75.5305 152.458 76.1189 153.568C76.7072 154.678 77.5959 155.58 78.6726 156.162C79.389 156.549 80.1709 156.784 80.9736 156.853C81.7764 156.923 82.5841 156.826 83.3505 156.568C84.1169 156.31 84.827 155.896 85.4401 155.349C86.0532 154.803 86.5573 154.134 86.9235 153.383V153.383Z" fill="#FFBFC5"/>
<path d="M77.8298 150.458C77.8319 149.756 78.0206 149.069 78.3747 148.474C78.7287 147.879 79.234 147.401 79.8334 147.093C80.4327 146.784 81.1024 146.658 81.7666 146.729C82.4309 146.8 83.0632 147.064 83.5923 147.493C84.1214 147.921 84.5261 148.496 84.7607 149.154C84.9952 149.811 85.0504 150.524 84.9198 151.212C84.7893 151.9 84.4782 152.536 84.0219 153.048C83.5655 153.559 82.982 153.927 82.3372 154.108" stroke="#B5545C" stroke-width="2" stroke-linecap="round" stroke-linejoin="round"/>
<path fill-rule="evenodd" clip-rule="evenodd" d="M113.94 158.35C115.512 155.145 116.142 151.522 115.749 147.938C115.357 144.355 113.959 140.972 111.734 138.219C109.509 135.465 106.556 133.464 103.248 132.468C99.9409 131.473 96.4275 131.528 93.1527 132.626C89.8779 133.724 86.9888 135.817 84.8509 138.638C82.7129 141.46 81.4221 144.885 81.1418 148.479C80.8615 152.072 81.6042 155.674 83.2761 158.829C84.9479 161.983 87.4737 164.548 90.5341 166.2C94.6356 168.413 99.405 168.829 103.794 167.357C108.183 165.885 111.832 162.646 113.94 158.35Z" fill="url(#paint5_radial)"/>
<path d="M102.017 164.793C102.365 164.44 102.925 164.457 103.269 164.83L107.871 169.83C108.214 170.203 108.211 170.792 107.863 171.144V171.144C107.515 171.497 106.955 171.48 106.611 171.107L102.009 166.107C101.666 165.734 101.669 165.145 102.017 164.793V164.793Z" fill="white"/>
<path d="M102.408 165.259L106.324 169.368" stroke="#B5545C"/>
<ellipse cx="101.63" cy="164.824" rx="2.28614" ry="1.35355" fill="#FDC4C9"/>
<path d="M98.5102 153.876C98.6263 153.328 98.2901 152.786 97.7594 152.667C97.2287 152.547 96.7044 152.894 96.5884 153.442L98.5102 153.876ZM97.6829 161.072C98.2075 161.218 98.7471 160.897 98.8883 160.355C99.0294 159.813 98.7186 159.256 98.194 159.111L97.6829 161.072ZM96.5884 153.442C96.3694 154.476 96.1226 156.065 96.1061 157.471C96.098 158.166 96.1444 158.889 96.3161 159.496C96.4766 160.064 96.8415 160.838 97.6829 161.072L98.194 159.111C98.3739 159.16 98.3067 159.288 98.2044 158.926C98.1131 158.604 98.0659 158.115 98.0732 157.496C98.0875 156.276 98.3077 154.832 98.5102 153.876L96.5884 153.442Z" fill="#B5545C"/>
<path d="M86.7964 147.799C88.1746 147.799 91.1936 147.482 92.2442 146.216" stroke="#4A230D" stroke-width="3" stroke-linecap="round" stroke-linejoin="round"/>
<path d="M110.151 147.799C108.773 147.799 105.754 147.482 104.703 146.216" stroke="#4A230D" stroke-width="3" stroke-linecap="round" stroke-linejoin="round"/>
<path d="M86.603 152.391C86.8706 153.538 88.4888 155.628 92.821 154.806" stroke="#B5545C" stroke-width="2" stroke-linecap="round" stroke-linejoin="round"/>
<path d="M110.345 152.391C110.077 153.538 108.459 155.628 104.127 154.806" stroke="#B5545C" stroke-width="2" stroke-linecap="round" stroke-linejoin="round"/>
<path d="M85.1728 138.288C85.1728 142.24 82.6769 152.659 81.9638 154.792L77.0435 129.532C82.6056 126.838 89.9505 120.558 92.7672 121.456L92.7672 117.372C101.41 116.384 115.033 123.312 118.011 129.531C120.988 135.75 114.909 154.792 114.909 154.792C112.898 152.681 111.611 141.188 111.486 138.288C111.486 138.288 103.283 140.447 98.1154 140.533C92.9481 140.619 85.1728 138.288 85.1728 138.288Z" fill="url(#paint6_linear)"/>
<ellipse cx="98.4736" cy="158.163" rx="10.4335" ry="3.77785" fill="url(#paint7_radial)"/>
</g>
<defs>
<radialGradient id="paint0_radial" cx="0" cy="0" r="1" gradientUnits="userSpaceOnUse" gradientTransform="translate(98.8809 141.494) rotate(90) scale(106.904 123.951)">
<stop stop-color="#FFEAE0"/>
<stop offset="1" stop-color="#FFE8DC"/>
</radialGradient>
<linearGradient id="paint1_linear" x1="97.4721" y1="-7.83301" x2="97.4721" y2="223.606" gradientUnits="userSpaceOnUse">
<stop stop-color="#FFD2BB"/>
<stop offset="1" stop-color="#FFE8DC" stop-opacity="0"/>
</linearGradient>
<linearGradient id="paint2_linear" x1="148.411" y1="115.68" x2="148.411" y2="223.298" gradientUnits="userSpaceOnUse">
<stop stop-color="#FBD3BF"/>
<stop offset="1" stop-color="#FBD3BF" stop-opacity="0"/>
</linearGradient>
<linearGradient id="paint3_linear" x1="44.7098" y1="173.063" x2="44.7098" y2="217.85" gradientUnits="userSpaceOnUse">
<stop stop-color="#FCD4BF"/>
<stop offset="1" stop-color="#FCD4BF" stop-opacity="0"/>
</linearGradient>
<linearGradient id="paint4_linear" x1="125.755" y1="162.221" x2="108.854" y2="190.681" gradientUnits="userSpaceOnUse">
<stop stop-color="#F2B3B3"/>
<stop offset="1" stop-color="#F98787"/>
</linearGradient>
<radialGradient id="paint5_radial" cx="0" cy="0" r="1" gradientUnits="userSpaceOnUse" gradientTransform="translate(99.7914 156.221) rotate(123.08) scale(29.2394 28.7548)">
<stop stop-color="#FFDADD"/>
<stop offset="1" stop-color="#F98E97"/>
</radialGradient>
<linearGradient id="paint6_linear" x1="115.512" y1="125.221" x2="108.032" y2="140.949" gradientUnits="userSpaceOnUse">
<stop stop-color="#9E5F3C"/>
<stop offset="1" stop-color="#6A3416"/>
</linearGradient>
<radialGradient id="paint7_radial" cx="0" cy="0" r="1" gradientUnits="userSpaceOnUse" gradientTransform="translate(97.0297 160.574) rotate(90) scale(3.77785 10.4335)">
<stop stop-color="#E1414E" stop-opacity="0.42"/>
<stop offset="1" stop-color="#E1414E" stop-opacity="0"/>
</radialGradient>
</defs>
</svg>
