<svg width="255" height="205" viewBox="0 0 255 205" fill="none" xmlns="http://www.w3.org/2000/svg">
<path d="M20 80.4998C-14.8 118.1 5.50003 163.166 20 181C240.5 220 264 134.5 227.5 130.5C191 126.5 110.5 -10.5002 74.5 1.49976C38.5 13.4998 63.5 33.4998 20 80.4998Z" fill="url(#paint0_linear)"/>
<path d="M166.527 9.1543L166.527 81.25" stroke="url(#paint1_linear)" stroke-width="10"/>
<path d="M161.75 45.8096H140" stroke="url(#paint2_linear)" stroke-width="10"/>
<path d="M192.875 45.8096H171.5" stroke="url(#paint3_linear)" stroke-width="10"/>
<rect x="136.741" y="7.54932" width="59.5719" height="77.1338" stroke="url(#paint4_linear)" stroke-width="7"/>
<path d="M37.9993 115.248C43.2458 64.4972 62.0032 52.2297 72.0865 53.6464C98.8368 47.146 108.614 84.2889 129.337 111.647C138.18 123.321 146.688 124.546 155.587 141.147C185.337 196.647 46.1646 185.599 34.5005 176.498C14.4737 160.871 36.3214 131.479 37.9993 115.248Z" fill="#9AA1EC"/>
<path d="M2.50053 181.017C9.70053 173.417 54.5005 172.517 76.0005 173.017C219.501 165.017 261 185.017 253.5 193.517C246 202.017 213 198.517 178.5 193.517C144 188.517 121.001 203.517 66.0005 204.017C11.0005 204.517 -6.49947 190.517 2.50053 181.017Z" fill="url(#paint5_linear)"/>
<path d="M157.568 101.015C169.651 84.4937 189.48 103.468 194.833 131.095L187.314 136.754C183.316 116.122 172.692 120.987 162.435 114.408C154.388 109.246 155.837 103.328 157.568 101.015Z" fill="#D6D9FF"/>
<path d="M244.457 106.795C234.515 88.903 212.487 105.272 203.749 132.022L210.509 138.57C217.034 118.592 226.973 124.738 237.967 119.481C246.592 115.357 245.887 109.305 244.457 106.795Z" fill="#D6D9FF"/>
<path d="M212.699 84.5581C191.699 79.9581 193.449 112.975 196.949 130.058L201.949 133.808C199.199 109.558 238.949 90.3081 212.699 84.5581Z" fill="#D6D9FF"/>
<path d="M176.261 129.909H220.186L216.186 175.642C216.186 175.642 205.238 177.793 198.223 177.793C191.209 177.793 180.261 175.642 180.261 175.642L176.261 129.909Z" fill="#A7AEFF"/>
<path d="M67.4994 119.998C62.4994 110.598 63.1662 96.9144 63.4995 89.4977C63.8328 82.0808 80.7995 60.7976 82.9995 73.9976C85.7495 90.4976 145.75 133.998 155 142.248C164.25 150.498 161 167.998 149.75 174.498C138.5 180.998 141.25 171.498 135.5 156.248C129.75 140.998 106.25 136.248 82.9995 147.248C59.7495 158.248 58.2495 151.498 58.2495 147.248C58.2495 142.998 73.7494 131.748 67.4994 119.998Z" fill="#8F94E4"/>
<path d="M137.824 143.257C128.49 143.09 108.224 143.557 101.824 146.757" stroke="#491987" stroke-opacity="0.2"/>
<path d="M68.837 61.3965C50.4995 80.748 60.1421 96.2381 55.4995 111.498C48.9996 132.863 43.3035 144.996 48.087 153.396C58.337 171.396 148.087 168.646 157.337 158.896" stroke="#491987" stroke-opacity="0.2" stroke-linecap="round"/>
<path d="M65.6207 58.2251C67.2207 55.6251 67.2041 50.5585 66.9957 48.3501C67.579 47.7668 69.4456 45.1751 72.2456 39.4751C75.7456 32.3501 87.1206 31.1001 94.4956 33.6001C101.871 36.1001 99.3706 43.6001 98.9956 44.8501C98.6206 46.1001 99.7456 56.3501 103.746 60.1001C106.946 63.1001 108.496 69.8501 108.871 72.8501C103.662 75.7251 90.6456 82.0001 80.2456 84.1001C69.8456 86.2001 64.6624 83.6418 63.3707 82.1001C57.9957 73.7251 63.6207 61.4751 65.6207 58.2251Z" fill="url(#paint6_linear)"/>
<path d="M200.123 183.636C196.595 182.16 199.445 176.212 199.45 172.925C202.203 169.252 207.591 169.97 209.325 171.647C216.912 178.985 229.525 181.645 228.245 184.618C226.965 187.591 215.584 186.915 212.469 185.607C204.158 182.115 204.534 185.48 200.123 183.636Z" fill="#FEB5BB"/>
<path d="M134.436 171.038C131.772 162.238 137.186 159.845 140.226 159.748L147.897 164.38C136.173 187.104 143.146 190.526 136.173 187.104C125.531 181.879 135.22 173.625 134.436 171.038Z" fill="#FEB5BB"/>
<path d="M124.74 91.9281C105.259 71.7482 100.867 76.1476 96.9999 77.25C98.2011 92.2613 122.254 103.787 125.666 101.538C128.396 99.7384 126.374 94.01 124.74 91.9281Z" fill="#FEB5BB"/>
<path d="M159.384 98.873L124.884 92.373V101.623L159.384 104.623V98.873Z" fill="#FEB5BB"/>
<path d="M166.509 129.998C175.709 112.998 169.583 104.25 165.75 102.25C151.25 99.25 149.009 122.998 148.509 133.998C148.109 142.798 142.676 154.915 139.759 160.498L147.009 165.748C149.676 160.915 157.309 146.998 166.509 129.998Z" fill="#FFBB96"/>
<path d="M148.625 162.125L141.625 157.125" stroke="#F3AC96"/>
<path d="M138.534 130.219C119.426 142.625 107.485 134.827 104.285 129.887L115.548 112.499C154.311 100.593 166.868 100.527 166.923 103.241C171.862 117.754 140.103 129.552 138.534 130.219Z" fill="#FFBA96"/>
<path d="M144.125 158.5C150.625 144.167 166.523 116.348 162.973 113.026C158 108.373 134.64 116.86 120.973 119.526" stroke="#EEA28A"/>
<path d="M134.244 141.455C109.767 145.749 101.112 132.823 100.009 126.498L118.739 113.854C162.731 118.455 175.362 123.751 174.259 126.498C173.019 143.174 136.104 141.455 134.244 141.455Z" fill="#FFC4A5"/>
<path d="M175.51 151.247C165.31 146.447 160.131 144.772 157.884 139.248C151.884 124.498 169.76 123.248 173.76 125.248C176.96 126.848 197.509 154.914 208.259 170.498L199.745 176.231L175.51 151.247Z" fill="#FFC4A5"/>
<path d="M206.25 167.373L197.125 173.5" stroke="#F3AC96"/>
<path d="M107 121.498C110.334 124.998 120.1 131.598 132.5 129.998C144.9 128.398 160.167 130.498 166.25 131.748L202 170.248" stroke="#F3AC96"/>
<path d="M74.0004 89.1249C74.8004 80.3249 78.5 80.6249 81.75 77.2498C95.2407 73.7523 109.25 78.3751 111.5 85.2497C113.75 92.1244 112.125 91.5001 122.259 111.119L100.509 127.244C89.5927 118.661 73.2004 97.9249 74.0004 89.1249Z" fill="url(#paint7_linear)"/>
<path d="M103 97.5513C104.5 96.0513 108.2 92.9513 111 92.5513" stroke="#B9B1EE"/>
<path fill-rule="evenodd" clip-rule="evenodd" d="M92.8975 65.5371C92.9075 69.1329 94.4147 73.4803 95.9165 76.4932C93.8613 78.3134 85.0266 80.6836 81.1202 79.6572C80.7164 79.5511 80.4841 79.163 80.493 78.7456C80.6043 73.5584 79.1684 59.0182 76.6141 54.2103C80.4734 53.0508 92.8863 61.9363 92.8975 65.5371Z" fill="#FFBFC4"/>
<path d="M98.875 59.625C95.875 66.25 90.3 80.375 92 83.875" stroke="#8A86D8"/>
<path fill-rule="evenodd" clip-rule="evenodd" d="M86.2211 35.0386C94.7105 35.0386 101.592 43.0397 101.592 52.9064C101.592 62.773 94.7105 70.7557 86.2211 70.7557C82.6322 70.6995 79.2851 66.7617 76.7229 64.248C77.0408 59.7707 76.9993 57.7291 76.3084 55.3523C75.2397 52.4043 75.6266 53.6388 76.7229 53.5098L75.7602 52.6899C75.7602 50.6401 75.4194 52.0404 73.3696 52.0404L70.9374 51.939C71.3566 42.533 78.0219 35.0386 86.2211 35.0386Z" fill="#FFBFC4"/>
<path d="M77.1369 52.9965C85.2369 49.7965 84.9705 45.0794 86.5121 42.746C92.8871 49.9964 100.345 49.6631 103.512 50.9963C110.384 26.9984 83.5118 25.1235 77.1369 33.873C70.5087 35.1236 65.9031 38.8347 65.3846 47.1218C64.6338 59.1218 76.1668 66.125 79.8751 68.375L77.1369 52.9965Z" fill="url(#paint8_linear)"/>
<path d="M83.8623 48.4244C84.9475 46.736 87.9861 43.8655 91.459 45.8917" stroke="#4B1F1F" stroke-width="1.5" stroke-linecap="round"/>
<path d="M101.5 50.5002C101.167 48.6669 100 45.3502 98 46.7502" stroke="#4B1F1F" stroke-width="1.5" stroke-linecap="round"/>
<path d="M75.6123 55.4204C77.6956 62.8787 83.9123 79.0454 92.1123 84.0454" stroke="#8A86D8"/>
<path d="M82.1408 30.4146L81.6408 30.1021L73.6874 33.7188C73.2874 38.3188 74.8124 46.125 79.0783 45.8521C76.0783 35.2021 79.87 31.1229 82.1408 30.4146Z" fill="#9AA1EC"/>
<path d="M81.5938 30.0938C75.1937 33.0938 77.4949 44.0187 79.3283 49.1021H70.5784C68.5784 43.8521 70.3284 38.1021 70.5784 36.1021C70.7784 34.5021 77.9271 31.4271 81.5938 30.0938Z" fill="url(#paint9_linear)"/>
<path fill-rule="evenodd" clip-rule="evenodd" d="M81.8281 51.1968C81.8281 49.8718 81.4354 48.5766 80.6996 47.4747C79.9637 46.3728 78.9178 45.5138 77.694 45.0061C76.4701 44.4984 75.1232 44.3649 73.8235 44.6224C72.5238 44.8799 71.3296 45.5168 70.3917 46.4528C69.4539 47.3887 68.8145 48.5816 68.5543 49.8808C68.2941 51.18 68.4249 52.5271 68.93 53.752C69.4352 54.9769 70.2921 56.0246 71.3924 56.7627C72.4928 57.5008 73.7872 57.8962 75.1122 57.8989C75.9936 57.9013 76.8669 57.7297 77.6819 57.394C78.4969 57.0582 79.2376 56.5648 79.8616 55.9422C80.4855 55.3195 80.9804 54.5798 81.3179 53.7655C81.6553 52.9512 81.8287 52.0782 81.8281 51.1968Z" fill="url(#paint10_radial)"/>
<path d="M77.4185 51.2772V51.2768C77.4185 50.5565 77.205 49.8524 76.8049 49.2534C76.4049 48.6544 75.8363 48.1874 75.171 47.9114C74.5056 47.6354 73.7734 47.5628 73.0668 47.7028C72.3603 47.8427 71.711 48.189 71.2012 48.6978C70.6913 49.2066 70.3437 49.8551 70.2023 50.5614C70.0608 51.2677 70.1319 52.0001 70.4065 52.666C70.6812 53.3319 71.147 53.9014 71.7452 54.3027C72.3434 54.704 73.0471 54.9189 73.7674 54.9204L73.7677 54.9204C74.2469 54.9217 74.7216 54.8284 75.1646 54.6459C75.6077 54.4634 76.0103 54.1952 76.3495 53.8567C76.6886 53.5183 76.9576 53.1162 77.1411 52.6735C77.3245 52.2309 77.4188 51.7564 77.4185 51.2772Z" stroke="#9AA1EC"/>
<path fill-rule="evenodd" clip-rule="evenodd" d="M89.3605 52.8273C89.3651 51.8846 88.8968 51.1138 88.3412 51.1149C87.8197 51.1159 87.3992 51.7926 87.3518 52.6646L88.1097 52.9359L87.4309 53.2149C87.4802 54.0941 87.8418 54.5507 88.368 54.5465C88.925 54.5421 89.3707 53.7725 89.3605 52.8273Z" fill="#59282C"/>
<path fill-rule="evenodd" clip-rule="evenodd" d="M99.0987 52.8273C99.1034 51.8846 98.6351 51.1138 98.0795 51.1149C97.5579 51.1159 97.1375 51.7926 97.0901 52.6646L97.8479 52.9359L97.1692 53.2149C97.2185 54.0941 97.5801 54.5507 98.1063 54.5465C98.6633 54.5421 99.109 53.7725 99.0987 52.8273Z" fill="#59282C"/>
<path d="M94.0844 53.146C93.9462 54.4265 94.2226 57.2917 95.1899 58.5446" stroke="#B5545C" stroke-width="1.5" stroke-linecap="round" stroke-linejoin="round"/>
<path d="M87.8154 61.0869C87.7727 61.2556 87.751 61.4288 87.7509 61.6028C87.7489 61.9338 87.8278 62.2603 87.9808 62.5538C88.1337 62.8474 88.3561 63.0991 88.6285 63.2871C88.901 63.4751 89.2152 63.5936 89.544 63.6324C89.8727 63.6713 90.2059 63.6292 90.5146 63.5098" stroke="#B5545C" stroke-width="1.5" stroke-linecap="round" stroke-linejoin="round"/>
<path d="M82.6201 67.9238C84.1975 69.088 88.479 70.8982 92.9858 68.8252" stroke="#B5545C" stroke-linecap="round" stroke-linejoin="round"/>
<path d="M105.9 120.832C105.473 120.696 105.427 120.109 105.828 119.908L138.426 103.599L153.608 108.429C156.173 109.245 156.448 112.766 154.04 113.971L127.308 127.345C127.075 127.462 126.806 127.483 126.557 127.404L105.9 120.832Z" fill="#DFDFDF"/>
<path d="M91.7089 103.15L91.2954 102.869L91.7089 103.15ZM84.0839 134.4L84.1893 134.889L84.0839 134.4ZM107.717 121.802C107.918 121.613 107.929 121.297 107.74 121.096C107.551 120.894 107.234 120.884 107.033 121.073L107.717 121.802ZM91.2294 82.6672C91.9292 85.0341 92.771 88.903 93.0161 92.7912C93.2631 96.7095 92.8944 100.518 91.2954 102.869L92.1223 103.432C93.9233 100.783 94.2629 96.6746 94.0141 92.7283C93.7634 88.7519 92.9052 84.8083 92.1883 82.3836L91.2294 82.6672ZM91.2954 102.869C89.1573 106.013 84.0436 114.546 81.0575 121.964C80.31 123.821 79.6919 125.617 79.2875 127.249C78.8846 128.874 78.686 130.366 78.8009 131.603C78.9159 132.842 79.3556 133.898 80.3015 134.521C81.2344 135.136 82.5371 135.246 84.1893 134.889L83.9784 133.912C82.4431 134.243 81.4607 134.087 80.8516 133.686C80.2555 133.293 79.8963 132.584 79.7966 131.51C79.6966 130.435 79.8671 129.067 80.2581 127.489C80.6477 125.918 81.2483 124.168 81.9852 122.337C84.9366 115.005 90.0104 106.537 92.1223 103.432L91.2954 102.869ZM84.1893 134.889C94.5192 132.661 103.691 125.577 107.717 121.802L107.033 121.073C103.059 124.798 94.0485 131.74 83.9784 133.912L84.1893 134.889Z" fill="#8A86D8"/>
<path d="M105.95 120.336C105.518 120.204 105.469 119.613 105.872 119.411L138.453 103.111L154.557 108.04C157.146 108.833 157.443 112.38 155.021 113.592L128.388 126.916C128.158 127.031 127.893 127.054 127.648 126.978L105.95 120.336Z" fill="url(#paint11_linear)"/>
<path d="M127.766 101.628C127.862 99.8334 128.915 98.2281 130.522 97.4239L160.082 82.6348C160.768 82.2916 161.569 82.8166 161.528 83.5825L160.153 109.294C160.096 110.371 159.464 111.335 158.5 111.817L127.899 127.127C127.213 127.47 126.412 126.945 126.453 126.179L127.766 101.628Z" fill="#E4DFDD"/>
<path d="M128.49 102.157C128.586 100.362 129.638 98.757 131.245 97.9527L160.806 83.1636C161.491 82.8204 162.293 83.3454 162.252 84.1113L160.924 108.936C160.866 110.013 160.235 110.976 159.27 111.459L128.67 126.768C127.984 127.111 127.183 126.586 127.224 125.82L128.49 102.157Z" fill="url(#paint12_radial)"/>
<path d="M157.878 90.923L163.11 90.0792C164.811 90.9707 164.878 98.8002 162.128 99.5502C155.747 97.124 156.91 93.1488 157.878 90.923Z" fill="#FFBFC4"/>
<path d="M85.5386 111.998C82.4386 89.5983 77.5803 84.0816 75.5386 84.1233C63.2886 91.9985 78.2886 119.498 80.7886 119.873C82.7886 120.173 84.7886 114.748 85.5386 111.998Z" fill="#FFBFC4"/>
<path d="M115.913 107.01H84.5386C80.6386 108.01 79.9129 117.176 81.0379 119.885L118.039 113.447L115.913 107.01Z" fill="#FFBFC4"/>
<path d="M115.539 99.6852V108.31L118.039 114.06L125.164 108.31L123.789 103.185C125.664 98.9353 130.789 96.3102 127.789 96.1852C125.389 96.0852 120.289 100.81 118.039 103.185C118.139 100.385 116.414 99.6852 115.539 99.6852Z" fill="#FFBFC4"/>
<defs>
<linearGradient id="paint0_linear" x1="121.152" y1="0.755371" x2="121.152" y2="191.166" gradientUnits="userSpaceOnUse">
<stop stop-color="#EFF0F9"/>
<stop offset="1" stop-color="#EFF0F9" stop-opacity="0"/>
</linearGradient>
<linearGradient id="paint1_linear" x1="167.027" y1="9.1543" x2="167.027" y2="123.511" gradientUnits="userSpaceOnUse">
<stop stop-color="#FBD3C0"/>
<stop offset="1" stop-color="#FBD3C0" stop-opacity="0"/>
</linearGradient>
<linearGradient id="paint2_linear" x1="153.556" y1="33.4346" x2="153.872" y2="63.4333" gradientUnits="userSpaceOnUse">
<stop stop-color="#FBD3C0"/>
<stop offset="1" stop-color="#FBD3C0" stop-opacity="0"/>
</linearGradient>
<linearGradient id="paint3_linear" x1="183.38" y1="28.9346" x2="183.38" y2="65.4346" gradientUnits="userSpaceOnUse">
<stop stop-color="#FBD3C0"/>
<stop offset="1" stop-color="#FBD3C0" stop-opacity="0"/>
</linearGradient>
<linearGradient id="paint4_linear" x1="166.527" y1="4.04932" x2="166.527" y2="111.667" gradientUnits="userSpaceOnUse">
<stop stop-color="#FBD3BF"/>
<stop offset="1" stop-color="#FBD3BF" stop-opacity="0"/>
</linearGradient>
<linearGradient id="paint5_linear" x1="127.299" y1="153" x2="127.299" y2="204.03" gradientUnits="userSpaceOnUse">
<stop stop-color="#9AA1EC"/>
<stop offset="1" stop-color="#9AA1EC" stop-opacity="0"/>
</linearGradient>
<linearGradient id="paint6_linear" x1="108.871" y1="67.75" x2="96.25" y2="69.5" gradientUnits="userSpaceOnUse">
<stop stop-color="#A44A4A"/>
<stop offset="1" stop-color="#773636"/>
</linearGradient>
<linearGradient id="paint7_linear" x1="113.5" y1="82.5" x2="89" y2="115.5" gradientUnits="userSpaceOnUse">
<stop stop-color="#7E5DA9"/>
<stop offset="0.291667" stop-color="#69429B"/>
<stop offset="1" stop-color="#491987"/>
</linearGradient>
<linearGradient id="paint8_linear" x1="65.3496" y1="48.729" x2="104.627" y2="40.75" gradientUnits="userSpaceOnUse">
<stop offset="0.520833" stop-color="#773636"/>
<stop offset="1" stop-color="#A44A4A"/>
</linearGradient>
<linearGradient id="paint9_linear" x1="74.5625" y1="39.5979" x2="75.6125" y2="49.1021" gradientUnits="userSpaceOnUse">
<stop stop-color="#FF9473"/>
<stop offset="1" stop-color="#DA7B5D"/>
</linearGradient>
<radialGradient id="paint10_radial" cx="0" cy="0" r="1" gradientUnits="userSpaceOnUse" gradientTransform="translate(81.125 50.375) rotate(159.891) scale(12.18)">
<stop stop-color="#FFA98D"/>
<stop offset="1" stop-color="#FF9473"/>
</radialGradient>
<linearGradient id="paint11_linear" x1="113.5" y1="115.103" x2="138.25" y2="123" gradientUnits="userSpaceOnUse">
<stop stop-color="#EAEAEA"/>
<stop offset="1" stop-color="#B7B7B7"/>
</linearGradient>
<radialGradient id="paint12_radial" cx="0" cy="0" r="1" gradientUnits="userSpaceOnUse" gradientTransform="translate(160.75 86) rotate(122.645) scale(19.0016 13.2519)">
<stop stop-color="white"/>
<stop offset="1" stop-color="#F7F7F7"/>
</radialGradient>
</defs>
</svg>
