<svg width="255" height="204" viewBox="0 0 255 204" fill="none" xmlns="http://www.w3.org/2000/svg">
<path d="M3.00444 179.678C10.2044 172.078 55.0044 171.178 76.5044 171.678C220.004 163.678 261.504 183.678 254.004 192.178C246.504 200.678 213.504 197.178 179.004 192.178C144.504 187.178 121.504 202.178 66.5044 202.678C11.5044 203.178 -5.99556 189.178 3.00444 179.678Z" fill="url(#paint0_linear)"/>
<path d="M20.7364 79.8469C-14.0636 117.447 6.23636 162.514 20.7364 180.347C241.236 219.347 264.736 133.847 228.236 129.847C191.736 125.847 111.236 -11.1531 75.2363 0.846926C39.2363 12.8469 64.2364 32.8469 20.7364 79.8469Z" fill="url(#paint1_linear)"/>
<path d="M142.304 119.984C142.705 120.755 142.451 128.155 142.274 131.759C142.363 133.516 140.733 136.402 139.838 134.55C138.943 132.699 141.803 119.019 142.304 119.984Z" fill="#382155"/>
<path d="M139.371 148.553L153.448 151.128L173.526 164.395C173.364 167.627 171.178 173.526 163.732 171.265C154.424 168.439 151.273 177.292 145.708 174.126C141.256 171.592 139.628 156.022 139.371 148.553Z" fill="url(#paint2_linear)"/>
<path d="M165.014 102.407C161.832 102.761 156.446 111.975 154.15 116.538L157.671 117.286L165.014 102.407Z" fill="#3E1E0C"/>
<path d="M158.39 141.862L169.108 153.272L156.632 164.99C156.632 164.99 151.43 163.833 149.086 161.339C146.743 158.844 145.914 153.58 145.914 153.58L158.39 141.862Z" fill="#C18F94"/>
<path fill-rule="evenodd" clip-rule="evenodd" d="M194.086 109.716C184.353 100.357 167.644 101.944 156.767 113.255C145.89 124.566 144.98 141.304 154.712 150.663C158.888 154.555 169.546 156.21 175.254 156.153C183.726 153.41 183.976 149.587 187.388 147.624C191.863 145.422 185.727 142.719 184.613 141.362L186.62 141.483C188.88 139.133 187.727 141.115 190.077 143.374L192.977 145.939C202.865 134.694 203.486 118.754 194.086 109.716Z" fill="#C18F94"/>
<path d="M187.306 125.389C180.124 115.046 165.988 110.766 159.818 109.919C173.133 83.0793 192.637 103.171 200.725 116.572C215.295 126.975 198.08 139.454 196.459 142.718C195.161 145.329 187.167 143.298 183.332 141.956C180.907 135.688 184.971 128.3 187.306 125.389Z" fill="url(#paint3_linear)"/>
<path d="M160.003 114.769L165.073 117.977" stroke="#572B12" stroke-width="2" stroke-linecap="round"/>
<path d="M169.621 155.223C173.361 157.663 188.573 149.935 192.355 146.63" stroke="#FFC4A5" stroke-width="2" stroke-linecap="round" stroke-linejoin="round"/>
<path d="M183.335 127.461C183.058 124.081 180.811 118.172 174.04 121.579" stroke="#572B12" stroke-width="2" stroke-linecap="round"/>
<path d="M174.921 144.614C177.775 143.534 187.994 139.553 191.539 138.569" stroke="#FFC4A5" stroke-width="2" stroke-linecap="round" stroke-linejoin="round"/>
<path fill-rule="evenodd" clip-rule="evenodd" d="M171.594 157.613C174.038 156.847 177.503 148.237 177.922 143.513C176.524 140.457 167.038 135.903 165.351 129.107C164.868 127.091 163.556 127.47 161.638 128.045C158.269 129.05 152.078 126.608 149.175 126.509C146.571 129.514 144.224 138.802 144.309 141.288C144.421 145.214 162.411 157.553 171.594 157.613Z" fill="url(#paint4_linear)"/>
<path fill-rule="evenodd" clip-rule="evenodd" d="M194.113 152.667C195.688 151.869 196.998 150.645 197.876 149.149C198.754 147.654 199.161 145.955 199.047 144.266C198.932 142.577 198.301 140.974 197.232 139.66C196.163 138.346 194.706 137.38 193.043 136.884C191.38 136.387 189.586 136.383 187.889 136.871C186.192 137.359 184.667 138.318 183.507 139.627C182.347 140.935 181.604 142.534 181.372 144.222C181.139 145.911 181.428 147.612 182.202 149.111C182.717 150.109 183.433 150.992 184.311 151.711C185.189 152.43 186.21 152.97 187.316 153.3C188.423 153.631 189.593 153.745 190.759 153.636C191.925 153.527 193.065 153.198 194.113 152.667Z" fill="#C18F94"/>
<path d="M186.147 148.968C186.788 149.652 187.62 150.143 188.548 150.386C189.477 150.629 190.466 150.614 191.403 150.343C192.339 150.071 193.187 149.555 193.85 148.851C194.513 148.147 194.965 147.285 195.155 146.36C195.344 145.436 195.264 144.487 194.923 143.62C194.581 142.754 193.993 142.004 193.224 141.456C192.455 140.908 191.536 140.584 190.571 140.52C189.605 140.455 188.632 140.654 187.761 141.093" stroke="#7E5154" stroke-width="2" stroke-linecap="round" stroke-linejoin="round"/>
<path fill-rule="evenodd" clip-rule="evenodd" d="M158.614 121.089C159.495 119.712 159.524 118.148 158.709 117.635C157.944 117.152 156.7 117.754 155.822 118.988L156.681 120.088L155.428 119.868C154.685 121.201 154.792 122.206 155.566 122.688C156.387 123.197 157.753 122.483 158.614 121.089Z" fill="#59282C"/>
<path fill-rule="evenodd" clip-rule="evenodd" d="M172.884 130.117C173.764 128.74 173.793 127.176 172.978 126.663C172.213 126.181 170.969 126.782 170.091 128.016L170.95 129.116L169.697 128.896C168.954 130.23 169.061 131.234 169.835 131.716C170.656 132.226 172.022 131.511 172.884 130.117Z" fill="#59282C"/>
<path d="M127.379 83.0948L146.527 71.9776" stroke="#FFC4A5" stroke-width="2" stroke-linecap="round"/>
<path d="M128.678 77.3396L135.775 69.8639" stroke="#FFC4A5" stroke-width="2" stroke-linecap="round"/>
<path d="M89.5129 188.455C85.4439 165.418 75.2563 134.793 73.524 123.875C80.2491 114.135 93.8376 105.137 95.4532 103.609C109.598 90.2379 128.81 92.0213 138.374 88.1686C148.696 90.8306 135.291 147.469 144.957 171.28C145.322 172.181 145.052 173.218 144.261 173.783L141.288 175.903C135.993 179.68 129.524 181.443 123.044 180.875L121.053 180.7C110.652 179.788 100.299 182.925 92.1528 189.457C91.1818 190.236 89.7294 189.681 89.5129 188.455Z" fill="url(#paint5_linear)"/>
<path d="M133.742 94.0904L112.986 98.0809" stroke="#B9B0EE"/>
<path d="M141.607 134.08C131.846 121.327 130.519 104.198 133.773 89.507C138.613 88.7389 142.44 100.788 143.749 106.908L141.607 134.08Z" fill="url(#paint6_linear)"/>
<path d="M181.101 76.9478C176.999 75.5712 147.814 84.6702 133.756 89.5092C130.946 99.8001 139.266 108.985 143.754 112.173C151.274 109.017 168.851 101.551 178.999 96.9405C191.685 91.1778 186.228 78.6685 181.101 76.9478Z" fill="url(#paint7_radial)"/>
<path d="M80.963 112.032L69.5465 131.396L104.681 115.479L80.963 112.032Z" fill="#4E2289"/>
<path d="M67.7417 106.011L45.4917 118.511L77.9917 112.511L67.7417 106.011Z" fill="#FFB2B9"/>
<path d="M58.4067 86.9574L65.2506 104.971L76.0121 83.2741L58.4067 86.9574Z" fill="#6A3416"/>
<path fill-rule="evenodd" clip-rule="evenodd" d="M93.7071 54.1637C77.6736 52.6739 63.2722 66.5777 61.5408 85.2124C59.8094 103.847 71.4059 120.131 87.4394 121.621C94.2274 122.145 105.395 115.764 110.676 111.466C116.537 102.609 113.926 98.8591 115.648 94.4913C118.184 89.111 110.452 91.1521 108.405 90.7161L110.367 89.3365C110.726 85.4652 111.124 88.1697 114.996 88.5294L119.607 88.7648C120.466 70.9265 109.193 55.6025 93.7071 54.1637Z" fill="url(#paint8_radial)"/>
<path d="M99.6689 80.4257C101.579 92.8929 108.272 96.8785 111.379 97.3128C123.811 88.5826 122.304 70.7294 119.002 58.2968C110.1 40.907 68.482 39.5117 52.1746 62.0025L59.9901 64.6432C59.9901 64.6432 56.3421 67.1292 54.4861 69.2195C51.4057 72.6885 49.0665 79.7908 49.0665 79.7908L60.678 91.8946C66.6675 81.0407 89.9229 79.3317 99.6689 80.4257Z" fill="url(#paint9_linear)"/>
<path d="M72.8807 103.63C71.6371 101.957 68.131 100.76 67.469 101.941" stroke="#B5545C" stroke-width="2" stroke-linecap="round" stroke-linejoin="round"/>
<path d="M136.496 136.43C136.496 145.43 133.876 157.931 136.496 172.465" stroke="#B9B0EE"/>
<path d="M55.5171 109.343L43.5171 105.343" stroke="#FFC4A5"/>
<path d="M52.7671 111.593L46.6421 112.218" stroke="#FFC4A5"/>
<path d="M56.6421 106.968L52.0171 100.343" stroke="#FFC4A5"/>
<path d="M48.2663 101.469C48.308 99.1353 46.2654 96.5939 44.8913 97.9687C43.5171 99.3434 45.9746 101.469 48.2663 101.469Z" fill="#FFC4A5"/>
<path d="M44.4943 112.885C42.5986 111.524 39.3466 111.759 39.6962 113.671C40.0457 115.583 43.1913 114.77 44.4943 112.885Z" fill="#FFC4A5" fill-opacity="0.5"/>
<ellipse cx="68.1408" cy="93.281" rx="2.23931" ry="1.07472" transform="rotate(-56.3309 68.1408 93.281)" fill="#572B12"/>
<ellipse rx="2.23931" ry="1.07472" transform="matrix(-0.947383 -0.320103 -0.320103 0.947383 86.7655 88.2062)" fill="#572B12"/>
<path fill-rule="evenodd" clip-rule="evenodd" d="M125.52 96.2091C126.241 94.2224 126.381 92.0817 125.923 90.0575C125.464 88.0333 124.428 86.2163 122.945 84.8362C121.461 83.456 119.597 82.5746 117.589 82.3033C115.58 82.0319 113.516 82.3829 111.658 83.3117C109.8 84.2405 108.232 85.7056 107.15 87.5218C106.069 89.338 105.524 91.424 105.583 93.5161C105.642 95.6082 106.304 97.6126 107.484 99.276C108.664 100.94 110.309 102.188 112.213 102.862C113.479 103.311 114.828 103.495 116.183 103.404C117.538 103.312 118.872 102.947 120.108 102.329C121.344 101.711 122.458 100.852 123.387 99.8022C124.316 98.752 125.041 97.531 125.52 96.2091Z" fill="#FFBFC5"/>
<path d="M61.3375 105.835L60.3663 107.072L79.0601 109.902L75.6643 102.07L61.3375 105.835Z" fill="#332E2C"/>
<path d="M115.539 99.5066C116.658 99.5787 117.786 99.3262 118.796 98.7776C119.805 98.229 120.656 97.4061 121.251 96.402C121.847 95.3979 122.163 94.2526 122.166 93.0954C122.168 91.9381 121.855 90.8152 121.264 89.8533C120.672 88.8914 119.824 88.129 118.817 87.6521C117.809 87.1752 116.682 87.0029 115.562 87.1547C114.442 87.3064 113.374 87.7761 112.479 88.5108C111.584 89.2454 110.898 90.2157 110.497 91.312" stroke="#B5545C" stroke-width="2" stroke-linecap="round" stroke-linejoin="round"/>
<path d="M86.6237 102.265C86.2459 100.155 87.2778 95.5558 94.4281 94.0427" stroke="#B5545C" stroke-width="2" stroke-linecap="round" stroke-linejoin="round"/>
<path d="M128.928 104.7L120.598 105.813C115.824 109.287 118.82 118.282 120.915 122.345L130.899 120.385L128.928 104.7Z" fill="#FFBEC4"/>
<path d="M78.0487 102.642C78.7331 104.968 79.1932 110.431 77.8888 113.136" stroke="#B5545C" stroke-width="2" stroke-linecap="round" stroke-linejoin="round"/>
<path d="M81.6821 100.509L80.332 101.9L86.3327 109.346L99.8986 105.823L99.2972 103.508L100.865 103.453L101.67 102.407L101.26 100.829L103.013 100.892L104.016 99.8444L102.669 94.6597L81.6821 100.509Z" fill="#332E2C"/>
<path d="M101.872 96.3095L80.4609 101.871L85.2486 109.556L98.8145 106.033L98.3101 104.091L100.925 103.412L100.421 101.47L103.036 100.791L101.872 96.3095Z" fill="#3A3A3A"/>
<path d="M60.3276 107.06L74.7904 103.303L78.2322 110.86L67.598 112.984L66.5456 111.424L65.16 111.784L64.0494 109.999L62.4906 110.404L60.3276 107.06Z" fill="#3A3A3A"/>
<path d="M65.8044 110.746L65.0098 109.454L66.7255 109.022L67.3939 110.348L65.8044 110.746Z" fill="#C8C8C8"/>
<path d="M68.196 111.607L67.4014 110.316L69.1171 109.884L69.7855 111.21L68.196 111.607Z" fill="#C8C8C8"/>
<path d="M67.2283 113.331L66.4336 112.039L68.1493 111.607L68.8178 112.933L67.2283 113.331Z" fill="#C8C8C8"/>
<path d="M70.5798 112.453L69.7852 111.162L71.5009 110.729L72.1693 112.056L70.5798 112.453Z" fill="#C8C8C8"/>
<rect x="71.7793" y="103.089" width="12.1144" height="2.77782" transform="rotate(-14.5596 71.7793 103.089)" fill="#332E2C"/>
<path d="M72.0317 104.06L83.8248 100.997L84.5231 103.686L72.73 106.749L72.0317 104.06Z" fill="#3A3A3A"/>
<path d="M84.6616 105.364L83.6147 103.663L85.875 103.094L86.7556 104.841L84.6616 105.364Z" fill="#C8C8C8"/>
<path d="M87.812 106.5L86.7651 104.799L89.0254 104.229L89.9059 105.976L87.812 106.5Z" fill="#C8C8C8"/>
<path d="M86.5371 108.77L85.4902 107.069L87.7505 106.5L88.631 108.247L86.5371 108.77Z" fill="#C8C8C8"/>
<path d="M90.9526 107.614L89.9058 105.913L92.166 105.343L93.0466 107.09L90.9526 107.614Z" fill="#C8C8C8"/>
<path d="M80.4535 110.12C42.0966 114.056 38.6401 120.801 42.4703 132.637C47.5246 148.253 91.2735 130.79 122.079 121.991L121.153 119.182C119.724 114.85 119.615 110.192 120.838 105.798C120.838 105.798 104.973 107.603 80.4535 110.12Z" fill="#FFBEC4"/>
<path d="M135.635 97.6266L128.895 104.349L135.079 104.469C138.722 101.725 136.968 98.7642 135.635 97.6266Z" fill="#FFB3B9"/>
<path d="M128.282 104.703L139.914 99.0448C146.643 98.1035 156.524 96.4912 155.07 98.5486C154.534 99.3061 153.44 100.065 152.091 100.769C154.292 100.734 155.522 101.405 156.792 101.993C159.188 105.102 159.118 114.212 154.898 114.495C150.678 114.777 144.611 115.66 144.611 115.66C141.471 117.055 135.557 123.258 129.943 120.239C128.603 119.519 126.586 105.634 128.282 104.703Z" fill="#FFBEC4"/>
<path d="M142.289 131.851C142.248 132.87 141.583 136.509 141.088 137.643L139.932 131.751C140.907 133.115 141.776 135.114 142.289 131.851Z" fill="#7754A4"/>
<defs>
<linearGradient id="paint0_linear" x1="127.803" y1="151.661" x2="127.803" y2="202.691" gradientUnits="userSpaceOnUse">
<stop stop-color="#9AA1EC"/>
<stop offset="1" stop-color="#9AA1EC" stop-opacity="0"/>
</linearGradient>
<linearGradient id="paint1_linear" x1="121.888" y1="0.102539" x2="121.888" y2="190.513" gradientUnits="userSpaceOnUse">
<stop stop-color="#EFF0F9"/>
<stop offset="1" stop-color="#EFF0F9" stop-opacity="0"/>
</linearGradient>
<linearGradient id="paint2_linear" x1="137.822" y1="158.981" x2="174.005" y2="167.413" gradientUnits="userSpaceOnUse">
<stop stop-color="#442867"/>
<stop offset="1" stop-color="#5C3292"/>
</linearGradient>
<linearGradient id="paint3_linear" x1="209.948" y1="124.036" x2="185.498" y2="126.611" gradientUnits="userSpaceOnUse">
<stop stop-color="#5F3822"/>
<stop offset="1" stop-color="#3E1E0C"/>
</linearGradient>
<linearGradient id="paint4_linear" x1="175.814" y1="141.192" x2="154.757" y2="151.573" gradientUnits="userSpaceOnUse">
<stop stop-color="#FADECF"/>
<stop offset="1" stop-color="#FFC4A5"/>
</linearGradient>
<linearGradient id="paint5_linear" x1="135.761" y1="125.262" x2="111.941" y2="178.53" gradientUnits="userSpaceOnUse">
<stop stop-color="#7E5DA9"/>
<stop offset="0.45806" stop-color="#673F9A"/>
<stop offset="1" stop-color="#51238B"/>
</linearGradient>
<linearGradient id="paint6_linear" x1="135.487" y1="89.235" x2="141.291" y2="132.991" gradientUnits="userSpaceOnUse">
<stop stop-color="#FFBEC4"/>
<stop offset="0.462402" stop-color="#DB6C75"/>
<stop offset="1" stop-color="#FFBEC4"/>
</linearGradient>
<radialGradient id="paint7_radial" cx="0" cy="0" r="1" gradientUnits="userSpaceOnUse" gradientTransform="translate(143.168 108.139) rotate(111.709) scale(20.7944 44.2228)">
<stop stop-color="#EB9199"/>
<stop offset="1" stop-color="#FFBEC4"/>
</radialGradient>
<radialGradient id="paint8_radial" cx="0" cy="0" r="1" gradientUnits="userSpaceOnUse" gradientTransform="translate(78.0768 105.608) rotate(71.0318) scale(21.7299 33.9252)">
<stop stop-color="#F98E97"/>
<stop offset="1" stop-color="#FFBFC5"/>
</radialGradient>
<linearGradient id="paint9_linear" x1="123" y1="57.0083" x2="62.0985" y2="90.4254" gradientUnits="userSpaceOnUse">
<stop stop-color="#9E5F3C"/>
<stop offset="0.427142" stop-color="#6A3416"/>
</linearGradient>
</defs>
</svg>
