<svg width="258" height="227" viewBox="0 0 258 227" fill="none" xmlns="http://www.w3.org/2000/svg">
<path d="M6.08647 203.142C13.2865 195.542 58.0865 194.642 79.5865 195.142C223.086 187.142 264.586 207.142 257.086 215.642C249.586 224.142 216.586 220.642 182.086 215.642C147.586 210.642 124.586 225.642 69.5865 226.142C14.5865 226.642 -2.91353 212.642 6.08647 203.142Z" fill="url(#paint0_linear)"/>
<path d="M23.8047 102.531C-10.9953 140.131 9.30472 185.198 23.8047 203.031C244.305 242.031 267.805 156.531 231.305 152.531C194.805 148.531 114.305 11.531 78.3047 23.531C42.3047 35.531 67.3047 55.531 23.8047 102.531Z" fill="url(#paint1_linear)"/>
<path d="M21 197.75C33.4 181.75 33 93.6667 31 51L0 16L5.5 13.5C15.5 15.5 32.3333 31.1667 38 31.5L47.5 0C54 3.66667 66.8 11.5 66 13.5C65.2 15.5 62.6667 33.3333 61.5 42L90 18.5L95.5 22.5L61.5 51C61.1 69 73.8333 153.167 80.5 195L21 197.75Z" fill="url(#paint2_linear)"/>
<path d="M59.1067 91.5038C60.3818 88.089 61.7907 80.4345 57.225 77.135C55.1765 79.0272 52.6849 84.55 59.1067 91.5038Z" fill="#B7BBF2"/>
<path d="M112.972 82.3374C112.619 82.3374 111.823 85.5041 111.469 87.0874L113.857 85.2487C114.741 83.7164 113.415 82.3374 112.972 82.3374Z" fill="#FEB5BB"/>
<path d="M77.4719 51.3878C79.5262 45.2056 85.0988 46.4544 87.6283 47.8517C86.8958 50.5953 85.2495 56.806 84.5242 59.6998C83.7988 62.5935 80.6974 63.7081 79.2374 63.9036C82.4082 58.6812 74.9041 59.1156 77.4719 51.3878Z" fill="#773636"/>
<path fill-rule="evenodd" clip-rule="evenodd" d="M178.028 144.981C190.513 144.799 196.673 189.828 195.624 193.065C195.384 193.801 194.815 194.61 194.084 195.383H183.101C181.442 191.842 179.066 184.632 177.199 176.667L180.337 174.915L176.374 172.922C175.501 168.823 174.887 164.674 174.536 160.498L177.616 159.788L175.921 157.324L177.867 156.876L174.538 153.272C174.897 149.364 175.924 146.315 178.028 144.981Z" fill="#FFB188"/>
<path fill-rule="evenodd" clip-rule="evenodd" d="M200.603 134.207C215.845 139.883 205.042 190.87 202 196.25L186.098 195.235C186.076 195.192 186.042 195.159 186.022 195.116C184.229 191.472 184.663 166.814 189.523 149.991L193.531 150.083L190.796 146.1C193.165 139.567 196.366 134.812 200.603 134.207Z" fill="#FFC4A5"/>
<path fill-rule="evenodd" clip-rule="evenodd" d="M109.994 188.115C110.55 189.589 116.51 203.7 117.142 203.996C117.775 204.291 135.431 195.686 135.565 194.837C135.7 193.988 134.893 192.187 134.256 192.317C127.875 195.75 119.306 194.12 118.411 192.42C117.517 190.72 116.367 186.769 116.367 186.769C116.367 186.769 109.43 186.653 109.994 188.115Z" fill="#FFBFC5"/>
<path fill-rule="evenodd" clip-rule="evenodd" d="M48.5085 144.36C46.937 144.252 33.1891 143.908 32.6573 144.36C32.1255 144.811 31.0421 164.341 31.758 164.816C32.474 165.292 34.4473 165.307 34.594 164.674C34.594 156.875 39.1742 150.329 41.0922 150.223C43.0102 150.116 47.0814 150.715 47.0814 150.715C47.0814 150.715 50.0735 144.454 48.5085 144.36Z" fill="#FFBFC5"/>
<path fill-rule="evenodd" clip-rule="evenodd" d="M34.5934 164.676C34.4409 165.317 32.4686 165.299 31.7575 164.818C29.0005 159.375 31.2166 143.898 31.7575 143.448C31.9983 143.25 34.6075 144.042 38.1847 144.088C35.1703 148.701 38.479 150.672 40.1372 152.782C38.7217 156.065 34.5933 158.375 34.5934 164.676Z" fill="#5F3595"/>
<path fill-rule="evenodd" clip-rule="evenodd" d="M97.8303 151.519C97.1016 152.842 95.6346 153.506 94.1236 153.484C78.1343 153.247 45.7502 150.877 45.7502 150.877L46.6985 143.877L80.3099 141.015C80.3099 141.015 77.5897 116.493 82.261 112.065C86.7233 107.835 105.988 136.7 97.8303 151.519Z" fill="#50228B"/>
<path d="M86.2505 71.0024C85.1672 82.0024 83.6505 105.902 86.2505 113.502C88.8505 121.102 87.3339 117.336 86.2505 114.502" stroke="black"/>
<path fill-rule="evenodd" clip-rule="evenodd" d="M134.259 192.317C134.904 192.19 135.709 193.991 135.568 194.837C133.375 200.375 117.779 204.298 117.145 203.994C116.865 203.857 115.488 200.889 114.043 197.617C119.492 198.439 117.897 194.703 119.125 192.317C122.7 192.239 130 194.837 134.259 192.317Z" fill="url(#paint3_linear)"/>
<path fill-rule="evenodd" clip-rule="evenodd" d="M97.0005 112.503L117.524 187.627L110.399 190.502C110.399 190.502 93.6309 146.378 91.1518 143.691C86.0502 138.169 73.6255 129.377 79.7505 117.252C80.4745 109.568 97.0005 112.503 97.0005 112.503Z" fill="url(#paint4_linear)"/>
<path d="M87.686 114.977L113.686 189.477" stroke="#FFC4A5"/>
<path fill-rule="evenodd" clip-rule="evenodd" d="M90.4131 59.4438C90.3703 60.9985 88.6963 67.2353 87.8526 69.2373C88.8336 70.4555 93.4192 71.6181 94.6336 70.9299C95.0575 68.2861 96.2488 65.2795 96.8438 64.2498C97.4388 63.2201 90.4559 57.889 90.4131 59.4438Z" fill="#FFBFC5"/>
<path fill-rule="evenodd" clip-rule="evenodd" d="M105.752 55.0374C105.797 49.8681 104.763 46.8011 100.273 45.7139C91.1674 43.5089 87.2514 48.1804 87.2061 53.3497C87.1608 58.519 92.6879 64.2812 97.3074 64.3217C101.927 64.3621 105.707 60.2044 105.752 55.0374Z" fill="#FFBFC5"/>
<path fill-rule="evenodd" clip-rule="evenodd" d="M103.153 54.3573C103.161 53.7266 102.853 53.2081 102.481 53.2055C102.132 53.2031 101.847 53.6535 101.81 54.2366L102.315 54.4226L101.859 54.6053C101.887 55.1939 102.127 55.5016 102.479 55.5018C102.851 55.5022 103.154 54.9898 103.153 54.3573Z" fill="#59282C"/>
<path d="M98.99 49.4533C98.4633 52.4988 96.7261 55.7879 95.1744 56.9202L90.2502 61.625C85.559 62.0214 80.3917 50.9782 86.4901 44.0897C92.5883 37.2014 106.911 41.9486 105.188 48.8124C105.05 49.3611 103.938 48.6875 98.99 49.4533Z" fill="url(#paint5_linear)"/>
<path d="M103.91 48.25C104.931 48.875 106.935 50.4625 106.785 51.8125C107.056 50.7292 106.86 48.5 103.91 48.25Z" fill="#964343"/>
<path d="M104.107 51.3841C103.468 50.8091 101.921 50.004 100.848 51.3841" stroke="#59282C" stroke-linecap="round"/>
<path fill-rule="evenodd" clip-rule="evenodd" d="M95.6733 63.8151C95.8106 62.217 97.1567 58.7548 97.8462 58.3464C98.5357 57.9381 103.925 57.3492 105.755 54.6774C106.668 55.4447 107.408 56.8623 107.332 57.155C107.174 57.7607 105.724 58.7761 105.724 58.7761C105.724 58.7761 105.365 62.6658 102.537 64.377C100.493 65.6179 96.4783 64.5546 95.6733 63.8151Z" fill="white"/>
<path d="M98.0184 58.8675C97.093 57.2915 94.5962 55.2179 93.2631 54.6328" stroke="white" stroke-width="2" stroke-linecap="round" stroke-linejoin="round"/>
<path d="M96.7633 61.1934C96.7633 61.1934 91.4328 61.9598 90.5901 59.6431" stroke="white" stroke-width="2" stroke-linecap="round" stroke-linejoin="round"/>
<path fill-rule="evenodd" clip-rule="evenodd" d="M95.0985 57.272C95.104 56.6403 94.922 56.0211 94.5754 55.4928C94.2288 54.9645 93.7332 54.5508 93.1513 54.304C92.5693 54.0571 91.9272 53.9882 91.3061 54.106C90.6851 54.2238 90.1129 54.523 89.662 54.9658C89.2111 55.4085 88.9017 55.9749 88.7729 56.5934C88.6441 57.2119 88.7018 57.8546 88.9386 58.4403C89.1754 59.026 89.5807 59.5284 90.1033 59.884C90.6258 60.2395 91.2421 60.4322 91.8743 60.4378C92.7218 60.4446 93.5374 60.1151 94.1419 59.5215C94.7464 58.9279 95.0905 58.1188 95.0985 57.272Z" fill="#FFBFC5"/>
<path d="M92.4436 59.132C92.1184 59.2164 91.7722 59.2058 91.4443 59.1014C91.1164 58.997 90.8197 58.803 90.5879 58.5412C90.356 58.2794 90.1982 57.9604 90.1322 57.62C90.0663 57.2797 90.0948 56.9318 90.2146 56.6154C90.3344 56.299 90.5407 56.0269 90.8101 55.8297C91.0796 55.6326 91.4015 55.5183 91.7395 55.4997C92.0776 55.4811 92.4182 55.559 92.7229 55.7246C93.0277 55.8902 93.2844 56.1369 93.4642 56.4368" stroke="#B5545C" stroke-width="0.75" stroke-linecap="round" stroke-linejoin="round"/>
<circle cx="91.9448" cy="57.3281" r="0.859375" fill="#FF9473"/>
<path d="M114.238 92.3976L88.5706 111.388C87.0303 108.095 87.6399 104.029 88.1854 102.539L111.745 88.8456L114.238 92.3976Z" fill="#FEB5BB"/>
<path d="M105.625 99.376L102.438 93.6885L94.875 97.376L96.5625 106.126L105.625 99.376Z" fill="#FFB188"/>
<path d="M76.3898 85.0746C77.5414 75.5356 84.7637 68.9101 88.7852 67.0333L94.5005 70.7501C96.2687 74.4816 99.0028 79.9039 100.281 82.4395L100.393 82.66C101.924 85.6963 101.06 91.7614 99.3434 94.5209C97.9698 96.7285 97.7264 110.638 98.1463 117.377L78.957 115.131C78.5032 102.391 74.9503 96.9985 76.3898 85.0746Z" fill="url(#paint6_linear)"/>
<path fill-rule="evenodd" clip-rule="evenodd" d="M136.797 63.4596C138.221 62.8594 138.041 59.4862 136.528 58.1939C135.015 56.9015 131.216 55.7839 129.721 51.7567C129.179 50.6614 127.558 52.2562 127.134 54.9775C126.899 61.4528 133.675 64.7766 136.797 63.4596Z" fill="#FFC4A5"/>
<path d="M79.2522 121.658L61.5515 95.0851C64.9171 93.7093 68.9477 94.5188 70.4088 95.1372L82.9229 119.344L79.2522 121.658Z" fill="#FFBFC5"/>
<path d="M61.435 95.5201C61.629 94.3191 75.5237 79.7004 82.4468 72.5411C84.9694 69.9323 90.5754 68.5031 93.0666 71.4887C98.8004 78.3606 79.9375 88.4375 72.0658 96.7176L77.1145 106.568L70.8808 109.849C67.6513 105.573 61.2409 96.7211 61.435 95.5201Z" fill="#FFC4A5"/>
<path d="M84.8625 125.415L82.3623 119.031C81.5746 118.916 79.1433 118.956 78.6789 121.231C78.3494 122.845 80.1928 125.919 81.4245 126.938L81.2391 132.268C80.3648 133.026 79.8008 134.467 80.0641 135.43C80.3031 136.305 81.9013 133.888 82.6688 133.46L84.8625 125.415Z" fill="url(#paint7_linear)"/>
<path d="M84.5046 125.485L82.7832 118.848C82.5314 117.844 79.596 118.39 78.8638 120.593C78.3442 122.156 79.8081 125.429 80.9096 126.587L80.9096 128.719L80.2902 130.715C79.3318 131.363 78.417 131.241 78.125 133.063C77.9815 133.958 80.7807 132.396 81.5937 132.062L83.375 129.156L84.5046 125.485Z" fill="#FFBFC5"/>
<path d="M112.344 85.5935C111.274 86.7008 111.042 87.8959 111.351 89.2585L113.738 92.6389C115.405 92.0212 119.658 89.216 120.063 87.9365C120.386 86.9129 118.906 82.0935 117.844 82.0936C116.442 82.0939 114.436 82.1792 113.738 82.8126C113.029 83.4559 112.884 85.0355 112.344 85.5935Z" fill="#FEB5BB"/>
<path d="M94.0598 59.0856C93.7899 59.1386 92.5624 58.488 92.0469 58.0797L92.6076 57.2052L94.2695 58.6941L94.0598 59.0856Z" fill="#FF9473"/>
<circle cx="91.9021" cy="57.4558" r="0.509544" fill="#FFC4A5"/>
<path d="M74.1031 80.2233C74.2954 80.0217 74.6154 80.0162 74.8146 80.2111L82.5068 87.739C82.7199 87.9475 82.7043 88.2949 82.4735 88.4835L78.1203 92.0404C77.9262 92.1989 77.6447 92.1893 77.4619 92.0179L70.118 85.1311C69.9154 84.941 69.9065 84.6222 70.0983 84.4212L74.1031 80.2233Z" fill="#5B5B5B"/>
<rect x="77.3203" y="79.1099" width="6.2842" height="11.375" rx="0.75" transform="rotate(45 77.3203 79.1099)" fill="#3C3C3C"/>
<path d="M76.5942 80.128C76.7895 79.9327 77.106 79.9327 77.3013 80.128L80.4343 83.261C80.7272 83.5539 80.7272 84.0287 80.4343 84.3216L74.4882 90.2677C74.1954 90.5606 73.7205 90.5606 73.4276 90.2677L70.2946 87.1347C70.0993 86.9394 70.0993 86.6228 70.2946 86.4276L76.5942 80.128Z" fill="#B6DCFF"/>
<defs>
<linearGradient id="paint0_linear" x1="130.885" y1="175.125" x2="130.885" y2="226.155" gradientUnits="userSpaceOnUse">
<stop stop-color="#9AA1EC"/>
<stop offset="1" stop-color="#9AA1EC" stop-opacity="0"/>
</linearGradient>
<linearGradient id="paint1_linear" x1="124.956" y1="22.7866" x2="124.956" y2="213.197" gradientUnits="userSpaceOnUse">
<stop stop-color="#EFF0F9"/>
<stop offset="1" stop-color="#EFF0F9" stop-opacity="0"/>
</linearGradient>
<linearGradient id="paint2_linear" x1="47.75" y1="0" x2="47.75" y2="199" gradientUnits="userSpaceOnUse">
<stop stop-color="#CBCEF3" stop-opacity="0.2"/>
<stop offset="0.844221" stop-color="#B9BCEA"/>
<stop offset="1" stop-color="#B1B5E7"/>
</linearGradient>
<linearGradient id="paint3_linear" x1="129" y1="192.311" x2="120.75" y2="206" gradientUnits="userSpaceOnUse">
<stop stop-color="#7E5DA9"/>
<stop offset="0.40625" stop-color="#714DA1"/>
<stop offset="1" stop-color="#5F3595"/>
</linearGradient>
<linearGradient id="paint4_linear" x1="111" y1="148.5" x2="95.2505" y2="154" gradientUnits="userSpaceOnUse">
<stop stop-color="#7E5DA9"/>
<stop offset="1" stop-color="#5F3595"/>
</linearGradient>
<linearGradient id="paint5_linear" x1="100.125" y1="40.9976" x2="86.9155" y2="60.0389" gradientUnits="userSpaceOnUse">
<stop stop-color="#9C4646"/>
<stop offset="0.369317" stop-color="#843C3C"/>
<stop offset="1" stop-color="#773636"/>
</linearGradient>
<linearGradient id="paint6_linear" x1="99.6255" y1="80.625" x2="79.1255" y2="109.25" gradientUnits="userSpaceOnUse">
<stop stop-color="#FFC4A5"/>
<stop offset="1" stop-color="#FFB188"/>
</linearGradient>
<linearGradient id="paint7_linear" x1="81.9292" y1="118.997" x2="81.2967" y2="135.032" gradientUnits="userSpaceOnUse">
<stop stop-color="#FFBFC5"/>
<stop offset="1" stop-color="#FEB5BB"/>
</linearGradient>
</defs>
</svg>
