<svg width="24" height="25" viewBox="0 0 24 25" fill="none" xmlns="http://www.w3.org/2000/svg">
<path fill-rule="evenodd" clip-rule="evenodd" d="M11.4801 3.62458C11.839 3.35467 12.3339 3.35716 12.6901 3.63067L19.5778 8.9193C19.8243 9.10857 19.9688 9.40168 19.9688 9.71245V19.9743C19.9688 20.5265 19.521 20.9743 18.9688 20.9743H14.3881V14.6696H9.6123V20.9743H5.03125C4.47897 20.9743 4.03125 20.5265 4.03125 19.9743V9.725C4.03125 9.41069 4.17903 9.11466 4.43025 8.92576L11.4801 3.62458ZM9.6123 22.9743H5.03125C3.3744 22.9743 2.03125 21.6311 2.03125 19.9743V9.725C2.03125 8.78205 2.4746 7.89397 3.22825 7.32726L10.2781 2.02608C11.3549 1.21634 12.8395 1.22382 13.9082 2.04436L20.7958 7.33299C21.5353 7.90079 21.9688 8.78013 21.9688 9.71245V19.9743C21.9688 21.6311 20.6256 22.9743 18.9688 22.9743H14.3881V22.9744H9.6123V22.9743Z" fill="#787878"/>
</svg>
