<svg width="255" height="203" viewBox="0 0 255 203" fill="none" xmlns="http://www.w3.org/2000/svg">
<path d="M2.4224 179.678C9.6224 172.078 54.4224 171.178 75.9224 171.678C219.422 163.678 260.922 183.678 253.422 192.178C245.922 200.678 212.922 197.178 178.422 192.178C143.922 187.178 120.922 202.178 65.9224 202.678C10.9224 203.178 -6.5776 189.178 2.4224 179.678Z" fill="url(#paint0_linear)"/>
<path d="M20.8902 80.6946C-13.9098 118.295 6.39017 163.361 20.8902 181.195C241.39 220.194 264.89 134.695 228.39 130.695C191.89 126.695 111.39 -10.3054 75.3901 1.69458C39.3901 13.6946 64.3902 33.6946 20.8902 80.6946Z" fill="url(#paint1_linear)"/>
<path d="M32.8242 105.317C32.8242 100.899 36.4059 97.3174 40.8242 97.3174H194.044C198.463 97.3174 202.044 100.899 202.044 105.317V175.176H32.8242V105.317Z" fill="url(#paint2_linear)"/>
<path d="M69.5887 145.412C68.5395 141.39 78.2431 120.131 85.0989 106.162C86.7596 102.778 90.7034 100.174 93.4636 102.741C97.2062 106.221 97.6562 113.277 97.8389 117.662C98.0889 123.662 93.5889 131.912 87.8387 142.162C82.0885 152.412 71.0887 151.162 69.5887 145.412Z" fill="#FFBEC4"/>
<path d="M158.439 143.574C159.488 139.552 149.784 118.293 142.928 104.324C141.268 100.94 137.324 98.3357 134.564 100.903C130.821 104.383 130.371 111.439 130.188 115.824C129.938 121.824 134.438 130.074 140.189 140.324C145.939 150.574 156.939 149.324 158.439 143.574Z" fill="#FFBEC4"/>
<path d="M139.631 100.224L120.973 94.9824H108.394L89.1071 101.691L92.779 170.25H134.917L139.631 100.224Z" fill="url(#paint3_linear)"/>
<path d="M107.429 137.769C109.346 137.141 113.75 136.091 116.023 136.917C114.534 136.396 110.987 135.418 108.721 135.674C111.139 134.353 117.57 132.697 123.953 136.644" stroke="#B9B0EE"/>
<path d="M120.375 98.75L139.192 103.074" stroke="#B9B0EE"/>
<path d="M108.046 99.3242L89.5459 105.074" stroke="#B9B0EE"/>
<path d="M119.336 85.3133L106.337 87.1444L107.75 99.526C107.75 99.526 110.111 103.648 115.19 102.932C120.269 102.217 121.5 98.875 121.5 98.875L119.336 85.3133Z" fill="#FFBEC4"/>
<path d="M143.459 66.6524C143.74 68.4018 141.795 74.1272 140.786 76.7712L138.79 67.697L143.459 66.6524Z" fill="#8C502E"/>
<path fill-rule="evenodd" clip-rule="evenodd" d="M116.845 50.4884C128.043 48.8153 138.698 58.013 140.642 71.0278C142.587 84.0426 135.656 95.124 126.531 98.249C121.786 98.8822 111.049 94.1922 107.174 91.3815C102.713 85.3929 104.399 82.658 103.019 79.6589C101.028 75.9809 106.536 77.1114 107.957 76.7252L106.525 75.8334C106.121 73.1296 105.948 75.0438 103.244 75.4478L100.016 75.7935C98.7148 63.3037 106.03 52.1044 116.845 50.4884Z" fill="#FFBEC4"/>
<path d="M112.839 94.2207C114.367 95.14 118.211 97.1598 121.363 97.884" stroke="#B5545C" stroke-linecap="round" stroke-linejoin="round"/>
<path d="M118.248 86.8813C121.873 89.1313 129.623 89.2563 131.373 88.1313C127.998 91.6313 128.247 94.4382 126.497 94.7563C118.248 96.2563 117.79 89.8813 118.248 86.8813Z" fill="#F6F6F6"/>
<path d="M118.23 90.124L123.105 90.999" stroke="#939393" stroke-width="0.3"/>
<path d="M124.75 80.4029C124 78.7363 121.4 76.0529 117 78.6529" stroke="#B5545C" stroke-width="1.5" stroke-linecap="round"/>
<path d="M133.25 80.0001C134 78.8334 136.05 76.8501 138.25 78.2501" stroke="#B5545C" stroke-width="1.5" stroke-linecap="round"/>
<path d="M111.014 67.4996C113.873 78.0632 109.436 81.3906 107.537 82.0767C98.553 78.2324 95.5861 66.2638 96.013 57.9996C99.3068 45.8713 121.668 42.0797 139.264 46.2494L140.281 53.0002L150.25 54.5005C146.5 67.4996 140.281 69.7493 140.281 69.7493C129.781 72.4994 115.764 69.9996 111.014 67.4996Z" fill="url(#paint4_radial)"/>
<path fill-rule="evenodd" clip-rule="evenodd" d="M95.972 83.1241C95.2826 81.8136 94.9818 80.341 95.1074 78.8923C95.2331 77.4435 95.7796 76.0837 96.678 74.9846C97.5763 73.8854 98.7862 73.0962 100.155 72.7168C101.523 72.3373 102.989 72.3845 104.367 72.8525C105.745 73.3205 106.974 74.1882 107.897 75.346C108.82 76.5039 109.397 77.8999 109.555 79.3578C109.713 80.8157 109.445 82.2699 108.784 83.5369C108.123 84.8039 107.099 85.8267 105.842 86.4762C105.006 86.9084 104.087 87.1645 103.138 87.2298C102.189 87.2952 101.228 87.1686 100.312 86.8572C99.3947 86.5458 98.5394 86.0558 97.7948 85.4152C97.0501 84.7746 96.4307 83.9961 95.972 83.1241Z" fill="#FFBEC4"/>
<path d="M103.214 84.4627C102.444 84.6192 101.637 84.5513 100.884 84.2665C100.131 83.9818 99.4622 83.4915 98.9533 82.8512C98.4445 82.2108 98.1156 81.4459 98.004 80.6429C97.8924 79.8398 98.0024 79.0306 98.3217 78.3066C98.6409 77.5826 99.1567 76.9727 99.8107 76.5458C100.465 76.119 101.231 75.8921 102.023 75.8909C102.814 75.8896 103.6 76.1141 104.291 76.5389C104.983 76.9637 105.552 77.5719 105.934 78.2948" stroke="#B5545C" stroke-width="1.5" stroke-linecap="round" stroke-linejoin="round"/>
<ellipse cx="124.048" cy="72.0831" rx="1.87783" ry="0.901238" transform="rotate(-10.0096 124.048 72.0831)" fill="#572B12"/>
<ellipse rx="1.87783" ry="0.901238" transform="matrix(-0.961284 -0.275559 -0.275559 0.961284 134.432 70.9627)" fill="#572B12"/>
<path d="M128.709 78.4268C128.709 79.9268 129.059 83.1768 130.459 84.1768" stroke="#B5545C" stroke-width="1.5"/>
<path d="M21.3328 174.469C19.2965 170.173 26.8781 141.101 30.9234 127.102C39.7655 125.425 42.5527 136.092 43.9165 141.94C45.2803 147.789 42.3966 156.733 38.6574 167.875C34.9181 179.017 23.8781 179.839 21.3328 174.469Z" fill="#C18F94"/>
<path d="M22.9175 148.5L32.1675 120.032C36.2925 130.366 42.6175 153.65 36.9175 153.25C31.2175 152.85 25.2091 149.917 22.9175 148.5Z" fill="#51238B"/>
<path d="M32.1675 119.973L54.4175 113.723H69.4175L92.4175 121.723L86.6675 176.75L76.5011 178.65C71.8547 179.518 67.064 179.193 62.5774 177.705C57.2605 175.943 51.5364 175.819 46.1482 177.35L36.9175 179.973L32.1675 119.973Z" fill="url(#paint5_linear)"/>
<path d="M54.125 116.875L35.75 119.75" stroke="#B9B0EE"/>
<path d="M68.25 116.75L86.875 122.5" stroke="#B9B0EE"/>
<path d="M46.3066 57.8856C43.3065 59.0033 40.3263 69.2521 39.2112 74.2367L42.8081 74.1052L46.3066 57.8856Z" fill="#3E1E0C"/>
<path fill-rule="evenodd" clip-rule="evenodd" d="M76.2831 57.8927C64.5645 51.1864 48.7443 56.7946 40.95 70.4145C33.1557 84.0343 36.3492 100.49 48.0678 107.196C53.0662 109.954 63.8057 108.963 69.3281 107.518C76.8776 102.795 76.1881 99.0257 79.0195 96.2906C82.8235 93.0653 76.2141 91.9374 74.8027 90.8933L76.7793 90.522C78.3986 87.6925 77.7629 89.8948 80.5924 91.514L84.0297 93.2954C90.8815 79.9803 87.6012 64.3698 76.2831 57.8927Z" fill="#C18F94"/>
<path d="M53.855 100.662H69.5096V117.778C69.5096 117.778 62.5905 121.5 59.168 121.5C55.7454 121.5 53.855 117.778 53.855 117.778V100.662Z" fill="#C18F94"/>
<path d="M62.4165 92C56.2165 85.8 46.8332 86.25 42.9165 87.25C41.5165 88.65 43.5001 94.625 44.6668 98.375C59.542 107.125 61.2499 96.6667 62.4165 92Z" fill="#791E1E"/>
<path d="M73.5242 74.7449C64.0389 66.4624 49.2869 65.7543 43.0965 66.4356C49.473 37.1614 73.2833 51.8981 84.3914 62.9257C101.057 69.4665 87.3993 85.7624 86.6216 89.3228C85.9995 92.1711 77.7511 92.1483 73.7047 91.7809C69.8268 86.2925 71.9686 78.1367 73.5242 74.7449Z" fill="url(#paint6_linear)"/>
<path d="M70.8548 74.6493C69.7627 71.4383 66.1441 66.2547 60.4067 71.2087" stroke="#572B12" stroke-width="2" stroke-linecap="round"/>
<path d="M46.2212 67.897C47.8045 66.3137 51.0712 64.497 51.4712 69.897" stroke="#572B12" stroke-width="1.5" stroke-linecap="round"/>
<path fill-rule="evenodd" clip-rule="evenodd" d="M86.7702 99.5445C88.1035 98.3867 89.0752 96.8806 89.5627 95.2165C90.0502 93.5523 90.0315 91.8047 89.5091 90.1945C88.9866 88.5843 87.9838 87.1837 86.6273 86.1696C85.2709 85.1556 83.6216 84.5735 81.8879 84.4971C80.1541 84.4206 78.4137 84.8531 76.8865 85.74C75.3593 86.6269 74.1138 87.9283 73.3073 89.4799C72.5009 91.0315 72.1697 92.7636 72.3555 94.4575C72.5414 96.1513 73.2359 97.7309 74.3515 98.9967C75.0938 99.8389 76.0042 100.521 77.0304 101.005C78.0567 101.488 79.1788 101.763 80.3324 101.814C81.486 101.865 82.6484 101.691 83.7531 101.301C84.8578 100.912 85.8831 100.315 86.7702 99.5445Z" fill="#C18F94"/>
<path d="M78.1435 97.8965C78.9316 98.4038 79.8579 98.6777 80.8177 98.6872C81.7776 98.6967 82.7328 98.4414 83.5754 97.9501C84.4181 97.4589 85.1146 96.7513 85.5862 95.9073C86.0578 95.0632 86.2859 94.1164 86.2445 93.1738C86.2032 92.2311 85.8941 91.3302 85.3521 90.5728C84.8102 89.8154 84.0571 89.2316 83.1778 88.8875C82.2985 88.5434 81.3281 88.4527 80.3763 88.6255C79.4244 88.7983 78.529 89.2279 77.7911 89.8656" stroke="#7E5154" stroke-width="1.5" stroke-linecap="round" stroke-linejoin="round"/>
<path fill-rule="evenodd" clip-rule="evenodd" d="M48.4537 75.2092C48.9727 73.6592 48.6194 72.1358 47.7039 71.8363C46.8444 71.555 45.7849 72.4414 45.2339 73.8518L46.3349 74.7097L45.0658 74.8011C44.6701 76.2757 45.018 77.2239 45.8869 77.5024C46.8066 77.7972 47.958 76.7714 48.4537 75.2092Z" fill="#59282C"/>
<path fill-rule="evenodd" clip-rule="evenodd" d="M64.4918 80.4905C65.0108 78.9405 64.6575 77.4171 63.742 77.1175C62.8825 76.8363 61.823 77.7227 61.272 79.1331L62.373 79.991L61.1039 80.0824C60.7082 81.557 61.056 82.5051 61.9249 82.7836C62.8447 83.0784 63.9961 82.0526 64.4918 80.4905Z" fill="#59282C"/>
<mask id="mask0" mask-type="alpha" maskUnits="userSpaceOnUse" x="42" y="86" width="21" height="16">
<path d="M62.4165 92C56.2165 85.8 46.8332 86.25 42.9165 87.25C41.5165 88.65 43.5001 94.625 44.6668 98.375C59.542 107.125 61.2499 96.6667 62.4165 92Z" fill="#791E1E"/>
</mask>
<g mask="url(#mask0)">
<ellipse cx="53.4951" cy="101.832" rx="9.32812" ry="7.8894" fill="#C06969"/>
<path d="M42.1357 88.9998V87.2498C45.8357 84.0498 58.917 87.0831 64.792 88.9998C64.8337 93.4165 64.0421 100.872 61.292 94.9998C58.292 88.5938 47.1774 88.5831 42.1357 88.9998Z" fill="#F7F7F7"/>
</g>
<path d="M103.784 176.121C105.82 171.825 98.2386 142.753 94.1933 128.754C85.3512 127.076 82.564 137.744 81.2002 143.592C79.8364 149.441 82.7201 158.385 86.4593 169.527C90.1986 180.669 101.239 181.491 103.784 176.121Z" fill="#C18F94"/>
<path d="M93.5352 122.5C93.3852 122.25 91.0977 121.688 89.9727 121.438C73.6727 123.487 76.6811 144.458 80.2227 154.688C89.9727 153 99.2227 148.604 100.785 144.75C98.4311 137.438 93.6852 122.75 93.5352 122.5Z" fill="url(#paint7_linear)"/>
<path d="M222.745 164.676C223.945 160.076 212.73 132.25 204.105 120.312C195.105 120.312 194.745 130.926 194.495 136.926C194.245 142.926 198.745 151.176 204.495 161.426C210.245 171.676 221.245 170.426 222.745 164.676Z" fill="#FFBEC4"/>
<path d="M221.709 157.318C220.923 152.66 212.714 147.026 208.708 144.791L202.69 148.78C203.865 155.031 207.897 167.722 214.621 168.479C223.025 169.426 222.692 163.14 221.709 157.318Z" fill="url(#paint8_linear)"/>
<path fill-rule="evenodd" clip-rule="evenodd" d="M182.095 113.723L204.345 119.973L204.333 120.124C204.382 120.125 204.431 120.126 204.48 120.128L215.003 137.995C215.387 138.648 214.937 139.484 214.184 139.568C210.961 139.923 206.353 141.023 202.487 143.433L199.595 179.973H149.345L144.095 121.723L167.095 113.723H182.095Z" fill="url(#paint9_linear)"/>
<path d="M185.048 135.44C180.809 140.249 172.944 152.535 175.391 163.207" stroke="#B9B0EE"/>
<path d="M182.167 117.188L198.667 121.438" stroke="#B9B0EE"/>
<path d="M167.521 117.688L149.021 123.438" stroke="#B9B0EE"/>
<path d="M125.853 166.586C124.653 161.986 137.52 134.836 144.103 121.836C153.103 121.836 153.853 132.836 154.103 138.836C154.353 144.836 149.853 153.086 144.103 163.336C138.353 173.586 127.353 172.336 125.853 166.586Z" fill="#FFBEC4"/>
<path d="M130.613 156.155C133.313 151.555 144.238 148.905 149.363 148.155L154.113 154.78C150.363 160.905 141.013 172.68 133.613 170.78C124.363 168.405 127.238 161.905 130.613 156.155Z" fill="url(#paint10_linear)"/>
<path d="M190.205 57.8856C193.205 59.0033 196.185 69.2521 197.3 74.2367L193.704 74.1052L190.205 57.8856Z" fill="#814727"/>
<path d="M182.657 100.662H167.003V117.778C167.003 117.778 171.407 120.778 174.83 120.778C178.252 120.778 182.657 117.778 182.657 117.778V100.662Z" fill="#FFBEC4"/>
<path d="M198.13 154.666C196.266 153.229 201.829 148.038 204.843 145.622C213.384 153.115 208.234 158.912 204.591 160.874C203.214 159.403 199.994 156.102 198.13 154.666Z" fill="#FFADB5"/>
<path d="M163.868 155.783C165.388 153.986 158.858 150.082 155.402 148.354C148.63 157.477 154.884 162.061 158.858 163.212C159.895 161.485 162.348 157.58 163.868 155.783Z" fill="#FFADB5"/>
<path d="M215.814 174.025C215.814 154.971 200.368 139.525 181.314 139.525C162.261 139.525 146.814 154.971 146.814 174.025" stroke="url(#paint11_linear)" stroke-width="5"/>
<path d="M209.962 162.738C217.568 164.809 222.143 155.769 220.167 153.125C219.042 149.875 213.534 144.458 211.092 144.277C208.649 144.095 205.555 144.965 204.73 145.437L201.283 153.803C202.91 157.171 207.416 160.814 209.962 162.738Z" fill="url(#paint12_linear)"/>
<path d="M205.167 145.331C205.501 144.665 206.967 143.531 210.167 144.331" stroke="#FF969F" stroke-linecap="round"/>
<path d="M217.282 148.875C220.917 152.125 222.917 155.25 217.282 161.13" stroke="#FF969F" stroke-linecap="round"/>
<path d="M206.504 161.169L211.556 156.724" stroke="#FF969F" stroke-linecap="round"/>
<path d="M203.715 157.44L208.767 152.995" stroke="#FF969F" stroke-linecap="round"/>
<path fill-rule="evenodd" clip-rule="evenodd" d="M164.471 55.8851C177.14 51.2158 191.81 59.3708 197.237 74.095C202.664 88.8191 196.785 104.517 184.116 109.186C178.729 111.076 168.303 108.318 163.097 105.976C156.436 100.066 157.741 96.4639 155.403 93.2969C152.186 89.4853 158.891 89.4695 160.456 88.674L158.569 87.9799C157.441 84.921 157.703 87.1982 154.644 88.3256L150.959 89.5121C146.411 75.2448 152.235 60.3947 164.471 55.8851Z" fill="#FFBEC4"/>
<path d="M169.134 91.8204C176.277 86.7349 185.455 88.7353 189.152 90.3712C188.042 91.8201 187.417 94.2503 187.417 98.2502C171.297 104.411 169.51 96.6159 169.134 91.8204Z" fill="#791E1E"/>
<path d="M157.917 72C167.667 62 188.417 57 195.78 69.815C211.168 35.7497 156.917 39.5003 155.64 59.5031C138.12 63.1886 148.885 81.5243 149.061 85.1644C149.202 88.0764 157.34 89.4223 161.392 89.7313C166.126 84.9623 161.392 75.25 157.917 72Z" fill="url(#paint13_linear)"/>
<path d="M164.044 73.5445C165.654 70.5591 170.082 66.0476 174.918 71.8848" stroke="#572B12" stroke-width="2" stroke-linecap="round"/>
<path d="M189.456 70.9723C188.158 69.1482 185.238 66.8148 183.947 72.0736" stroke="#572B12" stroke-width="2" stroke-linecap="round"/>
<path fill-rule="evenodd" clip-rule="evenodd" d="M145.313 95.8923C144.191 94.5294 143.482 92.8829 143.277 91.161C143.073 89.439 143.381 87.7187 144.164 86.2175C144.946 84.7163 146.167 83.5015 147.673 82.7265C149.179 81.9515 150.902 81.6511 152.624 81.8633C154.347 82.0756 155.991 82.7908 157.35 83.9188C158.709 85.0467 159.721 86.5367 160.259 88.2006C160.797 89.8645 160.836 91.6276 160.372 93.2671C159.908 94.9067 158.961 96.3491 157.651 97.4123C156.779 98.1197 155.768 98.6416 154.676 98.9481C153.584 99.2546 152.431 99.3397 151.285 99.1985C150.139 99.0573 149.022 98.6926 147.997 98.1253C146.972 97.5579 146.06 96.7991 145.313 95.8923Z" fill="#FFBEC4"/>
<path d="M154.094 95.6984C153.233 96.0679 152.274 96.1843 151.326 96.0345C150.378 95.8846 149.478 95.4743 148.729 94.8501C147.979 94.2259 147.41 93.4126 147.085 92.502C146.76 91.5914 146.692 90.6199 146.889 89.6971C147.086 88.7744 147.54 87.9373 148.2 87.2802C148.861 86.6232 149.7 86.1725 150.624 85.9791C151.548 85.7856 152.52 85.8571 153.43 86.1854C154.34 86.5138 155.152 87.0859 155.774 87.8372" stroke="#B5545C" stroke-width="1.5" stroke-linecap="round" stroke-linejoin="round"/>
<path fill-rule="evenodd" clip-rule="evenodd" d="M186.042 77.8128C185.787 76.1982 186.388 74.7545 187.341 74.611C188.235 74.4762 189.133 75.5261 189.442 77.0084L188.214 77.6717L189.451 77.9724C189.596 79.4922 189.096 80.3695 188.193 80.5C187.237 80.6382 186.272 79.4355 186.042 77.8128Z" fill="#59282C"/>
<path fill-rule="evenodd" clip-rule="evenodd" d="M169.35 80.3602C169.095 78.7455 169.697 77.3019 170.649 77.1583C171.543 77.0236 172.441 78.0735 172.75 79.5557L171.522 80.2191L172.759 80.5198C172.904 82.0396 172.404 82.9169 171.501 83.0474C170.545 83.1855 169.58 81.9829 169.35 80.3602Z" fill="#59282C"/>
<mask id="mask1" mask-type="alpha" maskUnits="userSpaceOnUse" x="167" y="86" width="23" height="17">
<path d="M169.135 91.8204C176.277 86.7349 185.456 88.7353 189.152 90.3712C187.793 92.625 188.73 94.25 187.418 98.2502C171.297 104.411 169.511 96.6159 169.135 91.8204Z" fill="#791E1E"/>
</mask>
<g mask="url(#mask1)">
<ellipse rx="9.32812" ry="7.8894" transform="matrix(-0.986143 -0.165897 -0.165897 0.986143 176.301 102.996)" fill="#C06969"/>
<path d="M189.632 92.2262L189.922 90.5004C186.804 86.731 173.401 87.5521 167.29 88.4676C166.516 92.8161 166.06 100.3 169.746 94.9651C173.767 89.1455 184.729 90.9789 189.632 92.2262Z" fill="#F7F7F7"/>
</g>
<path d="M130.595 142.193L143.72 121.693C151.32 117.693 156.136 127.776 157.595 133.318C156.595 139.818 153.945 151.793 151.345 147.693C148.745 143.593 136.428 142.318 130.595 142.193Z" fill="#5F3595"/>
<path d="M153.792 166.5C146.792 170.125 141.667 161.625 143.042 158.625C144.179 155.781 146.66 149.045 149.01 148.354C151.36 147.663 153.758 148.066 154.664 148.354L160.604 155.603C159.722 159.239 155.876 164.083 153.792 166.5Z" fill="url(#paint14_linear)"/>
<path d="M157.05 163.903L151.176 160.621" stroke="#FF969F" stroke-linecap="round"/>
<path d="M188.667 157C159.867 154.6 132.334 172 122.167 181H231.167C229.001 174 217.467 159.4 188.667 157Z" fill="url(#paint15_linear)"/>
<path d="M52.4175 74.25C51.5008 76.3333 49.2175 80.55 47.4175 80.75" stroke="#7E5154" stroke-width="2"/>
<path d="M182.167 77.5C183.917 78.9167 186.617 82.35 183.417 84.75" stroke="#B5545C"/>
<path d="M145.354 153.796C143.453 156.1 141.792 163.125 145.354 165.544" stroke="#FF96A0" stroke-linecap="round"/>
<path d="M158.991 159.67L153.117 156.388" stroke="#FF969F" stroke-linecap="round"/>
<path d="M53.0858 145.755C54.2065 150.654 57.8634 161.524 63.5254 165.812" stroke="#B9B0EE"/>
<defs>
<linearGradient id="paint0_linear" x1="127.221" y1="151.661" x2="127.221" y2="202.691" gradientUnits="userSpaceOnUse">
<stop stop-color="#9AA1EC"/>
<stop offset="1" stop-color="#9AA1EC" stop-opacity="0"/>
</linearGradient>
<linearGradient id="paint1_linear" x1="122.042" y1="0.950195" x2="122.042" y2="191.361" gradientUnits="userSpaceOnUse">
<stop stop-color="#EFF0F9"/>
<stop offset="1" stop-color="#EFF0F9" stop-opacity="0"/>
</linearGradient>
<linearGradient id="paint2_linear" x1="117.434" y1="97.3174" x2="117.434" y2="175.176" gradientUnits="userSpaceOnUse">
<stop stop-color="#FFB38B" stop-opacity="0.92"/>
<stop offset="0.233534" stop-color="#FFC4A5" stop-opacity="0.24"/>
<stop offset="0.670224" stop-color="#FFC4A5" stop-opacity="0"/>
</linearGradient>
<linearGradient id="paint3_linear" x1="137.167" y1="97.5" x2="114.369" y2="170.25" gradientUnits="userSpaceOnUse">
<stop stop-color="#7E5DA9"/>
<stop offset="0.328125" stop-color="#68419B"/>
<stop offset="1" stop-color="#582C90"/>
</linearGradient>
<radialGradient id="paint4_radial" cx="0" cy="0" r="1" gradientUnits="userSpaceOnUse" gradientTransform="translate(101.209 62.5134) rotate(-12.693) scale(48.9876 64.5754)">
<stop offset="0.619414" stop-color="#6A3416"/>
<stop offset="1" stop-color="#9E5F3C"/>
</radialGradient>
<linearGradient id="paint5_linear" x1="86.6675" y1="118.75" x2="62.2925" y2="179.973" gradientUnits="userSpaceOnUse">
<stop stop-color="#7E5DA9"/>
<stop offset="0.405244" stop-color="#582C90"/>
<stop offset="1" stop-color="#582C90"/>
</linearGradient>
<linearGradient id="paint6_linear" x1="95.1552" y1="67.9178" x2="72.068" y2="76.3706" gradientUnits="userSpaceOnUse">
<stop stop-color="#5F3822"/>
<stop offset="1" stop-color="#3E1E0C"/>
</linearGradient>
<linearGradient id="paint7_linear" x1="100.785" y1="125.25" x2="81.4175" y2="154.688" gradientUnits="userSpaceOnUse">
<stop stop-color="#5F2F9B"/>
<stop offset="1" stop-color="#51238B"/>
</linearGradient>
<linearGradient id="paint8_linear" x1="208.224" y1="146.237" x2="219.638" y2="165.74" gradientUnits="userSpaceOnUse">
<stop stop-color="#FFA9B1"/>
<stop offset="1" stop-color="#FFBEC4"/>
</linearGradient>
<linearGradient id="paint9_linear" x1="204.57" y1="118" x2="162.963" y2="173.095" gradientUnits="userSpaceOnUse">
<stop stop-color="#7E5DA9"/>
<stop offset="0.338542" stop-color="#653D98"/>
<stop offset="1" stop-color="#582C90"/>
</linearGradient>
<linearGradient id="paint10_linear" x1="149.292" y1="149.875" x2="129.417" y2="165.875" gradientUnits="userSpaceOnUse">
<stop stop-color="#FFA9B1"/>
<stop offset="1" stop-color="#FFBEC4"/>
</linearGradient>
<linearGradient id="paint11_linear" x1="181.314" y1="139.525" x2="215.814" y2="167.5" gradientUnits="userSpaceOnUse">
<stop stop-color="#FFC4A5"/>
<stop offset="1" stop-color="#E98D5D"/>
</linearGradient>
<linearGradient id="paint12_linear" x1="203.592" y1="144.634" x2="220.974" y2="154.701" gradientUnits="userSpaceOnUse">
<stop stop-color="#FFBEC4"/>
<stop offset="1" stop-color="#FFAAB2"/>
</linearGradient>
<linearGradient id="paint13_linear" x1="172.342" y1="60" x2="194.667" y2="48" gradientUnits="userSpaceOnUse">
<stop stop-color="#6A3416"/>
<stop offset="0.697917" stop-color="#814727"/>
<stop offset="1" stop-color="#814727"/>
</linearGradient>
<linearGradient id="paint14_linear" x1="156.417" y1="147.125" x2="141.542" y2="160.625" gradientUnits="userSpaceOnUse">
<stop stop-color="#FFBEC4"/>
<stop offset="1" stop-color="#FFAAB2"/>
</linearGradient>
<linearGradient id="paint15_linear" x1="225.667" y1="160.5" x2="128.167" y2="181" gradientUnits="userSpaceOnUse">
<stop offset="0.236331" stop-color="#FFC4A5"/>
<stop offset="1" stop-color="#FFC4A5"/>
</linearGradient>
</defs>
</svg>
