<svg width="198" height="42" viewBox="0 0 198 42" fill="none" xmlns="http://www.w3.org/2000/svg">
<path d="M44.36 32.52H49.24V34H42.54V20.06H44.36V32.52ZM50.4928 28.48C50.4928 27.36 50.7195 26.38 51.1728 25.54C51.6261 24.6867 52.2461 24.0267 53.0328 23.56C53.8328 23.0933 54.7195 22.86 55.6928 22.86C56.6528 22.86 57.4861 23.0667 58.1928 23.48C58.8995 23.8933 59.4261 24.4133 59.7728 25.04V23.04H61.6128V34H59.7728V31.96C59.4128 32.6 58.8728 33.1333 58.1528 33.56C57.4461 33.9733 56.6195 34.18 55.6728 34.18C54.6995 34.18 53.8195 33.94 53.0328 33.46C52.2461 32.98 51.6261 32.3067 51.1728 31.44C50.7195 30.5733 50.4928 29.5867 50.4928 28.48ZM59.7728 28.5C59.7728 27.6733 59.6061 26.9533 59.2728 26.34C58.9395 25.7267 58.4861 25.26 57.9128 24.94C57.3528 24.6067 56.7328 24.44 56.0528 24.44C55.3728 24.44 54.7528 24.6 54.1928 24.92C53.6328 25.24 53.1861 25.7067 52.8528 26.32C52.5195 26.9333 52.3528 27.6533 52.3528 28.48C52.3528 29.32 52.5195 30.0533 52.8528 30.68C53.1861 31.2933 53.6328 31.7667 54.1928 32.1C54.7528 32.42 55.3728 32.58 56.0528 32.58C56.7328 32.58 57.3528 32.42 57.9128 32.1C58.4861 31.7667 58.9395 31.2933 59.2728 30.68C59.6061 30.0533 59.7728 29.3267 59.7728 28.5ZM79.2884 23.04L75.8684 34H73.9884L71.3484 25.3L68.7084 34H66.8284L63.3884 23.04H65.2484L67.7684 32.24L70.4884 23.04H72.3484L75.0084 32.26L77.4884 23.04H79.2884ZM80.4147 28.48C80.4147 27.36 80.6414 26.38 81.0947 25.54C81.548 24.6867 82.168 24.0267 82.9547 23.56C83.7547 23.0933 84.6414 22.86 85.6147 22.86C86.5747 22.86 87.408 23.0667 88.1147 23.48C88.8214 23.8933 89.348 24.4133 89.6947 25.04V23.04H91.5347V34H89.6947V31.96C89.3347 32.6 88.7947 33.1333 88.0747 33.56C87.368 33.9733 86.5414 34.18 85.5947 34.18C84.6214 34.18 83.7414 33.94 82.9547 33.46C82.168 32.98 81.548 32.3067 81.0947 31.44C80.6414 30.5733 80.4147 29.5867 80.4147 28.48ZM89.6947 28.5C89.6947 27.6733 89.528 26.9533 89.1947 26.34C88.8614 25.7267 88.408 25.26 87.8347 24.94C87.2747 24.6067 86.6547 24.44 85.9747 24.44C85.2947 24.44 84.6747 24.6 84.1147 24.92C83.5547 25.24 83.108 25.7067 82.7747 26.32C82.4414 26.9333 82.2747 27.6533 82.2747 28.48C82.2747 29.32 82.4414 30.0533 82.7747 30.68C83.108 31.2933 83.5547 31.7667 84.1147 32.1C84.6747 32.42 85.2947 32.58 85.9747 32.58C86.6547 32.58 87.2747 32.42 87.8347 32.1C88.408 31.7667 88.8614 31.2933 89.1947 30.68C89.528 30.0533 89.6947 29.3267 89.6947 28.5ZM99.9503 22.84C101.284 22.84 102.364 23.2467 103.19 24.06C104.017 24.86 104.43 26.02 104.43 27.54V34H102.63V27.8C102.63 26.7067 102.357 25.8733 101.81 25.3C101.264 24.7133 100.517 24.42 99.5703 24.42C98.6103 24.42 97.8436 24.72 97.2703 25.32C96.7103 25.92 96.4303 26.7933 96.4303 27.94V34H94.6103V23.04H96.4303V24.6C96.7903 24.04 97.277 23.6067 97.8903 23.3C98.517 22.9933 99.2036 22.84 99.9503 22.84ZM110.762 26.96C110.762 25.5733 111.062 24.34 111.662 23.26C112.262 22.1667 113.095 21.32 114.162 20.72C115.242 20.1067 116.462 19.8 117.822 19.8C119.488 19.8 120.915 20.24 122.102 21.12C123.288 22 124.082 23.2 124.482 24.72H120.722C120.442 24.1333 120.042 23.6867 119.522 23.38C119.015 23.0733 118.435 22.92 117.782 22.92C116.728 22.92 115.875 23.2867 115.222 24.02C114.568 24.7533 114.242 25.7333 114.242 26.96C114.242 28.1867 114.568 29.1667 115.222 29.9C115.875 30.6333 116.728 31 117.782 31C118.435 31 119.015 30.8467 119.522 30.54C120.042 30.2333 120.442 29.7867 120.722 29.2H124.482C124.082 30.72 123.288 31.92 122.102 32.8C120.915 33.6667 119.488 34.1 117.822 34.1C116.462 34.1 115.242 33.8 114.162 33.2C113.095 32.5867 112.262 31.74 111.662 30.66C111.062 29.58 110.762 28.3467 110.762 26.96ZM131.656 34.16C130.563 34.16 129.576 33.9267 128.696 33.46C127.829 32.9933 127.143 32.3267 126.636 31.46C126.143 30.5933 125.896 29.58 125.896 28.42C125.896 27.2733 126.149 26.2667 126.656 25.4C127.163 24.52 127.856 23.8467 128.736 23.38C129.616 22.9133 130.603 22.68 131.696 22.68C132.789 22.68 133.776 22.9133 134.656 23.38C135.536 23.8467 136.229 24.52 136.736 25.4C137.243 26.2667 137.496 27.2733 137.496 28.42C137.496 29.5667 137.236 30.58 136.716 31.46C136.209 32.3267 135.509 32.9933 134.616 33.46C133.736 33.9267 132.749 34.16 131.656 34.16ZM131.656 31.2C132.309 31.2 132.863 30.96 133.316 30.48C133.783 30 134.016 29.3133 134.016 28.42C134.016 27.5267 133.789 26.84 133.336 26.36C132.896 25.88 132.349 25.64 131.696 25.64C131.029 25.64 130.476 25.88 130.036 26.36C129.596 26.8267 129.376 27.5133 129.376 28.42C129.376 29.3133 129.589 30 130.016 30.48C130.456 30.96 131.003 31.2 131.656 31.2ZM142.73 24.7C143.13 24.0867 143.63 23.6067 144.23 23.26C144.83 22.9 145.497 22.72 146.23 22.72V26.34H145.29C144.437 26.34 143.797 26.5267 143.37 26.9C142.944 27.26 142.73 27.9 142.73 28.82V34H139.31V22.84H142.73V24.7ZM152.945 34.16C151.852 34.16 150.865 33.9267 149.985 33.46C149.118 32.9933 148.432 32.3267 147.925 31.46C147.432 30.5933 147.185 29.58 147.185 28.42C147.185 27.2733 147.438 26.2667 147.945 25.4C148.452 24.52 149.145 23.8467 150.025 23.38C150.905 22.9133 151.892 22.68 152.985 22.68C154.078 22.68 155.065 22.9133 155.945 23.38C156.825 23.8467 157.518 24.52 158.025 25.4C158.532 26.2667 158.785 27.2733 158.785 28.42C158.785 29.5667 158.525 30.58 158.005 31.46C157.498 32.3267 156.798 32.9933 155.905 33.46C155.025 33.9267 154.038 34.16 152.945 34.16ZM152.945 31.2C153.598 31.2 154.152 30.96 154.605 30.48C155.072 30 155.305 29.3133 155.305 28.42C155.305 27.5267 155.078 26.84 154.625 26.36C154.185 25.88 153.638 25.64 152.985 25.64C152.318 25.64 151.765 25.88 151.325 26.36C150.885 26.8267 150.665 27.5133 150.665 28.42C150.665 29.3133 150.878 30 151.305 30.48C151.745 30.96 152.292 31.2 152.945 31.2ZM167.399 22.72C168.706 22.72 169.746 23.1467 170.519 24C171.306 24.84 171.699 26 171.699 27.48V34H168.299V27.94C168.299 27.1933 168.106 26.6133 167.719 26.2C167.333 25.7867 166.813 25.58 166.159 25.58C165.506 25.58 164.986 25.7867 164.599 26.2C164.213 26.6133 164.019 27.1933 164.019 27.94V34H160.599V22.84H164.019V24.32C164.366 23.8267 164.833 23.44 165.419 23.16C166.006 22.8667 166.666 22.72 167.399 22.72ZM173.396 28.4C173.396 27.2533 173.609 26.2467 174.036 25.38C174.476 24.5133 175.069 23.8467 175.816 23.38C176.563 22.9133 177.396 22.68 178.316 22.68C179.103 22.68 179.789 22.84 180.376 23.16C180.976 23.48 181.436 23.9 181.756 24.42V22.84H185.176V34H181.756V32.42C181.423 32.94 180.956 33.36 180.356 33.68C179.769 34 179.083 34.16 178.296 34.16C177.389 34.16 176.563 33.9267 175.816 33.46C175.069 32.98 174.476 32.3067 174.036 31.44C173.609 30.56 173.396 29.5467 173.396 28.4ZM181.756 28.42C181.756 27.5667 181.516 26.8933 181.036 26.4C180.569 25.9067 179.996 25.66 179.316 25.66C178.636 25.66 178.056 25.9067 177.576 26.4C177.109 26.88 176.876 27.5467 176.876 28.4C176.876 29.2533 177.109 29.9333 177.576 30.44C178.056 30.9333 178.636 31.18 179.316 31.18C179.996 31.18 180.569 30.9333 181.036 30.44C181.516 29.9467 181.756 29.2733 181.756 28.42Z" fill="#4A4949"/>
<path d="M43.364 4.993C43.1733 4.993 43.012 4.927 42.88 4.795C42.748 4.663 42.682 4.50167 42.682 4.311C42.682 4.12033 42.748 3.959 42.88 3.827C43.012 3.695 43.1733 3.629 43.364 3.629C43.5473 3.629 43.7013 3.695 43.826 3.827C43.958 3.959 44.024 4.12033 44.024 4.311C44.024 4.50167 43.958 4.663 43.826 4.795C43.7013 4.927 43.5473 4.993 43.364 4.993ZM43.848 5.972V12H42.847V5.972H43.848ZM48.491 5.862C49.2244 5.862 49.8184 6.08567 50.273 6.533C50.7277 6.973 50.955 7.611 50.955 8.447V12H49.965V8.59C49.965 7.98867 49.8147 7.53033 49.514 7.215C49.2134 6.89233 48.8027 6.731 48.282 6.731C47.754 6.731 47.3324 6.896 47.017 7.226C46.709 7.556 46.555 8.03633 46.555 8.667V12H45.554V5.972H46.555V6.83C46.753 6.522 47.0207 6.28367 47.358 6.115C47.7027 5.94633 48.0804 5.862 48.491 5.862ZM52.2162 8.964C52.2162 8.348 52.3408 7.809 52.5902 7.347C52.8395 6.87767 53.1805 6.51467 53.6132 6.258C54.0532 6.00133 54.5445 5.873 55.0872 5.873C55.5565 5.873 55.9928 5.983 56.3962 6.203C56.7995 6.41567 57.1075 6.698 57.3202 7.05V3.86H58.3322V12H57.3202V10.867C57.1222 11.2263 56.8288 11.5233 56.4402 11.758C56.0515 11.9853 55.5968 12.099 55.0762 12.099C54.5408 12.099 54.0532 11.967 53.6132 11.703C53.1805 11.439 52.8395 11.0687 52.5902 10.592C52.3408 10.1153 52.2162 9.57267 52.2162 8.964ZM57.3202 8.975C57.3202 8.52033 57.2285 8.12433 57.0452 7.787C56.8618 7.44967 56.6125 7.193 56.2972 7.017C55.9892 6.83367 55.6482 6.742 55.2742 6.742C54.9002 6.742 54.5592 6.83 54.2512 7.006C53.9432 7.182 53.6975 7.43867 53.5142 7.776C53.3308 8.11333 53.2392 8.50933 53.2392 8.964C53.2392 9.426 53.3308 9.82933 53.5142 10.174C53.6975 10.5113 53.9432 10.7717 54.2512 10.955C54.5592 11.131 54.9002 11.219 55.2742 11.219C55.6482 11.219 55.9892 11.131 56.2972 10.955C56.6125 10.7717 56.8618 10.5113 57.0452 10.174C57.2285 9.82933 57.3202 9.42967 57.3202 8.975ZM62.6528 12.099C62.0881 12.099 61.5748 11.9707 61.1128 11.714C60.6581 11.4573 60.2988 11.0943 60.0348 10.625C59.7781 10.1483 59.6498 9.59833 59.6498 8.975C59.6498 8.359 59.7818 7.81633 60.0458 7.347C60.3171 6.87033 60.6838 6.50733 61.1458 6.258C61.6078 6.00133 62.1248 5.873 62.6968 5.873C63.2688 5.873 63.7858 6.00133 64.2478 6.258C64.7098 6.50733 65.0728 6.86667 65.3368 7.336C65.6081 7.80533 65.7438 8.35167 65.7438 8.975C65.7438 9.59833 65.6044 10.1483 65.3258 10.625C65.0544 11.0943 64.6841 11.4573 64.2148 11.714C63.7454 11.9707 63.2248 12.099 62.6528 12.099ZM62.6528 11.219C63.0121 11.219 63.3494 11.1347 63.6648 10.966C63.9801 10.7973 64.2331 10.5443 64.4238 10.207C64.6218 9.86967 64.7208 9.459 64.7208 8.975C64.7208 8.491 64.6254 8.08033 64.4348 7.743C64.2441 7.40567 63.9948 7.15633 63.6868 6.995C63.3788 6.82633 63.0451 6.742 62.6858 6.742C62.3191 6.742 61.9818 6.82633 61.6738 6.995C61.3731 7.15633 61.1311 7.40567 60.9478 7.743C60.7644 8.08033 60.6728 8.491 60.6728 8.975C60.6728 9.46633 60.7608 9.88067 60.9368 10.218C61.1201 10.5553 61.3621 10.8083 61.6628 10.977C61.9634 11.1383 62.2934 11.219 62.6528 11.219ZM69.9969 5.862C70.7302 5.862 71.3242 6.08567 71.7789 6.533C72.2336 6.973 72.4609 7.611 72.4609 8.447V12H71.4709V8.59C71.4709 7.98867 71.3206 7.53033 71.0199 7.215C70.7192 6.89233 70.3086 6.731 69.7879 6.731C69.2599 6.731 68.8382 6.896 68.5229 7.226C68.2149 7.556 68.0609 8.03633 68.0609 8.667V12H67.0599V5.972H68.0609V6.83C68.2589 6.522 68.5266 6.28367 68.8639 6.115C69.2086 5.94633 69.5862 5.862 69.9969 5.862ZM79.596 8.755C79.596 8.94567 79.585 9.14733 79.563 9.36H74.745C74.7817 9.954 74.9834 10.4197 75.35 10.757C75.724 11.087 76.175 11.252 76.703 11.252C77.1357 11.252 77.495 11.153 77.781 10.955C78.0744 10.7497 78.2797 10.4783 78.397 10.141H79.475C79.3137 10.7203 78.991 11.1933 78.507 11.56C78.023 11.9193 77.4217 12.099 76.703 12.099C76.131 12.099 75.6177 11.9707 75.163 11.714C74.7157 11.4573 74.3637 11.0943 74.107 10.625C73.8504 10.1483 73.722 9.59833 73.722 8.975C73.722 8.35167 73.8467 7.80533 74.096 7.336C74.3454 6.86667 74.6937 6.50733 75.141 6.258C75.5957 6.00133 76.1164 5.873 76.703 5.873C77.275 5.873 77.781 5.99767 78.221 6.247C78.661 6.49633 78.9984 6.841 79.233 7.281C79.475 7.71367 79.596 8.205 79.596 8.755ZM78.562 8.546C78.562 8.16467 78.4777 7.83833 78.309 7.567C78.1404 7.28833 77.9094 7.07933 77.616 6.94C77.33 6.79333 77.011 6.72 76.659 6.72C76.153 6.72 75.7204 6.88133 75.361 7.204C75.009 7.52667 74.8074 7.974 74.756 8.546H78.562ZM83.0513 12.099C82.5893 12.099 82.175 12.022 81.8083 11.868C81.4416 11.7067 81.152 11.4867 80.9393 11.208C80.7266 10.922 80.6093 10.5957 80.5873 10.229H81.6213C81.6506 10.5297 81.79 10.7753 82.0393 10.966C82.296 11.1567 82.6296 11.252 83.0403 11.252C83.4216 11.252 83.7223 11.1677 83.9423 10.999C84.1623 10.8303 84.2723 10.6177 84.2723 10.361C84.2723 10.097 84.155 9.90267 83.9203 9.778C83.6856 9.646 83.3226 9.51767 82.8313 9.393C82.384 9.27567 82.0173 9.15833 81.7313 9.041C81.4526 8.91633 81.2106 8.73667 81.0053 8.502C80.8073 8.26 80.7083 7.94467 80.7083 7.556C80.7083 7.248 80.8 6.96567 80.9833 6.709C81.1666 6.45233 81.427 6.25067 81.7643 6.104C82.1016 5.95 82.4866 5.873 82.9193 5.873C83.5866 5.873 84.1256 6.04167 84.5363 6.379C84.947 6.71633 85.167 7.17833 85.1963 7.765H84.1953C84.1733 7.44967 84.045 7.19667 83.8103 7.006C83.583 6.81533 83.275 6.72 82.8863 6.72C82.527 6.72 82.241 6.797 82.0283 6.951C81.8156 7.105 81.7093 7.30667 81.7093 7.556C81.7093 7.754 81.7716 7.919 81.8963 8.051C82.0283 8.17567 82.1896 8.27833 82.3803 8.359C82.5783 8.43233 82.8496 8.51667 83.1943 8.612C83.627 8.72933 83.979 8.84667 84.2503 8.964C84.5216 9.074 84.7526 9.24267 84.9433 9.47C85.1413 9.69733 85.244 9.99433 85.2513 10.361C85.2513 10.691 85.1596 10.988 84.9763 11.252C84.793 11.516 84.5326 11.725 84.1953 11.879C83.8653 12.0257 83.484 12.099 83.0513 12.099ZM87.1814 4.993C86.9907 4.993 86.8294 4.927 86.6974 4.795C86.5654 4.663 86.4994 4.50167 86.4994 4.311C86.4994 4.12033 86.5654 3.959 86.6974 3.827C86.8294 3.695 86.9907 3.629 87.1814 3.629C87.3647 3.629 87.5187 3.695 87.6434 3.827C87.7754 3.959 87.8414 4.12033 87.8414 4.311C87.8414 4.50167 87.7754 4.663 87.6434 4.795C87.5187 4.927 87.3647 4.993 87.1814 4.993ZM87.6654 5.972V12H86.6644V5.972H87.6654ZM88.9974 8.964C88.9974 8.348 89.1221 7.809 89.3714 7.347C89.6207 6.87767 89.9617 6.51467 90.3944 6.258C90.8344 6.00133 91.3221 5.873 91.8574 5.873C92.3854 5.873 92.8437 5.98667 93.2324 6.214C93.6211 6.44133 93.9107 6.72733 94.1014 7.072V5.972H95.1134V12H94.1014V10.878C93.9034 11.23 93.6064 11.5233 93.2104 11.758C92.8217 11.9853 92.3671 12.099 91.8464 12.099C91.3111 12.099 90.8271 11.967 90.3944 11.703C89.9617 11.439 89.6207 11.0687 89.3714 10.592C89.1221 10.1153 88.9974 9.57267 88.9974 8.964ZM94.1014 8.975C94.1014 8.52033 94.0097 8.12433 93.8264 7.787C93.6431 7.44967 93.3937 7.193 93.0784 7.017C92.7704 6.83367 92.4294 6.742 92.0554 6.742C91.6814 6.742 91.3404 6.83 91.0324 7.006C90.7244 7.182 90.4787 7.43867 90.2954 7.776C90.1121 8.11333 90.0204 8.50933 90.0204 8.964C90.0204 9.426 90.1121 9.82933 90.2954 10.174C90.4787 10.5113 90.7244 10.7717 91.0324 10.955C91.3404 11.131 91.6814 11.219 92.0554 11.219C92.4294 11.219 92.7704 11.131 93.0784 10.955C93.3937 10.7717 93.6431 10.5113 93.8264 10.174C94.0097 9.82933 94.1014 9.42967 94.1014 8.975Z" fill="#4A4949" fill-opacity="0.8"/>
<g clip-path="url(#clip0)">
<path d="M14.427 31.1845L7.4084 26.9378C7.18524 26.8018 6.99618 26.6191 6.85499 26.4031C6.7138 26.1871 6.62405 25.9432 6.59228 25.6892L4.47037 8.8929C4.45852 8.80042 4.4547 8.70713 4.45895 8.61402C4.45909 8.50616 4.43456 8.39961 4.38714 8.30206C4.33972 8.20451 4.27059 8.11839 4.18473 8.04992L1.0084 5.58276L0.985551 5.56216L0.946376 5.53047C0.84415 5.45488 0.719053 5.41421 0.59055 5.4148C0.433408 5.4148 0.282702 5.4754 0.171587 5.58327C0.0604709 5.69114 -0.00195312 5.83745 -0.00195312 5.99C-0.00195312 6.00901 -0.00195312 6.02802 -0.00195312 6.04545C-0.00195312 6.06288 -0.00195263 6.08665 0.00620856 6.10567L2.74184 27.7824C2.78459 28.1212 2.90484 28.4465 3.09377 28.7343C3.28271 29.0222 3.53555 29.2654 3.8338 29.4462L14.5299 35.9096C14.5826 35.9424 14.6371 35.9725 14.6931 35.9999V31.6598C14.6927 31.5654 14.6682 31.4725 14.6218 31.3896C14.5754 31.3066 14.5084 31.2361 14.427 31.1845Z" fill="url(#paint0_linear)"/>
<path opacity="0.37" d="M31.9821 5.56551L29.1796 27.7588C29.1359 28.103 29.0125 28.4331 28.8186 28.7243C28.6246 29.0154 28.3652 29.2602 28.0599 29.44L16.9884 35.9272C16.9621 35.9435 16.9349 35.9584 16.9068 35.9716V31.6442C16.9107 31.5549 16.9363 31.4678 16.9814 31.3899C17.0265 31.3119 17.0898 31.2454 17.1663 31.1957L17.2267 31.1609L24.4869 26.9016C24.7176 26.7665 24.9135 26.5821 25.0598 26.3625C25.206 26.1428 25.2987 25.8936 25.3308 25.6339L27.4527 8.88516C27.4832 8.64353 27.4605 8.39837 27.3861 8.16589C27.3117 7.93341 27.1873 7.71893 27.0211 7.53663C26.8549 7.35432 26.6507 7.20836 26.4221 7.10839C26.1934 7.00843 25.9455 6.95674 25.6948 6.95676H6.54862C6.44159 6.95657 6.33663 6.92808 6.24502 6.87436C6.222 6.8614 6.20015 6.84656 6.17973 6.82999L2.58881 4.038L2.53984 3.99998L2.49414 3.95561C2.41751 3.87305 2.36715 3.77071 2.34916 3.66096C2.33117 3.55122 2.34631 3.43876 2.39275 3.33719C2.4392 3.23562 2.51495 3.14928 2.61087 3.08862C2.70678 3.02796 2.81874 2.99557 2.93321 2.99536H29.6415C29.9756 2.99539 30.3059 3.06432 30.6105 3.1976C30.9151 3.33088 31.187 3.52547 31.4083 3.76847C31.6296 4.01146 31.7952 4.29733 31.8941 4.60713C31.9931 4.91694 32.0231 5.24361 31.9821 5.56551Z" fill="url(#paint1_linear)"/>
<path d="M15.965 27.5932C18.2718 27.5932 20.1419 25.7777 20.1419 23.5383C20.1419 21.2988 18.2718 19.4834 15.965 19.4834C13.6581 19.4834 11.7881 21.2988 11.7881 23.5383C11.7881 25.7777 13.6581 27.5932 15.965 27.5932Z" fill="url(#paint2_linear)"/>
</g>
<defs>
<linearGradient id="paint0_linear" x1="-0.000320888" y1="20.7058" x2="14.6882" y2="20.7058" gradientUnits="userSpaceOnUse">
<stop stop-color="#7E5EA8"/>
<stop offset="1" stop-color="#4B2D83"/>
</linearGradient>
<linearGradient id="paint1_linear" x1="6595.34" y1="12185.4" x2="11984.8" y2="12185.4" gradientUnits="userSpaceOnUse">
<stop stop-color="#7E5EA8"/>
<stop offset="1" stop-color="#4B2D83"/>
</linearGradient>
<linearGradient id="paint2_linear" x1="615.098" y1="1133.2" x2="1042.64" y2="1133.2" gradientUnits="userSpaceOnUse">
<stop stop-color="#7E5EA8"/>
<stop offset="1" stop-color="#4B2D83"/>
</linearGradient>
<clipPath id="clip0">
<rect y="3" width="32" height="33" fill="white"/>
</clipPath>
</defs>
</svg>
