<svg width="255" height="205" viewBox="0 0 255 205" fill="none" xmlns="http://www.w3.org/2000/svg">
<path d="M3.03764 181.017C10.2376 173.417 55.0376 172.517 76.5376 173.017C220.038 165.017 261.538 185.017 254.038 193.517C246.538 202.017 213.538 198.517 179.038 193.517C144.538 188.517 121.538 203.517 66.5376 204.017C11.5376 204.517 -5.96236 190.517 3.03764 181.017Z" fill="url(#paint0_linear)"/>
<path d="M20.5371 80.4998C-14.2629 118.1 6.03714 163.166 20.5371 181C241.037 220 264.537 134.5 228.037 130.5C191.537 126.5 111.037 -10.5002 75.0371 1.49976C39.0371 13.4998 64.0371 33.4998 20.5371 80.4998Z" fill="url(#paint1_linear)"/>
<path d="M55.6763 118.5L59.0093 184.174C59.0349 184.678 59.3504 185.122 59.8184 185.312C67.5459 188.446 76.1832 188.488 83.941 185.429L85.5136 184.809C90.268 182.934 95.3617 182.073 100.468 182.28L108.402 182.602C110.291 182.679 111.78 181.01 111.488 179.142L107.426 153.125L110.676 118.5C110.676 118.5 94.2116 112 83.1763 112C72.1409 112 55.6763 118.5 55.6763 118.5Z" fill="url(#paint2_linear)"/>
<path d="M58.6763 120.125L75.1646 115.214" stroke="#B9B0EE"/>
<path d="M106.676 120.001L89.4399 115.215" stroke="#B9B0EE"/>
<path d="M92.5513 164.125C90.4679 156.292 84.2263 139.525 75.9263 135.125" stroke="#B9B0EE" stroke-linecap="round"/>
<path d="M93.3334 141.978C85.1867 143.275 63.1096 146.917 52.2496 151.051C48.1068 155.559 50.7198 164.501 52.9242 165.626L96.0782 148.882L93.3334 141.978Z" fill="url(#paint3_linear)"/>
<path d="M61.3013 150L63.3013 142.375L71.02 142.188L72.3356 141.933C73.0659 141.792 73.6894 142.469 73.4884 143.185L71.9263 148.75L61.3013 150Z" fill="url(#paint4_linear)"/>
<path d="M105.062 150L103.062 142.375L95.3438 142.188L93.8815 141.968C93.3166 141.883 92.7957 142.288 92.7382 142.857L92.25 147.688L105.062 150Z" fill="url(#paint5_linear)"/>
<path d="M47.0218 163.528C45.71 138.119 52.1593 122.924 55.5479 118.503C72.6761 117.168 63.1814 156.905 56.8078 162.983C51.7089 167.845 48.1593 165.373 47.0218 163.528Z" fill="#FFBFC5"/>
<path d="M119.234 163.528C120.546 138.119 114.097 122.924 110.708 118.503C93.5798 117.168 103.074 156.905 109.448 162.983C114.547 167.845 118.097 165.373 119.234 163.528Z" fill="#FFBFC5"/>
<path d="M74.2271 98.3848H89.8816V115.501C89.8816 115.501 85.4769 118.5 82.0543 118.5C78.6318 118.5 74.2271 115.501 74.2271 115.501V98.3848Z" fill="#FFBFC5"/>
<path d="M72.7462 141.978C80.8929 143.275 102.97 146.917 113.83 151.051C117.973 155.559 115.36 164.501 113.155 165.626L70.0014 148.882L72.7462 141.978Z" fill="#FFBFC5"/>
<path fill-rule="evenodd" clip-rule="evenodd" d="M111.741 89.8482C112.512 88.2664 112.818 86.4799 112.62 84.7143C112.423 82.9487 111.731 81.2834 110.632 79.9286C109.532 78.5738 108.075 77.5903 106.445 77.1024C104.814 76.6146 103.082 76.6442 101.469 77.1875C99.8557 77.7309 98.4329 78.7636 97.3803 80.1552C96.3278 81.5468 95.6927 83.2349 95.5553 85.0062C95.4179 86.7775 95.7844 88.5525 96.6084 90.107C97.4325 91.6616 98.6771 92.9259 100.185 93.7403C101.189 94.2821 102.284 94.6113 103.408 94.7089C104.532 94.8065 105.663 94.6706 106.737 94.3091C107.81 93.9476 108.805 93.3675 109.664 92.602C110.522 91.8365 111.228 90.9007 111.741 89.8482Z" fill="#FFBFC5"/>
<path d="M109.202 85.7502C109.199 84.7673 108.935 83.8051 108.439 82.9723C107.943 82.1395 107.236 81.4693 106.396 81.0373C105.557 80.6054 104.619 80.4289 103.688 80.5279C102.758 80.6269 101.872 80.9974 101.131 81.5976C100.39 82.1977 99.8235 83.0036 99.495 83.9241C99.1664 84.8446 99.0892 85.8432 99.272 86.807C99.4549 87.7707 99.8905 88.6613 100.53 89.378" stroke="#B5545C" stroke-width="1.5" stroke-linecap="round" stroke-linejoin="round"/>
<path fill-rule="evenodd" clip-rule="evenodd" d="M67.4771 89.8482C68.2478 88.2664 68.5538 86.4799 68.3563 84.7143C68.1588 82.9487 67.4667 81.2834 66.3675 79.9286C65.2683 78.5738 63.8112 77.5903 62.1804 77.1024C60.5495 76.6146 58.8181 76.6442 57.2048 77.1875C55.5915 77.7309 54.1687 78.7636 53.1162 80.1552C52.0636 81.5468 51.4285 83.2349 51.2911 85.0062C51.1538 86.7775 51.5202 88.5525 52.3443 90.107C53.1683 91.6616 54.413 92.9259 55.921 93.7403C56.9243 94.2821 58.0195 94.6113 59.1438 94.7089C60.2681 94.8065 61.3993 94.6706 62.4728 94.3091C63.5462 93.9476 64.5408 93.3675 65.3995 92.602C66.2582 91.8365 66.9642 90.9007 67.4771 89.8482Z" fill="#FFBFC5"/>
<path d="M54.7407 85.7502C54.7436 84.7673 55.0079 83.8051 55.5038 82.9723C55.9997 82.1395 56.7073 81.4693 57.5468 81.0373C58.3863 80.6054 59.3242 80.4289 60.2545 80.5279C61.1848 80.6269 62.0705 80.9974 62.8116 81.5976C63.5526 82.1977 64.1194 83.0036 64.4479 83.9241C64.7765 84.8446 64.8537 85.8432 64.6708 86.807C64.488 87.7707 64.0524 88.6613 63.4132 89.378" stroke="#B5545C" stroke-width="1.5" stroke-linecap="round" stroke-linejoin="round"/>
<path fill-rule="evenodd" clip-rule="evenodd" d="M103.716 92.006C105.918 87.5171 106.8 82.4422 106.25 77.4233C105.7 72.4044 103.743 67.667 100.627 63.8102C97.5104 59.9534 93.3743 57.1506 88.7419 55.7563C84.1094 54.362 79.1886 54.4388 74.6019 55.9771C70.0153 57.5153 65.9689 60.4458 62.9745 64.398C59.98 68.3501 58.1722 73.1463 57.7796 78.1799C57.387 83.2136 58.4272 88.2584 60.7688 92.6764C63.1104 97.0944 66.648 100.687 70.9343 103C76.6788 106.1 83.3588 106.683 89.5059 104.621C95.653 102.56 100.764 98.0221 103.716 92.006Z" fill="#FFE2E5"/>
<path d="M94.1547 88.1646L69.7852 88.1646C69.7852 88.1646 69.7852 97.9559 81.9699 97.9559C94.1547 97.9559 94.1547 88.1646 94.1547 88.1646Z" fill="#FFBFC5"/>
<path d="M91.1672 89.3989L72.9414 89.3989C72.9414 89.3989 72.9414 96.7218 82.0543 96.7218C91.1672 96.7218 91.1672 89.3989 91.1672 89.3989Z" fill="white"/>
<path d="M73.6284 92.4492L75.3588 92.4492" stroke="#939393" stroke-width="0.3" stroke-linecap="round"/>
<path d="M88.5747 92.4492L90.3051 92.4492" stroke="#939393" stroke-width="0.3" stroke-linecap="round"/>
<path d="M85.2172 84.2764L78.8906 84.2764C78.8906 84.2764 80.7045 85.7876 82.2105 85.7484C83.6579 85.7107 85.2172 84.2764 85.2172 84.2764Z" fill="#FFBFC5"/>
<path d="M63.4249 63.9069C63.4249 69.4417 59.9292 84.0346 58.9305 87.0222L52.0391 51.6436C59.8293 47.8698 70.1165 39.0739 74.0616 40.3318L74.0616 34.6116C86.1665 33.2279 105.247 42.9317 109.417 51.6422C113.588 60.3526 105.073 87.0222 105.073 87.0222C102.256 84.0661 100.454 67.9689 100.279 63.9069C100.279 63.9069 88.7896 59.467 81.5522 59.5877C74.3148 59.7085 63.4249 63.9069 63.4249 63.9069Z" fill="url(#paint6_linear)"/>
<ellipse cx="71.8569" cy="75.0399" rx="7.82758" ry="9.25424" fill="#FFBFC5"/>
<path d="M77.0571 77.3783C77.0571 77.3783 74.5361 74.6393 72.129 74.0878C69.7219 73.5363 66.84 75.0375 66.84 75.0375" stroke="#B5545C" stroke-width="1.5" stroke-linecap="round"/>
<ellipse rx="7.82758" ry="9.25424" transform="matrix(-1 0 0 1 92.2501 75.0394)" fill="#FFBFC5"/>
<path d="M87.0499 77.3783C87.0499 77.3783 89.5708 74.6393 91.9779 74.0878C94.3851 73.5363 97.2669 75.0375 97.2669 75.0375" stroke="#B5545C" stroke-width="1.5" stroke-linecap="round"/>
<ellipse cx="72.6194" cy="60.9087" rx="2.23931" ry="1.07472" transform="rotate(24.8926 72.6194 60.9087)" fill="#572B12"/>
<ellipse rx="2.23931" ry="1.07472" transform="matrix(-0.907099 0.420918 0.420918 0.907099 91.9235 60.8759)" fill="#572B12"/>
<path d="M197.153 105.027C198.757 115.173 201.453 136.389 199.403 140.089C196.632 136.506 192.303 124.477 197.153 105.027Z" fill="#4D297B"/>
<path d="M177.136 79.1299C184.088 83.5709 203.012 95.5103 213.877 99.6321C219.967 99.0137 223.953 90.5931 223.052 88.2875L179.67 72.1453L177.136 79.1299Z" fill="url(#paint7_linear)"/>
<path d="M139.203 174.804C151.467 152.511 155.765 132.036 154.644 126.579C141.915 117.479 131.313 159.554 128.954 172.498C127.691 179.43 137.376 175.968 139.203 174.804Z" fill="#C18F94"/>
<path d="M136.887 132.75C138.687 130.15 144.97 120.833 147.887 116.5L150.637 141.75C144.837 141.75 139.053 135.75 136.887 132.75Z" fill="#51238B"/>
<path d="M142.136 58C139.636 60 140.011 70.6667 140.511 75.75L143.887 74.5L142.136 58Z" fill="#3E1E0C"/>
<path d="M147.887 116.5V176.906C147.887 179.16 150.468 180.439 152.261 179.075C157.89 174.791 165.735 174.977 171.154 179.523L172.967 181.043C178.075 185.327 185.124 186.456 191.314 183.981L196.76 181.804C199.175 180.838 200.602 178.332 200.201 175.762L196.262 150.528L195.637 109.403H172.012C159.387 109.403 147.887 116.5 147.887 116.5Z" fill="url(#paint8_linear)"/>
<path d="M178.071 111.383L190.587 111.376" stroke="#B9B0EE"/>
<path d="M147.887 117.25L164.854 112.213" stroke="#B9B0EE" stroke-linecap="round"/>
<path d="M158.197 165.754C157.923 165.72 157.674 165.915 157.64 166.189C157.607 166.464 157.802 166.713 158.076 166.746L158.197 165.754ZM170.387 170.25L170.011 170.58C170.188 170.781 170.491 170.807 170.699 170.64C170.908 170.473 170.948 170.172 170.791 169.956L170.387 170.25ZM160.637 163.5C160.361 163.5 160.137 163.724 160.137 164C160.137 164.276 160.361 164.5 160.637 164.5V163.5ZM158.076 166.746C159.767 166.952 162.404 167.398 164.81 168.063C166.013 168.396 167.145 168.779 168.067 169.209C169.005 169.645 169.66 170.1 169.982 170.544L170.791 169.956C170.314 169.3 169.465 168.757 168.489 168.302C167.498 167.841 166.308 167.44 165.076 167.099C162.611 166.418 159.923 165.964 158.197 165.754L158.076 166.746ZM170.762 169.92C169.826 168.856 168.212 167.267 166.394 165.94C164.599 164.629 162.507 163.5 160.637 163.5V164.5C162.166 164.5 164.033 165.454 165.804 166.748C167.553 168.024 169.114 169.561 170.011 170.58L170.762 169.92Z" fill="#AEA1E3"/>
<path d="M190.387 142.25C187.137 161 193.635 172.75 193.635 172.75" stroke="#B9B0EE" stroke-linecap="round"/>
<path d="M163.188 95.9604H178.842V113.076C178.842 113.076 174.437 116.076 171.015 116.076C167.592 116.076 163.188 113.076 163.188 113.076V95.9604Z" fill="#C18F94"/>
<path fill-rule="evenodd" clip-rule="evenodd" d="M170.611 48.631C157.382 45.9267 144.11 56.2018 140.967 71.5762C137.824 86.9506 146.004 101.582 159.233 104.286C164.843 105.342 174.734 101.042 179.527 97.9415C185.22 91.0939 183.386 87.7299 185.22 84.2464C187.824 79.9932 181.194 80.9891 179.527 80.4389L181.288 79.468C181.941 76.2739 182.026 78.5645 185.22 79.2175L189.042 79.8344C191.385 65.0442 183.387 51.243 170.611 48.631Z" fill="#C18F94"/>
<path d="M173.261 65.5003C161.661 60.6003 147.428 64.542 141.761 67.1253C138.661 37.3255 165.886 43.8753 179.886 50.8751C197.761 51.8751 189.886 71.6251 190.261 75.2501C190.561 78.1501 182.72 80.7085 178.761 81.6251C173.361 77.6251 172.845 69.2086 173.261 65.5003Z" fill="url(#paint9_linear)"/>
<path d="M144.512 71.125H150.512" stroke="#572B12" stroke-width="2" stroke-linecap="round"/>
<path d="M174.27 100.168C178.735 100.23 187.458 85.565 188.887 80.75" stroke="#FFC4A5" stroke-width="2" stroke-linecap="round" stroke-linejoin="round"/>
<path d="M171.015 69.3746C168.973 66.6663 163.915 62.8746 160.015 69.3746" stroke="#572B12" stroke-width="2" stroke-linecap="round"/>
<path d="M173.076 88.3685C174.91 85.9302 181.417 77.1019 183.887 74.375" stroke="#FFC4A5" stroke-width="2" stroke-linecap="round" stroke-linejoin="round"/>
<path fill-rule="evenodd" clip-rule="evenodd" d="M177.214 101.133C178.87 99.1784 177.194 90.0497 175.023 85.8341C172.208 83.9986 161.756 85.2224 156.697 80.3814C155.211 78.9369 154.305 79.9581 152.991 81.4698C150.682 84.1204 144.144 85.3668 141.638 86.8361C141.044 90.7675 144.027 99.871 145.428 101.926C147.623 105.184 169.422 105.992 177.214 101.133Z" fill="url(#paint10_linear)"/>
<path fill-rule="evenodd" clip-rule="evenodd" d="M193.6 84.9122C194.504 83.3955 194.956 81.661 194.899 79.9279C194.841 78.1947 194.277 76.5407 193.277 75.1747C192.277 73.8087 190.886 72.792 189.281 72.2531C187.675 71.7142 185.927 71.6773 184.256 72.1469C182.585 72.6166 181.068 73.5718 179.894 74.8918C178.721 76.2119 177.945 77.8376 177.665 79.5636C177.384 81.2896 177.611 83.0384 178.317 84.5891C179.024 86.1399 180.178 87.4229 181.633 88.2763C182.602 88.8441 183.68 89.2075 184.806 89.3456C185.932 89.4838 187.083 89.3941 188.195 89.0816C189.307 88.7691 190.356 88.24 191.284 87.5245C192.211 86.8091 192.998 85.9213 193.6 84.9122Z" fill="#C18F94"/>
<path d="M184.891 86.0454C185.798 86.2808 186.763 86.2512 187.678 85.96C188.593 85.6688 189.42 85.1275 190.067 84.3974C190.713 83.6672 191.154 82.7773 191.338 81.8281C191.522 80.8789 191.442 79.9082 191.108 79.0258C190.774 78.1434 190.198 77.3843 189.447 76.8344C188.695 76.2845 187.797 75.9657 186.854 75.9139C185.912 75.8621 184.962 76.0794 184.111 76.5413C183.261 77.0032 182.545 77.6912 182.044 78.5277" stroke="#7E5154" stroke-width="2" stroke-linecap="round" stroke-linejoin="round"/>
<path fill-rule="evenodd" clip-rule="evenodd" d="M146.717 77.2078C146.725 75.5732 145.913 74.2368 144.95 74.2386C144.046 74.2403 143.316 75.4137 143.234 76.9256L144.548 77.3961L143.372 77.8798C143.457 79.4042 144.084 80.196 144.996 80.1888C145.962 80.1811 146.735 78.8466 146.717 77.2078Z" fill="#59282C"/>
<path fill-rule="evenodd" clip-rule="evenodd" d="M163.602 77.2078C163.611 75.5732 162.798 74.2368 161.835 74.2386C160.931 74.2403 160.202 75.4137 160.12 76.9256L161.434 77.3961L160.257 77.8798C160.342 79.4042 160.969 80.196 161.882 80.1888C162.847 80.1811 163.62 78.8466 163.602 77.2078Z" fill="#59282C"/>
<path d="M225.34 92.0924C214.496 115.11 196.3 143.871 194.137 137C185.308 108.954 207.352 90.4402 215.84 88.0929C222.631 86.2151 225.208 89.9298 225.34 92.0924Z" fill="#C18F94"/>
<path d="M197.463 104.62C196.255 105.537 193.713 107.37 193.213 107.37C184.089 111.843 189.303 133.635 196.137 142.594C197.337 138.994 197.255 142.052 199.589 139.843C195.989 137.543 191.964 113.968 197.463 104.62Z" fill="url(#paint11_linear)"/>
<defs>
<linearGradient id="paint0_linear" x1="127.836" y1="153" x2="127.836" y2="204.03" gradientUnits="userSpaceOnUse">
<stop stop-color="#9AA1EC"/>
<stop offset="1" stop-color="#9AA1EC" stop-opacity="0"/>
</linearGradient>
<linearGradient id="paint1_linear" x1="121.689" y1="0.755371" x2="121.689" y2="191.166" gradientUnits="userSpaceOnUse">
<stop stop-color="#EFF0F9"/>
<stop offset="1" stop-color="#EFF0F9" stop-opacity="0"/>
</linearGradient>
<linearGradient id="paint2_linear" x1="107.176" y1="112" x2="65.1763" y2="190.195" gradientUnits="userSpaceOnUse">
<stop stop-color="#7E5DA9"/>
<stop offset="0.286458" stop-color="#68419B"/>
<stop offset="1" stop-color="#4A1A87"/>
</linearGradient>
<linearGradient id="paint3_linear" x1="93.8013" y1="144.688" x2="66.4888" y2="154.75" gradientUnits="userSpaceOnUse">
<stop stop-color="#FFBFC5"/>
<stop offset="0.504772" stop-color="#FAA5AC"/>
<stop offset="1" stop-color="#FFBFC5"/>
</linearGradient>
<linearGradient id="paint4_linear" x1="72.4888" y1="143.812" x2="63.9263" y2="144.062" gradientUnits="userSpaceOnUse">
<stop stop-color="#FFBFC5"/>
<stop offset="1" stop-color="#FEB5BB"/>
</linearGradient>
<linearGradient id="paint5_linear" x1="93.875" y1="143.812" x2="102.437" y2="144.062" gradientUnits="userSpaceOnUse">
<stop stop-color="#FFBFC5"/>
<stop offset="1" stop-color="#FEB5BB"/>
</linearGradient>
<linearGradient id="paint6_linear" x1="105.918" y1="45.6051" x2="95.4418" y2="67.6333" gradientUnits="userSpaceOnUse">
<stop stop-color="#9E5F3C"/>
<stop offset="1" stop-color="#6A3416"/>
</linearGradient>
<linearGradient id="paint7_linear" x1="195.567" y1="90.903" x2="181" y2="79" gradientUnits="userSpaceOnUse">
<stop stop-color="#C18F94"/>
<stop offset="1" stop-color="#825055"/>
</linearGradient>
<linearGradient id="paint8_linear" x1="196.012" y1="109.403" x2="154.012" y2="187.597" gradientUnits="userSpaceOnUse">
<stop stop-color="#7E5DA9"/>
<stop offset="0.286458" stop-color="#68419B"/>
<stop offset="1" stop-color="#4A1A87"/>
</linearGradient>
<linearGradient id="paint9_linear" x1="191.672" y1="52.25" x2="172.387" y2="67.5" gradientUnits="userSpaceOnUse">
<stop stop-color="#5F3822"/>
<stop offset="1" stop-color="#3E1E0C"/>
</linearGradient>
<linearGradient id="paint10_linear" x1="172" y1="85" x2="159.757" y2="105.032" gradientUnits="userSpaceOnUse">
<stop stop-color="#FADECF"/>
<stop offset="1" stop-color="#FFC4A5"/>
</linearGradient>
<linearGradient id="paint11_linear" x1="193.957" y1="104.62" x2="193.957" y2="142.594" gradientUnits="userSpaceOnUse">
<stop stop-color="#5C3192"/>
<stop offset="1" stop-color="#51238B"/>
</linearGradient>
</defs>
</svg>
