<svg width="30" height="31" viewBox="0 0 30 31" fill="none" xmlns="http://www.w3.org/2000/svg">
<ellipse opacity="0.75" cx="15.35" cy="15.2295" rx="14.4695" ry="15" fill="#B80D57"/>
<g clip-path="url(#clip0)">
<path d="M9.40625 11.5625L13.5312 15.6875" stroke="white" stroke-linecap="round"/>
<path d="M13.5312 11.5625L9.40625 15.6875" stroke="white" stroke-linecap="round"/>
<path d="M17.2042 11.5625L21.3292 15.6875" stroke="white" stroke-linecap="round"/>
<path d="M21.3292 11.5625L17.2042 15.6875" stroke="white" stroke-linecap="round"/>
<path d="M19.0532 20.9363C18.9183 20.9363 18.7871 20.8662 18.7147 20.7411C18.0212 19.5419 16.7311 18.797 15.3477 18.797C13.9645 18.797 12.6744 19.5419 11.9809 20.7411C11.8728 20.9279 11.6339 20.9917 11.4471 20.8836C11.2604 20.7758 11.1966 20.5368 11.3046 20.35C12.1373 18.9102 13.6865 18.0157 15.3479 18.0157C17.0091 18.0157 18.5583 18.9102 19.391 20.35C19.499 20.5368 19.4353 20.7758 19.2485 20.8836C19.1868 20.9193 19.1196 20.9363 19.0532 20.9363V20.9363Z" fill="white"/>
<path d="M15.3477 25C12.6773 25 10.1666 23.9598 8.27834 22.0711C6.38991 20.1823 5.35002 17.6711 5.35002 15C5.35002 12.3289 6.38991 9.81781 8.27834 7.92892C10.1666 6.04019 12.6773 5 15.3477 5C17.3913 5 19.3565 5.61264 21.0309 6.77155C21.2082 6.89438 21.2524 7.13776 21.1297 7.31506C21.0069 7.49252 20.7635 7.53677 20.5862 7.41394C19.0431 6.34583 17.2317 5.78125 15.3477 5.78125C10.2658 5.78125 6.13127 9.91669 6.13127 15C6.13127 20.0833 10.2658 24.2188 15.3477 24.2188C20.4298 24.2188 24.5643 20.0833 24.5643 15C24.5643 13.1525 24.0201 11.3702 22.9904 9.84589C22.8697 9.66721 22.9167 9.42429 23.0955 9.30359C23.2742 9.18274 23.517 9.22989 23.6378 9.40857C24.7551 11.0626 25.3456 12.9961 25.3456 15C25.3456 17.6711 24.3057 20.1822 22.4173 22.0711C20.529 23.9598 18.0183 25 15.3477 25Z" fill="white"/>
<path d="M22.1802 8.6351C22.0164 8.6351 21.8683 8.52982 21.8127 8.37616C21.7583 8.2251 21.8048 8.05054 21.9275 7.94678C22.0556 7.83829 22.2436 7.82486 22.3863 7.91306C22.5229 7.99744 22.5947 8.16376 22.563 8.32108C22.5267 8.50144 22.3643 8.6351 22.1802 8.6351Z" fill="white"/>
</g>
<defs>
<clipPath id="clip0">
<rect x="5.35002" y="5" width="20" height="20" fill="white"/>
</clipPath>
</defs>
</svg>
