<svg width="255" height="205" viewBox="0 0 255 205" fill="none" xmlns="http://www.w3.org/2000/svg">
<path d="M3.08256 181.142C10.2826 173.542 55.0826 172.642 76.5826 173.142C220.083 165.142 261.583 185.142 254.083 193.642C246.583 202.142 213.583 198.642 179.083 193.642C144.583 188.642 121.583 203.642 66.5826 204.142C11.5826 204.642 -5.91744 190.642 3.08256 181.142Z" fill="url(#paint0_linear)"/>
<path d="M20.8008 80.5315C-13.9992 118.131 6.30082 163.198 20.8008 181.031C241.301 220.031 264.801 134.531 228.301 130.531C191.801 126.531 111.301 -10.4685 75.3008 1.5315C39.3008 13.5315 64.3008 33.5315 20.8008 80.5315Z" fill="url(#paint1_linear)"/>
<path fill-rule="evenodd" clip-rule="evenodd" d="M160.19 61.2806C159.765 57.8694 159.769 55.0581 160.532 52.7879C160.185 52.7974 160.017 52.7298 159.935 52.5198C156.119 42.7154 176.364 33.0547 186.638 42.083C196.771 50.9886 191.489 67.8908 184.632 68.6247C184.874 70.4715 185.217 72.5947 185.578 74.5118C191.76 77.9865 201.4 87.5808 203.023 101.023C204.275 111.397 202.716 119.613 201.048 128.406C199.832 134.81 198.559 141.52 198.271 149.592H197.639C204.051 158.958 196.04 168.566 191.783 172.14L186.367 173.358C182.767 174.168 179.088 174.577 175.397 174.577L173.909 174.577L170.595 149.592H170.31C170.942 139.459 170.576 118.546 168.51 115.227C165.929 111.077 164.631 101.958 166.933 97.3926L167.1 97.0608C169.023 93.2481 173.134 85.0956 175.792 79.4851L176.224 79.2046C176.011 77.38 175.622 75.5148 175.207 73.937C173.003 75.0439 169.171 76.0757 166.735 74.9866C162.246 72.9876 160.994 67.3168 160.994 67.3168C160.994 67.3168 158.667 66.0883 158.322 65.2243C158.154 64.8067 158.984 62.5782 160.187 61.277C160.188 61.2782 160.189 61.2794 160.19 61.2806Z" fill="url(#paint2_linear)"/>
<path fill-rule="evenodd" clip-rule="evenodd" d="M120.089 50.6502C119.664 47.239 119.668 44.4278 120.431 42.1575C120.084 42.167 119.916 42.0995 119.834 41.8894C116.018 32.085 136.263 22.4244 146.537 31.4527C156.67 40.3582 151.388 57.2605 144.531 57.9943C144.773 59.8412 145.116 61.9643 145.477 63.8814C151.659 67.3561 161.299 76.9505 162.922 90.3929C164.174 100.766 162.615 108.983 160.946 117.776C159.731 124.18 158.458 130.89 158.17 138.962H157.538C163.949 148.328 155.939 157.936 151.681 161.509L146.266 162.728C142.666 163.538 138.987 163.946 135.296 163.947L133.807 163.947L130.494 138.962H130.209C130.841 128.829 130.475 107.915 128.409 104.596C125.828 100.447 124.53 91.3275 126.832 86.7623L126.999 86.4305C128.922 82.6178 133.033 74.4652 135.691 68.8547L136.122 68.5742C135.91 66.7496 135.521 64.8844 135.106 63.3066C132.902 64.4135 129.07 65.4453 126.634 64.3562C122.145 62.3573 120.893 56.6865 120.893 56.6865C120.893 56.6865 118.566 55.4579 118.221 54.5939C118.053 54.1763 118.883 51.9478 120.086 50.6466C120.087 50.6478 120.088 50.649 120.089 50.6502Z" fill="url(#paint3_linear)"/>
<path fill-rule="evenodd" clip-rule="evenodd" d="M68.0395 60.0437C67.6144 56.6326 67.6182 53.8213 68.3809 51.551C68.0346 51.5606 67.8659 51.493 67.7841 51.283C63.9685 41.4786 84.2134 31.8179 94.4868 40.8462C104.621 49.7518 99.3377 66.654 92.4809 67.3879C92.7231 69.2347 93.066 71.3579 93.4269 73.275C99.6088 76.7496 109.249 86.344 110.872 99.7864C112.125 110.16 110.565 118.376 108.897 127.17C107.681 133.574 106.408 140.283 106.12 148.355H105.488C111.9 157.721 103.89 167.329 99.6317 170.903L94.2166 172.121C90.6161 172.931 86.9369 173.34 83.2464 173.34L81.7576 173.34L78.4442 148.355H78.1594C78.7909 138.222 78.4248 117.309 76.3596 113.99C73.778 109.841 72.4801 100.721 74.7819 96.1558L74.9492 95.824C76.8718 92.0113 80.9827 83.8588 83.6413 78.2483L84.0727 77.9677C83.8598 76.1432 83.4712 74.278 83.0566 72.7002C80.8525 73.807 77.0203 74.8388 74.5844 73.7498C70.0952 71.7508 68.8435 66.08 68.8435 66.08C68.8435 66.08 66.5159 64.8515 66.1708 63.9874C66.0036 63.5698 66.8331 61.3413 68.0363 60.0402C68.0374 60.0414 68.0384 60.0426 68.0395 60.0437Z" fill="url(#paint4_linear)"/>
<path d="M91.5828 80.0583C89.8496 80.6 94.5618 87.4155 97.1346 90.7555C100.276 89.2389 97.3603 84.6171 95.5098 82.4957C95.5549 81.9992 95.6181 80.8166 95.5098 80.0583C95.3744 79.1105 93.7494 79.3813 91.5828 80.0583Z" fill="url(#paint5_linear)"/>
<path d="M113.659 22.0282C113.953 22.4719 110.642 26.0991 108.949 27.8572L109.273 23.3356C110.461 20.9543 113.292 21.4735 113.659 22.0282Z" fill="#FEB5BB"/>
<path d="M99.9913 28.793L97.1349 69.7675C102.544 68.9653 107.77 66.9486 109.186 65.0276L106.516 28.9705L99.9913 28.793Z" fill="#FEB5BB"/>
<path d="M108.835 64.8325L138.839 73.6087C144.55 82.5976 138.611 87.6034 134.928 88.9827C122.326 83.8786 97.03 72.8791 96.6702 69.7135C96.3104 66.548 104.63 65.1405 108.835 64.8325Z" fill="#FFB188"/>
<path d="M110.097 25.5184C109.597 27.7805 108.291 29.0631 106.325 29.8068L100.104 29.6192C99.4949 27.016 100.104 18.5298 100.751 17.7827C102.17 16.1456 109.04 14.3825 109.922 15.7153C111.085 17.4733 112.644 20.0609 112.428 21.462C112.21 22.8851 110.349 24.3785 110.097 25.5184Z" fill="#FEB5BB"/>
<path fill-rule="evenodd" clip-rule="evenodd" d="M132.512 57.4544C132.346 59.7607 133.901 69.2339 134.854 72.3201C133.223 73.9771 126.268 75.0199 124.573 73.8225C124.336 69.849 123.018 65.2255 122.29 63.6145C121.562 62.0034 132.678 55.1482 132.512 57.4544Z" fill="#FFBFC5"/>
<path d="M145.4 141.537C154.141 151.418 145.4 164.959 141.684 173.354L137.445 174.944C133.085 176.579 128.466 177.416 123.81 177.417L119.632 142.777C119.632 142.777 140.956 131.333 145.4 141.537Z" fill="url(#paint6_linear)"/>
<path d="M133.745 146.34V176.09" stroke="#FFC4A5"/>
<path d="M152.123 94.6784C150.391 80.3356 139.532 70.3736 133.485 67.5518L124.892 73.1402C122.233 78.7508 118.122 86.9033 116.2 90.716L116.032 91.0478C113.731 95.6131 115.028 104.733 117.61 108.882C119.675 112.201 120.041 133.114 119.41 143.247L147.371 143.247C148.053 124.092 154.287 112.607 152.123 94.6784Z" fill="url(#paint7_linear)"/>
<path d="M140.82 36.586C133.572 30.1615 127.333 35.9186 125.119 39.6002C128.104 42.5848 134.848 49.3497 137.936 52.5327C141.025 55.7157 145.845 54.84 147.87 54.0042C139.9 49.6463 149.879 44.6165 140.82 36.586Z" fill="#773636"/>
<path fill-rule="evenodd" clip-rule="evenodd" d="M107.152 62.3434C103.244 55.7262 102.29 51.01 107.258 46.2672C117.332 36.6485 125.849 39.7425 129.758 46.3598C133.666 52.9771 130.846 64.5073 124.932 67.9998C119.019 71.4923 111.059 68.9578 107.152 62.3434Z" fill="#FFBFC5"/>
<path fill-rule="evenodd" clip-rule="evenodd" d="M109.99 59.533C109.509 58.7279 109.52 57.8307 109.997 57.5506C110.444 57.2876 111.146 57.6545 111.628 58.3775L111.116 58.9933L111.839 58.8889C112.241 59.6668 112.162 60.2409 111.71 60.5035C111.23 60.7815 110.459 60.3477 109.99 59.533Z" fill="#59282C"/>
<path d="M111.693 50.123C114.639 53.6492 119.324 56.5872 122.164 56.8885L132.003 59.2746C138.334 56.2909 136.758 38.2338 123.782 33.9125C110.806 29.5914 95.9128 46.3661 103.242 53.9142C103.828 54.5176 104.757 52.8224 111.693 50.123Z" fill="url(#paint8_linear)"/>
<path d="M104.467 52.2388C103.619 53.8032 102.223 57.3383 103.421 58.9636C102.266 57.7714 100.858 54.7574 104.467 52.2388Z" fill="#964343"/>
<path d="M106.547 56.4182C106.941 55.2024 108.332 53.0148 110.74 53.9912" stroke="#59282C" stroke-linecap="round"/>
<path fill-rule="evenodd" clip-rule="evenodd" d="M126.657 66.1317C125.29 64.1778 120.98 60.7256 119.788 60.7137C118.597 60.7019 111.224 63.9579 106.88 61.8832C106.277 63.5499 106.38 65.9256 106.697 66.2452C107.351 66.907 109.973 67.1334 109.973 67.1334C109.973 67.1334 113.332 71.8707 118.245 71.966C121.799 72.0404 126.172 67.6827 126.657 66.1317Z" fill="white"/>
<path d="M119.954 61.5117C119.971 58.7948 121.64 54.2672 122.919 52.5216" stroke="white" stroke-width="2" stroke-linecap="round" stroke-linejoin="round"/>
<path d="M123.302 63.5695C123.302 63.5695 130.731 60.5857 130.09 56.9773" stroke="white" stroke-width="2" stroke-linecap="round" stroke-linejoin="round"/>
<path fill-rule="evenodd" clip-rule="evenodd" d="M122.524 57.2848C122.046 56.4762 121.819 55.544 121.872 54.6061C121.924 53.6682 122.254 52.7668 122.818 52.0158C123.383 51.2648 124.158 50.698 125.045 50.387C125.932 50.076 126.891 50.0348 127.801 50.2687C128.711 50.5025 129.531 51.0009 130.157 51.7007C130.783 52.4006 131.188 53.2705 131.319 54.2005C131.451 55.1304 131.303 56.0787 130.896 56.9253C130.488 57.7719 129.839 58.4789 129.03 58.9568C127.944 59.5968 126.65 59.7802 125.43 59.4667C124.21 59.1532 123.165 58.3684 122.524 57.2848Z" fill="#FFBFC5"/>
<path d="M127.325 57.7C127.806 57.5663 128.244 57.2949 128.588 56.9163C128.932 56.5378 129.169 56.0672 129.273 55.5577C129.376 55.0482 129.341 54.5201 129.173 54.0332C129.004 53.5462 128.708 53.1197 128.319 52.8019C127.929 52.484 127.461 52.2875 126.967 52.2346C126.474 52.1816 125.974 52.2742 125.526 52.5021C125.077 52.7299 124.697 53.0838 124.428 53.5239C124.159 53.9639 124.012 54.4725 124.005 54.9922" stroke="#B5545C" stroke-width="0.75" stroke-linecap="round" stroke-linejoin="round"/>
<circle r="1.27758" transform="matrix(-0.86547 0.500962 0.500962 0.86547 126.623 55.0079)" fill="#FF9473"/>
<path d="M125.21 58.844C125.597 58.7112 126.692 56.9599 127.051 56.0506L125.678 55.3431L124.649 58.4964L125.21 58.844Z" fill="#FF9473"/>
<circle r="0.757511" transform="matrix(-0.86547 0.500962 0.500962 0.86547 126.773 55.1406)" fill="#FFC4A5"/>
<path d="M121.996 109.1L126.814 81.7525C131.178 70.1079 143.057 74.8301 142.772 80.2475C140.335 94.8635 131.412 121.382 128.329 120.576C121.996 118.921 122.817 113.236 121.996 109.1Z" fill="#FFC3A3"/>
<path d="M102.517 90.0449L123.133 104.838C127.574 107.438 128.233 116.393 128.008 120.545C123.458 119.787 107.245 102.807 99.4365 94.2764L102.517 90.0449Z" fill="#FFBFC5"/>
<rect x="88.8574" y="76.6279" width="2.03111" height="14.5732" rx="1" transform="rotate(-38.0363 88.8574 76.6279)" fill="#3B3B3B"/>
<path d="M104.988 30.6348L91.7183 76.9442L98.8949 86.1519L141.954 75.1839L104.988 30.6348Z" fill="url(#paint9_linear)"/>
<path d="M99.946 85.5814C102.793 86.3655 103.049 88.9886 102.821 90.2021L99.946 94.6829C97.8923 93.5627 96.1852 86.9303 93.6811 84.4252C92.4797 83.2233 92.6614 82.0103 94.4589 83.0035C95.1935 83.4092 97.0986 84.7972 99.946 85.5814Z" fill="#FFBFC5"/>
<path d="M148.454 134.403L128.685 139.82L132.747 149.027L147.735 144.634C148.161 144.509 148.454 144.118 148.454 143.675V134.403Z" fill="url(#paint10_linear)"/>
<path d="M135.703 144.163C134.729 140.422 130.906 138.179 127.165 139.153L116.437 141.946C113.764 142.642 112.162 145.373 112.858 148.045L116.165 160.745C116.582 162.349 118.22 163.31 119.824 162.892L126.681 161.107C133.629 159.298 137.795 152.199 135.986 145.251L135.703 144.163Z" fill="url(#paint11_linear)"/>
<path d="M128.414 152.095C128.053 150.29 127.331 143.429 123.713 140.585" stroke="#BC6060" stroke-linecap="round" stroke-linejoin="round"/>
<path fill-rule="evenodd" clip-rule="evenodd" d="M141.152 75.8035C140.727 72.3923 140.731 69.5811 141.494 67.3108C141.147 67.3204 140.979 67.2528 140.897 67.0427C137.081 57.2383 157.326 47.5777 167.6 56.606C177.733 65.5115 172.451 82.4138 165.594 83.1476C165.836 84.9945 166.179 87.1176 166.54 89.0347C172.722 92.5094 182.362 102.104 183.985 115.546C185.237 125.92 183.678 134.136 182.009 142.929C180.794 149.333 179.521 156.043 179.233 164.115H178.601C185.012 173.481 177.002 183.089 172.744 186.663L167.329 187.881C163.729 188.691 160.05 189.1 156.359 189.1L154.87 189.1L151.557 164.115H151.272C151.904 153.982 151.538 133.069 149.472 129.749C146.891 125.6 145.593 116.481 147.895 111.916L148.062 111.584C149.985 107.771 154.096 99.6186 156.754 94.008L157.185 93.7275C156.973 91.903 156.584 90.0377 156.169 88.4599C153.965 89.5668 150.133 90.5986 147.697 89.5095C143.208 87.5106 141.956 81.8398 141.956 81.8398C141.956 81.8398 139.629 80.6112 139.284 79.7472C139.116 79.3296 139.946 77.1011 141.149 75.8C141.15 75.8011 141.151 75.8023 141.152 75.8035Z" fill="url(#paint12_linear)"/>
<path fill-rule="evenodd" clip-rule="evenodd" d="M57.4452 81.7727C57.0202 78.3616 57.0239 75.5503 57.7867 73.2801C57.4403 73.2896 57.2716 73.222 57.1899 73.012C53.3743 63.2076 73.6192 53.5469 83.8926 62.5752C94.0264 71.4808 88.7435 88.383 81.8866 89.1169C82.1289 90.9637 82.4718 93.0869 82.8326 95.004C89.0145 98.4786 98.6551 108.073 100.278 121.515C101.53 131.889 99.9711 140.105 98.3024 148.899C97.0871 155.303 95.8137 162.012 95.5262 170.084H94.8937C101.305 179.45 93.2953 189.058 89.0374 192.632L83.6224 193.85C80.0218 194.66 76.3427 195.069 72.6522 195.069L71.1634 195.069L67.85 170.084H67.5652C68.1966 159.951 67.8306 139.038 65.7653 135.719C63.1838 131.57 61.8858 122.45 64.1877 117.885L64.355 117.553C66.2775 113.74 70.3885 105.588 73.0471 99.9773L73.4784 99.6968C73.2655 97.8722 72.8769 96.007 72.4624 94.4292C70.2583 95.536 66.426 96.5678 63.9902 95.4788C59.501 93.4798 58.2493 87.809 58.2493 87.809C58.2493 87.809 55.9217 86.5805 55.5766 85.7164C55.4094 85.2988 56.2388 83.0703 57.4421 81.7692C57.4431 81.7704 57.4442 81.7716 57.4452 81.7727Z" fill="url(#paint13_linear)"/>
<circle cx="105.332" cy="14.0665" r="7.77104" stroke="#C4C7E9" stroke-width="2"/>
<path d="M103.758 25.1014C103.598 24.2497 101.914 20.1046 101.195 18.7242L109.868 15.8241C112.747 19.4161 112.613 21.2055 112.231 22.1041C111.848 23.0026 103.958 26.166 103.758 25.1014Z" fill="#FEB5BB"/>
<defs>
<linearGradient id="paint0_linear" x1="127.881" y1="153.125" x2="127.881" y2="204.155" gradientUnits="userSpaceOnUse">
<stop stop-color="#9AA1EC"/>
<stop offset="1" stop-color="#9AA1EC" stop-opacity="0"/>
</linearGradient>
<linearGradient id="paint1_linear" x1="121.953" y1="0.787109" x2="121.953" y2="191.198" gradientUnits="userSpaceOnUse">
<stop stop-color="#EFF0F9"/>
<stop offset="1" stop-color="#EFF0F9" stop-opacity="0"/>
</linearGradient>
<linearGradient id="paint2_linear" x1="180.889" y1="38.4878" x2="180.889" y2="174.577" gradientUnits="userSpaceOnUse">
<stop stop-color="#C3C6E8"/>
<stop offset="1" stop-color="#C3C6E8" stop-opacity="0"/>
</linearGradient>
<linearGradient id="paint3_linear" x1="140.788" y1="27.8574" x2="140.788" y2="163.947" gradientUnits="userSpaceOnUse">
<stop stop-color="#C3C6E8"/>
<stop offset="1" stop-color="#C3C6E8" stop-opacity="0"/>
</linearGradient>
<linearGradient id="paint4_linear" x1="88.738" y1="37.251" x2="88.738" y2="173.34" gradientUnits="userSpaceOnUse">
<stop stop-color="#C3C6E8"/>
<stop offset="1" stop-color="#C3C6E8" stop-opacity="0"/>
</linearGradient>
<linearGradient id="paint5_linear" x1="94.866" y1="79.4448" x2="96.8638" y2="91.8389" gradientUnits="userSpaceOnUse">
<stop stop-color="#FEB5BB"/>
<stop offset="1" stop-color="#FFBFC5"/>
</linearGradient>
<linearGradient id="paint6_linear" x1="119.748" y1="164.417" x2="147.912" y2="168.75" gradientUnits="userSpaceOnUse">
<stop stop-color="#7E5DA9"/>
<stop offset="1" stop-color="#5F3595"/>
</linearGradient>
<linearGradient id="paint7_linear" x1="117.186" y1="87.988" x2="148.009" y2="131.028" gradientUnits="userSpaceOnUse">
<stop stop-color="#FFC4A5"/>
<stop offset="1" stop-color="#FFB188"/>
</linearGradient>
<linearGradient id="paint8_linear" x1="103.936" y1="40.0887" x2="135.113" y2="54.7503" gradientUnits="userSpaceOnUse">
<stop stop-color="#9C4646"/>
<stop offset="0.369317" stop-color="#843C3C"/>
<stop offset="1" stop-color="#773636"/>
</linearGradient>
<linearGradient id="paint9_linear" x1="131.122" y1="57.9871" x2="95.3743" y2="84.527" gradientUnits="userSpaceOnUse">
<stop stop-color="#491987" stop-opacity="0"/>
<stop offset="1" stop-color="#491987" stop-opacity="0.17"/>
</linearGradient>
<linearGradient id="paint10_linear" x1="149.808" y1="137.111" x2="128.685" y2="145.778" gradientUnits="userSpaceOnUse">
<stop stop-color="#BC5656"/>
<stop offset="0.723958" stop-color="#943E3E"/>
</linearGradient>
<linearGradient id="paint11_linear" x1="137.486" y1="145.46" x2="113.925" y2="152.366" gradientUnits="userSpaceOnUse">
<stop stop-color="#B65D5D"/>
<stop offset="0.446939" stop-color="#CC7676"/>
<stop offset="1" stop-color="#D58080"/>
</linearGradient>
<linearGradient id="paint12_linear" x1="161.851" y1="53.0107" x2="161.851" y2="189.1" gradientUnits="userSpaceOnUse">
<stop stop-color="#C3C6E8"/>
<stop offset="1" stop-color="#C3C6E8" stop-opacity="0"/>
</linearGradient>
<linearGradient id="paint13_linear" x1="78.1438" y1="58.98" x2="78.1438" y2="195.069" gradientUnits="userSpaceOnUse">
<stop stop-color="#C3C6E8"/>
<stop offset="1" stop-color="#C3C6E8" stop-opacity="0"/>
</linearGradient>
</defs>
</svg>
