<svg width="609" height="352" viewBox="0 0 609 352" fill="none" xmlns="http://www.w3.org/2000/svg">
<mask id="mask0" mask-type="alpha" maskUnits="userSpaceOnUse" x="0" y="0" width="609" height="352">
<path d="M0.851074 36.4487C0.851074 25.6207 9.4684 16.7591 20.2922 16.4565L588.441 0.574695C599.701 0.259931 609 9.30228 609 20.5669V331.391C609 342.672 599.676 351.72 588.4 351.382L20.2512 334.332C9.44393 334.008 0.851074 325.153 0.851074 314.341V36.4487Z" fill="url(#paint0_radial)"/>
</mask>
<g mask="url(#mask0)">
<path d="M0.851074 36.4487C0.851074 25.6207 9.4684 16.7591 20.2922 16.4565L588.441 0.574695C599.701 0.259931 609 9.30228 609 20.5669V331.399C609 342.677 599.681 351.724 588.408 351.391L20.2594 334.574C9.4488 334.254 0.851074 325.398 0.851074 314.583V36.4487Z" fill="url(#paint1_radial)" fill-opacity="0.75"/>
<path opacity="0.5" d="M626.92 208.013C648.52 239.213 635.92 279.679 626.92 296.013C600.42 338.513 550.92 331.513 525.92 304.513C500.92 277.513 478.42 183.513 550.92 129.013C623.42 74.5127 637.92 128.013 626.92 141.013C615.92 154.013 599.92 169.013 626.92 208.013Z" fill="#C8FFFF"/>
<path d="M438.294 124C433.894 80.8 463.461 70 478.794 70C530.394 76 524.518 154.667 507.351 185C493.351 191.5 447.494 187.4 438.294 185C426.794 182 424.294 160 433.294 153C440.494 147.4 439.627 131.333 438.294 124Z" fill="#5E290C"/>
<path d="M330.408 288.561H380.856C381.327 288.561 381.778 288.748 382.111 289.081C382.444 289.414 382.631 289.865 382.631 290.336V315.192C382.631 315.663 382.444 316.114 382.111 316.447C381.778 316.78 381.327 316.967 380.856 316.967H330.408C329.937 316.967 329.486 316.78 329.153 316.447C328.82 316.114 328.633 315.663 328.633 315.192V290.336C328.633 289.865 328.82 289.414 329.153 289.081C329.486 288.748 329.937 288.561 330.408 288.561Z" stroke="#AADAF1" stroke-width="2" stroke-linecap="round" stroke-linejoin="round"/>
<path d="M357.465 260.101H407.887C408.357 260.101 408.809 260.288 409.142 260.621C409.475 260.954 409.662 261.406 409.662 261.877V286.732C409.662 287.203 409.475 287.655 409.142 287.988C408.809 288.321 408.357 288.508 407.887 288.508H357.465C356.994 288.508 356.543 288.321 356.21 287.988C355.877 287.655 355.69 287.203 355.69 286.732V261.877C355.69 261.406 355.877 260.954 356.21 260.621C356.543 260.288 356.994 260.101 357.465 260.101Z" stroke="#AADAF1" stroke-width="2" stroke-linecap="round" stroke-linejoin="round"/>
<path d="M384.46 288.561H434.917C435.388 288.561 435.84 288.748 436.173 289.081C436.505 289.414 436.693 289.865 436.693 290.336V315.192C436.693 315.663 436.505 316.114 436.173 316.447C435.84 316.78 435.388 316.967 434.917 316.967H384.46C383.99 316.967 383.538 316.78 383.205 316.447C382.872 316.114 382.685 315.663 382.685 315.192V290.336C382.685 289.865 382.872 289.414 383.205 289.081C383.538 288.748 383.99 288.561 384.46 288.561Z" stroke="#AADAF1" stroke-width="2" stroke-linecap="round" stroke-linejoin="round"/>
<path d="M304.204 317.074H354.687C355.158 317.074 355.609 317.261 355.942 317.594C356.275 317.927 356.462 318.378 356.462 318.849V343.705C356.462 344.176 356.275 344.627 355.942 344.96C355.609 345.293 355.158 345.48 354.687 345.48H304.204C303.733 345.48 303.281 345.293 302.948 344.96C302.615 344.627 302.428 344.176 302.428 343.705V318.849C302.428 318.378 302.615 317.927 302.948 317.594C303.281 317.261 303.733 317.074 304.204 317.074V317.074Z" stroke="#AADAF1" stroke-width="2" stroke-linecap="round" stroke-linejoin="round"/>
<path fill-rule="evenodd" clip-rule="evenodd" d="M504.699 352.892C504.699 339.08 518.494 327.886 535.52 327.886C552.546 327.886 566.332 339.08 566.332 352.892C566.332 366.705 552.537 377.899 535.52 377.899C518.502 377.899 504.699 366.705 504.699 352.892Z" fill="#BF9111"/>
<path fill-rule="evenodd" clip-rule="evenodd" d="M444.913 277.376C444.273 270.487 440.119 201.034 461.015 172.628C460.321 170.328 459.808 167.977 459.48 165.597C451.819 171.119 423.173 200.217 419.533 205.055C416.222 200.848 380.546 150.852 378.77 150.258C376.995 149.663 359.561 157.759 359.179 159.614C358.797 161.469 401.646 244.096 412.441 247.576C416.968 249.032 423.359 244.567 425.357 243.919C425.632 248.357 385.659 364.645 423.812 365.533C446.493 337.242 445.543 284.229 444.913 277.376Z" fill="#F7D167"/>
<path fill-rule="evenodd" clip-rule="evenodd" d="M435.432 298.477L382.321 607.573L429.244 607.377L464.095 459.523L481.53 609.872L526.536 609.295L529.616 298.867L435.432 298.477Z" fill="#3B4161"/>
<path fill-rule="evenodd" clip-rule="evenodd" d="M505.507 305.853C500.633 306.892 439.391 305.649 433.799 302.534C428.206 299.418 429.36 289.325 443.146 285.916C438.264 284.7 427.895 278.752 441.877 276.666C444.371 251.677 433.541 160.2 476.603 158.602C507.042 154.119 512.111 180.848 512.111 180.848C512.111 180.848 510.38 304.815 505.507 305.853Z" fill="#6367FD"/>
<path fill-rule="evenodd" clip-rule="evenodd" d="M476.595 79.1709C460.234 79.1709 446.972 94.5902 446.972 113.605C446.972 132.619 460.234 148.003 476.595 148.003C483.511 147.895 490.121 145.133 495.059 140.289C494.446 131.66 494.366 122.899 495.698 118.318C497.757 112.637 497.012 115.016 494.899 114.768L496.754 113.187C496.754 109.237 497.411 111.936 501.361 111.936L506.048 111.741C505.241 93.6137 492.396 79.1709 476.595 79.1709Z" fill="#F77F89"/>
<path fill-rule="evenodd" clip-rule="evenodd" d="M442.773 107.577C449.111 105.909 467.883 104.238 473.351 94.4998C475.351 98.9998 481.273 97.3157 481.273 97.3157C480.704 102.047 480.243 107.4 486.466 108.039C492.688 108.678 506.351 115 506.351 115L510.194 95.7001L493.958 77.5023L474.997 74.0403L458.281 81.8786L447.842 95.4249C447.842 95.4249 436.471 109.202 442.773 107.577Z" fill="#5E290C"/>
<path d="M454.851 95.4998C452.018 95.3331 448.051 95.699 446.851 102.499" stroke="#48171B" stroke-width="2" stroke-linecap="round" stroke-linejoin="round"/>
<path d="M475.851 95.0281C478.684 94.8615 482.651 95.2273 483.851 102.027" stroke="#48171B" stroke-width="2" stroke-linecap="round" stroke-linejoin="round"/>
<path d="M480.851 108L487.851 106" stroke="#4E230B"/>
<path fill-rule="evenodd" clip-rule="evenodd" d="M484.779 110.311C484.779 107.758 485.536 105.262 486.954 103.138C488.372 101.015 490.387 99.3593 492.746 98.381C495.104 97.4026 497.7 97.1453 500.205 97.6415C502.71 98.1377 505.011 99.3652 506.818 101.169C508.626 102.973 509.858 105.271 510.359 107.775C510.861 110.279 510.609 112.875 509.635 115.236C508.662 117.596 507.01 119.615 504.89 121.038C502.769 122.46 500.275 123.222 497.721 123.227C496.023 123.232 494.34 122.901 492.769 122.254C491.198 121.607 489.771 120.656 488.569 119.456C487.366 118.256 486.412 116.831 485.762 115.262C485.112 113.692 484.778 112.01 484.779 110.311Z" fill="#F77F89"/>
<path fill-rule="evenodd" clip-rule="evenodd" d="M472.103 143.272C473.354 149.37 472.334 157.271 470.851 162.908C475.227 165.411 492.751 166.272 498.077 162.437C496.044 155.007 492.946 127.817 495.707 118.327C488.756 117.724 470.851 137.164 472.103 143.272Z" fill="#F77F89"/>
<path fill-rule="evenodd" clip-rule="evenodd" d="M506.261 330.389C504.351 333.532 502.277 336.572 500.047 339.497C500.047 339.497 494.215 337.651 492.617 339.79C491.019 341.929 480.358 355.413 485.596 360.003C490.833 364.592 496.709 353.132 498.361 351.641C503.797 356.593 508.923 361.876 513.709 367.459C513.709 367.459 513.664 359.39 514.552 356.55C515.44 353.709 520.908 346.128 522.737 344.122C524.565 342.116 509.262 325.347 506.261 330.389Z" fill="#F77F89"/>
<path fill-rule="evenodd" clip-rule="evenodd" d="M499.949 162.952C497.171 169.964 493.851 176.817 485.249 181.842C484.761 189.698 492.093 297.385 498.174 308.534C500.634 312.904 503.691 316.91 507.255 320.438C505.382 325.462 503.704 330.016 504.397 331.472C505.285 333.372 520.704 346.563 522.79 345.986C524.157 345.613 528.036 341.601 531.303 337.997C546.394 346.696 560.322 352.892 560.597 361.015C560.597 366.82 558.644 368.64 556.256 371.436C559.7 369.732 567.965 361.024 568.142 350.309C568.364 336.798 555.342 313.168 553.052 307.176C557.304 302.347 572.181 281.885 575.688 263.901C566.687 228.934 531.134 163.919 499.949 162.952Z" fill="#F7D167"/>
<path d="M511.09 227.017C514.144 231.873 535.351 263.874 535.351 263.874C535.351 263.874 515.475 304.646 508.596 318.849" stroke="#FF3274" stroke-width="2" stroke-linecap="round" stroke-linejoin="round"/>
<path d="M566.119 285.01C562.382 283.193 559.273 280.303 557.187 276.709C555.102 273.116 554.136 268.982 554.412 264.836C554.688 260.691 556.195 256.722 558.739 253.437C561.283 250.152 564.748 247.7 568.693 246.395" stroke="#FF3274" stroke-width="2" stroke-linecap="round" stroke-linejoin="round"/>
<path d="M542.71 256.764L535.342 263.865" stroke="#FF3274" stroke-width="2" stroke-linecap="round" stroke-linejoin="round"/>
<path d="M544.441 268.064L535.342 263.342" stroke="#FF3274" stroke-width="2" stroke-linecap="round" stroke-linejoin="round"/>
<path d="M508.862 323.634C510.922 325.978 523.953 335.236 527.504 336.745" stroke="#FF3274" stroke-width="2" stroke-linecap="round" stroke-linejoin="round"/>
<path d="M400.501 233.968C402.452 231.938 404.965 230.538 407.717 229.947C410.469 229.356 413.336 229.6 415.948 230.65C418.56 231.699 420.799 233.506 422.377 235.837C423.956 238.168 424.802 240.917 424.806 243.732V244.061" stroke="#FF3274" stroke-width="2" stroke-linecap="round" stroke-linejoin="round"/>
<path d="M419.489 205.038L412.201 215.876" stroke="#FF3274" stroke-width="2" stroke-linecap="round" stroke-linejoin="round"/>
<path d="M425.987 213.56L419.711 204.851" stroke="#FF3274" stroke-width="2" stroke-linecap="round" stroke-linejoin="round"/>
<path d="M384.283 156.978L363.919 169.947" stroke="#FF3274" stroke-width="2" stroke-linecap="round" stroke-linejoin="round"/>
<path d="M464.042 459.665C462.764 451.001 457.899 376.834 461.326 351.019" stroke="#737999" stroke-width="2" stroke-linecap="round" stroke-linejoin="round"/>
<path d="M432.094 317.89C436.533 318.494 479.142 320.846 506.661 319.515" stroke="#737999" stroke-width="2" stroke-linecap="round" stroke-linejoin="round"/>
<path d="M498.21 351.765L517.899 371.641" stroke="#737999" stroke-width="2" stroke-linecap="round" stroke-linejoin="round"/>
<path d="M486.297 339.746L489.981 343.456" stroke="#737999" stroke-width="2" stroke-linecap="round" stroke-linejoin="round"/>
<path d="M495.44 609.694L481.743 319.888" stroke="#737999" stroke-width="2" stroke-linecap="round" stroke-linejoin="round"/>
<path fill-rule="evenodd" clip-rule="evenodd" d="M470.851 113.481C470.851 111.705 471.579 110.312 472.484 110.312C473.39 110.312 474.127 111.732 474.127 113.481C474.127 115.229 473.39 116.641 472.484 116.641C471.579 116.641 470.851 115.22 470.851 113.481Z" fill="#6A3416"/>
<path fill-rule="evenodd" clip-rule="evenodd" d="M452.085 113.481C452.085 111.705 452.822 110.312 453.727 110.312C454.633 110.312 455.361 111.732 455.361 113.481C455.361 115.229 454.633 116.641 453.727 116.641C452.822 116.641 452.085 115.22 452.085 113.481Z" fill="#6A3416"/>
<path d="M457.351 114C457.351 116.97 456.693 119.635 455.655 121.539C454.606 123.462 453.239 124.5 451.851 124.5C450.463 124.5 449.096 123.462 448.047 121.539C447.009 119.635 446.351 116.97 446.351 114C446.351 111.03 447.009 108.365 448.047 106.461C449.096 104.538 450.463 103.5 451.851 103.5C453.239 103.5 454.606 104.538 455.655 106.461C456.693 108.365 457.351 111.03 457.351 114Z" stroke="#4E230B"/>
<path d="M482.351 113C482.351 118.897 478.456 123.5 473.851 123.5C469.246 123.5 465.351 118.897 465.351 113C465.351 107.103 469.246 102.5 473.851 102.5C478.456 102.5 482.351 107.103 482.351 113Z" stroke="#4E230B"/>
<path d="M461.442 114.066C461.708 116.534 461.175 122.056 459.311 124.47" stroke="#B5545C" stroke-width="2" stroke-linecap="round" stroke-linejoin="round"/>
<path d="M456.851 114.5C456.851 114.5 459.289 113 460.851 113C462.413 113 465.851 114.5 465.851 114.5" stroke="#4E230B" stroke-linecap="round" stroke-linejoin="round"/>
<path d="M473.523 129.37C473.605 129.695 473.647 130.029 473.647 130.364C473.651 131.002 473.499 131.631 473.204 132.197C472.91 132.763 472.481 133.248 471.956 133.61C471.431 133.972 470.825 134.201 470.192 134.276C469.558 134.351 468.916 134.269 468.321 134.039" stroke="#B5545C" stroke-width="2" stroke-linecap="round" stroke-linejoin="round"/>
<path d="M472.52 147.648C473.867 147.865 475.23 147.975 476.595 147.976C480.121 147.971 483.608 147.228 486.83 145.792" stroke="#B5545C" stroke-width="2" stroke-linecap="round" stroke-linejoin="round"/>
<path d="M489.732 108.758C489.977 107.179 490.669 105.704 491.726 104.506C492.784 103.309 494.163 102.44 495.699 102.002C497.235 101.565 498.865 101.577 500.395 102.037C501.924 102.498 503.29 103.387 504.33 104.6C505.369 105.813 506.039 107.298 506.26 108.88C506.481 110.463 506.244 112.075 505.576 113.526C504.909 114.978 503.839 116.207 502.494 117.069C501.149 117.931 499.585 118.389 497.988 118.389C497.189 118.386 496.395 118.273 495.627 118.052" stroke="#B5545C" stroke-width="2" stroke-linecap="round" stroke-linejoin="round"/>
<path d="M551.392 308.987L532.883 335.618" stroke="#FF3274" stroke-width="2" stroke-linecap="round" stroke-linejoin="round"/>
<path d="M331.27 48.297C331.27 47.6787 331.453 47.0742 331.797 46.5601C332.141 46.0461 332.629 45.6456 333.201 45.4094C333.772 45.1731 334.401 45.1118 335.007 45.2331C335.613 45.3543 336.17 45.6528 336.607 46.0907C337.044 46.5286 337.34 47.0862 337.46 47.6929C337.58 48.2996 337.516 48.9282 337.279 49.499C337.041 50.0698 336.639 50.5572 336.124 50.8995C335.609 51.2417 335.004 51.4235 334.385 51.4217C333.975 51.4217 333.57 51.3409 333.191 51.1837C332.812 51.0266 332.468 50.7963 332.179 50.506C331.89 50.2157 331.66 49.8712 331.504 49.4921C331.348 49.1131 331.268 48.707 331.27 48.297Z" stroke="#AADAF1" stroke-width="2" stroke-linecap="round" stroke-linejoin="round"/>
<path d="M485.365 181.78C491.082 177.475 497.571 169.219 499.808 163.316" stroke="#FF3274" stroke-width="2" stroke-linecap="round" stroke-linejoin="round"/>
<path d="M447.407 286.741C464.175 290.372 484.149 289.103 493.913 288.011" stroke="#4C4FD9" stroke-width="2" stroke-linecap="round" stroke-linejoin="round"/>
<path d="M480.851 26L360.851 112L378.851 141L529.851 164C549.851 104.8 507.518 35.3333 480.851 26Z" fill="url(#paint2_linear)"/>
<path fill-rule="evenodd" clip-rule="evenodd" d="M355.104 104.542L372.556 100.884C373.756 100.628 375.009 100.858 376.041 101.524C377.072 102.189 377.798 103.236 378.06 104.435L385.241 137.724C385.366 138.313 385.373 138.921 385.262 139.513C385.151 140.105 384.923 140.67 384.593 141.174C384.263 141.678 383.837 142.112 383.339 142.45C382.841 142.789 382.281 143.026 381.69 143.148L364.256 146.814C363.056 147.07 361.803 146.84 360.771 146.174C359.74 145.509 359.014 144.462 358.752 143.263L351.535 109.974C351.411 109.383 351.404 108.773 351.517 108.179C351.629 107.586 351.857 107.02 352.189 106.515C352.521 106.01 352.949 105.576 353.449 105.237C353.95 104.898 354.512 104.662 355.104 104.542Z" fill="#5B3093"/>
<path fill-rule="evenodd" clip-rule="evenodd" d="M360.759 158.176C358.611 154.776 342.428 123.183 347.444 120.502C352.459 117.821 355.255 120.618 356.48 123.52C359.143 120.689 364.638 117.306 366.911 119.774C369.574 122.606 367.363 127.133 365.366 128.9C367.648 128.101 369.751 127.63 371.58 130.187C373.915 133.365 370.914 142.464 369.316 143.831L376.851 151L360.759 158.176Z" fill="#F77F89"/>
<path fill-rule="evenodd" clip-rule="evenodd" d="M351.66 139.596C350.47 136.773 350.994 126.077 357.483 122.526L351.66 139.596Z" fill="#F77F89"/>
<path d="M351.66 139.596C350.47 136.773 350.994 126.077 357.483 122.526" stroke="#B5545C" stroke-width="2" stroke-linecap="round" stroke-linejoin="round"/>
<path fill-rule="evenodd" clip-rule="evenodd" d="M360.395 143.014C359.667 139.463 361.567 131.998 365.428 129.361L360.395 143.014Z" fill="#F77F89"/>
<path d="M360.395 143.014C359.667 139.463 361.567 131.998 365.428 129.361" stroke="#B5545C" stroke-width="2" stroke-linecap="round" stroke-linejoin="round"/>
<rect opacity="0.5" x="51.6011" y="262.75" width="246.5" height="46.5" rx="9.25" stroke="#FBFBFB" stroke-width="1.5"/>
<path d="M62.55 62.4187V74.3687C62.55 76.2187 62.025 77.6437 60.975 78.6437C59.9417 79.6437 58.5417 80.1438 56.775 80.1438C54.925 80.1438 53.4417 79.6187 52.325 78.5687C51.2083 77.5187 50.65 76.0271 50.65 74.0937H54.9C54.9 74.8271 55.05 75.3854 55.35 75.7687C55.65 76.1354 56.0833 76.3187 56.65 76.3187C57.1667 76.3187 57.5667 76.1521 57.85 75.8187C58.1333 75.4854 58.275 75.0021 58.275 74.3687V62.4187H62.55ZM65.1531 72.9687C65.1531 71.5354 65.4198 70.2771 65.9531 69.1937C66.5031 68.1104 67.2448 67.2771 68.1781 66.6937C69.1115 66.1104 70.1531 65.8187 71.3031 65.8187C72.2865 65.8187 73.1448 66.0187 73.8781 66.4187C74.6281 66.8187 75.2031 67.3437 75.6031 67.9937V66.0187H79.8781V79.9688H75.6031V77.9937C75.1865 78.6437 74.6031 79.1687 73.8531 79.5687C73.1198 79.9688 72.2615 80.1688 71.2781 80.1688C70.1448 80.1688 69.1115 79.8771 68.1781 79.2937C67.2448 78.6937 66.5031 77.8521 65.9531 76.7687C65.4198 75.6687 65.1531 74.4021 65.1531 72.9687ZM75.6031 72.9937C75.6031 71.9271 75.3031 71.0854 74.7031 70.4687C74.1198 69.8521 73.4031 69.5437 72.5531 69.5437C71.7031 69.5437 70.9781 69.8521 70.3781 70.4687C69.7948 71.0687 69.5031 71.9021 69.5031 72.9687C69.5031 74.0354 69.7948 74.8854 70.3781 75.5187C70.9781 76.1354 71.7031 76.4437 72.5531 76.4437C73.4031 76.4437 74.1198 76.1354 74.7031 75.5187C75.3031 74.9021 75.6031 74.0604 75.6031 72.9937ZM82.1209 72.9687C82.1209 71.5354 82.3876 70.2771 82.9209 69.1937C83.4709 68.1104 84.2126 67.2771 85.1459 66.6937C86.0792 66.1104 87.1209 65.8187 88.2709 65.8187C89.1876 65.8187 90.0209 66.0104 90.7709 66.3937C91.5376 66.7771 92.1376 67.2937 92.5709 67.9437V61.4687H96.8459V79.9688H92.5709V77.9687C92.1709 78.6354 91.5959 79.1687 90.8459 79.5687C90.1126 79.9688 89.2542 80.1688 88.2709 80.1688C87.1209 80.1688 86.0792 79.8771 85.1459 79.2937C84.2126 78.6937 83.4709 77.8521 82.9209 76.7687C82.3876 75.6687 82.1209 74.4021 82.1209 72.9687ZM92.5709 72.9937C92.5709 71.9271 92.2709 71.0854 91.6709 70.4687C91.0876 69.8521 90.3709 69.5437 89.5209 69.5437C88.6709 69.5437 87.9459 69.8521 87.3459 70.4687C86.7626 71.0687 86.4709 71.9021 86.4709 72.9687C86.4709 74.0354 86.7626 74.8854 87.3459 75.5187C87.9459 76.1354 88.6709 76.4437 89.5209 76.4437C90.3709 76.4437 91.0876 76.1354 91.6709 75.5187C92.2709 74.9021 92.5709 74.0604 92.5709 72.9937ZM102.089 64.5687C101.339 64.5687 100.722 64.3521 100.239 63.9187C99.772 63.4687 99.5387 62.9187 99.5387 62.2687C99.5387 61.6021 99.772 61.0521 100.239 60.6187C100.722 60.1687 101.339 59.9437 102.089 59.9437C102.822 59.9437 103.422 60.1687 103.889 60.6187C104.372 61.0521 104.614 61.6021 104.614 62.2687C104.614 62.9187 104.372 63.4687 103.889 63.9187C103.422 64.3521 102.822 64.5687 102.089 64.5687ZM104.214 66.0187V79.9688H99.9387V66.0187H104.214ZM111.587 61.4687V79.9688H107.312V61.4687H111.587ZM113.835 72.9687C113.835 71.5354 114.101 70.2771 114.635 69.1937C115.185 68.1104 115.926 67.2771 116.86 66.6937C117.793 66.1104 118.835 65.8187 119.985 65.8187C120.968 65.8187 121.826 66.0187 122.56 66.4187C123.31 66.8187 123.885 67.3437 124.285 67.9937V66.0187H128.56V79.9688H124.285V77.9937C123.868 78.6437 123.285 79.1687 122.535 79.5687C121.801 79.9688 120.943 80.1688 119.96 80.1688C118.826 80.1688 117.793 79.8771 116.86 79.2937C115.926 78.6937 115.185 77.8521 114.635 76.7687C114.101 75.6687 113.835 74.4021 113.835 72.9687ZM124.285 72.9937C124.285 71.9271 123.985 71.0854 123.385 70.4687C122.801 69.8521 122.085 69.5437 121.235 69.5437C120.385 69.5437 119.66 69.8521 119.06 70.4687C118.476 71.0687 118.185 71.9021 118.185 72.9687C118.185 74.0354 118.476 74.8854 119.06 75.5187C119.66 76.1354 120.385 76.4437 121.235 76.4437C122.085 76.4437 122.801 76.1354 123.385 75.5187C123.985 74.9021 124.285 74.0604 124.285 72.9937ZM140.228 65.8687C141.828 65.8687 143.111 66.4021 144.078 67.4688C145.044 68.5187 145.528 69.9687 145.528 71.8187V79.9688H141.278V72.3937C141.278 71.4604 141.036 70.7354 140.553 70.2187C140.069 69.7021 139.419 69.4437 138.603 69.4437C137.786 69.4437 137.136 69.7021 136.653 70.2187C136.169 70.7354 135.928 71.4604 135.928 72.3937V79.9688H131.653V61.4687H135.928V67.8937C136.361 67.2771 136.953 66.7854 137.703 66.4187C138.453 66.0521 139.294 65.8687 140.228 65.8687ZM162.746 79.9688L159.096 73.3437H158.071V79.9688H153.796V62.4187H160.971C162.354 62.4187 163.529 62.6604 164.496 63.1437C165.479 63.6271 166.213 64.2937 166.696 65.1437C167.179 65.9771 167.421 66.9104 167.421 67.9437C167.421 69.1104 167.088 70.1521 166.421 71.0687C165.771 71.9854 164.804 72.6354 163.521 73.0187L167.571 79.9688H162.746ZM158.071 70.3187H160.721C161.504 70.3187 162.088 70.1271 162.471 69.7437C162.871 69.3604 163.071 68.8187 163.071 68.1187C163.071 67.4521 162.871 66.9271 162.471 66.5437C162.088 66.1604 161.504 65.9687 160.721 65.9687H158.071V70.3187ZM183.255 72.7687C183.255 73.1687 183.23 73.5854 183.18 74.0187H173.505C173.571 74.8854 173.846 75.5521 174.33 76.0187C174.83 76.4687 175.438 76.6937 176.155 76.6937C177.221 76.6937 177.963 76.2437 178.38 75.3437H182.93C182.696 76.2604 182.271 77.0854 181.655 77.8187C181.055 78.5521 180.296 79.1271 179.38 79.5437C178.463 79.9604 177.438 80.1688 176.305 80.1688C174.938 80.1688 173.721 79.8771 172.655 79.2937C171.588 78.7104 170.755 77.8771 170.155 76.7937C169.555 75.7104 169.255 74.4437 169.255 72.9937C169.255 71.5437 169.546 70.2771 170.13 69.1937C170.73 68.1104 171.563 67.2771 172.63 66.6937C173.696 66.1104 174.921 65.8187 176.305 65.8187C177.655 65.8187 178.855 66.1021 179.905 66.6687C180.955 67.2354 181.771 68.0437 182.355 69.0937C182.955 70.1437 183.255 71.3687 183.255 72.7687ZM178.88 71.6437C178.88 70.9104 178.63 70.3271 178.13 69.8937C177.63 69.4604 177.005 69.2437 176.255 69.2437C175.538 69.2437 174.93 69.4521 174.43 69.8687C173.946 70.2854 173.646 70.8771 173.53 71.6437H178.88ZM189.785 61.4687V79.9688H185.51V61.4687H189.785ZM192.033 72.9687C192.033 71.5354 192.3 70.2771 192.833 69.1937C193.383 68.1104 194.125 67.2771 195.058 66.6937C195.991 66.1104 197.033 65.8187 198.183 65.8187C199.166 65.8187 200.025 66.0187 200.758 66.4187C201.508 66.8187 202.083 67.3437 202.483 67.9937V66.0187H206.758V79.9688H202.483V77.9937C202.066 78.6437 201.483 79.1687 200.733 79.5687C200 79.9688 199.141 80.1688 198.158 80.1688C197.025 80.1688 195.991 79.8771 195.058 79.2937C194.125 78.6937 193.383 77.8521 192.833 76.7687C192.3 75.6687 192.033 74.4021 192.033 72.9687ZM202.483 72.9937C202.483 71.9271 202.183 71.0854 201.583 70.4687C201 69.8521 200.283 69.5437 199.433 69.5437C198.583 69.5437 197.858 69.8521 197.258 70.4687C196.675 71.0687 196.383 71.9021 196.383 72.9687C196.383 74.0354 196.675 74.8854 197.258 75.5187C197.858 76.1354 198.583 76.4437 199.433 76.4437C200.283 76.4437 201 76.1354 201.583 75.5187C202.183 74.9021 202.483 74.0604 202.483 72.9937ZM229.876 66.0187L226.101 79.9688H221.376L219.176 70.9187L216.901 79.9688H212.201L208.401 66.0187H212.676L214.651 75.9937L217.001 66.0187H221.526L223.901 75.9437L225.851 66.0187H229.876ZM230.656 72.9687C230.656 71.5354 230.923 70.2771 231.456 69.1937C232.006 68.1104 232.748 67.2771 233.681 66.6937C234.614 66.1104 235.656 65.8187 236.806 65.8187C237.789 65.8187 238.648 66.0187 239.381 66.4187C240.131 66.8187 240.706 67.3437 241.106 67.9937V66.0187H245.381V79.9688H241.106V77.9937C240.689 78.6437 240.106 79.1687 239.356 79.5687C238.623 79.9688 237.764 80.1688 236.781 80.1688C235.648 80.1688 234.614 79.8771 233.681 79.2937C232.748 78.6937 232.006 77.8521 231.456 76.7687C230.923 75.6687 230.656 74.4021 230.656 72.9687ZM241.106 72.9937C241.106 71.9271 240.806 71.0854 240.206 70.4687C239.623 69.8521 238.906 69.5437 238.056 69.5437C237.206 69.5437 236.481 69.8521 235.881 70.4687C235.298 71.0687 235.006 71.9021 235.006 72.9687C235.006 74.0354 235.298 74.8854 235.881 75.5187C236.481 76.1354 237.206 76.4437 238.056 76.4437C238.906 76.4437 239.623 76.1354 240.206 75.5187C240.806 74.9021 241.106 74.0604 241.106 72.9937ZM256.974 65.8687C258.607 65.8687 259.907 66.4021 260.874 67.4688C261.857 68.5187 262.349 69.9687 262.349 71.8187V79.9688H258.099V72.3937C258.099 71.4604 257.857 70.7354 257.374 70.2187C256.89 69.7021 256.24 69.4437 255.424 69.4437C254.607 69.4437 253.957 69.7021 253.474 70.2187C252.99 70.7354 252.749 71.4604 252.749 72.3937V79.9688H248.474V66.0187H252.749V67.8687C253.182 67.2521 253.765 66.7687 254.499 66.4187C255.232 66.0521 256.057 65.8687 256.974 65.8687ZM295.79 62.4187V79.9688H291.515V69.4437L287.59 79.9688H284.14L280.19 69.4187V79.9688H275.915V62.4187H280.965L285.89 74.5687L290.765 62.4187H295.79ZM312.014 72.7687C312.014 73.1687 311.989 73.5854 311.939 74.0187H302.264C302.331 74.8854 302.606 75.5521 303.089 76.0187C303.589 76.4687 304.198 76.6937 304.914 76.6937C305.981 76.6937 306.723 76.2437 307.139 75.3437H311.689C311.456 76.2604 311.031 77.0854 310.414 77.8187C309.814 78.5521 309.056 79.1271 308.139 79.5437C307.223 79.9604 306.198 80.1688 305.064 80.1688C303.698 80.1688 302.481 79.8771 301.414 79.2937C300.348 78.7104 299.514 77.8771 298.914 76.7937C298.314 75.7104 298.014 74.4437 298.014 72.9937C298.014 71.5437 298.306 70.2771 298.889 69.1937C299.489 68.1104 300.323 67.2771 301.389 66.6937C302.456 66.1104 303.681 65.8187 305.064 65.8187C306.414 65.8187 307.614 66.1021 308.664 66.6687C309.714 67.2354 310.531 68.0437 311.114 69.0937C311.714 70.1437 312.014 71.3687 312.014 72.7687ZM307.639 71.6437C307.639 70.9104 307.389 70.3271 306.889 69.8937C306.389 69.4604 305.764 69.2437 305.014 69.2437C304.298 69.2437 303.689 69.4521 303.189 69.8687C302.706 70.2854 302.406 70.8771 302.289 71.6437H307.639ZM313.42 72.9687C313.42 71.5354 313.686 70.2771 314.22 69.1937C314.77 68.1104 315.511 67.2771 316.445 66.6937C317.378 66.1104 318.42 65.8187 319.57 65.8187C320.486 65.8187 321.32 66.0104 322.07 66.3937C322.836 66.7771 323.436 67.2937 323.87 67.9437V61.4687H328.145V79.9688H323.87V77.9687C323.47 78.6354 322.895 79.1687 322.145 79.5687C321.411 79.9688 320.553 80.1688 319.57 80.1688C318.42 80.1688 317.378 79.8771 316.445 79.2937C315.511 78.6937 314.77 77.8521 314.22 76.7687C313.686 75.6687 313.42 74.4021 313.42 72.9687ZM323.87 72.9937C323.87 71.9271 323.57 71.0854 322.97 70.4687C322.386 69.8521 321.67 69.5437 320.82 69.5437C319.97 69.5437 319.245 69.8521 318.645 70.4687C318.061 71.0687 317.77 71.9021 317.77 72.9687C317.77 74.0354 318.061 74.8854 318.645 75.5187C319.245 76.1354 319.97 76.4437 320.82 76.4437C321.67 76.4437 322.386 76.1354 322.97 75.5187C323.57 74.9021 323.87 74.0604 323.87 72.9937ZM333.388 64.5687C332.638 64.5687 332.021 64.3521 331.538 63.9187C331.071 63.4687 330.838 62.9187 330.838 62.2687C330.838 61.6021 331.071 61.0521 331.538 60.6187C332.021 60.1687 332.638 59.9437 333.388 59.9437C334.121 59.9437 334.721 60.1687 335.188 60.6187C335.671 61.0521 335.913 61.6021 335.913 62.2687C335.913 62.9187 335.671 63.4687 335.188 63.9187C334.721 64.3521 334.121 64.5687 333.388 64.5687ZM335.513 66.0187V79.9688H331.238V66.0187H335.513ZM344.286 80.1688C343.069 80.1688 341.986 79.9604 341.036 79.5437C340.086 79.1271 339.336 78.5604 338.786 77.8437C338.236 77.1104 337.927 76.2937 337.861 75.3937H342.086C342.136 75.8771 342.361 76.2687 342.761 76.5687C343.161 76.8687 343.652 77.0187 344.236 77.0187C344.769 77.0187 345.177 76.9187 345.461 76.7187C345.761 76.5021 345.911 76.2271 345.911 75.8937C345.911 75.4937 345.702 75.2021 345.286 75.0187C344.869 74.8187 344.194 74.6021 343.261 74.3687C342.261 74.1354 341.427 73.8937 340.761 73.6437C340.094 73.3771 339.519 72.9687 339.036 72.4187C338.552 71.8521 338.311 71.0937 338.311 70.1437C338.311 69.3437 338.527 68.6187 338.961 67.9687C339.411 67.3021 340.061 66.7771 340.911 66.3937C341.777 66.0104 342.802 65.8187 343.986 65.8187C345.736 65.8187 347.111 66.2521 348.111 67.1188C349.127 67.9854 349.711 69.1354 349.861 70.5687H345.911C345.844 70.0854 345.627 69.7021 345.261 69.4187C344.911 69.1354 344.444 68.9937 343.861 68.9937C343.361 68.9937 342.977 69.0937 342.711 69.2937C342.444 69.4771 342.311 69.7354 342.311 70.0687C342.311 70.4687 342.519 70.7687 342.936 70.9687C343.369 71.1687 344.036 71.3687 344.936 71.5687C345.969 71.8354 346.811 72.1021 347.461 72.3687C348.111 72.6187 348.677 73.0354 349.161 73.6187C349.661 74.1854 349.919 74.9521 349.936 75.9187C349.936 76.7354 349.702 77.4687 349.236 78.1187C348.786 78.7521 348.127 79.2521 347.261 79.6187C346.411 79.9854 345.419 80.1688 344.286 80.1688ZM64.175 100.419V103.844H59.525V117.969H55.25V103.844H50.6V100.419H64.175ZM68.4705 102.569C67.7205 102.569 67.1038 102.352 66.6205 101.919C66.1538 101.469 65.9205 100.919 65.9205 100.269C65.9205 99.6021 66.1538 99.0521 66.6205 98.6187C67.1038 98.1687 67.7205 97.9437 68.4705 97.9437C69.2038 97.9437 69.8038 98.1687 70.2705 98.6187C70.7538 99.0521 70.9955 99.6021 70.9955 100.269C70.9955 100.919 70.7538 101.469 70.2705 101.919C69.8038 102.352 69.2038 102.569 68.4705 102.569ZM70.5955 104.019V117.969H66.3205V104.019H70.5955ZM91.4936 103.869C93.2269 103.869 94.6019 104.394 95.6186 105.444C96.6519 106.494 97.1686 107.952 97.1686 109.819V117.969H92.9186V110.394C92.9186 109.494 92.6769 108.802 92.1936 108.319C91.7269 107.819 91.0769 107.569 90.2436 107.569C89.4102 107.569 88.7519 107.819 88.2686 108.319C87.8019 108.802 87.5686 109.494 87.5686 110.394V117.969H83.3186V110.394C83.3186 109.494 83.0769 108.802 82.5936 108.319C82.1269 107.819 81.4769 107.569 80.6436 107.569C79.8102 107.569 79.1519 107.819 78.6686 108.319C78.2019 108.802 77.9686 109.494 77.9686 110.394V117.969H73.6936V104.019H77.9686V105.769C78.4019 105.185 78.9686 104.727 79.6686 104.394C80.3686 104.044 81.1602 103.869 82.0436 103.869C83.0936 103.869 84.0269 104.094 84.8436 104.544C85.6769 104.994 86.3269 105.635 86.7936 106.469C87.2769 105.702 87.9352 105.077 88.7686 104.594C89.6019 104.11 90.5102 103.869 91.4936 103.869ZM118.831 106.069C118.831 107.085 118.598 108.019 118.131 108.869C117.665 109.702 116.948 110.377 115.981 110.894C115.015 111.41 113.815 111.669 112.381 111.669H109.731V117.969H105.456V100.419H112.381C113.781 100.419 114.965 100.66 115.931 101.144C116.898 101.627 117.623 102.294 118.106 103.144C118.59 103.994 118.831 104.969 118.831 106.069ZM112.056 108.269C112.873 108.269 113.481 108.077 113.881 107.694C114.281 107.31 114.481 106.769 114.481 106.069C114.481 105.369 114.281 104.827 113.881 104.444C113.481 104.06 112.873 103.869 112.056 103.869H109.731V108.269H112.056ZM134.207 110.769C134.207 111.169 134.182 111.585 134.132 112.019H124.457C124.524 112.885 124.799 113.552 125.282 114.019C125.782 114.469 126.39 114.694 127.107 114.694C128.174 114.694 128.915 114.244 129.332 113.344H133.882C133.649 114.26 133.224 115.085 132.607 115.819C132.007 116.552 131.249 117.127 130.332 117.544C129.415 117.96 128.39 118.169 127.257 118.169C125.89 118.169 124.674 117.877 123.607 117.294C122.54 116.71 121.707 115.877 121.107 114.794C120.507 113.71 120.207 112.444 120.207 110.994C120.207 109.544 120.499 108.277 121.082 107.194C121.682 106.11 122.515 105.277 123.582 104.694C124.649 104.11 125.874 103.819 127.257 103.819C128.607 103.819 129.807 104.102 130.857 104.669C131.907 105.235 132.724 106.044 133.307 107.094C133.907 108.144 134.207 109.369 134.207 110.769ZM129.832 109.644C129.832 108.91 129.582 108.327 129.082 107.894C128.582 107.46 127.957 107.244 127.207 107.244C126.49 107.244 125.882 107.452 125.382 107.869C124.899 108.285 124.599 108.877 124.482 109.644H129.832ZM144.962 103.869C146.595 103.869 147.895 104.402 148.862 105.469C149.845 106.519 150.337 107.969 150.337 109.819V117.969H146.087V110.394C146.087 109.46 145.845 108.735 145.362 108.219C144.879 107.702 144.229 107.444 143.412 107.444C142.595 107.444 141.945 107.702 141.462 108.219C140.979 108.735 140.737 109.46 140.737 110.394V117.969H136.462V104.019H140.737V105.869C141.17 105.252 141.754 104.769 142.487 104.419C143.22 104.052 144.045 103.869 144.962 103.869ZM152.458 110.969C152.458 109.535 152.724 108.277 153.258 107.194C153.808 106.11 154.549 105.277 155.483 104.694C156.416 104.11 157.458 103.819 158.608 103.819C159.591 103.819 160.449 104.019 161.183 104.419C161.933 104.819 162.508 105.344 162.908 105.994V104.019H167.183V117.969H162.908V115.994C162.491 116.644 161.908 117.169 161.158 117.569C160.424 117.969 159.566 118.169 158.583 118.169C157.449 118.169 156.416 117.877 155.483 117.294C154.549 116.694 153.808 115.852 153.258 114.769C152.724 113.669 152.458 112.402 152.458 110.969ZM162.908 110.994C162.908 109.927 162.608 109.085 162.008 108.469C161.424 107.852 160.708 107.544 159.858 107.544C159.008 107.544 158.283 107.852 157.683 108.469C157.099 109.069 156.808 109.902 156.808 110.969C156.808 112.035 157.099 112.885 157.683 113.519C158.283 114.135 159.008 114.444 159.858 114.444C160.708 114.444 161.424 114.135 162.008 113.519C162.608 112.902 162.908 112.06 162.908 110.994ZM175.576 103.819C176.559 103.819 177.417 104.019 178.151 104.419C178.901 104.819 179.476 105.344 179.876 105.994V104.019H184.151V117.944C184.151 119.227 183.892 120.385 183.376 121.419C182.876 122.469 182.101 123.302 181.051 123.919C180.017 124.535 178.726 124.844 177.176 124.844C175.109 124.844 173.434 124.352 172.151 123.369C170.867 122.402 170.134 121.085 169.951 119.419H174.176C174.309 119.952 174.626 120.369 175.126 120.669C175.626 120.985 176.242 121.144 176.976 121.144C177.859 121.144 178.559 120.885 179.076 120.369C179.609 119.869 179.876 119.06 179.876 117.944V115.969C179.459 116.619 178.884 117.152 178.151 117.569C177.417 117.969 176.559 118.169 175.576 118.169C174.426 118.169 173.384 117.877 172.451 117.294C171.517 116.694 170.776 115.852 170.226 114.769C169.692 113.669 169.426 112.402 169.426 110.969C169.426 109.535 169.692 108.277 170.226 107.194C170.776 106.11 171.517 105.277 172.451 104.694C173.384 104.11 174.426 103.819 175.576 103.819ZM179.876 110.994C179.876 109.927 179.576 109.085 178.976 108.469C178.392 107.852 177.676 107.544 176.826 107.544C175.976 107.544 175.251 107.852 174.651 108.469C174.067 109.069 173.776 109.902 173.776 110.969C173.776 112.035 174.067 112.885 174.651 113.519C175.251 114.135 175.976 114.444 176.826 114.444C177.676 114.444 178.392 114.135 178.976 113.519C179.576 112.902 179.876 112.06 179.876 110.994ZM192.543 103.819C193.527 103.819 194.385 104.019 195.118 104.419C195.868 104.819 196.443 105.344 196.843 105.994V104.019H201.118V117.944C201.118 119.227 200.86 120.385 200.343 121.419C199.843 122.469 199.068 123.302 198.018 123.919C196.985 124.535 195.693 124.844 194.143 124.844C192.077 124.844 190.402 124.352 189.118 123.369C187.835 122.402 187.102 121.085 186.918 119.419H191.143C191.277 119.952 191.593 120.369 192.093 120.669C192.593 120.985 193.21 121.144 193.943 121.144C194.827 121.144 195.527 120.885 196.043 120.369C196.577 119.869 196.843 119.06 196.843 117.944V115.969C196.427 116.619 195.852 117.152 195.118 117.569C194.385 117.969 193.527 118.169 192.543 118.169C191.393 118.169 190.352 117.877 189.418 117.294C188.485 116.694 187.743 115.852 187.193 114.769C186.66 113.669 186.393 112.402 186.393 110.969C186.393 109.535 186.66 108.277 187.193 107.194C187.743 106.11 188.485 105.277 189.418 104.694C190.352 104.11 191.393 103.819 192.543 103.819ZM196.843 110.994C196.843 109.927 196.543 109.085 195.943 108.469C195.36 107.852 194.643 107.544 193.793 107.544C192.943 107.544 192.218 107.852 191.618 108.469C191.035 109.069 190.743 109.902 190.743 110.969C190.743 112.035 191.035 112.885 191.618 113.519C192.218 114.135 192.943 114.444 193.793 114.444C194.643 114.444 195.36 114.135 195.943 113.519C196.543 112.902 196.843 112.06 196.843 110.994ZM217.986 104.019V117.969H213.711V116.069C213.278 116.685 212.686 117.185 211.936 117.569C211.203 117.935 210.386 118.119 209.486 118.119C208.419 118.119 207.478 117.885 206.661 117.419C205.844 116.935 205.211 116.244 204.761 115.344C204.311 114.444 204.086 113.385 204.086 112.169V104.019H208.336V111.594C208.336 112.527 208.578 113.252 209.061 113.769C209.544 114.285 210.194 114.544 211.011 114.544C211.844 114.544 212.503 114.285 212.986 113.769C213.469 113.252 213.711 112.527 213.711 111.594V104.019H217.986ZM225.332 99.4687V117.969H221.057V99.4687H225.332ZM227.58 110.969C227.58 109.535 227.847 108.277 228.38 107.194C228.93 106.11 229.672 105.277 230.605 104.694C231.538 104.11 232.58 103.819 233.73 103.819C234.713 103.819 235.572 104.019 236.305 104.419C237.055 104.819 237.63 105.344 238.03 105.994V104.019H242.305V117.969H238.03V115.994C237.613 116.644 237.03 117.169 236.28 117.569C235.547 117.969 234.688 118.169 233.705 118.169C232.572 118.169 231.538 117.877 230.605 117.294C229.672 116.694 228.93 115.852 228.38 114.769C227.847 113.669 227.58 112.402 227.58 110.969ZM238.03 110.994C238.03 109.927 237.73 109.085 237.13 108.469C236.547 107.852 235.83 107.544 234.98 107.544C234.13 107.544 233.405 107.852 232.805 108.469C232.222 109.069 231.93 109.902 231.93 110.969C231.93 112.035 232.222 112.885 232.805 113.519C233.405 114.135 234.13 114.444 234.98 114.444C235.83 114.444 236.547 114.135 237.13 113.519C237.73 112.902 238.03 112.06 238.03 110.994ZM253.898 103.869C255.531 103.869 256.831 104.402 257.798 105.469C258.781 106.519 259.273 107.969 259.273 109.819V117.969H255.023V110.394C255.023 109.46 254.781 108.735 254.298 108.219C253.814 107.702 253.164 107.444 252.348 107.444C251.531 107.444 250.881 107.702 250.398 108.219C249.914 108.735 249.673 109.46 249.673 110.394V117.969H245.398V104.019H249.673V105.869C250.106 105.252 250.689 104.769 251.423 104.419C252.156 104.052 252.981 103.869 253.898 103.869ZM267.543 103.819C268.527 103.819 269.385 104.019 270.118 104.419C270.868 104.819 271.443 105.344 271.843 105.994V104.019H276.118V117.944C276.118 119.227 275.86 120.385 275.343 121.419C274.843 122.469 274.068 123.302 273.018 123.919C271.985 124.535 270.693 124.844 269.143 124.844C267.077 124.844 265.402 124.352 264.118 123.369C262.835 122.402 262.102 121.085 261.918 119.419H266.143C266.277 119.952 266.593 120.369 267.093 120.669C267.593 120.985 268.21 121.144 268.943 121.144C269.827 121.144 270.527 120.885 271.043 120.369C271.577 119.869 271.843 119.06 271.843 117.944V115.969C271.427 116.619 270.852 117.152 270.118 117.569C269.385 117.969 268.527 118.169 267.543 118.169C266.393 118.169 265.352 117.877 264.418 117.294C263.485 116.694 262.743 115.852 262.193 114.769C261.66 113.669 261.393 112.402 261.393 110.969C261.393 109.535 261.66 108.277 262.193 107.194C262.743 106.11 263.485 105.277 264.418 104.694C265.352 104.11 266.393 103.819 267.543 103.819ZM271.843 110.994C271.843 109.927 271.543 109.085 270.943 108.469C270.36 107.852 269.643 107.544 268.793 107.544C267.943 107.544 267.218 107.852 266.618 108.469C266.035 109.069 265.743 109.902 265.743 110.969C265.743 112.035 266.035 112.885 266.618 113.519C267.218 114.135 267.943 114.444 268.793 114.444C269.643 114.444 270.36 114.135 270.943 113.519C271.543 112.902 271.843 112.06 271.843 110.994ZM278.361 110.969C278.361 109.535 278.628 108.277 279.161 107.194C279.711 106.11 280.453 105.277 281.386 104.694C282.319 104.11 283.361 103.819 284.511 103.819C285.494 103.819 286.353 104.019 287.086 104.419C287.836 104.819 288.411 105.344 288.811 105.994V104.019H293.086V117.969H288.811V115.994C288.394 116.644 287.811 117.169 287.061 117.569C286.328 117.969 285.469 118.169 284.486 118.169C283.353 118.169 282.319 117.877 281.386 117.294C280.453 116.694 279.711 115.852 279.161 114.769C278.628 113.669 278.361 112.402 278.361 110.969ZM288.811 110.994C288.811 109.927 288.511 109.085 287.911 108.469C287.328 107.852 286.611 107.544 285.761 107.544C284.911 107.544 284.186 107.852 283.586 108.469C283.003 109.069 282.711 109.902 282.711 110.969C282.711 112.035 283.003 112.885 283.586 113.519C284.186 114.135 284.911 114.444 285.761 114.444C286.611 114.444 287.328 114.135 287.911 113.519C288.511 112.902 288.811 112.06 288.811 110.994ZM304.679 103.869C306.312 103.869 307.612 104.402 308.579 105.469C309.562 106.519 310.054 107.969 310.054 109.819V117.969H305.804V110.394C305.804 109.46 305.562 108.735 305.079 108.219C304.596 107.702 303.946 107.444 303.129 107.444C302.312 107.444 301.662 107.702 301.179 108.219C300.696 108.735 300.454 109.46 300.454 110.394V117.969H296.179V104.019H300.454V105.869C300.887 105.252 301.471 104.769 302.204 104.419C302.937 104.052 303.762 103.869 304.679 103.869ZM50.825 147.169C50.825 145.435 51.2 143.894 51.95 142.544C52.7 141.177 53.7417 140.119 55.075 139.369C56.425 138.602 57.95 138.219 59.65 138.219C61.7333 138.219 63.5167 138.769 65 139.869C66.4833 140.969 67.475 142.469 67.975 144.369H63.275C62.925 143.635 62.425 143.077 61.775 142.694C61.1417 142.31 60.4167 142.119 59.6 142.119C58.2833 142.119 57.2167 142.577 56.4 143.494C55.5833 144.41 55.175 145.635 55.175 147.169C55.175 148.702 55.5833 149.927 56.4 150.844C57.2167 151.76 58.2833 152.219 59.6 152.219C60.4167 152.219 61.1417 152.027 61.775 151.644C62.425 151.26 62.925 150.702 63.275 149.969H67.975C67.475 151.869 66.4833 153.369 65 154.469C63.5167 155.552 61.7333 156.094 59.65 156.094C57.95 156.094 56.425 155.719 55.075 154.969C53.7417 154.202 52.7 153.144 51.95 151.794C51.2 150.444 50.825 148.902 50.825 147.169ZM78.893 156.144C77.243 156.144 75.7263 155.76 74.343 154.994C72.9763 154.227 71.8846 153.16 71.068 151.794C70.268 150.41 69.868 148.86 69.868 147.144C69.868 145.427 70.268 143.885 71.068 142.519C71.8846 141.152 72.9763 140.085 74.343 139.319C75.7263 138.552 77.243 138.169 78.893 138.169C80.543 138.169 82.0513 138.552 83.418 139.319C84.8013 140.085 85.8846 141.152 86.668 142.519C87.468 143.885 87.868 145.427 87.868 147.144C87.868 148.86 87.468 150.41 86.668 151.794C85.868 153.16 84.7846 154.227 83.418 154.994C82.0513 155.76 80.543 156.144 78.893 156.144ZM78.893 152.244C80.293 152.244 81.4096 151.777 82.243 150.844C83.093 149.91 83.518 148.677 83.518 147.144C83.518 145.594 83.093 144.36 82.243 143.444C81.4096 142.51 80.293 142.044 78.893 142.044C77.4763 142.044 76.343 142.502 75.493 143.419C74.6596 144.335 74.243 145.577 74.243 147.144C74.243 148.694 74.6596 149.935 75.493 150.869C76.343 151.785 77.4763 152.244 78.893 152.244ZM106.721 138.419L100.496 155.969H95.1463L88.9213 138.419H93.4713L97.8213 151.669L102.196 138.419H106.721ZM112.783 138.419V155.969H108.508V138.419H112.783ZM122.456 138.419C124.306 138.419 125.923 138.785 127.306 139.519C128.689 140.252 129.756 141.285 130.506 142.619C131.273 143.935 131.656 145.46 131.656 147.194C131.656 148.91 131.273 150.435 130.506 151.769C129.756 153.102 128.681 154.135 127.281 154.869C125.898 155.602 124.289 155.969 122.456 155.969H115.881V138.419H122.456ZM122.181 152.269C123.798 152.269 125.056 151.827 125.956 150.944C126.856 150.06 127.306 148.81 127.306 147.194C127.306 145.577 126.856 144.319 125.956 143.419C125.056 142.519 123.798 142.069 122.181 142.069H120.156V152.269H122.181ZM144.795 145.419V148.969H133.795V145.419H144.795ZM147.672 141.694V137.719H154.597V155.969H150.147V141.694H147.672ZM162.121 150.619C162.371 151.935 163.138 152.594 164.421 152.594C165.305 152.594 165.93 152.202 166.296 151.419C166.663 150.635 166.846 149.36 166.846 147.594C166.48 148.11 165.98 148.51 165.346 148.794C164.713 149.077 164.005 149.219 163.221 149.219C162.155 149.219 161.205 149.002 160.371 148.569C159.538 148.119 158.88 147.46 158.396 146.594C157.93 145.71 157.696 144.644 157.696 143.394C157.696 142.16 157.946 141.085 158.446 140.169C158.963 139.252 159.688 138.544 160.621 138.044C161.571 137.544 162.688 137.294 163.971 137.294C166.438 137.294 168.163 138.06 169.146 139.594C170.13 141.127 170.621 143.385 170.621 146.369C170.621 148.535 170.421 150.327 170.021 151.744C169.638 153.144 168.98 154.21 168.046 154.944C167.13 155.677 165.871 156.044 164.271 156.044C163.005 156.044 161.921 155.794 161.021 155.294C160.138 154.794 159.455 154.135 158.971 153.319C158.505 152.502 158.238 151.602 158.171 150.619H162.121ZM164.196 145.844C164.896 145.844 165.455 145.635 165.871 145.219C166.288 144.785 166.496 144.202 166.496 143.469C166.496 142.669 166.28 142.052 165.846 141.619C165.413 141.185 164.83 140.969 164.096 140.969C163.363 140.969 162.78 141.194 162.346 141.644C161.93 142.077 161.721 142.677 161.721 143.444C161.721 144.16 161.93 144.744 162.346 145.194C162.78 145.627 163.396 145.844 164.196 145.844ZM177.775 148.969C177.775 147.535 178.042 146.277 178.575 145.194C179.125 144.11 179.867 143.277 180.8 142.694C181.734 142.11 182.775 141.819 183.925 141.819C184.842 141.819 185.675 142.01 186.425 142.394C187.192 142.777 187.792 143.294 188.225 143.944V137.469H192.5V155.969H188.225V153.969C187.825 154.635 187.25 155.169 186.5 155.569C185.767 155.969 184.909 156.169 183.925 156.169C182.775 156.169 181.734 155.877 180.8 155.294C179.867 154.694 179.125 153.852 178.575 152.769C178.042 151.669 177.775 150.402 177.775 148.969ZM188.225 148.994C188.225 147.927 187.925 147.085 187.325 146.469C186.742 145.852 186.025 145.544 185.175 145.544C184.325 145.544 183.6 145.852 183 146.469C182.417 147.069 182.125 147.902 182.125 148.969C182.125 150.035 182.417 150.885 183 151.519C183.6 152.135 184.325 152.444 185.175 152.444C186.025 152.444 186.742 152.135 187.325 151.519C187.925 150.902 188.225 150.06 188.225 148.994ZM197.743 140.569C196.993 140.569 196.376 140.352 195.893 139.919C195.426 139.469 195.193 138.919 195.193 138.269C195.193 137.602 195.426 137.052 195.893 136.619C196.376 136.169 196.993 135.944 197.743 135.944C198.476 135.944 199.076 136.169 199.543 136.619C200.026 137.052 200.268 137.602 200.268 138.269C200.268 138.919 200.026 139.469 199.543 139.919C199.076 140.352 198.476 140.569 197.743 140.569ZM199.868 142.019V155.969H195.593V142.019H199.868ZM214.839 138.419C216.689 138.419 218.306 138.785 219.689 139.519C221.072 140.252 222.139 141.285 222.889 142.619C223.656 143.935 224.039 145.46 224.039 147.194C224.039 148.91 223.656 150.435 222.889 151.769C222.139 153.102 221.064 154.135 219.664 154.869C218.281 155.602 216.672 155.969 214.839 155.969H208.264V138.419H214.839ZM214.564 152.269C216.181 152.269 217.439 151.827 218.339 150.944C219.239 150.06 219.689 148.81 219.689 147.194C219.689 145.577 219.239 144.319 218.339 143.419C217.439 142.519 216.181 142.069 214.564 142.069H212.539V152.269H214.564ZM225.578 148.969C225.578 147.535 225.845 146.277 226.378 145.194C226.928 144.11 227.67 143.277 228.603 142.694C229.536 142.11 230.578 141.819 231.728 141.819C232.711 141.819 233.57 142.019 234.303 142.419C235.053 142.819 235.628 143.344 236.028 143.994V142.019H240.303V155.969H236.028V153.994C235.611 154.644 235.028 155.169 234.278 155.569C233.545 155.969 232.686 156.169 231.703 156.169C230.57 156.169 229.536 155.877 228.603 155.294C227.67 154.694 226.928 153.852 226.378 152.769C225.845 151.669 225.578 150.402 225.578 148.969ZM236.028 148.994C236.028 147.927 235.728 147.085 235.128 146.469C234.545 145.852 233.828 145.544 232.978 145.544C232.128 145.544 231.403 145.852 230.803 146.469C230.22 147.069 229.928 147.902 229.928 148.969C229.928 150.035 230.22 150.885 230.803 151.519C231.403 152.135 232.128 152.444 232.978 152.444C233.828 152.444 234.545 152.135 235.128 151.519C235.728 150.902 236.028 150.06 236.028 148.994ZM256.546 148.769C256.546 149.169 256.521 149.585 256.471 150.019H246.796C246.862 150.885 247.137 151.552 247.621 152.019C248.121 152.469 248.729 152.694 249.446 152.694C250.512 152.694 251.254 152.244 251.671 151.344H256.221C255.987 152.26 255.562 153.085 254.946 153.819C254.346 154.552 253.587 155.127 252.671 155.544C251.754 155.96 250.729 156.169 249.596 156.169C248.229 156.169 247.012 155.877 245.946 155.294C244.879 154.71 244.046 153.877 243.446 152.794C242.846 151.71 242.546 150.444 242.546 148.994C242.546 147.544 242.837 146.277 243.421 145.194C244.021 144.11 244.854 143.277 245.921 142.694C246.987 142.11 248.212 141.819 249.596 141.819C250.946 141.819 252.146 142.102 253.196 142.669C254.246 143.235 255.062 144.044 255.646 145.094C256.246 146.144 256.546 147.369 256.546 148.769ZM252.171 147.644C252.171 146.91 251.921 146.327 251.421 145.894C250.921 145.46 250.296 145.244 249.546 145.244C248.829 145.244 248.221 145.452 247.721 145.869C247.237 146.285 246.937 146.877 246.821 147.644H252.171ZM263.076 144.344C263.576 143.577 264.201 142.977 264.951 142.544C265.701 142.094 266.534 141.869 267.451 141.869V146.394H266.276C265.209 146.394 264.409 146.627 263.876 147.094C263.343 147.544 263.076 148.344 263.076 149.494V155.969H258.801V142.019H263.076V144.344ZM268.644 148.969C268.644 147.535 268.911 146.277 269.444 145.194C269.994 144.11 270.736 143.277 271.669 142.694C272.603 142.11 273.644 141.819 274.794 141.819C275.778 141.819 276.636 142.019 277.369 142.419C278.119 142.819 278.694 143.344 279.094 143.994V142.019H283.369V155.969H279.094V153.994C278.678 154.644 278.094 155.169 277.344 155.569C276.611 155.969 275.753 156.169 274.769 156.169C273.636 156.169 272.603 155.877 271.669 155.294C270.736 154.694 269.994 153.852 269.444 152.769C268.911 151.669 268.644 150.402 268.644 148.969ZM279.094 148.994C279.094 147.927 278.794 147.085 278.194 146.469C277.611 145.852 276.894 145.544 276.044 145.544C275.194 145.544 274.469 145.852 273.869 146.469C273.286 147.069 272.994 147.902 272.994 148.969C272.994 150.035 273.286 150.885 273.869 151.519C274.469 152.135 275.194 152.444 276.044 152.444C276.894 152.444 277.611 152.135 278.194 151.519C278.794 150.902 279.094 150.06 279.094 148.994ZM295.037 141.869C296.637 141.869 297.92 142.402 298.887 143.469C299.854 144.519 300.337 145.969 300.337 147.819V155.969H296.087V148.394C296.087 147.46 295.845 146.735 295.362 146.219C294.879 145.702 294.229 145.444 293.412 145.444C292.595 145.444 291.945 145.702 291.462 146.219C290.979 146.735 290.737 147.46 290.737 148.394V155.969H286.462V137.469H290.737V143.894C291.17 143.277 291.762 142.785 292.512 142.419C293.262 142.052 294.104 141.869 295.037 141.869ZM321.108 141.869C322.841 141.869 324.216 142.394 325.233 143.444C326.266 144.494 326.783 145.952 326.783 147.819V155.969H322.533V148.394C322.533 147.494 322.291 146.802 321.808 146.319C321.341 145.819 320.691 145.569 319.858 145.569C319.024 145.569 318.366 145.819 317.883 146.319C317.416 146.802 317.183 147.494 317.183 148.394V155.969H312.933V148.394C312.933 147.494 312.691 146.802 312.208 146.319C311.741 145.819 311.091 145.569 310.258 145.569C309.424 145.569 308.766 145.819 308.283 146.319C307.816 146.802 307.583 147.494 307.583 148.394V155.969H303.308V142.019H307.583V143.769C308.016 143.185 308.583 142.727 309.283 142.394C309.983 142.044 310.774 141.869 311.658 141.869C312.708 141.869 313.641 142.094 314.458 142.544C315.291 142.994 315.941 143.635 316.408 144.469C316.891 143.702 317.549 143.077 318.383 142.594C319.216 142.11 320.124 141.869 321.108 141.869ZM343.548 142.019V155.969H339.273V154.069C338.839 154.685 338.248 155.185 337.498 155.569C336.764 155.935 335.948 156.119 335.048 156.119C333.981 156.119 333.039 155.885 332.223 155.419C331.406 154.935 330.773 154.244 330.323 153.344C329.873 152.444 329.648 151.385 329.648 150.169V142.019H333.898V149.594C333.898 150.527 334.139 151.252 334.623 151.769C335.106 152.285 335.756 152.544 336.573 152.544C337.406 152.544 338.064 152.285 338.548 151.769C339.031 151.252 339.273 150.527 339.273 149.594V142.019H343.548ZM352.243 137.794L351.743 149.769H348.118L347.618 137.794H352.243ZM349.993 156.169C349.243 156.169 348.627 155.952 348.143 155.519C347.677 155.069 347.443 154.519 347.443 153.869C347.443 153.202 347.677 152.644 348.143 152.194C348.627 151.744 349.243 151.519 349.993 151.519C350.727 151.519 351.327 151.744 351.793 152.194C352.277 152.644 352.518 153.202 352.518 153.869C352.518 154.519 352.277 155.069 351.793 155.519C351.327 155.952 350.727 156.169 349.993 156.169Z" fill="#FBFBFB"/>
<path opacity="0.7" d="M56.5711 208L54.2351 203.76H53.5791V208H50.8431V196.768H55.4351C56.3204 196.768 57.0724 196.923 57.6911 197.232C58.3204 197.541 58.7897 197.968 59.0991 198.512C59.4084 199.045 59.5631 199.643 59.5631 200.304C59.5631 201.051 59.3497 201.717 58.9231 202.304C58.5071 202.891 57.8884 203.307 57.0671 203.552L59.6591 208H56.5711ZM53.5791 201.824H55.2751C55.7764 201.824 56.1497 201.701 56.3951 201.456C56.6511 201.211 56.7791 200.864 56.7791 200.416C56.7791 199.989 56.6511 199.653 56.3951 199.408C56.1497 199.163 55.7764 199.04 55.2751 199.04H53.5791V201.824ZM69.6966 203.392C69.6966 203.648 69.6806 203.915 69.6486 204.192H63.4566C63.4992 204.747 63.6752 205.173 63.9846 205.472C64.3046 205.76 64.6939 205.904 65.1526 205.904C65.8352 205.904 66.3099 205.616 66.5766 205.04H69.4886C69.3392 205.627 69.0672 206.155 68.6726 206.624C68.2886 207.093 67.8032 207.461 67.2166 207.728C66.6299 207.995 65.9739 208.128 65.2486 208.128C64.3739 208.128 63.5952 207.941 62.9126 207.568C62.2299 207.195 61.6966 206.661 61.3126 205.968C60.9286 205.275 60.7366 204.464 60.7366 203.536C60.7366 202.608 60.9232 201.797 61.2966 201.104C61.6806 200.411 62.2139 199.877 62.8966 199.504C63.5792 199.131 64.3632 198.944 65.2486 198.944C66.1126 198.944 66.8806 199.125 67.5526 199.488C68.2246 199.851 68.7472 200.368 69.1206 201.04C69.5046 201.712 69.6966 202.496 69.6966 203.392ZM66.8966 202.672C66.8966 202.203 66.7366 201.829 66.4166 201.552C66.0966 201.275 65.6966 201.136 65.2166 201.136C64.7579 201.136 64.3686 201.269 64.0486 201.536C63.7392 201.803 63.5472 202.181 63.4726 202.672H66.8966ZM73.8759 196.16V208H71.1399V196.16H73.8759ZM75.3147 203.52C75.3147 202.603 75.4854 201.797 75.8267 201.104C76.1787 200.411 76.6534 199.877 77.2507 199.504C77.848 199.131 78.5147 198.944 79.2507 198.944C79.88 198.944 80.4294 199.072 80.8987 199.328C81.3787 199.584 81.7467 199.92 82.0027 200.336V199.072H84.7387V208H82.0027V206.736C81.736 207.152 81.3627 207.488 80.8827 207.744C80.4134 208 79.864 208.128 79.2347 208.128C78.5094 208.128 77.848 207.941 77.2507 207.568C76.6534 207.184 76.1787 206.645 75.8267 205.952C75.4854 205.248 75.3147 204.437 75.3147 203.52ZM82.0027 203.536C82.0027 202.853 81.8107 202.315 81.4267 201.92C81.0534 201.525 80.5947 201.328 80.0507 201.328C79.5067 201.328 79.0427 201.525 78.6587 201.92C78.2854 202.304 78.0987 202.837 78.0987 203.52C78.0987 204.203 78.2854 204.747 78.6587 205.152C79.0427 205.547 79.5067 205.744 80.0507 205.744C80.5947 205.744 81.0534 205.547 81.4267 205.152C81.8107 204.757 82.0027 204.219 82.0027 203.536ZM99.5341 199.072L97.1181 208H94.0941L92.6861 202.208L91.2301 208H88.2221L85.7901 199.072H88.5261L89.7901 205.456L91.2941 199.072H94.1901L95.7101 205.424L96.9581 199.072H99.5341ZM100.033 203.52C100.033 202.603 100.204 201.797 100.545 201.104C100.897 200.411 101.372 199.877 101.969 199.504C102.567 199.131 103.233 198.944 103.969 198.944C104.599 198.944 105.148 199.072 105.617 199.328C106.097 199.584 106.465 199.92 106.721 200.336V199.072H109.457V208H106.721V206.736C106.455 207.152 106.081 207.488 105.601 207.744C105.132 208 104.583 208.128 103.953 208.128C103.228 208.128 102.567 207.941 101.969 207.568C101.372 207.184 100.897 206.645 100.545 205.952C100.204 205.248 100.033 204.437 100.033 203.52ZM106.721 203.536C106.721 202.853 106.529 202.315 106.145 201.92C105.772 201.525 105.313 201.328 104.769 201.328C104.225 201.328 103.761 201.525 103.377 201.92C103.004 202.304 102.817 202.837 102.817 203.52C102.817 204.203 103.004 204.747 103.377 205.152C103.761 205.547 104.225 205.744 104.769 205.744C105.313 205.744 105.772 205.547 106.145 205.152C106.529 204.757 106.721 204.219 106.721 203.536ZM116.877 198.976C117.922 198.976 118.754 199.317 119.373 200C120.002 200.672 120.317 201.6 120.317 202.784V208H117.597V203.152C117.597 202.555 117.442 202.091 117.133 201.76C116.823 201.429 116.407 201.264 115.885 201.264C115.362 201.264 114.946 201.429 114.637 201.76C114.327 202.091 114.173 202.555 114.173 203.152V208H111.437V199.072H114.173V200.256C114.45 199.861 114.823 199.552 115.293 199.328C115.762 199.093 116.29 198.976 116.877 198.976ZM125.065 203.52C125.065 202.603 125.235 201.797 125.577 201.104C125.929 200.411 126.403 199.877 127.001 199.504C127.598 199.131 128.265 198.944 129.001 198.944C129.63 198.944 130.179 199.072 130.649 199.328C131.129 199.584 131.497 199.92 131.753 200.336V199.072H134.489V208H131.753V206.736C131.486 207.152 131.113 207.488 130.633 207.744C130.163 208 129.614 208.128 128.985 208.128C128.259 208.128 127.598 207.941 127.001 207.568C126.403 207.184 125.929 206.645 125.577 205.952C125.235 205.248 125.065 204.437 125.065 203.52ZM131.753 203.536C131.753 202.853 131.561 202.315 131.177 201.92C130.803 201.525 130.345 201.328 129.801 201.328C129.257 201.328 128.793 201.525 128.409 201.92C128.035 202.304 127.849 202.837 127.849 203.52C127.849 204.203 128.035 204.747 128.409 205.152C128.793 205.547 129.257 205.744 129.801 205.744C130.345 205.744 130.803 205.547 131.177 205.152C131.561 204.757 131.753 204.219 131.753 203.536ZM141.924 208L139.204 204.256V208H136.468V196.16H139.204V202.704L141.908 199.072H145.284L141.572 203.552L145.316 208H141.924ZM145.815 203.52C145.815 202.603 145.985 201.797 146.327 201.104C146.679 200.411 147.153 199.877 147.751 199.504C148.348 199.131 149.015 198.944 149.751 198.944C150.38 198.944 150.929 199.072 151.399 199.328C151.879 199.584 152.247 199.92 152.503 200.336V199.072H155.239V208H152.503V206.736C152.236 207.152 151.863 207.488 151.383 207.744C150.913 208 150.364 208.128 149.735 208.128C149.009 208.128 148.348 207.941 147.751 207.568C147.153 207.184 146.679 206.645 146.327 205.952C145.985 205.248 145.815 204.437 145.815 203.52ZM152.503 203.536C152.503 202.853 152.311 202.315 151.927 201.92C151.553 201.525 151.095 201.328 150.551 201.328C150.007 201.328 149.543 201.525 149.159 201.92C148.785 202.304 148.599 202.837 148.599 203.52C148.599 204.203 148.785 204.747 149.159 205.152C149.543 205.547 150.007 205.744 150.551 205.744C151.095 205.744 151.553 205.547 151.927 205.152C152.311 204.757 152.503 204.219 152.503 203.536ZM162.658 198.976C163.703 198.976 164.535 199.317 165.154 200C165.783 200.672 166.098 201.6 166.098 202.784V208H163.378V203.152C163.378 202.555 163.223 202.091 162.914 201.76C162.605 201.429 162.189 201.264 161.666 201.264C161.143 201.264 160.727 201.429 160.418 201.76C160.109 202.091 159.954 202.555 159.954 203.152V208H157.218V199.072H159.954V200.256C160.231 199.861 160.605 199.552 161.074 199.328C161.543 199.093 162.071 198.976 162.658 198.976ZM170.846 203.52C170.846 202.603 171.017 201.797 171.358 201.104C171.71 200.411 172.185 199.877 172.782 199.504C173.379 199.131 174.046 198.944 174.782 198.944C175.369 198.944 175.902 199.067 176.382 199.312C176.873 199.557 177.257 199.888 177.534 200.304V196.16H180.27V208H177.534V206.72C177.278 207.147 176.91 207.488 176.43 207.744C175.961 208 175.411 208.128 174.782 208.128C174.046 208.128 173.379 207.941 172.782 207.568C172.185 207.184 171.71 206.645 171.358 205.952C171.017 205.248 170.846 204.437 170.846 203.52ZM177.534 203.536C177.534 202.853 177.342 202.315 176.958 201.92C176.585 201.525 176.126 201.328 175.582 201.328C175.038 201.328 174.574 201.525 174.19 201.92C173.817 202.304 173.63 202.837 173.63 203.52C173.63 204.203 173.817 204.747 174.19 205.152C174.574 205.547 175.038 205.744 175.582 205.744C176.126 205.744 176.585 205.547 176.958 205.152C177.342 204.757 177.534 204.219 177.534 203.536ZM183.625 198.144C183.145 198.144 182.751 198.005 182.441 197.728C182.143 197.44 181.993 197.088 181.993 196.672C181.993 196.245 182.143 195.893 182.441 195.616C182.751 195.328 183.145 195.184 183.625 195.184C184.095 195.184 184.479 195.328 184.777 195.616C185.087 195.893 185.241 196.245 185.241 196.672C185.241 197.088 185.087 197.44 184.777 197.728C184.479 198.005 184.095 198.144 183.625 198.144ZM184.985 199.072V208H182.249V199.072H184.985ZM192.424 208L189.704 204.256V208H186.968V196.16H189.704V202.704L192.408 199.072H195.784L192.072 203.552L195.816 208H192.424ZM200.923 208.128C200.048 208.128 199.259 207.941 198.555 207.568C197.861 207.195 197.312 206.661 196.907 205.968C196.512 205.275 196.315 204.464 196.315 203.536C196.315 202.619 196.517 201.813 196.923 201.12C197.328 200.416 197.883 199.877 198.587 199.504C199.291 199.131 200.08 198.944 200.955 198.944C201.829 198.944 202.619 199.131 203.323 199.504C204.027 199.877 204.581 200.416 204.987 201.12C205.392 201.813 205.595 202.619 205.595 203.536C205.595 204.453 205.387 205.264 204.971 205.968C204.565 206.661 204.005 207.195 203.291 207.568C202.587 207.941 201.797 208.128 200.923 208.128ZM200.923 205.76C201.445 205.76 201.888 205.568 202.251 205.184C202.624 204.8 202.811 204.251 202.811 203.536C202.811 202.821 202.629 202.272 202.267 201.888C201.915 201.504 201.477 201.312 200.955 201.312C200.421 201.312 199.979 201.504 199.627 201.888C199.275 202.261 199.099 202.811 199.099 203.536C199.099 204.251 199.269 204.8 199.611 205.184C199.963 205.568 200.4 205.76 200.923 205.76ZM212.486 198.976C213.532 198.976 214.364 199.317 214.982 200C215.612 200.672 215.926 201.6 215.926 202.784V208H213.206V203.152C213.206 202.555 213.052 202.091 212.742 201.76C212.433 201.429 212.017 201.264 211.494 201.264C210.972 201.264 210.556 201.429 210.246 201.76C209.937 202.091 209.782 202.555 209.782 203.152V208H207.046V199.072H209.782V200.256C210.06 199.861 210.433 199.552 210.902 199.328C211.372 199.093 211.9 198.976 212.486 198.976ZM222.803 205.68V208H221.411C220.419 208 219.646 207.76 219.091 207.28C218.537 206.789 218.259 205.995 218.259 204.896V201.344H217.171V199.072H218.259V196.896H220.995V199.072H222.787V201.344H220.995V204.928C220.995 205.195 221.059 205.387 221.187 205.504C221.315 205.621 221.529 205.68 221.827 205.68H222.803ZM227.063 200.56C227.383 200.069 227.783 199.685 228.263 199.408C228.743 199.12 229.277 198.976 229.863 198.976V201.872H229.111C228.429 201.872 227.917 202.021 227.575 202.32C227.234 202.608 227.063 203.12 227.063 203.856V208H224.327V199.072H227.063V200.56ZM230.627 203.52C230.627 202.603 230.798 201.797 231.139 201.104C231.491 200.411 231.966 199.877 232.563 199.504C233.161 199.131 233.827 198.944 234.563 198.944C235.193 198.944 235.742 199.072 236.211 199.328C236.691 199.584 237.059 199.92 237.315 200.336V199.072H240.051V208H237.315V206.736C237.049 207.152 236.675 207.488 236.195 207.744C235.726 208 235.177 208.128 234.547 208.128C233.822 208.128 233.161 207.941 232.563 207.568C231.966 207.184 231.491 206.645 231.139 205.952C230.798 205.248 230.627 204.437 230.627 203.52ZM237.315 203.536C237.315 202.853 237.123 202.315 236.739 201.92C236.366 201.525 235.907 201.328 235.363 201.328C234.819 201.328 234.355 201.525 233.971 201.92C233.598 202.304 233.411 202.837 233.411 203.52C233.411 204.203 233.598 204.747 233.971 205.152C234.355 205.547 234.819 205.744 235.363 205.744C235.907 205.744 236.366 205.547 236.739 205.152C237.123 204.757 237.315 204.219 237.315 203.536ZM247.487 208L244.767 204.256V208H242.031V196.16H244.767V202.704L247.471 199.072H250.847L247.135 203.552L250.879 208H247.487ZM254.768 203.52C254.768 202.603 254.938 201.797 255.28 201.104C255.632 200.411 256.106 199.877 256.704 199.504C257.301 199.131 257.968 198.944 258.704 198.944C259.29 198.944 259.824 199.067 260.304 199.312C260.794 199.557 261.178 199.888 261.456 200.304V196.16H264.192V208H261.456V206.72C261.2 207.147 260.832 207.488 260.352 207.744C259.882 208 259.333 208.128 258.704 208.128C257.968 208.128 257.301 207.941 256.704 207.568C256.106 207.184 255.632 206.645 255.28 205.952C254.938 205.248 254.768 204.437 254.768 203.52ZM261.456 203.536C261.456 202.853 261.264 202.315 260.88 201.92C260.506 201.525 260.048 201.328 259.504 201.328C258.96 201.328 258.496 201.525 258.112 201.92C257.738 202.304 257.552 202.837 257.552 203.52C257.552 204.203 257.738 204.747 258.112 205.152C258.496 205.547 258.96 205.744 259.504 205.744C260.048 205.744 260.506 205.547 260.88 205.152C261.264 204.757 261.456 204.219 261.456 203.536ZM265.627 203.52C265.627 202.603 265.798 201.797 266.139 201.104C266.491 200.411 266.966 199.877 267.563 199.504C268.161 199.131 268.827 198.944 269.563 198.944C270.193 198.944 270.742 199.072 271.211 199.328C271.691 199.584 272.059 199.92 272.315 200.336V199.072H275.051V208H272.315V206.736C272.049 207.152 271.675 207.488 271.195 207.744C270.726 208 270.177 208.128 269.547 208.128C268.822 208.128 268.161 207.941 267.563 207.568C266.966 207.184 266.491 206.645 266.139 205.952C265.798 205.248 265.627 204.437 265.627 203.52ZM272.315 203.536C272.315 202.853 272.123 202.315 271.739 201.92C271.366 201.525 270.907 201.328 270.363 201.328C269.819 201.328 269.355 201.525 268.971 201.92C268.598 202.304 268.411 202.837 268.411 203.52C268.411 204.203 268.598 204.747 268.971 205.152C269.355 205.547 269.819 205.744 270.363 205.744C270.907 205.744 271.366 205.547 271.739 205.152C272.123 204.757 272.315 204.219 272.315 203.536ZM282.471 198.976C283.516 198.976 284.348 199.317 284.967 200C285.596 200.672 285.911 201.6 285.911 202.784V208H283.191V203.152C283.191 202.555 283.036 202.091 282.727 201.76C282.417 201.429 282.001 201.264 281.479 201.264C280.956 201.264 280.54 201.429 280.231 201.76C279.921 202.091 279.767 202.555 279.767 203.152V208H277.031V199.072H279.767V200.256C280.044 199.861 280.417 199.552 280.887 199.328C281.356 199.093 281.884 198.976 282.471 198.976ZM50.2991 227.52C50.2991 226.603 50.4697 225.797 50.8111 225.104C51.1631 224.411 51.6377 223.877 52.2351 223.504C52.8324 223.131 53.4991 222.944 54.2351 222.944C54.8217 222.944 55.3551 223.067 55.8351 223.312C56.3257 223.557 56.7097 223.888 56.9871 224.304V220.16H59.7231V232H56.9871V230.72C56.7311 231.147 56.3631 231.488 55.8831 231.744C55.4137 232 54.8644 232.128 54.2351 232.128C53.4991 232.128 52.8324 231.941 52.2351 231.568C51.6377 231.184 51.1631 230.645 50.8111 229.952C50.4697 229.248 50.2991 228.437 50.2991 227.52ZM56.9871 227.536C56.9871 226.853 56.7951 226.315 56.4111 225.92C56.0377 225.525 55.5791 225.328 55.0351 225.328C54.4911 225.328 54.0271 225.525 53.6431 225.92C53.2697 226.304 53.0831 226.837 53.0831 227.52C53.0831 228.203 53.2697 228.747 53.6431 229.152C54.0271 229.547 54.4911 229.744 55.0351 229.744C55.5791 229.744 56.0377 229.547 56.4111 229.152C56.7951 228.757 56.9871 228.219 56.9871 227.536ZM63.0784 222.144C62.5984 222.144 62.2038 222.005 61.8944 221.728C61.5958 221.44 61.4464 221.088 61.4464 220.672C61.4464 220.245 61.5958 219.893 61.8944 219.616C62.2038 219.328 62.5984 219.184 63.0784 219.184C63.5478 219.184 63.9318 219.328 64.2304 219.616C64.5398 219.893 64.6944 220.245 64.6944 220.672C64.6944 221.088 64.5398 221.44 64.2304 221.728C63.9318 222.005 63.5478 222.144 63.0784 222.144ZM64.4384 223.072V232H61.7024V223.072H64.4384ZM69.1572 224.336C69.4132 223.92 69.7812 223.584 70.2612 223.328C70.7412 223.072 71.2905 222.944 71.9092 222.944C72.6452 222.944 73.3119 223.131 73.9092 223.504C74.5065 223.877 74.9759 224.411 75.3172 225.104C75.6692 225.797 75.8452 226.603 75.8452 227.52C75.8452 228.437 75.6692 229.248 75.3172 229.952C74.9759 230.645 74.5065 231.184 73.9092 231.568C73.3119 231.941 72.6452 232.128 71.9092 232.128C71.2799 232.128 70.7305 232.005 70.2612 231.76C69.7919 231.504 69.4239 231.168 69.1572 230.752V232H66.4212V220.16H69.1572V224.336ZM73.0612 227.52C73.0612 226.837 72.8692 226.304 72.4852 225.92C72.1119 225.525 71.6479 225.328 71.0932 225.328C70.5492 225.328 70.0852 225.525 69.7012 225.92C69.3279 226.315 69.1412 226.853 69.1412 227.536C69.1412 228.219 69.3279 228.757 69.7012 229.152C70.0852 229.547 70.5492 229.744 71.0932 229.744C71.6372 229.744 72.1012 229.547 72.4852 229.152C72.8692 228.747 73.0612 228.203 73.0612 227.52ZM85.6966 227.392C85.6966 227.648 85.6806 227.915 85.6486 228.192H79.4566C79.4992 228.747 79.6752 229.173 79.9846 229.472C80.3046 229.76 80.6939 229.904 81.1526 229.904C81.8352 229.904 82.3099 229.616 82.5766 229.04H85.4886C85.3392 229.627 85.0672 230.155 84.6726 230.624C84.2886 231.093 83.8032 231.461 83.2166 231.728C82.6299 231.995 81.9739 232.128 81.2486 232.128C80.3739 232.128 79.5952 231.941 78.9126 231.568C78.2299 231.195 77.6966 230.661 77.3126 229.968C76.9286 229.275 76.7366 228.464 76.7366 227.536C76.7366 226.608 76.9232 225.797 77.2966 225.104C77.6806 224.411 78.2139 223.877 78.8966 223.504C79.5792 223.131 80.3632 222.944 81.2486 222.944C82.1126 222.944 82.8806 223.125 83.5526 223.488C84.2246 223.851 84.7472 224.368 85.1206 225.04C85.5046 225.712 85.6966 226.496 85.6966 227.392ZM82.8966 226.672C82.8966 226.203 82.7366 225.829 82.4166 225.552C82.0966 225.275 81.6966 225.136 81.2166 225.136C80.7579 225.136 80.3686 225.269 80.0486 225.536C79.7392 225.803 79.5472 226.181 79.4726 226.672H82.8966ZM89.8759 224.56C90.1959 224.069 90.5959 223.685 91.0759 223.408C91.5559 223.12 92.0893 222.976 92.6759 222.976V225.872H91.9239C91.2413 225.872 90.7293 226.021 90.3879 226.32C90.0466 226.608 89.8759 227.12 89.8759 227.856V232H87.1399V223.072H89.8759V224.56ZM95.3597 222.144C94.8797 222.144 94.485 222.005 94.1757 221.728C93.877 221.44 93.7277 221.088 93.7277 220.672C93.7277 220.245 93.877 219.893 94.1757 219.616C94.485 219.328 94.8797 219.184 95.3597 219.184C95.829 219.184 96.213 219.328 96.5117 219.616C96.821 219.893 96.9757 220.245 96.9757 220.672C96.9757 221.088 96.821 221.44 96.5117 221.728C96.213 222.005 95.829 222.144 95.3597 222.144ZM96.7197 223.072V232H93.9837V223.072H96.7197ZM104.158 232L101.438 228.256V232H98.7024V220.16H101.438V226.704L104.142 223.072H107.518L103.806 227.552L107.55 232H104.158ZM108.049 227.52C108.049 226.603 108.22 225.797 108.561 225.104C108.913 224.411 109.388 223.877 109.985 223.504C110.582 223.131 111.249 222.944 111.985 222.944C112.614 222.944 113.164 223.072 113.633 223.328C114.113 223.584 114.481 223.92 114.737 224.336V223.072H117.473V232H114.737V230.736C114.47 231.152 114.097 231.488 113.617 231.744C113.148 232 112.598 232.128 111.969 232.128C111.244 232.128 110.582 231.941 109.985 231.568C109.388 231.184 108.913 230.645 108.561 229.952C108.22 229.248 108.049 228.437 108.049 227.52ZM114.737 227.536C114.737 226.853 114.545 226.315 114.161 225.92C113.788 225.525 113.329 225.328 112.785 225.328C112.241 225.328 111.777 225.525 111.393 225.92C111.02 226.304 110.833 226.837 110.833 227.52C110.833 228.203 111.02 228.747 111.393 229.152C111.777 229.547 112.241 229.744 112.785 229.744C113.329 229.744 113.788 229.547 114.161 229.152C114.545 228.757 114.737 228.219 114.737 227.536ZM124.892 222.976C125.938 222.976 126.77 223.317 127.388 224C128.018 224.672 128.332 225.6 128.332 226.784V232H125.612V227.152C125.612 226.555 125.458 226.091 125.148 225.76C124.839 225.429 124.423 225.264 123.9 225.264C123.378 225.264 122.962 225.429 122.652 225.76C122.343 226.091 122.188 226.555 122.188 227.152V232H119.452V223.072H122.188V224.256C122.466 223.861 122.839 223.552 123.308 223.328C123.778 223.093 124.306 222.976 124.892 222.976ZM133.08 227.52C133.08 226.603 133.251 225.797 133.592 225.104C133.944 224.411 134.419 223.877 135.016 223.504C135.614 223.131 136.28 222.944 137.016 222.944C137.646 222.944 138.195 223.072 138.664 223.328C139.144 223.584 139.512 223.92 139.768 224.336V223.072H142.504V232H139.768V230.736C139.502 231.152 139.128 231.488 138.648 231.744C138.179 232 137.63 232.128 137 232.128C136.275 232.128 135.614 231.941 135.016 231.568C134.419 231.184 133.944 230.645 133.592 229.952C133.251 229.248 133.08 228.437 133.08 227.52ZM139.768 227.536C139.768 226.853 139.576 226.315 139.192 225.92C138.819 225.525 138.36 225.328 137.816 225.328C137.272 225.328 136.808 225.525 136.424 225.92C136.051 226.304 135.864 226.837 135.864 227.52C135.864 228.203 136.051 228.747 136.424 229.152C136.808 229.547 137.272 229.744 137.816 229.744C138.36 229.744 138.819 229.547 139.192 229.152C139.576 228.757 139.768 228.219 139.768 227.536ZM149.94 232L147.22 228.256V232H144.484V220.16H147.22V226.704L149.924 223.072H153.3L149.588 227.552L153.332 232H149.94ZM158.438 232.128C157.564 232.128 156.774 231.941 156.07 231.568C155.377 231.195 154.828 230.661 154.422 229.968C154.028 229.275 153.83 228.464 153.83 227.536C153.83 226.619 154.033 225.813 154.438 225.12C154.844 224.416 155.398 223.877 156.102 223.504C156.806 223.131 157.596 222.944 158.47 222.944C159.345 222.944 160.134 223.131 160.838 223.504C161.542 223.877 162.097 224.416 162.502 225.12C162.908 225.813 163.11 226.619 163.11 227.536C163.11 228.453 162.902 229.264 162.486 229.968C162.081 230.661 161.521 231.195 160.806 231.568C160.102 231.941 159.313 232.128 158.438 232.128ZM158.438 229.76C158.961 229.76 159.404 229.568 159.766 229.184C160.14 228.8 160.326 228.251 160.326 227.536C160.326 226.821 160.145 226.272 159.782 225.888C159.43 225.504 158.993 225.312 158.47 225.312C157.937 225.312 157.494 225.504 157.142 225.888C156.79 226.261 156.614 226.811 156.614 227.536C156.614 228.251 156.785 228.8 157.126 229.184C157.478 229.568 157.916 229.76 158.438 229.76ZM175.954 222.976C177.063 222.976 177.943 223.312 178.594 223.984C179.255 224.656 179.586 225.589 179.586 226.784V232H176.866V227.152C176.866 226.576 176.711 226.133 176.402 225.824C176.103 225.504 175.687 225.344 175.154 225.344C174.62 225.344 174.199 225.504 173.89 225.824C173.591 226.133 173.442 226.576 173.442 227.152V232H170.722V227.152C170.722 226.576 170.567 226.133 170.258 225.824C169.959 225.504 169.543 225.344 169.01 225.344C168.476 225.344 168.055 225.504 167.746 225.824C167.447 226.133 167.298 226.576 167.298 227.152V232H164.562V223.072H167.298V224.192C167.575 223.819 167.938 223.525 168.386 223.312C168.834 223.088 169.34 222.976 169.906 222.976C170.578 222.976 171.175 223.12 171.698 223.408C172.231 223.696 172.647 224.107 172.946 224.64C173.255 224.149 173.676 223.749 174.21 223.44C174.743 223.131 175.324 222.976 175.954 222.976ZM185.563 232.128C184.689 232.128 183.899 231.941 183.195 231.568C182.502 231.195 181.953 230.661 181.547 229.968C181.153 229.275 180.955 228.464 180.955 227.536C180.955 226.619 181.158 225.813 181.563 225.12C181.969 224.416 182.523 223.877 183.227 223.504C183.931 223.131 184.721 222.944 185.595 222.944C186.47 222.944 187.259 223.131 187.963 223.504C188.667 223.877 189.222 224.416 189.627 225.12C190.033 225.813 190.235 226.619 190.235 227.536C190.235 228.453 190.027 229.264 189.611 229.968C189.206 230.661 188.646 231.195 187.931 231.568C187.227 231.941 186.438 232.128 185.563 232.128ZM185.563 229.76C186.086 229.76 186.529 229.568 186.891 229.184C187.265 228.8 187.451 228.251 187.451 227.536C187.451 226.821 187.27 226.272 186.907 225.888C186.555 225.504 186.118 225.312 185.595 225.312C185.062 225.312 184.619 225.504 184.267 225.888C183.915 226.261 183.739 226.811 183.739 227.536C183.739 228.251 183.91 228.8 184.251 229.184C184.603 229.568 185.041 229.76 185.563 229.76ZM197.127 222.976C198.172 222.976 199.004 223.317 199.623 224C200.252 224.672 200.567 225.6 200.567 226.784V232H197.847V227.152C197.847 226.555 197.692 226.091 197.383 225.76C197.073 225.429 196.657 225.264 196.135 225.264C195.612 225.264 195.196 225.429 194.887 225.76C194.577 226.091 194.423 226.555 194.423 227.152V232H191.687V223.072H194.423V224.256C194.7 223.861 195.073 223.552 195.543 223.328C196.012 223.093 196.54 222.976 197.127 222.976ZM201.924 227.52C201.924 226.603 202.095 225.797 202.436 225.104C202.788 224.411 203.263 223.877 203.86 223.504C204.457 223.131 205.124 222.944 205.86 222.944C206.447 222.944 206.98 223.067 207.46 223.312C207.951 223.557 208.335 223.888 208.612 224.304V220.16H211.348V232H208.612V230.72C208.356 231.147 207.988 231.488 207.508 231.744C207.039 232 206.489 232.128 205.86 232.128C205.124 232.128 204.457 231.941 203.86 231.568C203.263 231.184 202.788 230.645 202.436 229.952C202.095 229.248 201.924 228.437 201.924 227.52ZM208.612 227.536C208.612 226.853 208.42 226.315 208.036 225.92C207.663 225.525 207.204 225.328 206.66 225.328C206.116 225.328 205.652 225.525 205.268 225.92C204.895 226.304 204.708 226.837 204.708 227.52C204.708 228.203 204.895 228.747 205.268 229.152C205.652 229.547 206.116 229.744 206.66 229.744C207.204 229.744 207.663 229.547 208.036 229.152C208.42 228.757 208.612 228.219 208.612 227.536ZM212.783 227.52C212.783 226.603 212.954 225.797 213.295 225.104C213.647 224.411 214.122 223.877 214.719 223.504C215.317 223.131 215.983 222.944 216.719 222.944C217.349 222.944 217.898 223.072 218.367 223.328C218.847 223.584 219.215 223.92 219.471 224.336V223.072H222.207V232H219.471V230.736C219.205 231.152 218.831 231.488 218.351 231.744C217.882 232 217.333 232.128 216.703 232.128C215.978 232.128 215.317 231.941 214.719 231.568C214.122 231.184 213.647 230.645 213.295 229.952C212.954 229.248 212.783 228.437 212.783 227.52ZM219.471 227.536C219.471 226.853 219.279 226.315 218.895 225.92C218.522 225.525 218.063 225.328 217.519 225.328C216.975 225.328 216.511 225.525 216.127 225.92C215.754 226.304 215.567 226.837 215.567 227.52C215.567 228.203 215.754 228.747 216.127 229.152C216.511 229.547 216.975 229.744 217.519 229.744C218.063 229.744 218.522 229.547 218.895 229.152C219.279 228.757 219.471 228.219 219.471 227.536ZM227.819 232.128C227.04 232.128 226.347 231.995 225.739 231.728C225.131 231.461 224.651 231.099 224.299 230.64C223.947 230.171 223.749 229.648 223.707 229.072H226.411C226.443 229.381 226.587 229.632 226.843 229.824C227.099 230.016 227.413 230.112 227.787 230.112C228.128 230.112 228.389 230.048 228.571 229.92C228.763 229.781 228.859 229.605 228.859 229.392C228.859 229.136 228.725 228.949 228.459 228.832C228.192 228.704 227.76 228.565 227.163 228.416C226.523 228.267 225.989 228.112 225.563 227.952C225.136 227.781 224.768 227.52 224.459 227.168C224.149 226.805 223.995 226.32 223.995 225.712C223.995 225.2 224.133 224.736 224.411 224.32C224.699 223.893 225.115 223.557 225.659 223.312C226.213 223.067 226.869 222.944 227.627 222.944C228.747 222.944 229.627 223.221 230.267 223.776C230.917 224.331 231.291 225.067 231.387 225.984H228.859C228.816 225.675 228.677 225.429 228.443 225.248C228.219 225.067 227.92 224.976 227.547 224.976C227.227 224.976 226.981 225.04 226.811 225.168C226.64 225.285 226.555 225.451 226.555 225.664C226.555 225.92 226.688 226.112 226.955 226.24C227.232 226.368 227.659 226.496 228.235 226.624C228.896 226.795 229.435 226.965 229.851 227.136C230.267 227.296 230.629 227.563 230.939 227.936C231.259 228.299 231.424 228.789 231.435 229.408C231.435 229.931 231.285 230.4 230.987 230.816C230.699 231.221 230.277 231.541 229.723 231.776C229.179 232.011 228.544 232.128 227.819 232.128ZM234.485 222.144C234.005 222.144 233.61 222.005 233.301 221.728C233.002 221.44 232.853 221.088 232.853 220.672C232.853 220.245 233.002 219.893 233.301 219.616C233.61 219.328 234.005 219.184 234.485 219.184C234.954 219.184 235.338 219.328 235.637 219.616C235.946 219.893 236.101 220.245 236.101 220.672C236.101 221.088 235.946 221.44 235.637 221.728C235.338 222.005 234.954 222.144 234.485 222.144ZM235.845 223.072V232H233.109V223.072H235.845Z" fill="#FBFBFB"/>
<path d="M74.1311 292L69.5391 286.912V292H68.0831V280.848H69.5391V286.016L74.1471 280.848H75.9871L70.9311 286.432L76.0351 292H74.1311ZM79.1172 280.16V292H77.6612V280.16H79.1172ZM82.3507 281.808C82.0734 281.808 81.8387 281.712 81.6467 281.52C81.4547 281.328 81.3587 281.093 81.3587 280.816C81.3587 280.539 81.4547 280.304 81.6467 280.112C81.8387 279.92 82.0734 279.824 82.3507 279.824C82.6174 279.824 82.8414 279.92 83.0227 280.112C83.2147 280.304 83.3107 280.539 83.3107 280.816C83.3107 281.093 83.2147 281.328 83.0227 281.52C82.8414 281.712 82.6174 281.808 82.3507 281.808ZM83.0547 283.232V292H81.5987V283.232H83.0547ZM90.4322 292L86.9922 288.128V292H85.5362V280.16H86.9922V287.12L90.3682 283.232H92.4002L88.2722 287.6L92.4162 292H90.4322ZM97.4922 287.584C97.4922 286.688 97.6735 285.904 98.0362 285.232C98.3989 284.549 98.8949 284.021 99.5242 283.648C100.164 283.275 100.879 283.088 101.668 283.088C102.351 283.088 102.986 283.248 103.572 283.568C104.159 283.877 104.607 284.288 104.916 284.8V280.16H106.388V292H104.916V290.352C104.628 290.875 104.202 291.307 103.636 291.648C103.071 291.979 102.41 292.144 101.652 292.144C100.874 292.144 100.164 291.952 99.5242 291.568C98.8949 291.184 98.3989 290.645 98.0362 289.952C97.6735 289.259 97.4922 288.469 97.4922 287.584ZM104.916 287.6C104.916 286.939 104.783 286.363 104.516 285.872C104.25 285.381 103.887 285.008 103.428 284.752C102.98 284.485 102.484 284.352 101.94 284.352C101.396 284.352 100.9 284.48 100.452 284.736C100.004 284.992 99.6469 285.365 99.3802 285.856C99.1135 286.347 98.9802 286.923 98.9802 287.584C98.9802 288.256 99.1135 288.843 99.3802 289.344C99.6469 289.835 100.004 290.213 100.452 290.48C100.9 290.736 101.396 290.864 101.94 290.864C102.484 290.864 102.98 290.736 103.428 290.48C103.887 290.213 104.25 289.835 104.516 289.344C104.783 288.843 104.916 288.261 104.916 287.6ZM109.601 281.808C109.323 281.808 109.089 281.712 108.897 281.52C108.705 281.328 108.609 281.093 108.609 280.816C108.609 280.539 108.705 280.304 108.897 280.112C109.089 279.92 109.323 279.824 109.601 279.824C109.867 279.824 110.091 279.92 110.273 280.112C110.465 280.304 110.561 280.539 110.561 280.816C110.561 281.093 110.465 281.328 110.273 281.52C110.091 281.712 109.867 281.808 109.601 281.808ZM110.305 283.232V292H108.849V283.232H110.305ZM115.89 292.144C115.218 292.144 114.616 292.032 114.082 291.808C113.549 291.573 113.128 291.253 112.818 290.848C112.509 290.432 112.338 289.957 112.306 289.424H113.81C113.853 289.861 114.056 290.219 114.418 290.496C114.792 290.773 115.277 290.912 115.874 290.912C116.429 290.912 116.866 290.789 117.186 290.544C117.506 290.299 117.666 289.989 117.666 289.616C117.666 289.232 117.496 288.949 117.154 288.768C116.813 288.576 116.285 288.389 115.57 288.208C114.92 288.037 114.386 287.867 113.97 287.696C113.565 287.515 113.213 287.253 112.914 286.912C112.626 286.56 112.482 286.101 112.482 285.536C112.482 285.088 112.616 284.677 112.882 284.304C113.149 283.931 113.528 283.637 114.018 283.424C114.509 283.2 115.069 283.088 115.698 283.088C116.669 283.088 117.453 283.333 118.05 283.824C118.648 284.315 118.968 284.987 119.01 285.84H117.554C117.522 285.381 117.336 285.013 116.994 284.736C116.664 284.459 116.216 284.32 115.65 284.32C115.128 284.32 114.712 284.432 114.402 284.656C114.093 284.88 113.938 285.173 113.938 285.536C113.938 285.824 114.029 286.064 114.21 286.256C114.402 286.437 114.637 286.587 114.914 286.704C115.202 286.811 115.597 286.933 116.098 287.072C116.728 287.243 117.24 287.413 117.634 287.584C118.029 287.744 118.365 287.989 118.642 288.32C118.93 288.651 119.08 289.083 119.09 289.616C119.09 290.096 118.957 290.528 118.69 290.912C118.424 291.296 118.045 291.6 117.554 291.824C117.074 292.037 116.52 292.144 115.89 292.144ZM121.898 281.808C121.62 281.808 121.386 281.712 121.194 281.52C121.002 281.328 120.906 281.093 120.906 280.816C120.906 280.539 121.002 280.304 121.194 280.112C121.386 279.92 121.62 279.824 121.898 279.824C122.164 279.824 122.388 279.92 122.57 280.112C122.762 280.304 122.858 280.539 122.858 280.816C122.858 281.093 122.762 281.328 122.57 281.52C122.388 281.712 122.164 281.808 121.898 281.808ZM122.602 283.232V292H121.146V283.232H122.602ZM129.355 283.072C130.422 283.072 131.286 283.397 131.947 284.048C132.608 284.688 132.939 285.616 132.939 286.832V292H131.499V287.04C131.499 286.165 131.28 285.499 130.843 285.04C130.406 284.571 129.808 284.336 129.051 284.336C128.283 284.336 127.67 284.576 127.211 285.056C126.763 285.536 126.539 286.235 126.539 287.152V292H125.083V283.232H126.539V284.48C126.827 284.032 127.216 283.685 127.707 283.44C128.208 283.195 128.758 283.072 129.355 283.072ZM136.069 281.808C135.792 281.808 135.557 281.712 135.365 281.52C135.173 281.328 135.077 281.093 135.077 280.816C135.077 280.539 135.173 280.304 135.365 280.112C135.557 279.92 135.792 279.824 136.069 279.824C136.336 279.824 136.56 279.92 136.741 280.112C136.933 280.304 137.029 280.539 137.029 280.816C137.029 281.093 136.933 281.328 136.741 281.52C136.56 281.712 136.336 281.808 136.069 281.808ZM136.773 283.232V292H135.317V283.232H136.773ZM151.297 283.232V292H149.841V290.704C149.563 291.152 149.174 291.504 148.673 291.76C148.182 292.005 147.638 292.128 147.041 292.128C146.358 292.128 145.745 291.989 145.201 291.712C144.657 291.424 144.225 290.997 143.905 290.432C143.595 289.867 143.441 289.179 143.441 288.368V283.232H144.881V288.176C144.881 289.04 145.099 289.707 145.537 290.176C145.974 290.635 146.571 290.864 147.329 290.864C148.107 290.864 148.721 290.624 149.169 290.144C149.617 289.664 149.841 288.965 149.841 288.048V283.232H151.297ZM158.027 283.072C159.094 283.072 159.958 283.397 160.619 284.048C161.28 284.688 161.611 285.616 161.611 286.832V292H160.171V287.04C160.171 286.165 159.952 285.499 159.515 285.04C159.078 284.571 158.48 284.336 157.723 284.336C156.955 284.336 156.342 284.576 155.883 285.056C155.435 285.536 155.211 286.235 155.211 287.152V292H153.755V283.232H155.211V284.48C155.499 284.032 155.888 283.685 156.379 283.44C156.88 283.195 157.43 283.072 158.027 283.072ZM165.765 284.432V289.6C165.765 290.027 165.856 290.331 166.037 290.512C166.219 290.683 166.533 290.768 166.981 290.768H168.053V292H166.741C165.931 292 165.323 291.813 164.917 291.44C164.512 291.067 164.309 290.453 164.309 289.6V284.432H163.173V283.232H164.309V281.024H165.765V283.232H168.053V284.432H165.765ZM177.593 283.232V292H176.137V290.704C175.86 291.152 175.471 291.504 174.969 291.76C174.479 292.005 173.935 292.128 173.337 292.128C172.655 292.128 172.041 291.989 171.497 291.712C170.953 291.424 170.521 290.997 170.201 290.432C169.892 289.867 169.737 289.179 169.737 288.368V283.232H171.177V288.176C171.177 289.04 171.396 289.707 171.833 290.176C172.271 290.635 172.868 290.864 173.625 290.864C174.404 290.864 175.017 290.624 175.465 290.144C175.913 289.664 176.137 288.965 176.137 288.048V283.232H177.593ZM184.948 292L181.508 288.128V292H180.052V280.16H181.508V287.12L184.884 283.232H186.916L182.788 287.6L186.932 292H184.948ZM194.008 284.864C194.306 284.341 194.744 283.915 195.32 283.584C195.896 283.253 196.552 283.088 197.288 283.088C198.077 283.088 198.786 283.275 199.416 283.648C200.045 284.021 200.541 284.549 200.904 285.232C201.266 285.904 201.448 286.688 201.448 287.584C201.448 288.469 201.266 289.259 200.904 289.952C200.541 290.645 200.04 291.184 199.4 291.568C198.77 291.952 198.066 292.144 197.288 292.144C196.53 292.144 195.864 291.979 195.288 291.648C194.722 291.317 194.296 290.896 194.008 290.384V292H192.552V280.16H194.008V284.864ZM199.96 287.584C199.96 286.923 199.826 286.347 199.56 285.856C199.293 285.365 198.93 284.992 198.472 284.736C198.024 284.48 197.528 284.352 196.984 284.352C196.45 284.352 195.954 284.485 195.496 284.752C195.048 285.008 194.685 285.387 194.408 285.888C194.141 286.379 194.008 286.949 194.008 287.6C194.008 288.261 194.141 288.843 194.408 289.344C194.685 289.835 195.048 290.213 195.496 290.48C195.954 290.736 196.45 290.864 196.984 290.864C197.528 290.864 198.024 290.736 198.472 290.48C198.93 290.213 199.293 289.835 199.56 289.344C199.826 288.843 199.96 288.256 199.96 287.584ZM211.364 287.28C211.364 287.557 211.348 287.851 211.316 288.16H204.308C204.362 289.024 204.655 289.701 205.188 290.192C205.732 290.672 206.388 290.912 207.156 290.912C207.786 290.912 208.308 290.768 208.724 290.48C209.151 290.181 209.45 289.787 209.62 289.296H211.188C210.954 290.139 210.484 290.827 209.78 291.36C209.076 291.883 208.202 292.144 207.156 292.144C206.324 292.144 205.578 291.957 204.916 291.584C204.266 291.211 203.754 290.683 203.38 290C203.007 289.307 202.82 288.507 202.82 287.6C202.82 286.693 203.002 285.899 203.364 285.216C203.727 284.533 204.234 284.011 204.884 283.648C205.546 283.275 206.303 283.088 207.156 283.088C207.988 283.088 208.724 283.269 209.364 283.632C210.004 283.995 210.495 284.496 210.836 285.136C211.188 285.765 211.364 286.48 211.364 287.28ZM209.86 286.976C209.86 286.421 209.738 285.947 209.492 285.552C209.247 285.147 208.911 284.843 208.484 284.64C208.068 284.427 207.604 284.32 207.092 284.32C206.356 284.32 205.727 284.555 205.204 285.024C204.692 285.493 204.399 286.144 204.324 286.976H209.86ZM214.742 284.656C214.998 284.155 215.361 283.765 215.83 283.488C216.31 283.211 216.892 283.072 217.574 283.072V284.576H217.19C215.558 284.576 214.742 285.461 214.742 287.232V292H213.286V283.232H214.742V284.656ZM222.871 283.088C223.628 283.088 224.29 283.253 224.855 283.584C225.431 283.915 225.858 284.331 226.135 284.832V283.232H227.607V292.192C227.607 292.992 227.436 293.701 227.095 294.32C226.754 294.949 226.263 295.44 225.623 295.792C224.994 296.144 224.258 296.32 223.415 296.32C222.263 296.32 221.303 296.048 220.535 295.504C219.767 294.96 219.314 294.219 219.175 293.28H220.615C220.775 293.813 221.106 294.24 221.607 294.56C222.108 294.891 222.711 295.056 223.415 295.056C224.215 295.056 224.866 294.805 225.367 294.304C225.879 293.803 226.135 293.099 226.135 292.192V290.352C225.847 290.864 225.42 291.291 224.855 291.632C224.29 291.973 223.628 292.144 222.871 292.144C222.092 292.144 221.383 291.952 220.743 291.568C220.114 291.184 219.618 290.645 219.255 289.952C218.892 289.259 218.711 288.469 218.711 287.584C218.711 286.688 218.892 285.904 219.255 285.232C219.618 284.549 220.114 284.021 220.743 283.648C221.383 283.275 222.092 283.088 222.871 283.088ZM226.135 287.6C226.135 286.939 226.002 286.363 225.735 285.872C225.468 285.381 225.106 285.008 224.647 284.752C224.199 284.485 223.703 284.352 223.159 284.352C222.615 284.352 222.119 284.48 221.671 284.736C221.223 284.992 220.866 285.365 220.599 285.856C220.332 286.347 220.199 286.923 220.199 287.584C220.199 288.256 220.332 288.843 220.599 289.344C220.866 289.835 221.223 290.213 221.671 290.48C222.119 290.736 222.615 290.864 223.159 290.864C223.703 290.864 224.199 290.736 224.647 290.48C225.106 290.213 225.468 289.835 225.735 289.344C226.002 288.843 226.135 288.261 226.135 287.6ZM229.523 287.584C229.523 286.688 229.705 285.904 230.067 285.232C230.43 284.549 230.926 284.021 231.555 283.648C232.195 283.275 232.905 283.088 233.683 283.088C234.451 283.088 235.118 283.253 235.683 283.584C236.249 283.915 236.67 284.331 236.947 284.832V283.232H238.419V292H236.947V290.368C236.659 290.88 236.227 291.307 235.651 291.648C235.086 291.979 234.425 292.144 233.667 292.144C232.889 292.144 232.185 291.952 231.555 291.568C230.926 291.184 230.43 290.645 230.067 289.952C229.705 289.259 229.523 288.469 229.523 287.584ZM236.947 287.6C236.947 286.939 236.814 286.363 236.547 285.872C236.281 285.381 235.918 285.008 235.459 284.752C235.011 284.485 234.515 284.352 233.971 284.352C233.427 284.352 232.931 284.48 232.483 284.736C232.035 284.992 231.678 285.365 231.411 285.856C231.145 286.347 231.011 286.923 231.011 287.584C231.011 288.256 231.145 288.843 231.411 289.344C231.678 289.835 232.035 290.213 232.483 290.48C232.931 290.736 233.427 290.864 233.971 290.864C234.515 290.864 235.011 290.736 235.459 290.48C235.918 290.213 236.281 289.835 236.547 289.344C236.814 288.843 236.947 288.261 236.947 287.6ZM242.336 284.864C242.635 284.341 243.072 283.915 243.648 283.584C244.224 283.253 244.88 283.088 245.616 283.088C246.405 283.088 247.115 283.275 247.744 283.648C248.373 284.021 248.869 284.549 249.232 285.232C249.595 285.904 249.776 286.688 249.776 287.584C249.776 288.469 249.595 289.259 249.232 289.952C248.869 290.645 248.368 291.184 247.728 291.568C247.099 291.952 246.395 292.144 245.616 292.144C244.859 292.144 244.192 291.979 243.616 291.648C243.051 291.317 242.624 290.896 242.336 290.384V292H240.88V280.16H242.336V284.864ZM248.288 287.584C248.288 286.923 248.155 286.347 247.888 285.856C247.621 285.365 247.259 284.992 246.8 284.736C246.352 284.48 245.856 284.352 245.312 284.352C244.779 284.352 244.283 284.485 243.824 284.752C243.376 285.008 243.013 285.387 242.736 285.888C242.469 286.379 242.336 286.949 242.336 287.6C242.336 288.261 242.469 288.843 242.736 289.344C243.013 289.835 243.376 290.213 243.824 290.48C244.283 290.736 244.779 290.864 245.312 290.864C245.856 290.864 246.352 290.736 246.8 290.48C247.259 290.213 247.621 289.835 247.888 289.344C248.155 288.843 248.288 288.256 248.288 287.584ZM259.468 283.232V292H258.012V290.704C257.735 291.152 257.346 291.504 256.844 291.76C256.354 292.005 255.81 292.128 255.212 292.128C254.53 292.128 253.916 291.989 253.372 291.712C252.828 291.424 252.396 290.997 252.076 290.432C251.767 289.867 251.612 289.179 251.612 288.368V283.232H253.052V288.176C253.052 289.04 253.271 289.707 253.708 290.176C254.146 290.635 254.743 290.864 255.5 290.864C256.279 290.864 256.892 290.624 257.34 290.144C257.788 289.664 258.012 288.965 258.012 288.048V283.232H259.468ZM266.199 283.072C267.265 283.072 268.129 283.397 268.791 284.048C269.452 284.688 269.783 285.616 269.783 286.832V292H268.343V287.04C268.343 286.165 268.124 285.499 267.687 285.04C267.249 284.571 266.652 284.336 265.895 284.336C265.127 284.336 264.513 284.576 264.055 285.056C263.607 285.536 263.383 286.235 263.383 287.152V292H261.927V283.232H263.383V284.48C263.671 284.032 264.06 283.685 264.551 283.44C265.052 283.195 265.601 283.072 266.199 283.072ZM275.777 283.088C276.535 283.088 277.196 283.253 277.761 283.584C278.337 283.915 278.764 284.331 279.041 284.832V283.232H280.513V292.192C280.513 292.992 280.343 293.701 280.001 294.32C279.66 294.949 279.169 295.44 278.529 295.792C277.9 296.144 277.164 296.32 276.321 296.32C275.169 296.32 274.209 296.048 273.441 295.504C272.673 294.96 272.22 294.219 272.081 293.28H273.521C273.681 293.813 274.012 294.24 274.513 294.56C275.015 294.891 275.617 295.056 276.321 295.056C277.121 295.056 277.772 294.805 278.273 294.304C278.785 293.803 279.041 293.099 279.041 292.192V290.352C278.753 290.864 278.327 291.291 277.761 291.632C277.196 291.973 276.535 292.144 275.777 292.144C274.999 292.144 274.289 291.952 273.649 291.568C273.02 291.184 272.524 290.645 272.161 289.952C271.799 289.259 271.617 288.469 271.617 287.584C271.617 286.688 271.799 285.904 272.161 285.232C272.524 284.549 273.02 284.021 273.649 283.648C274.289 283.275 274.999 283.088 275.777 283.088ZM279.041 287.6C279.041 286.939 278.908 286.363 278.641 285.872C278.375 285.381 278.012 285.008 277.553 284.752C277.105 284.485 276.609 284.352 276.065 284.352C275.521 284.352 275.025 284.48 274.577 284.736C274.129 284.992 273.772 285.365 273.505 285.856C273.239 286.347 273.105 286.923 273.105 287.584C273.105 288.256 273.239 288.843 273.505 289.344C273.772 289.835 274.129 290.213 274.577 290.48C275.025 290.736 275.521 290.864 276.065 290.864C276.609 290.864 277.105 290.736 277.553 290.48C278.012 290.213 278.375 289.835 278.641 289.344C278.908 288.843 279.041 288.261 279.041 287.6Z" fill="#FBFBFB"/>
</g>
<defs>
<radialGradient id="paint0_radial" cx="0" cy="0" r="1" gradientUnits="userSpaceOnUse" gradientTransform="translate(552.85 36.9996) rotate(121.057) scale(525.301 816.805)">
<stop stop-color="#FF6341"/>
<stop offset="1" stop-color="#FFAC41"/>
</radialGradient>
<radialGradient id="paint1_radial" cx="0" cy="0" r="1" gradientUnits="userSpaceOnUse" gradientTransform="translate(552.85 36.9996) rotate(121.057) scale(525.301 816.806)">
<stop stop-color="#4E9FFF"/>
<stop offset="1" stop-color="#1F53D8"/>
</radialGradient>
<linearGradient id="paint2_linear" x1="360.851" y1="138" x2="520.851" y2="104" gradientUnits="userSpaceOnUse">
<stop stop-color="#9DD6FC" stop-opacity="0.5"/>
<stop offset="1" stop-color="#9DD6FC" stop-opacity="0"/>
</linearGradient>
</defs>
</svg>
