<svg width="30" height="31" viewBox="0 0 30 31" fill="none" xmlns="http://www.w3.org/2000/svg">
<ellipse opacity="0.75" cx="14.6549" cy="15.2295" rx="14.4695" ry="15" fill="#86BD2C"/>
<g clip-path="url(#clip0)">
<path d="M18.5715 12.4326C17.3485 12.4326 16.3535 13.4278 16.3535 14.6511C16.3535 14.8667 16.5284 15.0417 16.7441 15.0417C16.9599 15.0417 17.1348 14.8667 17.1348 14.6511C17.1348 13.8585 17.7793 13.2138 18.5715 13.2138C19.3639 13.2138 20.0085 13.8585 20.0085 14.6511C20.0085 14.8667 20.1833 15.0417 20.3991 15.0417C20.6147 15.0417 20.7897 14.8667 20.7897 14.6511C20.7897 13.4278 19.7947 12.4326 18.5715 12.4326Z" fill="white"/>
<path d="M10.7337 12.4326C9.51071 12.4326 8.51569 13.4278 8.51569 14.6511C8.51569 14.8667 8.69055 15.0417 8.90631 15.0417C9.12207 15.0417 9.29694 14.8667 9.29694 14.6511C9.29694 13.8585 9.94147 13.2138 10.7337 13.2138C11.5261 13.2138 12.1706 13.8585 12.1706 14.6511C12.1706 14.8667 12.3455 15.0417 12.5612 15.0417C12.777 15.0417 12.9519 14.8667 12.9519 14.6511C12.9517 13.4278 11.9568 12.4326 10.7337 12.4326Z" fill="white"/>
<path d="M18.3581 18.2452C18.2232 18.2452 18.0919 18.3153 18.0196 18.4404C17.3261 19.6396 16.036 20.3845 14.6526 20.3845C13.2694 20.3845 11.9793 19.6396 11.2858 18.4404C11.1777 18.2536 10.9388 18.1898 10.752 18.2979C10.5652 18.4058 10.5015 18.6447 10.6095 18.8315C11.4422 20.2713 12.9914 21.1658 14.6528 21.1658C16.314 21.1658 17.8632 20.2713 18.6959 18.8315C18.8039 18.6447 18.7401 18.4058 18.5534 18.2979C18.4917 18.2622 18.4244 18.2452 18.3581 18.2452Z" fill="white"/>
<path d="M14.6526 25.2295C11.9822 25.2295 9.4715 24.1893 7.58322 22.3006C5.69479 20.4118 4.65491 17.9005 4.65491 15.2295C4.65491 12.5584 5.69479 10.0473 7.58322 8.15842C9.4715 6.26968 11.9822 5.22949 14.6526 5.22949C16.6962 5.22949 18.6614 5.84213 20.3358 7.00104C20.5131 7.12387 20.5573 7.36725 20.4346 7.54456C20.3118 7.72202 20.0684 7.76627 19.8911 7.64343C18.348 6.57532 16.5366 6.01074 14.6526 6.01074C9.57068 6.01074 5.43616 10.1462 5.43616 15.2295C5.43616 20.3128 9.57068 24.4482 14.6526 24.4482C19.7347 24.4482 23.8692 20.3128 23.8692 15.2295C23.8692 13.382 23.3249 11.5997 22.2953 10.0754C22.1746 9.8967 22.2216 9.65378 22.4004 9.53308C22.5791 9.41223 22.8219 9.45938 22.9427 9.63806C24.06 11.2921 24.6505 13.2256 24.6505 15.2295C24.6505 17.9005 23.6106 20.4117 21.7222 22.3006C19.8339 24.1893 17.3232 25.2295 14.6526 25.2295Z" fill="white"/>
<path d="M21.485 8.86459C21.3213 8.86459 21.1732 8.75931 21.1176 8.60565C21.0631 8.45459 21.1097 8.28003 21.2324 8.17627C21.3605 8.06778 21.5485 8.05435 21.6912 8.14255C21.8278 8.22693 21.8996 8.39325 21.8679 8.55057C21.8316 8.73093 21.6692 8.86459 21.485 8.86459Z" fill="white"/>
</g>
<defs>
<clipPath id="clip0">
<rect x="4.65491" y="5.22949" width="20" height="20" fill="white"/>
</clipPath>
</defs>
</svg>
