<svg width="255" height="205" viewBox="0 0 255 205" fill="none" xmlns="http://www.w3.org/2000/svg">
<path d="M3.03031 181.291C10.2303 173.691 55.0303 172.791 76.5303 173.291C220.03 165.291 261.53 185.292 254.03 193.792C246.53 202.292 213.53 198.792 179.03 193.792C144.53 188.792 121.53 203.792 66.5303 204.292C11.5303 204.792 -5.96969 190.791 3.03031 181.291Z" fill="url(#paint0_linear)"/>
<path d="M20.7486 80.6809C-14.0514 118.281 6.24857 163.348 20.7486 181.181C241.249 220.181 264.749 134.681 228.249 130.681C191.749 126.681 111.249 -10.3191 75.2485 1.68091C39.2485 13.6809 64.2486 33.6809 20.7486 80.6809Z" fill="url(#paint1_linear)"/>
<circle cx="125.88" cy="102.481" r="69.7214" stroke="url(#paint2_linear)" stroke-width="15"/>
<path d="M81.8792 87.0786C81.6258 86.8089 80.8225 86.2217 79.466 85.2052L78.6664 85.8885C79.0692 86.2471 80.1747 87.6017 80.203 88.324C80.8447 88.2046 81.5132 87.6528 81.8792 87.0786Z" fill="#9A66A7"/>
<path d="M83.4371 76.2924C83.9079 75.2826 83.2878 74.5465 82.9189 74.3047C82.7785 74.8531 81.7343 75.1754 81.2229 75.2696C80.0694 75.4009 80.2586 76.9612 81.3963 76.4457C82.3064 76.0333 83.1361 76.1717 83.4371 76.2924Z" fill="#BA7BCA"/>
<path d="M63.2073 78.4642L61.9947 78.7684L62.2296 76.8717L63.2439 77.2825L63.2073 78.4642Z" fill="#90609C"/>
<ellipse rx="0.423788" ry="0.951916" transform="matrix(0.964398 0.159871 -0.152066 1.0105 62.0891 77.8202)" fill="#6D3584"/>
<path d="M68.3337 87.6973L68.1132 88.9851L66.5517 87.9991L67.3168 87.1884L68.3337 87.6973Z" fill="#90609C"/>
<ellipse rx="0.421442" ry="0.957138" transform="matrix(0.529026 -0.868058 0.816627 0.548238 67.3234 88.5139)" fill="#6D3584"/>
<path d="M74.6951 67.5901C73.982 66.7512 73.0985 67.0759 72.7459 67.343C73.1766 67.6866 73.0666 68.8231 72.9566 69.3556C72.6368 70.5262 74.0847 70.9317 74.0596 69.6313C74.0396 68.5911 74.4749 67.8371 74.6951 67.5901Z" fill="#9E69AC"/>
<path d="M64.2067 70.3244C64.4981 71.0327 65.7562 72.1484 66.3489 72.6177L65.6379 73.5177C65.2593 73.1627 63.6314 72.5665 62.8648 72.3127C62.4121 70.6109 63.5708 70.2781 64.2067 70.3244Z" fill="#9D68AA"/>
<path d="M79.1303 72.2985C82.6397 76.1502 82.5128 82.3738 78.7773 86.1231V86.1231C75.0418 89.8723 69.1687 89.7892 65.6593 85.9374L65.1604 85.39C61.801 81.7028 61.9764 75.8043 65.5523 72.2153L65.7204 72.0466C69.5226 68.2303 75.5581 68.3778 79.1303 72.2985V72.2985Z" fill="url(#paint3_radial)"/>
<path d="M74.5614 89.5926C74.5107 89.1309 73.6384 87.9378 73.059 85.8788L71.7939 85.9051C71.9251 86.5713 71.7131 88.8956 71.2203 89.6163C72.4348 90.7422 73.8885 90.0754 74.5614 89.5926Z" fill="#9C67A9"/>
<ellipse rx="0.591887" ry="1.72408" transform="matrix(0.0641365 1.01676 -0.978126 0.0679671 72.8716 89.6824)" fill="#6D3584"/>
<ellipse rx="0.588989" ry="1.73264" transform="matrix(-0.957112 -0.198619 0.189197 -1.00433 63.933 77.3484)" fill="#6D3584"/>
<ellipse rx="0.591278" ry="1.72589" transform="matrix(0.0043557 1.02002 -0.979232 0.00460627 72.5249 86.5813)" fill="#6D3584"/>
<ellipse rx="0.746792" ry="0.955165" transform="matrix(-0.907379 0.400206 -0.374647 -0.935717 65.4382 82.7762)" fill="#6D3584"/>
<ellipse rx="0.683258" ry="0.943029" transform="matrix(-0.334765 -0.952588 0.923109 -0.357359 70.9045 72.1176)" fill="#6D3584"/>
<ellipse rx="0.740162" ry="0.61263" transform="matrix(-0.534069 -0.845379 0.820844 -0.571247 70.3127 82.6874)" fill="#6D3584"/>
<ellipse rx="0.690549" ry="0.94583" transform="matrix(-0.844718 -0.500807 0.482478 -0.89647 77.7187 82.3385)" fill="#6D3584"/>
<path d="M81.1527 80.6283L82.3883 80.4539L81.9725 82.3161L81.0028 81.8001L81.1527 80.6283Z" fill="#B97AC9"/>
<ellipse rx="0.424596" ry="0.950102" transform="matrix(-0.942334 -0.260585 0.24881 -0.991153 82.2035 81.3876)" fill="#6D3584"/>
<ellipse rx="0.6831" ry="0.957102" transform="matrix(-0.968555 0.168362 -0.158399 -1.00381 79.4934 77.1303)" fill="#6D3584"/>
<ellipse rx="0.347285" ry="0.942689" transform="matrix(-0.672482 -0.729375 0.707304 -0.718378 66.6158 73.0412)" fill="#6D3584"/>
<ellipse rx="1.44781" ry="1.40586" transform="matrix(-0.534069 -0.845379 0.820844 -0.571247 69.2064 77.3953)" fill="#6D3584"/>
<ellipse rx="1.02957" ry="0.999742" transform="matrix(-0.534069 -0.845379 0.820844 -0.571247 74.908 79.0527)" fill="#6D3584"/>
<path d="M77.1611 70.0914C76.9938 70.3356 76.9162 71.3051 76.3392 72.555L76.9554 73.1207C77.169 72.7419 78.2348 71.7267 78.7696 71.6071C78.6556 70.5133 77.6834 70.1679 77.1611 70.0914Z" fill="#BA7BCA"/>
<ellipse rx="0.378164" ry="1.12936" transform="matrix(0.612212 -0.807312 0.757505 0.632796 78.0064 70.82)" fill="#6D3584"/>
<path d="M62.164 84.134L64.2266 82.9842L64.6105 83.8041L63.1411 85.6845C62.6702 85.4765 62.0475 84.4967 62.164 84.134Z" fill="#925F9F"/>
<path d="M69.1726 70.5698L68.7062 69.9093L70.4499 69.3892C70.4331 69.5932 70.3786 70.0389 70.2949 70.19C70.2111 70.341 69.5118 70.5061 69.1726 70.5698Z" fill="#A06AAD"/>
<ellipse rx="0.378729" ry="0.943158" transform="matrix(-0.320679 -0.958054 0.928156 -0.342231 69.5806 69.5868)" fill="#6D3584"/>
<ellipse rx="0.556692" ry="0.955005" transform="matrix(0.403849 -0.93666 0.885149 0.420408 76.2298 72.2892)" fill="#6D3584"/>
<path d="M151.099 154.137C150.89 153.914 150.225 153.428 149.103 152.587L148.442 153.152C148.775 153.449 149.689 154.569 149.713 155.167C150.244 155.068 150.797 154.612 151.099 154.137Z" fill="#9A66A7"/>
<path d="M152.388 145.215C152.777 144.379 152.264 143.77 151.959 143.57C151.843 144.024 150.979 144.291 150.556 144.369C149.602 144.477 149.759 145.768 150.7 145.341C151.453 145 152.139 145.115 152.388 145.215Z" fill="#BA7BCA"/>
<path d="M135.655 147.011L134.652 147.263L134.846 145.694L135.685 146.034L135.655 147.011Z" fill="#90609C"/>
<ellipse rx="0.350544" ry="0.787395" transform="matrix(0.964398 0.159871 -0.152066 1.0105 134.73 146.478)" fill="#6D3584"/>
<path d="M139.895 154.648L139.713 155.713L138.421 154.898L139.054 154.227L139.895 154.648Z" fill="#90609C"/>
<ellipse rx="0.348604" ry="0.791715" transform="matrix(0.529026 -0.868058 0.816627 0.548238 139.059 155.324)" fill="#6D3584"/>
<path d="M145.157 138.016C144.567 137.322 143.836 137.591 143.544 137.812C143.901 138.096 143.81 139.036 143.719 139.477C143.454 140.445 144.652 140.78 144.631 139.705C144.615 138.844 144.975 138.221 145.157 138.016Z" fill="#9E69AC"/>
<path d="M136.481 140.278C136.722 140.864 137.763 141.787 138.253 142.175L137.665 142.92C137.352 142.626 136.005 142.133 135.371 141.923C134.997 140.515 135.955 140.24 136.481 140.278Z" fill="#9D68AA"/>
<path d="M148.826 141.911C151.729 145.097 151.624 150.245 148.534 153.346V153.346C145.444 156.448 140.586 156.379 137.683 153.193L137.27 152.74C134.491 149.69 134.637 144.811 137.594 141.842L137.733 141.703C140.879 138.546 145.871 138.668 148.826 141.911V141.911Z" fill="url(#paint4_radial)"/>
<path d="M145.046 156.216C145.004 155.834 144.283 154.847 143.804 153.144L142.757 153.166C142.866 153.717 142.69 155.639 142.283 156.236C143.287 157.167 144.49 156.615 145.046 156.216Z" fill="#9C67A9"/>
<ellipse rx="0.48959" ry="1.42611" transform="matrix(0.0641365 1.01676 -0.978126 0.0679671 143.649 156.291)" fill="#6D3584"/>
<ellipse rx="0.487194" ry="1.43319" transform="matrix(-0.957112 -0.198619 0.189197 -1.00433 136.255 146.088)" fill="#6D3584"/>
<ellipse rx="0.489087" ry="1.4276" transform="matrix(0.0043557 1.02002 -0.979232 0.00460627 143.362 153.725)" fill="#6D3584"/>
<ellipse rx="0.617723" ry="0.790082" transform="matrix(-0.907379 0.400206 -0.374647 -0.935717 137.5 150.578)" fill="#6D3584"/>
<ellipse rx="0.56517" ry="0.780044" transform="matrix(-0.334765 -0.952588 0.923109 -0.357359 142.022 141.761)" fill="#6D3584"/>
<ellipse rx="0.612239" ry="0.506748" transform="matrix(-0.534069 -0.845379 0.820844 -0.571247 141.532 150.504)" fill="#6D3584"/>
<ellipse rx="0.5712" ry="0.782361" transform="matrix(-0.844718 -0.500807 0.482478 -0.89647 147.658 150.216)" fill="#6D3584"/>
<path d="M150.498 148.801L151.52 148.657L151.176 150.197L150.374 149.77L150.498 148.801Z" fill="#B97AC9"/>
<ellipse rx="0.351213" ry="0.785895" transform="matrix(-0.942334 -0.260585 0.24881 -0.991153 151.368 149.429)" fill="#6D3584"/>
<ellipse rx="0.565039" ry="0.791685" transform="matrix(-0.968555 0.168362 -0.158399 -1.00381 149.126 145.908)" fill="#6D3584"/>
<ellipse rx="0.287263" ry="0.779763" transform="matrix(-0.672482 -0.729375 0.707304 -0.718378 138.474 142.525)" fill="#6D3584"/>
<ellipse rx="1.19758" ry="1.16288" transform="matrix(-0.534069 -0.845379 0.820844 -0.571247 140.617 146.127)" fill="#6D3584"/>
<ellipse rx="0.851629" ry="0.826955" transform="matrix(-0.534069 -0.845379 0.820844 -0.571247 145.333 147.498)" fill="#6D3584"/>
<path d="M147.197 140.085C147.059 140.287 146.994 141.089 146.517 142.123L147.027 142.591C147.203 142.278 148.085 141.438 148.527 141.339C148.433 140.434 147.629 140.149 147.197 140.085Z" fill="#BA7BCA"/>
<ellipse rx="0.312805" ry="0.93417" transform="matrix(0.612212 -0.807312 0.757505 0.632796 147.896 140.688)" fill="#6D3584"/>
<path d="M134.792 151.701L136.498 150.75L136.815 151.428L135.6 152.984C135.21 152.812 134.695 152.001 134.792 151.701Z" fill="#925F9F"/>
<path d="M140.589 140.481L140.203 139.935L141.645 139.505C141.632 139.673 141.586 140.042 141.517 140.167C141.448 140.292 140.869 140.428 140.589 140.481Z" fill="#A06AAD"/>
<ellipse rx="0.313273" ry="0.780151" transform="matrix(-0.320679 -0.958054 0.928156 -0.342231 140.926 139.668)" fill="#6D3584"/>
<ellipse rx="0.460478" ry="0.78995" transform="matrix(0.403849 -0.93666 0.885149 0.420408 146.426 141.903)" fill="#6D3584"/>
<path d="M117.092 60.269C115.626 59.4498 112.752 56.988 112.986 53.6948" stroke="black" stroke-linecap="round" stroke-linejoin="round"/>
<path d="M121.554 57.5171C120.183 56.5473 117.585 53.7953 118.167 50.5454" stroke="black" stroke-linecap="round" stroke-linejoin="round"/>
<path d="M125.83 55.725C124.723 54.4616 122.841 51.1788 124.166 48.1548" stroke="black" stroke-linecap="round" stroke-linejoin="round"/>
<path d="M130.848 69.7803C135.987 69.7484 142.726 63.7114 144.874 61.6547C145.265 61.2803 145.265 60.6749 144.874 60.3006C142.726 58.2438 135.987 52.2069 130.848 52.1749C125.652 52.1426 118.819 58.2301 116.647 60.2991C116.254 60.6738 116.254 61.2815 116.647 61.6561C118.819 63.7251 125.652 69.8126 130.848 69.7803Z" fill="white"/>
<path fill-rule="evenodd" clip-rule="evenodd" d="M135.4 60.9224C135.421 56.5842 133.266 53.0373 130.709 53.0421C128.309 53.0467 126.374 56.1607 126.156 60.1735L129.644 61.4222L126.52 62.706C126.747 66.7517 128.411 68.8531 130.833 68.8339C133.396 68.8136 135.447 65.2718 135.4 60.9224Z" fill="#59282C"/>
<path d="M140.238 94.9319L149.614 90.3668C151.587 89.4058 153.787 90.1681 155.8 91.0443C156.658 91.4179 157.464 91.4136 158.32 91.0344C160.314 90.1505 162.496 89.3884 164.464 90.3275L174.087 94.9172C174.603 95.1633 174.804 95.7821 174.488 96.2588C172.782 98.8356 167.058 106.125 156.904 106.125C146.719 106.125 141.377 98.7908 139.826 96.2352C139.539 95.7633 139.742 95.1736 140.238 94.9319Z" fill="#FFA5A5"/>
<rect x="145.562" y="72.8447" width="23.25" height="9.86364" rx="4" fill="#FEA5AC"/>
<path d="M151.875 57.6514C151.875 57.6514 154.934 55.4014 157.188 55.4014C159.441 55.4014 162.5 57.6514 162.5 57.6514L165.316 81.0036C165.425 81.9019 164.917 82.7596 164.061 83.0537C162.337 83.6462 159.402 84.5264 157.188 84.5264C154.973 84.5264 152.038 83.6462 150.314 83.0537C149.458 82.7596 148.95 81.9019 149.059 81.0036L151.875 57.6514Z" fill="#FEB5BB"/>
<mask id="mask0" mask-type="alpha" maskUnits="userSpaceOnUse" x="139" y="89" width="36" height="18">
<path d="M140.238 94.9319L149.614 90.3668C151.587 89.4058 153.787 90.1681 155.8 91.0443C156.658 91.4179 157.464 91.4136 158.32 91.0344C160.314 90.1505 162.496 89.3884 164.464 90.3275L174.087 94.9172C174.603 95.1633 174.804 95.7821 174.488 96.2588C172.782 98.8356 167.058 106.125 156.904 106.125C146.719 106.125 141.377 98.7908 139.826 96.2352C139.539 95.7633 139.742 95.1736 140.238 94.9319Z" fill="#FFA5A5"/>
</mask>
<g mask="url(#mask0)">
<path d="M153.312 96.4375C151.413 97.2875 139.938 96.4375 139.938 96.4375C140.875 100.167 145.625 107.675 157.125 107.875C168.625 108.075 173.375 100.333 174.312 96.4375C174.312 96.4375 163.656 97.3125 160.938 96.4375C160.938 96.4375 158.684 97.625 157.125 97.625C155.566 97.625 153.312 96.4375 153.312 96.4375Z" fill="#F88686"/>
</g>
<path d="M88.399 93.3252C84.7839 93.3252 80.1404 96.13 78.2705 97.5324L108.656 110.777L115.824 102.207C108.188 99.2464 92.014 93.3252 88.399 93.3252Z" fill="url(#paint5_linear)"/>
<path d="M63.4209 124.957C60.1798 130.941 59.8889 136.488 60.1486 138.514C61.14 146.248 72.7703 154.408 80.7173 157.057C83.2624 156.381 88.7577 154.938 90.3783 154.564C92.404 154.096 107.675 147.24 111.882 144.123C115.248 141.63 129.905 136.956 136.813 134.93C135.411 122.932 113.128 129.788 113.128 127.918C113.128 126.422 115.414 121.581 116.556 119.348C121.335 112.492 132.076 96.9716 136.813 89.7414C141.55 82.5113 135.671 80.496 132.139 80.3921L113.128 102.675C107.721 111.089 97.9042 103.765 92.2946 101.116C86.685 98.4675 80.7173 95.6627 78.4262 97.5326C74.3912 100.826 67.4723 117.478 63.4209 124.957Z" fill="url(#paint6_linear)"/>
<path d="M41.9985 161.575L64.8214 131.853L89.2365 146.183L72.2521 177.498L64.035 176.352C54.8127 175.065 46.6904 169.619 41.9985 161.575Z" fill="#FEB5BB"/>
<path d="M134.187 132.375L135 135.5C134.6 136.4 130.083 137.417 127.875 137.813C127.325 133.363 131.854 132.334 134.187 132.375Z" fill="#FFD5BF"/>
<path d="M135.875 83.625L131.375 81.25C129.125 83.1667 125.45 87.375 128.75 88.875C132.05 90.375 134.875 86 135.875 83.625Z" fill="#FFD5BF"/>
<path d="M76.2954 48.6836L176.765 149.153" stroke="#FF3476" stroke-width="15"/>
<defs>
<linearGradient id="paint0_linear" x1="127.829" y1="153.275" x2="127.829" y2="204.305" gradientUnits="userSpaceOnUse">
<stop stop-color="#9AA1EC"/>
<stop offset="1" stop-color="#9AA1EC" stop-opacity="0"/>
</linearGradient>
<linearGradient id="paint1_linear" x1="121.9" y1="0.936523" x2="121.9" y2="191.347" gradientUnits="userSpaceOnUse">
<stop stop-color="#EFF0F9"/>
<stop offset="1" stop-color="#EFF0F9" stop-opacity="0"/>
</linearGradient>
<linearGradient id="paint2_linear" x1="192.499" y1="58.4981" x2="68.9985" y2="157.998" gradientUnits="userSpaceOnUse">
<stop stop-color="#FF75A1"/>
<stop offset="0.528069" stop-color="#FF3274"/>
</linearGradient>
<radialGradient id="paint3_radial" cx="0" cy="0" r="1" gradientUnits="userSpaceOnUse" gradientTransform="translate(80.9905 72.8466) rotate(149.443) scale(20.5936 21.0991)">
<stop stop-color="#C17FD1"/>
<stop offset="1" stop-color="#90609C"/>
</radialGradient>
<radialGradient id="paint4_radial" cx="0" cy="0" r="1" gradientUnits="userSpaceOnUse" gradientTransform="translate(150.364 142.364) rotate(149.443) scale(17.0344 17.4525)">
<stop stop-color="#C17FD1"/>
<stop offset="1" stop-color="#90609C"/>
</radialGradient>
<linearGradient id="paint5_linear" x1="92.6062" y1="100.571" x2="122.368" y2="102.986" gradientUnits="userSpaceOnUse">
<stop stop-color="#FEB5BB"/>
<stop offset="1" stop-color="#FEA5AC"/>
</linearGradient>
<linearGradient id="paint6_linear" x1="137.25" y1="80.3921" x2="81.375" y2="151.5" gradientUnits="userSpaceOnUse">
<stop offset="0.0947951" stop-color="#FEB5BB"/>
<stop offset="0.163578" stop-color="#FFA0A8"/>
<stop offset="0.31442" stop-color="#FFA4AB"/>
<stop offset="0.395833" stop-color="#FEB5BB"/>
</linearGradient>
</defs>
</svg>
