<svg width="335" height="150" viewBox="0 0 335 150" fill="none" xmlns="http://www.w3.org/2000/svg">
<mask id="mask0" mask-type="alpha" maskUnits="userSpaceOnUse" x="0" y="0" width="335" height="150">
<rect x="0.737305" y="0.227539" width="333.472" height="149.48" fill="#FFE8DC"/>
</mask>
<g mask="url(#mask0)">
<rect x="-18.6924" y="-0.257812" width="371.583" height="149.48" fill="url(#paint0_radial)"/>
<path d="M187.676 105.835L189.351 109.24C189.351 109.24 193.707 108.267 194.861 110.21C196.095 112.286 194.663 114.728 192.702 116.049C190.82 117.318 188.134 117.878 186.977 115.868C186.172 114.47 187.3 111.697 187.3 111.697L183.079 108.98" stroke="#FFC4A6"/>
<path d="M72.0336 114.699C71 103.004 80.2153 92.9385 91.9559 92.9385H119.445C131.186 92.9385 140.401 103.004 139.367 114.699L137.308 138.004C136.395 148.327 127.749 156.243 117.385 156.243H94.0156C83.6523 156.243 75.0057 148.327 74.0933 138.004L72.0336 114.699Z" fill="url(#paint1_linear)"/>
<ellipse cx="77.6377" cy="150.321" rx="15.7598" ry="16.5409" fill="#FCD4BF"/>
<ellipse cx="136.007" cy="151.954" rx="15.7598" ry="16.5409" fill="#FCD4BF"/>
<path d="M180.785 152.539L178.58 145.65H170.864L173.069 152.539H180.785Z" fill="#FFBFC5"/>
<path d="M181.853 109.57C180.764 104.342 175.822 101.129 173.487 100.176V149.89L181.853 148.574L179.324 137.342C180.621 130.263 182.943 114.798 181.853 109.57Z" fill="url(#paint2_linear)"/>
<path d="M141.039 102.761C144.463 98.8406 156.474 96.4991 162.052 95.8184L175.574 102.761L173.531 154.161H138.388C137.656 153.009 136.998 145.114 136.791 136.909C133.686 137.493 131.308 137.298 130.338 135.843C126.252 129.717 136.758 107.662 141.039 102.761Z" fill="url(#paint3_radial)"/>
<path d="M177.802 118.751C177.883 118.205 177.507 117.696 176.961 117.614C176.415 117.532 175.906 117.909 175.824 118.455L177.802 118.751ZM172.755 147.286C172.84 147.832 173.351 148.206 173.897 148.121C174.443 148.037 174.816 147.526 174.732 146.98L172.755 147.286ZM175.824 118.455C175.209 122.557 174.317 128.909 173.641 134.635C173.302 137.497 173.017 140.212 172.846 142.414C172.68 144.568 172.611 146.358 172.755 147.286L174.732 146.98C174.63 146.325 174.669 144.781 174.84 142.569C175.008 140.405 175.29 137.721 175.627 134.87C176.3 129.17 177.189 122.84 177.802 118.751L175.824 118.455Z" fill="#B5545C"/>
<path fill-rule="evenodd" clip-rule="evenodd" d="M153.461 82.0592C153.669 79.9109 154.48 77.8755 155.791 76.2104C157.103 74.5454 158.857 73.3255 160.831 72.7051C162.805 72.0847 164.91 72.0916 166.881 72.7249C168.852 73.3582 170.599 74.5896 171.902 76.2632C173.205 77.9368 174.005 79.9774 174.201 82.127C174.397 84.2767 173.981 86.4387 173.004 88.3397C172.027 90.2406 170.533 91.7951 168.713 92.8066C166.892 93.818 164.826 94.2409 162.775 94.0219C161.414 93.8771 160.093 93.4528 158.889 92.7733C157.684 92.0937 156.618 91.1721 155.753 90.0612C154.889 88.9503 154.241 87.6718 153.848 86.2988C153.454 84.9258 153.323 83.4851 153.461 82.0592Z" fill="#6A3416"/>
<path d="M159.085 98.3713L162.126 94.8794L171.859 100.491L166.385 105.355C160.91 104.457 159.237 100.325 159.085 98.3713Z" fill="#FFA7AF"/>
<path fill-rule="evenodd" clip-rule="evenodd" d="M158.442 86.9147C158.756 83.6527 159.986 80.5618 161.977 78.033C163.968 75.5042 166.631 73.6511 169.628 72.7082C172.625 71.7653 175.822 71.7748 178.814 72.7357C181.807 73.6965 184.46 75.5654 186.439 78.1061C188.418 80.6468 189.634 83.745 189.932 87.0089C190.231 90.2728 189.599 93.5558 188.116 96.4425C186.633 99.3292 184.366 101.69 181.602 103.226C178.838 104.763 175.7 105.405 172.587 105.073C168.414 104.628 164.58 102.465 161.927 99.0603C159.275 95.6553 158.021 91.2866 158.442 86.9147Z" fill="url(#paint4_radial)"/>
<ellipse rx="1.12343" ry="1.87164" transform="matrix(0.926695 0.382751 -0.350222 0.934072 186.541 92.7017)" fill="#B5545C"/>
<path d="M177.289 102.771C177.686 101.414 178.959 99.1075 180.869 100.736C180.17 101.569 178.475 103.142 177.289 102.771Z" fill="#B5545C"/>
<path d="M176.903 77.6436C173.012 80.9109 168.277 80.979 166.397 80.6046L156.259 75.3765C155.723 66.5054 158.472 57.8796 166.397 56.2262C186.982 51.9312 185.756 64.4722 190.231 65.6974C194.706 66.9227 209.006 75.7036 197.722 85.0972C188.694 92.612 180.081 83.2593 176.903 77.6436Z" fill="url(#paint5_linear)"/>
<path d="M175.072 80.5537C177.017 81.0983 181.142 82.024 182.076 81.3705" stroke="#4A230D" stroke-width="3" stroke-linecap="round" stroke-linejoin="round"/>
<path d="M189.08 86.4761C188.95 87.4291 188.866 89.5188 189.567 90.254" stroke="#4A230D" stroke-width="3" stroke-linecap="round" stroke-linejoin="round"/>
<path fill-rule="evenodd" clip-rule="evenodd" d="M155.233 76.4805C155.358 75.2188 155.837 74.0243 156.61 73.0478C157.382 72.0714 158.414 71.3568 159.574 70.9944C160.734 70.632 161.971 70.6381 163.128 71.0118C164.286 71.3855 165.311 72.1101 166.076 73.0941C166.84 74.0781 167.31 75.2772 167.424 76.5401C167.538 77.803 167.293 79.073 166.719 80.1896C166.145 81.3062 165.267 82.2193 164.198 82.8137C163.128 83.408 161.915 83.6568 160.71 83.5287C159.908 83.4435 159.131 83.1934 158.421 82.7929C157.712 82.3923 157.085 81.8491 156.576 81.1944C156.068 80.5397 155.687 79.7864 155.457 78.9775C155.226 78.1686 155.15 77.3201 155.233 76.4805Z" fill="url(#paint6_linear)"/>
<path d="M182.014 91.2971C181.386 92.6095 180.591 95.8004 181.104 97.5272" stroke="#B5545C" stroke-width="2" stroke-linecap="round" stroke-linejoin="round"/>
<path d="M159.78 80.8508C159.156 80.5997 158.611 80.1708 158.207 79.6124C157.803 79.0539 157.556 78.3883 157.494 77.6908C157.432 76.9932 157.557 76.2914 157.856 75.6647C158.155 75.038 158.615 74.5113 159.184 74.1442C159.754 73.7771 160.41 73.5842 161.078 73.5872C161.747 73.5903 162.402 73.7892 162.968 74.1614C163.535 74.5337 163.991 75.0646 164.285 75.694C164.579 76.3234 164.699 77.0263 164.632 77.7233" stroke="#B5545C" stroke-width="2" stroke-linecap="round" stroke-linejoin="round"/>
<path d="M176.972 90.2538C177.398 89.0401 177.227 86.2177 173.137 84.6372" stroke="#B5545C" stroke-width="2" stroke-linecap="round" stroke-linejoin="round"/>
<path d="M159.031 124.83L155.819 119.467L161.735 117.733L163.489 123.261L159.031 124.83Z" fill="#FFBFC5"/>
<path d="M175.665 122.022C175.665 122.974 166.987 122.445 165.269 124.298C162.174 124.894 154.952 122.14 161.495 117.445C174.698 107.969 175.665 120.222 175.665 122.022Z" fill="#FFBFC5"/>
<path d="M165.392 117.446C163.755 116.868 160.275 116.267 159.442 118.482C158.609 120.697 163.061 118.714 165.392 117.446Z" fill="#FFBFC5"/>
<path d="M155.33 119.877L139.083 122.532" stroke="#B5545C" stroke-width="2" stroke-linecap="round" stroke-linejoin="round"/>
<path d="M158.36 130.427C151.316 132.881 136.473 137.569 133.457 136.685" stroke="#B5545C" stroke-width="2" stroke-linecap="round" stroke-linejoin="round"/>
<rect x="203.162" y="54.5474" width="56.4238" height="5.30941" fill="url(#paint7_linear)"/>
<rect x="210.361" y="59.8569" width="5.71783" height="5.05869" transform="rotate(90 210.361 59.8569)" fill="url(#paint8_linear)"/>
<rect x="257.64" y="59.8569" width="5.71783" height="5.05869" transform="rotate(90 257.64 59.8569)" fill="url(#paint9_linear)"/>
<rect x="207.832" y="27.5918" width="7.39347" height="26.9555" fill="#FCD4BF"/>
<rect x="255.111" y="46.7876" width="7.75991" height="25.6826" transform="rotate(90 255.111 46.7876)" fill="#FCD4BF"/>
<rect width="6.14115" height="39.4418" transform="matrix(0.977951 -0.208833 0.190307 0.981725 212.025 18.4814)" fill="#FCD4BF"/>
</g>
<defs>
<radialGradient id="paint0_radial" cx="0" cy="0" r="1" gradientUnits="userSpaceOnUse" gradientTransform="translate(169.731 96.1887) rotate(91.9274) scale(78.2473 90.1744)">
<stop stop-color="#FFEBE0"/>
<stop offset="1" stop-color="#FFE8DC"/>
</radialGradient>
<linearGradient id="paint1_linear" x1="107.671" y1="116.702" x2="107.671" y2="161.489" gradientUnits="userSpaceOnUse">
<stop stop-color="#FCD4BF"/>
<stop offset="1" stop-color="#FCD4BF" stop-opacity="0"/>
</linearGradient>
<linearGradient id="paint2_linear" x1="202.326" y1="111.75" x2="169.848" y2="134.255" gradientUnits="userSpaceOnUse">
<stop stop-color="#F2B3B3"/>
<stop offset="1" stop-color="#F98787"/>
</linearGradient>
<radialGradient id="paint3_radial" cx="0" cy="0" r="1" gradientUnits="userSpaceOnUse" gradientTransform="translate(171.599 121.25) rotate(120.137) scale(38.0554 30.8812)">
<stop stop-color="#F2B3B3"/>
<stop offset="0.678139" stop-color="#F98787"/>
<stop offset="1" stop-color="#F98787"/>
</radialGradient>
<radialGradient id="paint4_radial" cx="0" cy="0" r="1" gradientUnits="userSpaceOnUse" gradientTransform="translate(186.605 88.5832) rotate(180) scale(37.6347 39.5731)">
<stop stop-color="#FFBFC5"/>
<stop offset="0.59375" stop-color="#FDAEB5"/>
<stop offset="1" stop-color="#F98E97"/>
</radialGradient>
<linearGradient id="paint5_linear" x1="162.31" y1="78.7495" x2="211.756" y2="64.5703" gradientUnits="userSpaceOnUse">
<stop stop-color="#6A3416"/>
<stop offset="1" stop-color="#9E5F3C"/>
</linearGradient>
<linearGradient id="paint6_linear" x1="161.942" y1="70.7598" x2="170.656" y2="95.9992" gradientUnits="userSpaceOnUse">
<stop stop-color="#FFBFC5"/>
<stop offset="1" stop-color="#F98E97"/>
</linearGradient>
<linearGradient id="paint7_linear" x1="231.374" y1="54.5474" x2="231.374" y2="62.3073" gradientUnits="userSpaceOnUse">
<stop stop-color="#FCD4BF"/>
<stop offset="1" stop-color="#FCD4BF" stop-opacity="0"/>
</linearGradient>
<linearGradient id="paint8_linear" x1="209.136" y1="59.8569" x2="216.079" y2="59.8569" gradientUnits="userSpaceOnUse">
<stop stop-color="#FCD4BF"/>
<stop offset="1" stop-color="#FCD4BF" stop-opacity="0"/>
</linearGradient>
<linearGradient id="paint9_linear" x1="256.415" y1="59.8569" x2="263.358" y2="59.8569" gradientUnits="userSpaceOnUse">
<stop stop-color="#FCD4BF"/>
<stop offset="1" stop-color="#FCD4BF" stop-opacity="0"/>
</linearGradient>
</defs>
</svg>
