<svg width="30" height="31" viewBox="0 0 30 31" fill="none" xmlns="http://www.w3.org/2000/svg">
<ellipse opacity="0.75" cx="15.0451" cy="15.2295" rx="14.4695" ry="15" fill="#F8615A"/>
<g clip-path="url(#clip0)">
<path d="M18.9617 15.0417C17.7387 15.0417 16.7437 14.0465 16.7437 12.8232C16.7437 12.6076 16.9186 12.4326 17.1343 12.4326C17.3501 12.4326 17.525 12.6076 17.525 12.8232C17.525 13.6157 18.1695 14.2604 18.9617 14.2604C19.7541 14.2604 20.3987 13.6157 20.3987 12.8232C20.3987 12.6076 20.5735 12.4326 20.7893 12.4326C21.0049 12.4326 21.1799 12.6076 21.1799 12.8232C21.1799 14.0465 20.1849 15.0417 18.9617 15.0417Z" fill="white"/>
<path d="M11.1239 15.0417C9.90091 15.0417 8.90588 14.0465 8.90588 12.8232C8.90588 12.6076 9.08075 12.4326 9.29651 12.4326C9.51227 12.4326 9.68713 12.6076 9.68713 12.8232C9.68713 13.6157 10.3317 14.2604 11.1239 14.2604C11.9163 14.2604 12.5608 13.6157 12.5608 12.8232C12.5608 12.6076 12.7357 12.4326 12.9514 12.4326C13.1672 12.4326 13.3421 12.6076 13.3421 12.8232C13.3419 14.0465 12.347 15.0417 11.1239 15.0417Z" fill="white"/>
<path d="M18.7483 21.1658C18.6134 21.1658 18.4821 21.0957 18.4098 20.9706C17.7163 19.7714 16.4262 19.0265 15.0428 19.0265C13.6596 19.0265 12.3695 19.7714 11.676 20.9706C11.5679 21.1574 11.329 21.2212 11.1422 21.1131C10.9554 21.0052 10.8917 20.7663 10.9997 20.5795C11.8324 19.1397 13.3816 18.2452 15.043 18.2452C16.7042 18.2452 18.2534 19.1397 19.0861 20.5795C19.1941 20.7663 19.1303 21.0052 18.9436 21.1131C18.8819 21.1488 18.8146 21.1658 18.7483 21.1658Z" fill="white"/>
<path d="M15.0428 25.2295C12.3724 25.2295 9.86169 24.1893 7.97342 22.3006C6.08499 20.4118 5.0451 17.9005 5.0451 15.2295C5.0451 12.5584 6.08499 10.0473 7.97342 8.15842C9.86169 6.26968 12.3724 5.22949 15.0428 5.22949C17.0864 5.22949 19.0516 5.84213 20.726 7.00104C20.9033 7.12387 20.9475 7.36725 20.8248 7.54456C20.702 7.72202 20.4586 7.76627 20.2813 7.64343C18.7382 6.57532 16.9268 6.01074 15.0428 6.01074C9.96088 6.01074 5.82635 10.1462 5.82635 15.2295C5.82635 20.3128 9.96088 24.4482 15.0428 24.4482C20.1249 24.4482 24.2594 20.3128 24.2594 15.2295C24.2594 13.382 23.7151 11.5997 22.6855 10.0754C22.5648 9.8967 22.6118 9.65378 22.7906 9.53308C22.9693 9.41223 23.2121 9.45938 23.3329 9.63806C24.4502 11.2921 25.0407 13.2256 25.0407 15.2295C25.0407 17.9005 24.0008 20.4117 22.1124 22.3006C20.2241 24.1893 17.7134 25.2295 15.0428 25.2295Z" fill="white"/>
<path d="M21.8752 8.86459C21.7115 8.86459 21.5633 8.75931 21.5078 8.60565C21.4533 8.45459 21.4999 8.28003 21.6226 8.17627C21.7507 8.06778 21.9387 8.05435 22.0814 8.14255C22.2179 8.22693 22.2898 8.39325 22.2581 8.55057C22.2218 8.73093 22.0594 8.86459 21.8752 8.86459Z" fill="white"/>
</g>
<defs>
<clipPath id="clip0">
<rect x="5.0451" y="5.22949" width="20" height="20" fill="white"/>
</clipPath>
</defs>
</svg>
