<svg width="147" height="156" viewBox="0 0 147 156" fill="none" xmlns="http://www.w3.org/2000/svg">
<g opacity="0.7">
<path d="M131.655 124.628C128.929 121.726 120.285 115.409 105.69 104.472L97.0867 111.823C101.421 115.681 113.315 130.257 113.619 138.028C120.524 136.744 127.717 130.807 131.655 124.628Z" fill="#D5C6E6"/>
<path d="M138.353 68.8566C143.631 57.535 136.679 49.283 132.543 46.5722C130.969 52.7202 119.262 56.334 113.529 57.3895C100.597 58.8618 102.717 76.3545 115.473 70.5755C125.677 65.9523 134.978 67.5032 138.353 68.8566Z" fill="#D5C6E6"/>
<path d="M19.633 78.8138L6.93405 81.9994L9.39358 62.135L20.0168 66.4374L19.633 78.8138Z" fill="#D5C6E6"/>
<ellipse rx="4.43845" ry="9.96969" transform="matrix(0.964398 0.159871 -0.152066 1.0105 7.92405 72.0657)" fill="#D5C6E6"/>
<path d="M49.653 131.452L47.6124 143.371L33.1609 134.245L40.2423 126.742L49.653 131.452Z" fill="#D5C6E6"/>
<ellipse rx="3.90045" ry="8.85832" transform="matrix(0.529026 -0.868058 0.816627 0.548238 40.3018 139.011)" fill="#D5C6E6"/>
<path d="M90.862 11.2634C82.6999 1.66118 72.5867 5.37708 68.5503 8.43531C73.4809 12.3678 72.2219 25.3765 70.9622 31.4712C67.3017 44.8703 83.8748 49.5115 83.588 34.6276C83.3585 22.7204 88.3417 14.0901 90.862 11.2634Z" fill="#D5C6E6"/>
<path d="M26.5522 23.9084C29.4647 30.9881 42.0408 42.1407 47.9648 46.832L40.8583 55.8279C37.0736 52.2791 20.8015 46.3194 13.1385 43.7832C8.61311 26.7715 20.1954 23.4451 26.5522 23.9084Z" fill="#D5C6E6"/>
<path d="M116.796 35.1328C139.942 60.536 139.104 101.582 114.468 126.31C89.8314 151.037 51.0963 150.489 27.9508 125.085L24.6608 121.475C2.50437 97.157 3.66136 58.2549 27.245 34.5845L28.3536 33.4718C53.4307 8.30243 93.2365 9.27523 116.796 35.1328Z" fill="#D5C6E6"/>
<path d="M86.1877 146.762C85.8453 143.644 79.955 135.587 76.0425 121.683L67.4991 121.86C68.385 126.359 66.9537 142.055 63.6256 146.922C71.8269 154.525 81.6442 150.022 86.1877 146.762Z" fill="#D5C6E6"/>
<ellipse rx="3.99694" ry="11.6425" transform="matrix(0.0641365 1.01676 -0.978126 0.0679671 74.7772 147.371)" fill="#D5C6E6"/>
<ellipse rx="3.97737" ry="11.7003" transform="matrix(-0.957112 -0.198619 0.189197 -1.00433 14.4142 68.9269)" fill="#D5C6E6"/>
<ellipse rx="3.99283" ry="11.6547" transform="matrix(0.0043557 1.02002 -0.979232 0.00460627 72.4353 131.273)" fill="#D5C6E6"/>
<ellipse rx="5.04299" ry="6.45011" transform="matrix(-0.907379 0.400206 -0.374647 -0.935717 24.5808 105.577)" fill="#D5C6E6"/>
<ellipse rx="4.61396" ry="6.36815" transform="matrix(-0.334765 -0.952588 0.923109 -0.357359 61.4936 33.6023)" fill="#D5C6E6"/>
<ellipse rx="4.99822" ry="4.13701" transform="matrix(-0.534069 -0.845379 0.820844 -0.571247 57.4965 104.98)" fill="#D5C6E6"/>
<ellipse rx="4.66319" ry="6.38707" transform="matrix(-0.844718 -0.500807 0.482478 -0.89647 107.508 102.623)" fill="#D5C6E6"/>
<path d="M122.118 86.0496L135.552 84.1539L131.031 104.402L120.488 98.7911L122.118 86.0496Z" fill="#D5C6E6"/>
<ellipse rx="4.61678" ry="10.3308" transform="matrix(-0.942334 -0.260585 0.24881 -0.991153 133.54 94.3051)" fill="#D5C6E6"/>
<ellipse rx="4.61289" ry="6.46319" transform="matrix(-0.968555 0.168362 -0.158399 -1.00381 119.493 67.4549)" fill="#D5C6E6"/>
<ellipse rx="2.34517" ry="6.36586" transform="matrix(-0.672482 -0.729375 0.707304 -0.718378 32.5334 39.8387)" fill="#D5C6E6"/>
<ellipse rx="9.77686" ry="9.4936" transform="matrix(-0.534069 -0.845379 0.820844 -0.571247 50.0278 69.2423)" fill="#D5C6E6"/>
<ellipse rx="6.95256" ry="6.75113" transform="matrix(-0.534069 -0.845379 0.820844 -0.571247 88.5301 80.4348)" fill="#D5C6E6"/>
<path d="M100.898 20.61C99.2743 22.9795 98.5207 32.3898 92.9199 44.5225L98.9013 50.013C100.975 46.337 111.319 36.4827 116.511 35.3218C115.404 24.7051 105.967 21.3525 100.898 20.61Z" fill="#D5C6E6"/>
<ellipse rx="3.67064" ry="10.9621" transform="matrix(0.612212 -0.807312 0.757505 0.632796 109.108 27.6873)" fill="#D5C6E6"/>
<path d="M8.44112 107.259L32.1434 94.0453L36.5559 103.468L19.6689 125.077C14.2579 122.686 7.10215 111.427 8.44112 107.259Z" fill="#D5C6E6"/>
<path d="M48.7554 28.8474L44.4033 21.1008L63.9424 17.5418C63.5368 19.741 62.4566 24.525 61.3802 26.0675C60.3039 27.61 52.5152 28.5635 48.7554 28.8474Z" fill="#D5C6E6"/>
<ellipse rx="4.13862" ry="10.3296" transform="matrix(-0.223398 -0.989164 0.956154 -0.237879 54.268 18.647)" fill="#D5C6E6"/>
<ellipse rx="3.75927" ry="6.44903" transform="matrix(0.403849 -0.93666 0.885149 0.420408 97.4536 34.7631)" fill="#D5C6E6"/>
</g>
<g opacity="0.7">
<path d="M126.631 125.634C125.18 124.088 120.578 120.725 112.806 114.901L108.225 118.816C110.533 120.87 116.866 128.631 117.028 132.769C120.705 132.085 124.534 128.923 126.631 125.634Z" fill="#9A66A7"/>
<path d="M135.557 63.8388C138.254 58.0534 134.701 53.8366 132.588 52.4513C131.783 55.593 125.801 57.4397 122.872 57.9791C116.264 58.7314 117.347 67.6702 123.865 64.7171C129.079 62.3547 133.832 63.1472 135.557 63.8388Z" fill="#BA7BCA"/>
<path d="M19.6618 76.2831L12.7153 78.0257L14.0607 67.1596L19.8717 69.5131L19.6618 76.2831Z" fill="#90609C"/>
<ellipse rx="2.42788" ry="5.45352" transform="matrix(0.964398 0.159871 -0.152066 1.0105 13.2568 72.5923)" fill="#6D3584"/>
<path d="M49.032 129.179L47.7688 136.557L38.8232 130.908L43.2067 126.264L49.032 129.179Z" fill="#90609C"/>
<ellipse rx="2.41444" ry="5.48344" transform="matrix(0.529026 -0.868058 0.816627 0.548238 43.2425 133.858)" fill="#6D3584"/>
<path d="M85.4742 13.9846C81.3889 9.17853 76.3271 11.0384 74.3068 12.5691C76.7747 14.5374 76.1445 21.0484 75.514 24.099C73.6819 30.8055 81.977 33.1284 81.8335 25.6788C81.7186 19.7191 84.2128 15.3994 85.4742 13.9846Z" fill="#9E69AC"/>
<path d="M25.3882 29.6492C27.0575 33.7068 34.2653 40.0988 37.6606 42.7876L33.5876 47.9435C31.4184 45.9095 22.0923 42.4938 17.7003 41.0402C15.1067 31.2901 21.7449 29.3837 25.3882 29.6492Z" fill="#9D68AA"/>
<path d="M110.887 40.9589C130.992 63.0255 130.265 98.6805 108.865 120.16C87.4641 141.639 53.8169 141.163 33.7115 119.096L30.8536 115.96C11.6074 94.8363 12.6124 61.044 33.0984 40.4826L34.0614 39.5161C55.8446 17.6526 90.422 18.4977 110.887 40.9589Z" fill="url(#paint0_radial)"/>
<path d="M84.7089 140.035C84.4185 137.39 79.4213 130.555 76.102 118.759L68.854 118.909C69.6055 122.726 68.3912 136.042 65.5678 140.171C72.5256 146.621 80.8543 142.801 84.7089 140.035Z" fill="#9C67A9"/>
<ellipse rx="3.39091" ry="9.87724" transform="matrix(0.0641365 1.01676 -0.978126 0.0679671 75.028 140.552)" fill="#6D3584"/>
<ellipse rx="3.37432" ry="9.92629" transform="matrix(-0.957112 -0.198619 0.189197 -1.00433 23.8179 69.8918)" fill="#6D3584"/>
<ellipse rx="3.38743" ry="9.88758" transform="matrix(0.0043557 1.02002 -0.979232 0.00460627 73.0415 122.785)" fill="#6D3584"/>
<ellipse rx="4.27836" ry="5.47213" transform="matrix(-0.907379 0.400206 -0.374647 -0.935717 32.4433 100.985)" fill="#6D3584"/>
<ellipse rx="3.91438" ry="5.4026" transform="matrix(-0.334765 -0.952588 0.923109 -0.357359 63.7588 39.9231)" fill="#6D3584"/>
<ellipse rx="4.24038" ry="3.50975" transform="matrix(-0.534069 -0.845379 0.820844 -0.571247 60.3683 100.479)" fill="#6D3584"/>
<ellipse rx="3.95615" ry="5.41865" transform="matrix(-0.844718 -0.500807 0.482478 -0.89647 102.796 98.4789)" fill="#6D3584"/>
<path d="M122.472 88.6802L129.55 87.6814L127.168 98.3497L121.613 95.3935L122.472 88.6802Z" fill="#B97AC9"/>
<ellipse rx="2.43251" ry="5.44313" transform="matrix(-0.942334 -0.260585 0.24881 -0.991153 128.489 93.0297)" fill="#6D3584"/>
<ellipse rx="3.91347" ry="5.48323" transform="matrix(-0.968555 0.168362 -0.158399 -1.00381 112.964 68.6435)" fill="#6D3584"/>
<ellipse rx="1.98959" ry="5.40066" transform="matrix(-0.672482 -0.729375 0.707304 -0.718378 39.1899 45.2143)" fill="#6D3584"/>
<ellipse rx="8.29447" ry="8.05416" transform="matrix(-0.534069 -0.845379 0.820844 -0.571247 54.0315 70.1596)" fill="#6D3584"/>
<ellipse rx="5.8984" ry="5.72751" transform="matrix(-0.534069 -0.845379 0.820844 -0.571247 86.6958 79.6549)" fill="#6D3584"/>
<path d="M99.6014 28.3138C98.6428 29.7123 98.1981 35.2665 94.8924 42.4275L98.4227 45.6681C99.6466 43.4985 105.752 37.6822 108.816 36.997C108.163 30.7308 102.593 28.752 99.6014 28.3138Z" fill="#BA7BCA"/>
<ellipse rx="2.1665" ry="6.47008" transform="matrix(0.612212 -0.807312 0.757505 0.632796 104.447 32.4912)" fill="#6D3584"/>
<path d="M13.6835 108.763L25.4998 102.176L27.6995 106.874L19.2809 117.646C16.5833 116.454 13.016 110.841 13.6835 108.763Z" fill="#925F9F"/>
<path d="M53.8367 31.0529L51.1646 27.2694L61.1543 24.2892C61.0582 25.458 60.746 28.0118 60.2662 28.8772C59.7863 29.7426 55.7799 30.6882 53.8367 31.0529Z" fill="#A06AAD"/>
<ellipse rx="2.16974" ry="5.40334" transform="matrix(-0.320679 -0.958054 0.928156 -0.342231 56.1743 25.4227)" fill="#6D3584"/>
<ellipse rx="3.18928" ry="5.47121" transform="matrix(0.403849 -0.93666 0.885149 0.420408 94.2666 40.9081)" fill="#6D3584"/>
</g>
<defs>
<radialGradient id="paint0_radial" cx="0" cy="0" r="1" gradientUnits="userSpaceOnUse" gradientTransform="translate(121.544 44.0993) rotate(149.443) scale(117.98 120.877)">
<stop stop-color="#C17FD1"/>
<stop offset="1" stop-color="#90609C"/>
</radialGradient>
</defs>
</svg>
