<svg width="1374" height="883" viewBox="0 0 1374 883" fill="none" xmlns="http://www.w3.org/2000/svg">
<mask id="mask0" mask-type="alpha" maskUnits="userSpaceOnUse" x="0" y="0" width="1374" height="883">
<path opacity="0.5" d="M0.165039 0.988281C0.165039 0.988281 154.661 45.0595 267.022 61.25C433.744 85.2736 515.971 0.988281 682.433 0.988281C848.895 0.988281 930.875 83.3054 1097.84 61.25C1213.4 45.9855 1373.2 0.988281 1373.2 0.988281V882.665C1373.2 882.665 1216.15 830.216 1097.84 812.665C929.134 787.637 817.866 871.487 682.433 872.665C544.247 873.866 435.422 785.441 267.022 812.665C151.872 831.28 0.165039 882.665 0.165039 882.665V0.988281Z" fill="#F5F3F3" fill-opacity="0.7"/>
</mask>
<g mask="url(#mask0)">
<path d="M0.165039 0.988281C0.165039 0.988281 154.661 45.0595 267.022 61.25C433.744 85.2736 515.971 0.988281 682.433 0.988281C848.895 0.988281 930.875 83.3054 1097.84 61.25C1213.4 45.9855 1373.2 0.988281 1373.2 0.988281V882.665C1373.2 882.665 1216.15 830.216 1097.84 812.665C929.134 787.637 817.866 871.487 682.433 872.665C544.247 873.866 435.422 785.441 267.022 812.665C151.872 831.28 0.165039 882.665 0.165039 882.665V0.988281Z" fill="#F5F3F3" fill-opacity="0.7"/>
<path d="M124.262 165.362C-7.36284 392.871 168.299 627.713 127.996 711.384L16.2291 660.884L-302.712 -251.39L65.8241 -322.325C37.5614 -268.704 226.847 -11.9523 124.262 165.362Z" fill="url(#paint0_linear)"/>
<g opacity="0.5">
<circle r="18" transform="matrix(0.738152 0.675704 -0.674602 0.737203 417.529 142.288)" fill="#E2DBEA"/>
<circle r="37.75" transform="matrix(0.738152 0.675704 -0.674602 0.737203 375.315 55.1285)" fill="#E2DBEA"/>
<path d="M639.231 355.464C695.344 515.509 520.087 618.047 425.445 649.311L401.471 685.294C480.819 709.353 663.074 699.089 757.307 465.554C851.539 232.019 1607.82 686.192 2020.96 18.4857C1894.96 7.05828 1590.54 -25.4357 1380.92 -63.9926C1118.89 -112.189 569.091 155.408 639.231 355.464Z" fill="url(#paint1_linear)"/>
<path d="M1201.4 154.285C1017.75 209.004 922.027 222.903 893.624 165.485C878.253 134.41 940.057 94.7076 1010.78 64.5323C1070.73 38.9527 1137.09 20.2192 1168.28 19.3904C1255.84 41.556 1385.05 99.5668 1201.4 154.285Z" fill="#F9F8F8"/>
<g opacity="0.7">
<path d="M489.856 796.14C470.584 799.799 420.922 819.608 335.992 852.289L340.686 910.815C368.326 902.848 460.01 892.325 491.714 913.107C506.264 879.269 503.169 830.933 489.856 796.14Z" fill="#754FA6"/>
<rect width="722.757" height="690.753" rx="345.376" transform="matrix(0.155517 0.988079 -0.985038 0.170787 395.687 547.992)" fill="#754FA6"/>
<ellipse rx="24.9428" ry="35.537" transform="matrix(-0.887971 0.458581 -0.424724 -0.905955 319.121 840.957)" fill="#754FA6"/>
<path d="M302.806 726.299L332.887 664.605L397.537 739.827L346.861 768.532L302.806 726.299Z" fill="#754FA6"/>
<ellipse rx="22.396" ry="50.5317" transform="matrix(-0.744305 0.666753 -0.631371 -0.776404 366.001 701.254)" fill="#754FA6"/>
<ellipse rx="25.7345" ry="34.4748" transform="matrix(-0.404813 0.913826 -0.899206 -0.438801 205.043 676.042)" fill="#754FA6"/>
<ellipse rx="36.662" ry="38.0771" transform="matrix(-0.999893 -0.0145221 0.0131832 -0.999915 84.3141 829.795)" fill="#754FA6"/>
<path d="M-25.4506 639.838C-20.6106 653.849 15.0175 684.285 47.6194 744.009L86.8996 733.357C78.1064 713.595 68.3176 639.443 78.6058 613.13C32.7759 587.449 -7.86906 619.548 -25.4506 639.838Z" fill="#754FA6"/>
<ellipse rx="19.2514" ry="54.4483" transform="matrix(-0.282092 -0.959816 0.950958 -0.30788 26.6243 623.891)" fill="#754FA6"/>
<ellipse rx="20.8103" ry="34.6758" transform="matrix(-0.501766 -0.865745 0.842299 -0.537768 -3.11678 679.636)" fill="#754FA6"/>
<path d="M270.716 600.436C238.45 540.792 157.48 559.429 157.48 559.429C157.48 559.429 158.504 652.027 145.426 682.302C112.031 747.81 193.427 791.507 207.841 713.614C219.372 651.3 254.563 612.198 270.716 600.436Z" fill="#754FA6"/>
</g>
<circle r="26.5246" transform="matrix(0.738152 0.675704 -0.674602 0.737203 641.288 338.229)" fill="#C8AFE3"/>
</g>
<path d="M232.671 603.898C216.719 574.411 188.703 578.097 176.689 583.625C187.312 596.626 177.195 629.404 170.729 644.372C154.219 676.758 194.461 698.361 201.587 659.852C207.287 629.045 224.685 609.713 232.671 603.898Z" fill="#7C55AD"/>
<path d="M478.46 820.146C467.75 822.18 440.151 833.189 392.951 851.351L395.559 883.877C410.92 879.449 461.874 873.601 479.493 885.15C487.579 866.345 485.859 839.482 478.46 820.146Z" fill="#7D56AE"/>
<rect width="591.652" height="565.453" rx="282.727" transform="matrix(0.155517 0.988079 -0.985038 0.170787 364.122 592.054)" fill="url(#paint2_radial)"/>
<path d="M313.049 729.377L329.934 694.115L367.047 736.666L338.304 753.234L313.049 729.377Z" fill="#9B70D1"/>
<ellipse rx="20.4183" ry="29.0907" transform="matrix(-0.887971 0.458581 -0.424724 -0.905955 295.206 848.247)" fill="#491987"/>
<ellipse rx="12.758" ry="28.7655" transform="matrix(-0.739378 0.672211 -0.636986 -0.771806 348.937 714.839)" fill="#491987"/>
<ellipse rx="21.0663" ry="28.2213" transform="matrix(-0.404813 0.913826 -0.899206 -0.438801 201.821 713.249)" fill="#491987"/>
<ellipse rx="30.0117" ry="31.1701" transform="matrix(-0.999893 -0.0145221 0.0131832 -0.999915 102.991 839.11)" fill="#491987"/>
<path d="M-4.90148 654.447C-1.95572 662.974 19.7283 681.499 39.5707 717.848L63.4775 711.365C58.1258 699.337 52.168 654.207 58.4297 638.192C30.5365 622.562 5.79907 642.098 -4.90148 654.447Z" fill="#754FA6"/>
<ellipse rx="11.7169" ry="33.1385" transform="matrix(-0.282092 -0.959816 0.950958 -0.30788 26.7926 644.743)" fill="#491987"/>
<ellipse rx="17.0354" ry="28.3858" transform="matrix(-0.501766 -0.865745 0.842299 -0.537768 31.4206 716.19)" fill="#491987"/>
</g>
<defs>
<linearGradient id="paint0_linear" x1="33.1744" y1="-156.864" x2="45.711" y2="617.47" gradientUnits="userSpaceOnUse">
<stop stop-color="#E2DBEA"/>
<stop offset="1" stop-color="#E2DBEA" stop-opacity="0.67"/>
</linearGradient>
<linearGradient id="paint1_linear" x1="1419.39" y1="81.039" x2="412.24" y2="772.789" gradientUnits="userSpaceOnUse">
<stop stop-color="#E5DEEC"/>
<stop offset="1" stop-color="#E5DEEC" stop-opacity="0.65"/>
</linearGradient>
<radialGradient id="paint2_radial" cx="0" cy="0" r="1" gradientUnits="userSpaceOnUse" gradientTransform="translate(195.177 21.8391) rotate(72.0689) scale(392.908 394.254)">
<stop stop-color="#9B72D0"/>
<stop offset="1" stop-color="#754FA6"/>
</radialGradient>
</defs>
</svg>
