<svg width="1374" height="763" viewBox="0 0 1374 763" fill="none" xmlns="http://www.w3.org/2000/svg">
<mask id="mask0" mask-type="alpha" maskUnits="userSpaceOnUse" x="0" y="0" width="1374" height="763">
<path opacity="0.5" d="M0.851074 0.327637C0.851074 0.327637 155.347 44.3989 267.708 60.5894C434.43 84.613 516.657 0.327637 683.119 0.327637C849.581 0.327637 931.561 82.6448 1098.53 60.5894C1214.09 45.3248 1373.88 0.327637 1373.88 0.327637L1373.88 762.233C1373.88 762.233 1216.84 709.783 1098.53 692.233C929.82 667.205 818.552 751.055 683.119 752.233C544.933 753.434 436.108 665.009 267.708 692.233C152.558 710.848 0.851074 762.233 0.851074 762.233V0.327637Z" fill="#F5F3F3" fill-opacity="0.7"/>
</mask>
<g mask="url(#mask0)">
<path d="M0.851074 0.327637C0.851074 0.327637 155.347 44.3989 267.708 60.5894C434.43 84.613 516.657 0.327637 683.119 0.327637C849.581 0.327637 931.561 82.6448 1098.53 60.5894C1214.09 45.3248 1373.88 0.327637 1373.88 0.327637L1373.88 762.233C1373.88 762.233 1216.84 709.783 1098.53 692.233C929.82 667.205 818.552 751.055 683.119 752.233C544.933 753.434 436.108 665.009 267.708 692.233C152.558 710.848 0.851074 762.233 0.851074 762.233V0.327637Z" fill="#F5F3F3" fill-opacity="0.7"/>
<path d="M124.948 44.3643C-6.6773 271.873 168.984 506.715 128.681 590.385L16.9147 539.886L-302.026 -372.388L66.5096 -443.323C38.2469 -389.702 227.533 -132.95 124.948 44.3643Z" fill="url(#paint0_linear)"/>
<g opacity="0.5">
<circle r="18" transform="matrix(0.738152 0.675704 -0.674602 0.737203 418.214 21.2868)" fill="#E2DBEA"/>
<circle r="55.8101" transform="matrix(0.738152 0.675704 -0.674602 0.737203 273.175 29.6307)" fill="#E2DBEA"/>
<path d="M619.901 323.8C661.139 441.418 442.17 585.239 372.617 608.215L354.998 634.659C413.312 652.34 637.424 576.332 706.676 404.706C775.928 233.08 1241.55 635.319 1545.17 144.617C1452.57 136.219 1376.7 202.782 1074.8 84.0031C892.554 12.3005 568.355 176.777 619.901 323.8Z" fill="url(#paint1_linear)"/>
<path d="M942.87 244.417C807.906 284.63 737.559 294.845 716.685 252.648C705.388 229.811 750.809 200.633 802.783 178.457C846.841 159.659 895.609 145.891 918.528 145.282C982.877 161.572 1077.83 204.204 942.87 244.417Z" fill="#E9E8E8"/>
<g opacity="0.7">
<path d="M459.732 736.836C442.576 736.23 396.359 743.525 317.552 754.981L310.232 805.838C335.364 804.387 415.647 813.148 438.682 837.02C457.648 810.957 464.36 769.106 459.732 736.836Z" fill="#754FA6"/>
<rect width="632.486" height="604.479" rx="302.24" transform="matrix(-0.0668297 0.998008 -0.998418 -0.0512646 427.384 506.833)" fill="#754FA6"/>
<ellipse rx="21.8275" ry="31.0985" transform="matrix(-0.967395 0.250869 -0.213873 -0.977447 305.347 742.046)" fill="#754FA6"/>
<path d="M313.611 641.034L351.222 594.203L391.84 670.911L343.036 685.603L313.611 641.034Z" fill="#754FA6"/>
<ellipse rx="19.5988" ry="44.2204" transform="matrix(-0.87332 0.485657 -0.444052 -0.8968 372.391 631.889)" fill="#754FA6"/>
<ellipse rx="22.5203" ry="30.169" transform="matrix(-0.596868 0.801686 -0.779912 -0.626782 239.902 579.225)" fill="#754FA6"/>
<ellipse rx="32.083" ry="33.3214" transform="matrix(-0.971928 -0.235272 0.233971 -0.972245 107.114 687.081)" fill="#754FA6"/>
<path d="M50.1958 503.724C51.6153 516.617 76.1317 549.487 92.398 606.767L127.983 605.277C124.302 586.71 130.298 521.532 144.17 501.066C110.027 470.28 69.127 489.809 50.1958 503.724Z" fill="#754FA6"/>
<ellipse rx="16.8469" ry="47.6479" transform="matrix(-0.0628618 -0.998434 0.995498 -0.0899701 97.7244 500.19)" fill="#754FA6"/>
<ellipse rx="18.2112" ry="30.3449" transform="matrix(-0.297899 -0.955269 0.940365 -0.338194 61.5548 542.01)" fill="#754FA6"/>
<path d="M310.581 527.408C294.585 470.262 221.876 470.499 221.876 470.499C221.876 470.499 204.831 549.724 187.811 573.03C146.634 622.475 207.644 675.519 235.019 611.832C256.919 560.882 294.518 534.32 310.581 527.408Z" fill="#754FA6"/>
</g>
<circle r="26.5246" transform="matrix(0.738152 0.675704 -0.674602 0.737203 641.973 217.228)" fill="#C8AFE3"/>
</g>
<path d="M277.442 523.001C269.534 494.749 244.911 492.473 233.588 494.866C240.138 508.017 225.161 534.034 216.746 545.556C196.389 570.001 226.551 596.225 240.085 564.739C250.912 539.55 269.501 526.419 277.442 523.001Z" fill="#7C55AD"/>
<path d="M445.361 755.119C435.827 754.782 410.142 758.837 366.345 765.203L362.277 793.467C376.244 792.661 420.861 797.53 433.663 810.796C444.203 796.311 447.934 773.053 445.361 755.119Z" fill="#7D56AE"/>
<path d="M-25.7888 519.255C-53.9769 516.781 -65.7703 539.787 -68.1435 551.6C-53.8833 549.975 -36.7632 573.788 -29.888 586.057C-16.2973 614.512 18.9277 594.728 -3.61489 570.352C-21.649 550.851 -25.9117 528.162 -25.7888 519.255Z" fill="#754EA5"/>
<rect width="517.756" height="494.83" rx="247.415" transform="matrix(-0.0668297 0.998008 -0.998418 -0.0512646 391.919 538.331)" fill="url(#paint2_radial)"/>
<path d="M321.758 645.644L342.992 618.817L366.431 662.314L338.695 670.891L321.758 645.644Z" fill="#9B70D1"/>
<ellipse rx="17.4925" ry="25.6416" transform="matrix(-0.887007 -0.462488 0.441811 -0.896762 -23.2205 677.867)" fill="#491987"/>
<ellipse rx="17.8681" ry="25.4574" transform="matrix(-0.967395 0.250869 -0.213873 -0.977447 283.527 743.64)" fill="#491987"/>
<ellipse rx="11.1646" ry="25.1727" transform="matrix(-0.869722 0.492069 -0.450545 -0.893557 355.199 640.181)" fill="#491987"/>
<ellipse rx="18.4352" ry="24.6965" transform="matrix(-0.596868 0.801686 -0.779912 -0.626782 229.953 610.356)" fill="#491987"/>
<ellipse rx="26.2633" ry="27.2771" transform="matrix(-0.971928 -0.235272 0.233971 -0.972245 121.252 698.646)" fill="#491987"/>
<path d="M64.9067 520.168C65.7707 528.016 80.692 548.021 90.592 582.883L112.25 581.976C110.01 570.676 113.659 531.007 122.102 518.551C101.321 499.814 76.4287 511.7 64.9067 520.168Z" fill="#754FA6"/>
<ellipse rx="10.2534" ry="28.9996" transform="matrix(-0.0628618 -0.998434 0.995498 -0.0899701 93.8332 518.019)" fill="#491987"/>
<ellipse rx="14.9077" ry="24.8405" transform="matrix(-0.297899 -0.955269 0.940365 -0.338194 83.9569 579.891)" fill="#491987"/>
</g>
<defs>
<linearGradient id="paint0_linear" x1="45.2408" y1="-257.998" x2="46.367" y2="496.489" gradientUnits="userSpaceOnUse">
<stop stop-color="#E2DBEA"/>
<stop offset="1" stop-color="#E2DBEA" stop-opacity="0.67"/>
</linearGradient>
<linearGradient id="paint1_linear" x1="1103.08" y1="190.588" x2="362.913" y2="698.96" gradientUnits="userSpaceOnUse">
<stop stop-color="#E5DEEC"/>
<stop offset="1" stop-color="#E5DEEC" stop-opacity="0.65"/>
</linearGradient>
<radialGradient id="paint2_radial" cx="0" cy="0" r="1" gradientUnits="userSpaceOnUse" gradientTransform="translate(170.799 19.1115) rotate(72.0689) scale(343.835 345.013)">
<stop stop-color="#9B72D0"/>
<stop offset="1" stop-color="#754FA6"/>
</radialGradient>
</defs>
</svg>
